<?xml version="1.0"?>
<svg xmlns="http://www.w3.org/2000/svg" xmlns:xlink="http://www.w3.org/1999/xlink" width="196.497055" height="147.757599">
	<defs />
	<rect x="-0" y="-0" width="196.497055" height="147.757599" stroke="none" fill="#FFFFFF" />
	<path d="M -181.583 -139.68 L 181.583 -139.68, 272.375 139.68, -272.375 139.68 Z" fill="none" stroke="#000000" stroke-width="4.5999999" stroke-linecap="round" stroke-linejoin="round" transform="matrix(-1.01068e-007 -0.217391 0.217391 -1.01068e-007 88.3675 64.712)" />
	<g transform="matrix(-4.64912e-007 -1 1 -4.64912e-007 79.5617 80.2217)">
		<svg width="98.9999847" height="35.8877335">
			<defs />
			<path d="M 10.3302 8.20977 C 10.3302 8.86742, 10.2178 9.49988, 9.99287 10.1067, 9.76796 10.714, 9.42339 11.2619, 8.95872 11.7508, 8.52913 12.207, 8.02757 12.5659, 7.45449 12.8273, 6.88141 13.0891, 6.27594 13.2191, 5.63853 13.2191 L -0.00187877 13.2191, -0.00187877 12.6217 C 0.269818 12.6221, 0.529369 12.6185, 0.776326 12.6114, 1.02373 12.6042, 1.21131 12.579, 1.33951 12.5353, 1.40879 12.5119, 1.46321 12.4638, 1.5028 12.3918, 1.54238 12.3199, 1.56218 12.2429, 1.56218 12.1611 L 1.56218 4.04975 C 1.56218 3.96879, 1.54238 3.89186, 1.5028 3.81989, 1.46321 3.74792, 1.40879 3.69979, 1.33951 3.6755, 1.21131 3.63276, 1.02373 3.60892, 0.776326 3.60397, 0.529369 3.59948, 0.269818 3.59678, -0.00187877 3.59633 L -0.00187877 3.00615, 5.63853 3.00615 C 6.28583 3.0066, 6.89355 3.14245, 7.46169 3.41325, 8.03027 3.68449, 8.53183 4.0574, 8.96636 4.53197, 9.42609 5.04118, 9.76796 5.61201, 9.99287 6.24537, 10.2178 6.87873, 10.3302 7.53368, 10.3302 8.20977 Z M 8.66228 8.20977 C 8.66228 7.625, 8.61415 7.04337, 8.51788 6.46489, 8.42162 5.88686, 8.20075 5.36236, 7.85439 4.89183, 7.5485 4.47979, 7.1693 4.16086, 6.71722 3.93505, 6.26514 3.70968, 5.77483 3.59678, 5.24583 3.59633 L 3.71146 3.59633 C 3.5981 3.59678, 3.48205 3.59948, 3.36329 3.60397, 3.24454 3.60892, 3.15817 3.63051, 3.10374 3.6683, 3.05966 3.70249, 3.03357 3.75647, 3.02592 3.83069, 3.01872 3.90536, 3.01467 3.97823, 3.01467 4.04975 L 3.01467 12.1611 C 3.01467 12.2429, 3.01872 12.319, 3.02592 12.3882, 3.03357 12.458, 3.05966 12.5092, 3.10374 12.5425, 3.15817 12.5812, 3.24589 12.6042, 3.36689 12.6114, 3.4879 12.6185, 3.6026 12.6221, 3.71146 12.6217 L 5.24583 12.6217 C 5.75953 12.6221, 6.2449 12.5178, 6.70192 12.3091, 7.15895 12.1003, 7.5431 11.7945, 7.85439 11.391, 8.20525 10.9402, 8.42792 10.4391, 8.52148 9.88719, 8.6155 9.3357, 8.66228 8.77656, 8.66228 8.20977 Z" stroke="none" fill="#000000" />
			<path d="M 23.0675 13.2263 C 22.4548 13.193, 21.8646 13.1759, 21.2961 13.1759, 20.7279 13.1759, 20.1301 13.193, 19.5026 13.2263 L 19.5026 12.6217 C 19.7248 12.6221, 19.9286 12.6185, 20.1139 12.6114, 20.2992 12.6042, 20.4391 12.579, 20.5327 12.5353, 20.5921 12.507, 20.633 12.4566, 20.6551 12.3846, 20.6775 12.3127, 20.6883 12.2384, 20.6883 12.1611 L 20.6883 8.64881 C 20.6883 8.4095, 20.6735 8.18278, 20.6438 7.96912, 20.6141 7.7559, 20.5403 7.55752, 20.4216 7.37489, 20.3523 7.26018, 20.2525 7.17652, 20.1216 7.12344, 19.9907 7.07081, 19.8436 7.04427, 19.6803 7.04382, 19.3987 7.04427, 19.1369 7.10319, 18.8949 7.2206, 18.6529 7.33846, 18.4441 7.4968, 18.2687 7.69562, 18.0933 7.89489, 17.9538 8.12881, 17.8499 8.39735, 17.7465 8.66635, 17.6943 8.94659, 17.6943 9.23898 L 17.6943 12.1611 C 17.6943 12.2429, 17.7042 12.319, 17.724 12.3882, 17.7438 12.458, 17.7856 12.507, 17.8499 12.5353, 17.9439 12.579, 18.0834 12.6042, 18.2687 12.6114, 18.454 12.6185, 18.6578 12.6221, 18.88 12.6217 L 18.88 13.2263 C 18.2525 13.193, 17.6547 13.1759, 17.0861 13.1759, 16.5085 13.1759, 15.9179 13.193, 15.3151 13.2263 L 15.3151 12.6217 C 15.5373 12.6221, 15.7411 12.6185, 15.9264 12.6114, 16.1118 12.6042, 16.2517 12.579, 16.3452 12.5353, 16.3997 12.507, 16.4366 12.458, 16.4563 12.3882, 16.4761 12.319, 16.486 12.2429, 16.486 12.1611 L 16.486 8.64881 C 16.486 8.4095, 16.4725 8.18278, 16.4456 7.96912, 16.4186 7.7559, 16.3452 7.55752, 16.2265 7.37489, 16.1527 7.26018, 16.0502 7.17652, 15.9193 7.12344, 15.7884 7.07081, 15.6413 7.04427, 15.478 7.04382, 15.1964 7.04427, 14.9337 7.10319, 14.689 7.2206, 14.4443 7.33846, 14.2355 7.4968, 14.0624 7.69562, 13.8896 7.89489, 13.7511 8.12881, 13.6472 8.39735, 13.5437 8.66635, 13.4915 8.94659, 13.4915 9.23898 L 13.4915 12.1611 C 13.4915 12.2429, 13.5014 12.319, 13.5212 12.3882, 13.541 12.458, 13.5806 12.507, 13.64 12.5353, 13.734 12.579, 13.8748 12.6042, 14.0624 12.6114, 14.2504 12.6185, 14.4528 12.6221, 14.6701 12.6217 L 14.6701 13.2191 C 14.4182 13.2096, 14.1861 13.2024, 13.9737 13.1975, 13.7614 13.193, 13.5536 13.1858, 13.3507 13.1759 L 12.8838 13.1759 C 12.3058 13.1759, 11.7151 13.193, 11.1124 13.2263 L 11.1124 12.6217 C 11.335 12.6221, 11.5388 12.6185, 11.7241 12.6114, 11.9095 12.6042, 12.0494 12.579, 12.1429 12.5353, 12.2023 12.507, 12.2414 12.458, 12.2612 12.3882, 12.281 12.319, 12.2909 12.2429, 12.2909 12.1611 L 12.2909 8.07303 C 12.2909 7.93898, 12.2851 7.81707, 12.2725 7.70642, 12.2603 7.59621, 12.2122 7.50714, 12.1281 7.43967, 12.0444 7.38254, 11.9086 7.34925, 11.7205 7.33935, 11.5325 7.32991, 11.3301 7.32496, 11.1124 7.32451 L 11.1124 6.72714, 12.3872 6.63357, 13.4101 6.5544, 13.4101 7.79233 C 13.5041 7.57192, 13.7475 7.31192, 14.1402 7.01188, 14.5333 6.71229, 14.994 6.56205, 15.5225 6.5616, 15.7996 6.56205, 16.0848 6.59444, 16.3785 6.65921, 16.6727 6.72399, 16.9309 6.86434, 17.1531 7.0798, 17.3016 7.2242, 17.414 7.38164, 17.4905 7.55167, 17.567 7.72216, 17.6052 7.81437, 17.6052 7.82832, 17.7388 7.54088, 17.9984 7.25794, 18.3834 6.97949, 18.7689 6.7015, 19.2138 6.56205, 19.7176 6.5616, 19.9943 6.56205, 20.2821 6.59444, 20.5808 6.65921, 20.88 6.72399, 21.1409 6.86434, 21.3631 7.08025, 21.5853 7.29617, 21.7301 7.54448, 21.7967 7.82517, 21.8633 8.10586, 21.8966 8.38071, 21.8966 8.64881 L 21.8966 12.1611 C 21.8966 12.2429, 21.9065 12.319, 21.9263 12.3882, 21.9461 12.458, 21.9883 12.507, 22.0522 12.5353, 22.1462 12.579, 22.2857 12.6042, 22.471 12.6114, 22.6563 12.6185, 22.8552 12.6221, 23.0675 12.6217 L 23.0675 13.2263 Z" stroke="none" fill="#000000" />
			<path d="M 31.1 13.2263 C 30.6012 13.193, 30.1343 13.1759, 29.6993 13.1759 L 29.4919 13.1759 C 28.9782 13.1858, 28.4371 13.2002, 27.8685 13.2191 L 27.8685 12.6217 C 27.9872 12.6221, 28.0853 12.6105, 28.1618 12.5862, 28.2382 12.5623, 28.2963 12.5236, 28.3354 12.4706, 28.3849 12.4229, 28.4123 12.3774, 28.4173 12.3338, 28.4173 12.2911, 28.4002 12.2479, 28.3651 12.2043 L 27.0017 10.4769, 25.9194 11.8012 C 25.8456 11.8831, 25.7961 11.9721, 25.7714 12.0675, 25.7615 12.1111, 25.7565 12.1615, 25.7565 12.2187, 25.7565 12.2623, 25.7615 12.3127, 25.7714 12.3698, 25.811 12.538, 25.9518 12.6221, 26.1938 12.6217 L 26.1938 13.2191 C 25.69 13.2002, 25.2154 13.1858, 24.7705 13.1759 L 24.5703 13.1759 C 24.1853 13.1759, 23.7728 13.193, 23.3328 13.2263 L 23.3328 12.6217 C 23.7777 12.6221, 24.1556 12.5452, 24.4669 12.3914, 24.6297 12.3199, 24.7831 12.2227, 24.9261 12.1003, 25.0696 11.978, 25.2005 11.8498, 25.3188 11.7148 L 26.6755 10.0667, 24.9113 7.82832 C 24.8375 7.74735, 24.7597 7.66593, 24.6778 7.58406, 24.5964 7.50264, 24.5065 7.44237, 24.4075 7.40368, 24.2941 7.36095, 24.152 7.33711, 23.9815 7.33216, 23.811 7.32766, 23.6194 7.32496, 23.4071 7.32451 L 23.4071 6.71274 C 23.9109 6.75638, 24.3953 6.78022, 24.8596 6.78472, 24.9041 6.78517, 24.9585 6.77797, 25.0224 6.76312, 25.5415 6.76357, 26.0849 6.74693, 26.653 6.71274 L 26.653 7.32451 C 26.4209 7.32496, 26.2554 7.37534, 26.1564 7.47565, 26.1123 7.52873, 26.0898 7.57686, 26.0898 7.6196, 26.0898 7.66323, 26.1047 7.70417, 26.1344 7.74195 L 27.335 9.26057, 28.2468 8.1522 C 28.3705 8.01365, 28.4321 7.86476, 28.4321 7.70597, 28.4321 7.66323, 28.4272 7.6223, 28.4173 7.58361, 28.3925 7.51209, 28.348 7.45091, 28.2837 7.40053, 28.2198 7.35015, 28.1208 7.32496, 27.9872 7.32451 L 27.9872 6.71274 C 28.4915 6.74693, 28.971 6.76357, 29.4253 6.76312, 29.4748 6.77302, 29.5216 6.78022, 29.5661 6.78472, 29.9566 6.78517, 30.3812 6.76132, 30.8409 6.71274 L 30.8409 7.32451 C 30.3965 7.32496, 30.016 7.40188, 29.6993 7.55482, 29.5315 7.63219, 29.3772 7.72936, 29.2364 7.84676, 29.0956 7.96462, 28.9683 8.09507, 28.8545 8.23856 L 27.6759 9.67082, 29.5954 12.1179 C 29.67 12.2097, 29.7452 12.2924, 29.8216 12.3666, 29.8981 12.4413, 29.9908 12.4975, 30.0996 12.5353, 30.2134 12.579, 30.3556 12.6042, 30.5261 12.6114, 30.6966 12.6185, 30.8877 12.6221, 31.1 12.6217 L 31.1 13.2263 Z" stroke="none" fill="#000000" />
			<rect />
		</svg>
	</g>
	<path d="M 113.681 -6.10352e-005 L -113.68 -6.10352e-005" fill="none" stroke="#000000" stroke-width="4.5999999" stroke-linecap="round" stroke-linejoin="round" transform="matrix(0.217391 0 0 0.217391 143.446 58.6008)" />
	<path d="M 113.681 0 L -113.681 0.000244141" fill="none" stroke="#000000" stroke-width="4.5999999" stroke-linecap="round" stroke-linejoin="round" transform="matrix(0.217391 0 0 0.217391 143.446 71.7026)" />
	<path d="M 113.681 -0.000244141 L -113.681 -0.000183105" fill="none" stroke="#000000" stroke-width="4.5999999" stroke-linecap="round" stroke-linejoin="round" transform="matrix(0.217391 0 0 0.217391 143.446 84.4805)" />
	<path d="M 113.681 0.000152588 L -113.681 0.000152588" fill="none" stroke="#000000" stroke-width="4.5999999" stroke-linecap="round" stroke-linejoin="round" transform="matrix(0.217391 0 0 0.217391 143.446 45.7767)" />
	<path d="M -0.00012207 59.3853 L -0.000244141 -59.3853" fill="none" stroke="#000000" stroke-width="4.5999999" stroke-linecap="round" stroke-linejoin="round" transform="matrix(0.217391 0 0 0.217391 87.0201 126.348)" />
	<path d="M 80.5367 0 L -80.5362 -0.000183105" fill="none" stroke="#000000" stroke-width="4.5999999" stroke-linecap="round" stroke-linejoin="round" transform="matrix(0.217391 0 0 0.217391 40.4945 64.712)" />
	<g transform="matrix(1 -3.01992e-007 3.01992e-007 1 172.558 36.9254)">
		<svg width="50.9999924" height="41.8799934">
			<defs />
			<path d="M 10.7457 8.23856 C 10.5775 8.88677, 10.3121 9.51293, 9.94865 10.1175, 9.58563 10.7221, 9.12996 11.2713, 8.58117 11.7652, 8.08185 12.2119, 7.53351 12.5682, 6.93524 12.8345, 6.33742 13.1008, 5.7396 13.2335, 5.14132 13.2335 L 0.211646 13.2335 C 0.0784966 13.2335, 0.0069738 13.1714, -0.00337227 13.0463 L -0.00337227 12.9888, 0.0263165 12.8664 C 0.0659014 12.7085, 0.162165 12.6316, 0.315107 12.6361, 0.547668 12.6365, 0.767635 12.6329, 0.975006 12.6257, 1.18283 12.6185, 1.33577 12.5934, 1.43473 12.5497, 1.52875 12.4975, 1.60027 12.368, 1.64975 12.1611 L 3.73291 4.04976 C 3.7626 3.94449, 3.77699 3.86308, 3.77699 3.80505, 3.77699 3.74792, 3.76485 3.71418, 3.74011 3.70429, 3.67083 3.66155, 3.53633 3.63546, 3.33616 3.62557, 3.13598 3.61612, 2.91737 3.61117, 2.67986 3.61072, 2.54176 3.61117, 2.47249 3.5464, 2.47249 3.4164 L 2.47249 3.35882, 2.51702 3.23646 C 2.54671 3.09297, 2.63847 3.021, 2.79142 3.02055 L 7.73594 3.02055 C 8.3486 3.021, 8.88255 3.16269, 9.33733 3.44563, 9.7921 3.72903, 10.1578 4.10058, 10.4345 4.56076, 10.7309 5.07941, 10.8987 5.65519, 10.9383 6.2881, 10.9482 6.42305, 10.9531 6.54766, 10.9531 6.66236, 10.9531 7.17607, 10.8843 7.70147, 10.7457 8.23856 Z M 9.31484 4.89184 C 9.14705 4.49419, 8.8839 4.1811, 8.52539 3.95304, 8.16732 3.72543, 7.74853 3.61117, 7.26901 3.61072 L 5.67482 3.61072 C 5.42292 3.61117, 5.27222 3.63051, 5.22274 3.66875, 5.17326 3.70743, 5.12153 3.84373, 5.0671 4.07854 L 2.9691 12.1899 C 2.92951 12.3536, 2.90972 12.471, 2.90972 12.5425 L 2.90972 12.6001 C 2.92951 12.6199, 3.06086 12.6316, 3.30287 12.6361 L 4.89662 12.6361 C 5.38108 12.6365, 5.8642 12.5277, 6.34596 12.3091, 6.82818 12.0909, 7.25912 11.7873, 7.63967 11.3982, 8.07466 10.9474, 8.40843 10.445, 8.64054 9.89079, 8.87265 9.3366, 9.05798 8.77656, 9.19608 8.20977, 9.34947 7.62005, 9.45563 7.03707, 9.51501 6.46084, 9.52491 6.32679, 9.52985 6.19724, 9.52985 6.07219, 9.52985 5.65025, 9.45833 5.2571, 9.31484 4.89184 Z" stroke="none" fill="#000000" />
			<path d="M 2.24096 -0.293176 C 2.24096 0.0940011, 2.214 0.478911, 2.1601 0.861805, 2.10619 1.2447, 1.97268 1.60417, 1.75957 1.9397, 1.60742 2.18455, 1.40388 2.37248, 1.14946 2.50397, 0.895033 2.63572, 0.618191 2.70146, 0.31918 2.70146, 0.0315055 2.70146, -0.240299 2.63572, -0.496234 2.50397, -0.752169 2.37248, -0.956463 2.18455, -1.10861 1.9397, -1.32147 1.60417, -1.45498 1.2447, -1.50889 0.861805, -1.5628 0.478911, -1.59 0.0940011, -1.59 -0.293176, -1.59 -0.685139, -1.5628 -1.07685, -1.50889 -1.46781, -1.45498 -1.85876, -1.32147 -2.22478, -1.10861 -2.56636, -0.956463 -2.81323, -0.752924 -3.00543, -0.498501 -3.14247, -0.243826 -3.2795, 0.0287346 -3.34802, 0.31918 -3.34827, 0.61542 -3.34802, 0.891255 -3.2795, 1.14719 -3.14247, 1.40312 -3.00543, 1.60742 -2.81323, 1.75957 -2.56636, 1.97268 -2.22478, 2.10619 -1.85876, 2.1601 -1.46781, 2.214 -1.07685, 2.24096 -0.685139, 2.24096 -0.293176 Z M 1.41899 -0.434242 C 1.41899 -0.60327, 1.41773 -0.78187, 1.41496 -0.970043, 1.41244 -1.15796, 1.40539 -1.34211, 1.39431 -1.52222, 1.38322 -1.70208, 1.36332 -1.87211, 1.3341 -2.03207, 1.30513 -2.19178, 1.26987 -2.32831, 1.2283 -2.44142, 1.14517 -2.62379, 1.0235 -2.77368, 0.863042 -2.89056, 0.702579 -3.00744, 0.521207 -3.06589, 0.31918 -3.06614, 0.122695 -3.06589, -0.0548977 -3.00669, -0.214101 -2.88855, -0.373053 -2.77015, -0.494219 -2.62128, -0.577347 -2.44142, -0.618659 -2.32831, -0.653926 -2.19178, -0.683147 -2.03207, -0.712116 -1.87211, -0.732268 -1.70208, -0.743352 -1.52222, -0.754436 -1.34211, -0.761237 -1.15796, -0.764008 -0.970043, -0.766779 -0.78187, -0.768291 -0.60327, -0.768291 -0.434242, -0.768291 -0.245818, -0.766779 -0.047569, -0.764008 0.160504, -0.761237 0.368829, -0.754436 0.570352, -0.743352 0.765074, -0.732268 0.960048, -0.712116 1.14469, -0.683147 1.31926, -0.653926 1.49409, -0.618659 1.64044, -0.577347 1.75833, -0.499761 1.95482, -0.379854 2.11604, -0.218132 2.24224, -0.0564091 2.3687, 0.122695 2.43167, 0.31918 2.43142, 0.523978 2.43167, 0.707365 2.3687, 0.869087 2.24224, 1.03106 2.11604, 1.15072 1.95482, 1.2283 1.75833, 1.26987 1.64044, 1.30513 1.49409, 1.3341 1.31926, 1.36332 1.14469, 1.38322 0.960048, 1.39431 0.765074, 1.40539 0.570352, 1.41244 0.368829, 1.41496 0.160504, 1.41773 -0.047569, 1.41899 -0.245818, 1.41899 -0.434242 Z" stroke="none" fill="#000000" transform="matrix(1.12 0 0 1 13.3152 12.8121)" />
			<rect />
		</svg>
	</g>
	<g transform="matrix(1 -3.01992e-007 3.01992e-007 1 173.004 49.703)">
		<svg width="48.0461464" height="41.8799934">
			<defs />
			<path d="M 10.7457 8.23856 C 10.5775 8.88677, 10.3121 9.51293, 9.94865 10.1175, 9.58563 10.7221, 9.12996 11.2713, 8.58117 11.7652, 8.08185 12.2119, 7.53351 12.5682, 6.93524 12.8345, 6.33742 13.1008, 5.7396 13.2335, 5.14132 13.2335 L 0.211646 13.2335 C 0.0784966 13.2335, 0.0069738 13.1714, -0.00337227 13.0463 L -0.00337227 12.9888, 0.0263165 12.8664 C 0.0659014 12.7085, 0.162165 12.6316, 0.315107 12.6361, 0.547668 12.6365, 0.767635 12.6329, 0.975006 12.6257, 1.18283 12.6185, 1.33577 12.5934, 1.43473 12.5497, 1.52875 12.4975, 1.60027 12.368, 1.64975 12.1611 L 3.73291 4.04976 C 3.7626 3.94449, 3.77699 3.86308, 3.77699 3.80505, 3.77699 3.74792, 3.76485 3.71418, 3.74011 3.70429, 3.67083 3.66155, 3.53633 3.63546, 3.33616 3.62557, 3.13598 3.61612, 2.91737 3.61117, 2.67986 3.61072, 2.54176 3.61117, 2.47249 3.5464, 2.47249 3.4164 L 2.47249 3.35882, 2.51702 3.23646 C 2.54671 3.09297, 2.63847 3.021, 2.79142 3.02055 L 7.73594 3.02055 C 8.3486 3.021, 8.88255 3.16269, 9.33733 3.44563, 9.7921 3.72903, 10.1578 4.10058, 10.4345 4.56076, 10.7309 5.07941, 10.8987 5.65519, 10.9383 6.2881, 10.9482 6.42305, 10.9531 6.54766, 10.9531 6.66236, 10.9531 7.17607, 10.8843 7.70147, 10.7457 8.23856 Z M 9.31484 4.89184 C 9.14705 4.49419, 8.8839 4.1811, 8.52539 3.95304, 8.16732 3.72543, 7.74853 3.61117, 7.26901 3.61072 L 5.67482 3.61072 C 5.42292 3.61117, 5.27222 3.63051, 5.22274 3.66875, 5.17326 3.70743, 5.12153 3.84373, 5.0671 4.07854 L 2.9691 12.1899 C 2.92951 12.3536, 2.90972 12.471, 2.90972 12.5425 L 2.90972 12.6001 C 2.92951 12.6199, 3.06086 12.6316, 3.30287 12.6361 L 4.89662 12.6361 C 5.38108 12.6365, 5.8642 12.5277, 6.34596 12.3091, 6.82818 12.0909, 7.25912 11.7873, 7.63967 11.3982, 8.07466 10.9474, 8.40843 10.445, 8.64054 9.89079, 8.87265 9.3366, 9.05798 8.77656, 9.19608 8.20977, 9.34947 7.62005, 9.45563 7.03707, 9.51501 6.46084, 9.52491 6.32679, 9.52985 6.19724, 9.52985 6.07219, 9.52985 5.65025, 9.45833 5.2571, 9.31484 4.89184 Z" stroke="none" fill="#000000" />
			<path d="M 1.86424 2.51203 C 1.35514 2.49591, 0.859898 2.48785, 0.378257 2.48785, -0.103133 2.48785, -0.598376 2.49591, -1.10748 2.51203 L -1.10748 2.16541, -0.82106 2.16541 C -0.72987 2.16566, -0.643971 2.1644, -0.563866 2.16163, -0.483508 2.15911, -0.407433 2.15231, -0.335388 2.14148, -0.263344 2.1309, -0.201123 2.12007, -0.148727 2.10898, -0.104392 2.10117, -0.067866 2.07649, -0.0388969 2.03467, -0.0096761 1.99311, 0.00468242 1.94676, 0.00468242 1.89537 L 0.00468242 -2.64697 C -0.133361 -2.57946, -0.303648 -2.52832, -0.505676 -2.49356, -0.707703 -2.45855, -0.928875 -2.44116, -1.1697 -2.44142 L -1.1697 -2.78401 C -0.837685 -2.78375, -0.531118 -2.8233, -0.250245 -2.90265, 0.0306287 -2.98175, 0.273464 -3.13037, 0.478011 -3.34827 L 0.606734 -3.34827 C 0.697923 -3.34802, 0.743518 -3.30368, 0.743518 -3.21527 L 0.743518 1.89537 C 0.743518 1.94928, 0.757372 1.99638, 0.785082 2.03669, 0.812791 2.07699, 0.853096 2.10117, 0.905492 2.10898, 0.949827 2.12007, 1.00676 2.1309, 1.07578 2.14148, 1.1448 2.15231, 1.22289 2.15911, 1.31005 2.16163, 1.39721 2.1644, 1.48235 2.16566, 1.56548 2.16541 L 1.86424 2.16541, 1.86424 2.51203 Z" stroke="none" fill="#000000" transform="matrix(1.12 0 0 1 12.8917 12.8121)" />
			<rect />
		</svg>
	</g>
	<g transform="matrix(1 -3.01992e-007 3.01992e-007 1 172.662 62.8049)">
		<svg width="50.9999924" height="41.8799934">
			<defs />
			<path d="M 10.7457 8.23856 C 10.5775 8.88677, 10.3121 9.51293, 9.94865 10.1175, 9.58563 10.7221, 9.12996 11.2713, 8.58117 11.7652, 8.08185 12.2119, 7.53351 12.5682, 6.93524 12.8345, 6.33742 13.1008, 5.7396 13.2335, 5.14132 13.2335 L 0.211646 13.2335 C 0.0784966 13.2335, 0.0069738 13.1714, -0.00337227 13.0463 L -0.00337227 12.9888, 0.0263165 12.8664 C 0.0659014 12.7085, 0.162165 12.6316, 0.315107 12.6361, 0.547668 12.6365, 0.767635 12.6329, 0.975006 12.6257, 1.18283 12.6185, 1.33577 12.5934, 1.43473 12.5497, 1.52875 12.4975, 1.60027 12.368, 1.64975 12.1611 L 3.73291 4.04976 C 3.7626 3.94449, 3.77699 3.86308, 3.77699 3.80505, 3.77699 3.74792, 3.76485 3.71418, 3.74011 3.70429, 3.67083 3.66155, 3.53633 3.63546, 3.33616 3.62557, 3.13598 3.61612, 2.91737 3.61117, 2.67986 3.61072, 2.54176 3.61117, 2.47249 3.5464, 2.47249 3.4164 L 2.47249 3.35882, 2.51702 3.23646 C 2.54671 3.09297, 2.63847 3.021, 2.79142 3.02055 L 7.73594 3.02055 C 8.3486 3.021, 8.88255 3.16269, 9.33733 3.44563, 9.7921 3.72903, 10.1578 4.10058, 10.4345 4.56076, 10.7309 5.07941, 10.8987 5.65519, 10.9383 6.2881, 10.9482 6.42305, 10.9531 6.54766, 10.9531 6.66236, 10.9531 7.17607, 10.8843 7.70147, 10.7457 8.23856 Z M 9.31484 4.89184 C 9.14705 4.49419, 8.8839 4.1811, 8.52539 3.95304, 8.16732 3.72543, 7.74853 3.61117, 7.26901 3.61072 L 5.67482 3.61072 C 5.42292 3.61117, 5.27222 3.63051, 5.22274 3.66875, 5.17326 3.70743, 5.12153 3.84373, 5.0671 4.07854 L 2.9691 12.1899 C 2.92951 12.3536, 2.90972 12.471, 2.90972 12.5425 L 2.90972 12.6001 C 2.92951 12.6199, 3.06086 12.6316, 3.30287 12.6361 L 4.89662 12.6361 C 5.38108 12.6365, 5.8642 12.5277, 6.34596 12.3091, 6.82818 12.0909, 7.25912 11.7873, 7.63967 11.3982, 8.07466 10.9474, 8.40843 10.445, 8.64054 9.89079, 8.87265 9.3366, 9.05798 8.77656, 9.19608 8.20977, 9.34947 7.62005, 9.45563 7.03707, 9.51501 6.46084, 9.52491 6.32679, 9.52985 6.19724, 9.52985 6.07219, 9.52985 5.65025, 9.45833 5.2571, 9.31484 4.89184 Z" stroke="none" fill="#000000" />
			<path d="M 1.87885 2.51203 L -1.50019 2.51203, -1.50019 2.29035 C -1.50019 2.27448, -1.49188 2.2503, -1.47526 2.21781 L -0.117743 0.742655 C 0.0427202 0.565566, 0.205198 0.384195, 0.369944 0.198793, 0.534689 0.0133917, 0.682305 -0.17604, 0.812288 -0.369503, 0.94227 -0.562965, 1.04606 -0.762474, 1.12364 -0.968027, 1.20123 -1.17358, 1.23977 -1.38921, 1.23977 -1.61517, 1.23977 -1.80561, 1.21483 -1.98371, 1.16495 -2.14895, 1.11508 -2.3142, 1.04328 -2.4593, 0.949072 -2.58425, 0.855112 -2.70919, 0.737472 -2.80995, 0.596406 -2.88653, 0.455339 -2.96311, 0.291853 -3.0014, 0.106452 -3.00165, -0.170139 -3.0014, -0.414486 -2.91877, -0.626338 -2.75353, -0.837937 -2.58828, -0.9785 -2.40615, -1.04777 -2.20765, -1.06138 -2.20211, -1.03921 -2.19934, -0.981271 -2.19959 L -0.910738 -2.19959 C -0.827609 -2.18044, -0.755816 -2.15147, -0.694856 -2.11268, -0.633895 -2.07364, -0.582758 -2.01998, -0.541194 -1.95146, -0.49963 -1.88294, -0.478974 -1.80032, -0.478974 -1.70384, -0.478974 -1.54237, -0.53137 -1.41868, -0.636666 -1.33278, -0.741962 -1.24663, -0.859601 -1.20381, -0.989584 -1.20406, -1.11402 -1.20381, -1.2304 -1.24663, -1.33822 -1.33278, -1.44603 -1.41868, -1.50019 -1.54237, -1.50019 -1.70384, -1.50019 -1.92929, -1.45586 -2.14291, -1.36719 -2.34443, -1.27852 -2.54596, -1.15836 -2.72053, -1.00621 -2.86839, -0.854059 -3.01601, -0.674199 -3.13289, -0.46663 -3.21904, -0.259061 -3.30494, -0.0388968 -3.34802, 0.193611 -3.34827, 0.481537 -3.34802, 0.745281 -3.3057, 0.98459 -3.22106, 1.2239 -3.13642, 1.42794 -3.01475, 1.59672 -2.8563, 1.76549 -2.6976, 1.89774 -2.51422, 1.99322 -2.30614, 2.08869 -2.09782, 2.1363 -1.86758, 2.1363 -1.61517, 2.1363 -1.33556, 2.07282 -1.07811, 1.94535 -0.843083, 1.81814 -0.607804, 1.66045 -0.392174, 1.47228 -0.196193, 1.2841 4.07696e-005, 1.08409 0.184687, 0.872241 0.357997, 0.660641 0.531307, 0.468942 0.699831, 0.297395 0.863569 L -0.657574 1.76236, 0.592124 1.76236 C 0.766441 1.76262, 0.929171 1.76136, 1.07981 1.75858, 1.2307 1.75607, 1.35867 1.75052, 1.46396 1.74246, 1.56926 1.7344, 1.62317 1.72911, 1.62569 1.72609, 1.64785 1.70745, 1.66876 1.66991, 1.68816 1.61349, 1.70756 1.55706, 1.72544 1.49056, 1.74207 1.41398, 1.75869 1.3374, 1.77532 1.25956, 1.79194 1.18021, 1.80857 1.10111, 1.82368 1.01421, 1.83754 0.919995 L 2.14461 0.919995 Z" stroke="none" fill="#000000" transform="matrix(1.12 0 0 1 13.2237 12.8121)" />
			<rect />
		</svg>
	</g>
	<g transform="matrix(1 -3.01992e-007 3.01992e-007 1 172.586 75.629)">
		<svg width="50.9999924" height="41.8799934">
			<defs />
			<path d="M 10.7457 8.23856 C 10.5775 8.88677, 10.3121 9.51293, 9.94865 10.1175, 9.58563 10.7221, 9.12996 11.2713, 8.58117 11.7652, 8.08185 12.2119, 7.53351 12.5682, 6.93524 12.8345, 6.33742 13.1008, 5.7396 13.2335, 5.14132 13.2335 L 0.211646 13.2335 C 0.0784966 13.2335, 0.0069738 13.1714, -0.00337227 13.0463 L -0.00337227 12.9888, 0.0263165 12.8664 C 0.0659014 12.7085, 0.162165 12.6316, 0.315107 12.6361, 0.547668 12.6365, 0.767635 12.6329, 0.975006 12.6257, 1.18283 12.6185, 1.33577 12.5934, 1.43473 12.5497, 1.52875 12.4975, 1.60027 12.368, 1.64975 12.1611 L 3.73291 4.04976 C 3.7626 3.94449, 3.77699 3.86308, 3.77699 3.80505, 3.77699 3.74792, 3.76485 3.71418, 3.74011 3.70429, 3.67083 3.66155, 3.53633 3.63546, 3.33616 3.62557, 3.13598 3.61612, 2.91737 3.61117, 2.67986 3.61072, 2.54176 3.61117, 2.47249 3.5464, 2.47249 3.4164 L 2.47249 3.35882, 2.51702 3.23646 C 2.54671 3.09297, 2.63847 3.021, 2.79142 3.02055 L 7.73594 3.02055 C 8.3486 3.021, 8.88255 3.16269, 9.33733 3.44563, 9.7921 3.72903, 10.1578 4.10058, 10.4345 4.56076, 10.7309 5.07941, 10.8987 5.65519, 10.9383 6.2881, 10.9482 6.42305, 10.9531 6.54766, 10.9531 6.66236, 10.9531 7.17607, 10.8843 7.70147, 10.7457 8.23856 Z M 9.31484 4.89184 C 9.14705 4.49419, 8.8839 4.1811, 8.52539 3.95304, 8.16732 3.72543, 7.74853 3.61117, 7.26901 3.61072 L 5.67482 3.61072 C 5.42292 3.61117, 5.27222 3.63051, 5.22274 3.66875, 5.17326 3.70743, 5.12153 3.84373, 5.0671 4.07854 L 2.9691 12.1899 C 2.92951 12.3536, 2.90972 12.471, 2.90972 12.5425 L 2.90972 12.6001 C 2.92951 12.6199, 3.06086 12.6316, 3.30287 12.6361 L 4.89662 12.6361 C 5.38108 12.6365, 5.8642 12.5277, 6.34596 12.3091, 6.82818 12.0909, 7.25912 11.7873, 7.63967 11.3982, 8.07466 10.9474, 8.40843 10.445, 8.64054 9.89079, 8.87265 9.3366, 9.05798 8.77656, 9.19608 8.20977, 9.34947 7.62005, 9.45563 7.03707, 9.51501 6.46084, 9.52491 6.32679, 9.52985 6.19724, 9.52985 6.07219, 9.52985 5.65025, 9.45833 5.2571, 9.31484 4.89184 Z" stroke="none" fill="#000000" />
			<path d="M 2.21517 0.992544 C 2.21517 1.22379, 2.16404 1.44572, 2.06176 1.65782, 1.95949 1.87018, 1.82245 2.05155, 1.65066 2.20168, 1.45719 2.37122, 1.24333 2.49666, 1.00956 2.57853, 0.775792 2.66065, 0.531445 2.70146, 0.27677 2.70146, 0.0472851 2.70146, -0.176658 2.66922, -0.395311 2.60473, -0.613964 2.54024, -0.810953 2.44779, -0.986782 2.32688, -1.16261 2.20597, -1.30292 2.0576, -1.40822 1.88151, -1.51326 1.70568, -1.56591 1.50341, -1.56591 1.27468, -1.56591 1.10288, -1.50848 0.974659, -1.39361 0.890019, -1.27874 0.805379, -1.15783 0.763059, -1.03061 0.762807, -0.897608 0.763059, -0.773923 0.805379, -0.659055 0.890019, -0.544186 0.974659, -0.486752 1.10288, -0.486752 1.27468, -0.486752 1.37695, -0.506652 1.46235, -0.546957 1.53086, -0.58701 1.59938, -0.638147 1.65656, -0.700619 1.70216, -0.762839 1.748, -0.834128 1.77597, -0.914234 1.78655, -0.955546 1.79763, -0.994339 1.80292, -1.03061 1.80267, -1.06638 1.80292, -1.07193 1.80569, -1.04724 1.81073, -0.96134 1.96137, -0.792564 2.09462, -0.54066 2.21, -0.288755 2.32562, -0.0164467 2.38331, 0.27677 2.38306, 0.415317 2.38331, 0.544544 2.34905, 0.664954 2.28053, 0.785365 2.21201, 0.885875 2.12007, 0.96598 2.00419, 1.06573 1.85406, 1.1335 1.69284, 1.16927 1.52079, 1.20529 1.34899, 1.22317 1.17291, 1.22317 0.992544, 1.22317 0.807394, 1.20529 0.62955, 1.16927 0.458759, 1.1335 0.288219, 1.06573 0.130275, 0.96598 -0.0150735, 0.882852 -0.132965, 0.781838 -0.228436, 0.662939 -0.300985, 0.54404 -0.373533, 0.415317 -0.409807, 0.27677 -0.410059 L -0.325029 -0.410059 C -0.405135 -0.409807, -0.447959 -0.447341, -0.453501 -0.522913 L -0.453501 -0.567248 C -0.453501 -0.59924, -0.443676 -0.624682, -0.424532 -0.643827, -0.399593 -0.667758, -0.367853 -0.679849, -0.32906 -0.680101, -0.248703 -0.690681, -0.165826 -0.695971, -0.0801785 -0.696223, 0.00294983 -0.695971, 0.0848188 -0.701261, 0.164924 -0.712345, 0.314304 -0.722924, 0.444286 -0.769023, 0.554872 -0.851144, 0.66571 -0.933013, 0.758411 -1.0378, 0.832974 -1.16552, 0.90779 -1.29298, 0.964468 -1.4401, 1.00326 -1.60686, 1.04206 -1.77337, 1.06145 -1.94416, 1.06145 -2.11898, 1.06145 -2.2477, 1.0476 -2.36987, 1.01989 -2.4855, 0.992178 -2.60087, 0.941041 -2.70188, 0.866226 -2.78804, 0.711305 -2.96513, 0.514819 -3.05254, 0.27677 -3.05002, 0.0223465 -3.04976, -0.210665 -3.0019, -0.422265 -2.90668, -0.633864 -2.81121, -0.775938 -2.70843, -0.847983 -2.5986, -0.867128 -2.59558, -0.857555 -2.59432, -0.818762 -2.59457, -0.719008 -2.59432, -0.625048 -2.56485, -0.536629 -2.5059, -0.403624 -2.42781, -0.337373 -2.29607, -0.337373 -2.11092, -0.337373 -1.95474, -0.387754 -1.8371, -0.488767 -1.758, -0.589781 -1.67865, -0.702634 -1.6391, -0.827075 -1.63935, -0.948745 -1.6391, -1.06286 -1.67789, -1.16941 -1.75598, -1.27597 -1.83382, -1.32937 -1.95222, -1.32937 -2.11092, -1.32937 -2.3069, -1.28227 -2.47996, -1.18831 -2.6306, -1.09409 -2.78098, -0.973179 -2.90996, -0.82506 -3.01752, -0.67694 -3.12483, -0.506149 -3.20695, -0.312434 -3.26338, -0.11872 -3.31981, 0.0777655 -3.34802, 0.27677 -3.34827, 0.489881 -3.34802, 0.69619 -3.31981, 0.895447 -3.26338, 1.0947 -3.20695, 1.28288 -3.11954, 1.45971 -3.00165, 1.6038 -2.89938, 1.72472 -2.77368, 1.82296 -2.62455, 1.9212 -2.47542, 1.97032 -2.3069, 1.97032 -2.11898, 1.97032 -1.93055, 1.93657 -1.75321, 1.8688 -1.5867, 1.80104 -1.41994, 1.71111 -1.26956, 1.59902 -1.13529, 1.48692 -1.00078, 1.35341 -0.882632, 1.19849 -0.780611, 1.04357 -0.678338, 0.927187 -0.614102, 0.8496 -0.5874, 0.916103 -0.579087, 1.02971 -0.539286, 1.19017 -0.468249, 1.35064 -0.39696, 1.50405 -0.302244, 1.65066 -0.184353, 1.82245 -0.0362334, 1.95949 0.140352, 2.06176 0.345905, 2.16404 0.551459, 2.21517 0.767089, 2.21517 0.992544 Z" stroke="none" fill="#000000" transform="matrix(1.12 0 0 1 13.2902 12.8121)" />
			<rect />
		</svg>
	</g>
	<g transform="matrix(1 0 -0 1 8.24999 55.9061)">
		<svg width="35.935379" height="35.8877335">
			<defs />
			<path d="M 10.3018 3.38761 C 10.2869 3.45508, 10.2509 3.50951, 10.1943 3.54999, 10.1376 3.59093, 10.0768 3.61117, 10.0125 3.61072, 9.6864 3.61117, 9.37017 3.69034, 9.06339 3.84823, 8.73771 4.03086, 8.43632 4.28547, 8.15923 4.61114 L 4.32669 9.17421, 3.54083 12.1971 C 3.51115 12.2839, 3.4963 12.3608, 3.4963 12.4274, 3.4963 12.4948, 3.5089 12.5358, 3.53319 12.5497, 3.60246 12.5934, 3.74101 12.6185, 3.94838 12.6257, 4.1562 12.6329, 4.37617 12.6365, 4.60828 12.6361, 4.73693 12.6365, 4.80081 12.6991, 4.80081 12.8232 L 4.80081 12.888, 4.77157 13.0175 C 4.71714 13.1615, 4.62312 13.2335, 4.48952 13.2335, 3.8818 13.2047, 3.26419 13.1903, 2.63623 13.1903, 2.01861 13.1903, 1.39605 13.2047, 0.768088 13.2335, 0.644835 13.2335, 0.57781 13.1714, 0.567914 13.0463 L 0.567914 12.9816, 0.60525 12.8592 C 0.644835 12.7063, 0.738849 12.6316, 0.886843 12.6361, 1.1194 12.6365, 1.33712 12.6329, 1.53954 12.6257, 1.74197 12.6185, 1.89536 12.5934, 1.99882 12.5497, 2.08789 12.502, 2.15986 12.3725, 2.21384 12.1611 L 2.99969 9.13822, 1.37626 4.17931 C 1.34162 4.05515, 1.30338 3.95439, 1.2611 3.87747, 1.21927 3.801, 1.15764 3.74207, 1.07577 3.70114, 0.994352 3.66065, 0.874697 3.63546, 0.716358 3.62557, 0.558468 3.61612, 0.383034 3.61117, 0.190058 3.61072, 0.0614065 3.61117, -0.00291911 3.5464, -0.00291911 3.4164 L -0.00291911 3.36601, 0.0267696 3.23646 C 0.0816487 3.09297, 0.175663 3.021, 0.308812 3.02055, 0.803175 3.04978, 1.29979 3.06418, 1.79865 3.06373, 1.87287 3.06418, 1.95204 3.05923, 2.03571 3.04933, 2.61913 3.04978, 3.20256 3.04034, 3.78554 3.02055, 3.91914 3.021, 3.99066 3.08577, 4.00056 3.21487 L 4.00056 3.27245, 3.95603 3.3948 C 3.92634 3.5392, 3.83502 3.61117, 3.68163 3.61072, 3.50395 3.61117, 3.34696 3.61837, 3.21111 3.63276, 3.07526 3.64716, 2.95786 3.68314, 2.85889 3.74027, 2.8292 3.76456, 2.81436 3.8055, 2.81436 3.86263, 2.81436 3.89681, 2.81931 3.93505, 2.8292 3.97778 L 4.25966 8.36811, 7.64777 4.35924 C 7.73189 4.25398, 7.79352 4.15322, 7.8331 4.05695, 7.84795 4.00477, 7.85514 3.95439, 7.85514 3.90581, 7.85514 3.87747, 7.8529 3.85363, 7.84795 3.83384, 7.77867 3.68539, 7.61584 3.61117, 7.35853 3.61072, 7.23528 3.61117, 7.16826 3.5464, 7.15836 3.4164 L 7.15836 3.36601, 7.18805 3.23646 C 7.24248 3.09297, 7.33874 3.021, 7.47729 3.02055, 7.91227 3.04034, 8.35445 3.04978, 8.80428 3.04933, 8.86366 3.05923, 8.92259 3.06418, 8.98197 3.06373, 9.35802 3.06418, 9.74083 3.04978, 10.1313 3.02055, 10.2006 3.021, 10.2622 3.04484, 10.3166 3.09252, 10.3364 3.1312, 10.3463 3.16719, 10.3463 3.20048, 10.3463 3.22972, 10.3391 3.25626, 10.3238 3.27965 Z" stroke="none" fill="#000000" />
			<rect />
		</svg>
	</g>
	<g transform="matrix(1 0 -0 1 70.7541 117.542)">
		<svg width="32.9815331" height="38.9535408">
			<defs />
			<path d="M 9.7415 13.0175 C 9.68752 13.1615, 9.5935 13.2335, 9.45991 13.2335, 8.96599 13.2047, 8.47388 13.1903, 7.98447 13.1903 L 7.73976 13.1903 C 7.16173 13.2002, 6.581 13.2146, 5.99802 13.2335, 5.86487 13.2335, 5.7929 13.1714, 5.783 13.0463 L 5.783 12.9888, 5.81269 12.8664 C 5.85228 12.7085, 5.94854 12.6316, 6.10148 12.6361, 6.28456 12.6365, 6.44785 12.6307, 6.5909 12.6185, 6.73439 12.6069, 6.87294 12.5646, 7.00609 12.4921, 7.05557 12.4688, 7.09785 12.435, 7.13204 12.3914, 7.15183 12.3536, 7.16443 12.3149, 7.16893 12.2762 L 7.16893 12.233, 6.99124 9.84355, 3.64047 9.84355, 2.46192 11.8588 C 2.39759 11.9744, 2.3652 12.0801, 2.3652 12.1755, 2.3652 12.2573, 2.38994 12.332, 2.43942 12.3986, 2.54828 12.5574, 2.75116 12.6365, 3.04714 12.6361, 3.18074 12.6365, 3.25226 12.6941, 3.26216 12.8088, 3.26216 12.8381, 3.25721 12.8691, 3.24732 12.9024 L 3.21808 13.0175 C 3.16365 13.1615, 3.06738 13.2335, 2.92884 13.2335, 2.47451 13.2146, 2.02468 13.2002, 1.57935 13.1903 L 1.37963 13.1903 C 0.994123 13.1903, 0.603671 13.2047, 0.208272 13.2335, 0.13405 13.2335, 0.0796205 13.2096, 0.0449836 13.1615, 0.0152949 13.1332, 0.000450552 13.0994, 0.000450552 13.0607, 0.000450552 13.0324, 0.00539869 13.0036, 0.0152949 12.9744 L 0.0449836 12.8664 C 0.0845686 12.7085, 0.181282 12.6316, 0.334224 12.6361, 0.492564 12.6365, 0.648204 12.6199, 0.801146 12.5862, 0.954538 12.5529, 1.09803 12.4926, 1.23118 12.4062, 1.36478 12.3199, 1.48848 12.2155, 1.60184 12.0931, 1.71565 11.9708, 1.81686 11.8327, 1.90593 11.6789 L 7.13924 2.71826 C 7.2283 2.58421, 7.34211 2.51944, 7.48066 2.52393 L 7.62145 2.52393 C 7.77979 2.52438, 7.86841 2.59861, 7.8882 2.74705 L 8.54045 12.1251 C 8.55035 12.2501, 8.5652 12.3451, 8.58499 12.4098, 8.60478 12.4746, 8.63942 12.5214, 8.6889 12.5497, 8.75817 12.5934, 8.87288 12.6185, 9.03347 12.6257, 9.19451 12.6329, 9.37579 12.6365, 9.57821 12.6361, 9.71676 12.6365, 9.78603 12.6941, 9.78603 12.8088, 9.78603 12.8381, 9.78108 12.8691, 9.77119 12.9024 Z M 6.63543 4.74069 L 3.99628 9.26058, 6.94671 9.26058 Z" stroke="none" fill="#000000" />
			<rect />
		</svg>
	</g>
</svg>
