<?xml version="1.0"?>
<svg xmlns="http://www.w3.org/2000/svg" xmlns:xlink="http://www.w3.org/1999/xlink" width="204.042847" height="142.964737">
	<defs>
		<marker id="CustomMarker-01" markerUnits="strokeWidth" markerWidth="15.000001" markerHeight="9" viewBox="-15 -4.5 15 9" orient="auto-start-reverse">
			<path d="M 0 -0 L -10 -3, -8 -0.5, -8 0.5, -10 3 Z" fill="#000000" stroke="#000000" stroke-linejoin="round" />
		</marker>
		<marker id="CustomMarker-02" markerUnits="strokeWidth" markerWidth="15.000001" markerHeight="9" viewBox="-15 -4.5 15 9" orient="auto-start-reverse">
			<path d="M 0 -0 L -10 -3, -8 -0.5, -8 0.5, -10 3 Z" fill="#000000" stroke="#000000" stroke-linejoin="round" />
		</marker>
		<marker id="CustomMarker-03" markerUnits="strokeWidth" markerWidth="15.000001" markerHeight="9" viewBox="-15 -4.5 15 9" orient="auto-start-reverse">
			<path d="M 0 -0 L -10 -3, -8 -0.5, -8 0.5, -10 3 Z" fill="#000000" stroke="#000000" stroke-linejoin="round" />
		</marker>
		<marker id="CustomMarker-04" markerUnits="strokeWidth" markerWidth="15.000001" markerHeight="9" viewBox="-15 -4.5 15 9" orient="auto-start-reverse">
			<path d="M 0 -0 L -10 -3, -8 -0.5, -8 0.5, -10 3 Z" fill="#000000" stroke="#000000" stroke-linejoin="round" />
		</marker>
		<marker id="CustomMarker-05" markerUnits="strokeWidth" markerWidth="15.000001" markerHeight="9" viewBox="-15 -4.5 15 9" orient="auto-start-reverse">
			<path d="M 0 -0 L -10 -3, -8 -0.5, -8 0.5, -10 3 Z" fill="#000000" stroke="#000000" stroke-linejoin="round" />
		</marker>
		<marker id="CustomMarker-06" markerUnits="strokeWidth" markerWidth="15.000001" markerHeight="9" viewBox="-15 -4.5 15 9" orient="auto-start-reverse">
			<path d="M 0 -0 L -10 -3, -8 -0.5, -8 0.5, -10 3 Z" fill="#000000" stroke="#000000" stroke-linejoin="round" />
		</marker>
		<marker id="CustomMarker-07" markerUnits="strokeWidth" markerWidth="15.000001" markerHeight="9" viewBox="-15 -4.5 15 9" orient="auto-start-reverse">
			<path d="M 0 -0 L -10 -3, -8 -0.5, -8 0.5, -10 3 Z" fill="#000000" stroke="#000000" stroke-linejoin="round" />
		</marker>
		<marker id="CustomMarker-08" markerUnits="strokeWidth" markerWidth="15.000001" markerHeight="9" viewBox="-15 -4.5 15 9" orient="auto-start-reverse">
			<path d="M 0 -0 L -10 -3, -8 -0.5, -8 0.5, -10 3 Z" fill="#000000" stroke="#000000" stroke-linejoin="round" />
		</marker>
		<marker id="CustomMarker-09" markerUnits="strokeWidth" markerWidth="15.000001" markerHeight="9" viewBox="-15 -4.5 15 9" orient="auto-start-reverse">
			<path d="M 0 -0 L -10 -3, -8 -0.5, -8 0.5, -10 3 Z" fill="#000000" stroke="#000000" stroke-linejoin="round" />
		</marker>
		<marker id="CustomMarker-10" markerUnits="strokeWidth" markerWidth="15.000001" markerHeight="9" viewBox="-15 -4.5 15 9" orient="auto-start-reverse">
			<path d="M 0 -0 L -10 -3, -8 -0.5, -8 0.5, -10 3 Z" fill="#000000" stroke="#000000" stroke-linejoin="round" />
		</marker>
	</defs>
	<rect x="-0" y="-0" width="204.042847" height="142.964737" stroke="none" fill="#FFFFFF" />
	<g transform="matrix(1 0 -0 1 76.1239 116.219)">
		<svg width="146.999969" height="48.0116043">
			<defs />
			<path d="M 6.85427 3.82981 C 6.83988 3.89278, 6.80659 3.94541, 6.75441 3.9886, 6.70223 4.03178, 6.63925 4.05337, 6.56503 4.05292, 6.33292 4.05337, 6.10576 4.05832, 5.88309 4.06777, 5.66087 4.07766, 5.50029 4.10375, 5.40132 4.14649, 5.29786 4.18067, 5.22094 4.30527, 5.17146 4.52074 L 3.0883 12.6321 C 3.06851 12.7238, 3.05861 12.803, 3.05861 12.8696, 3.05861 12.937, 3.07121 12.978, 3.09595 12.9919, 3.16522 13.0356, 3.30827 13.0607, 3.52599 13.0679, 3.7437 13.0751, 3.97312 13.0787, 4.21512 13.0783, 4.35367 13.0787, 4.42294 13.1363, 4.42294 13.251, 4.42294 13.2803, 4.418 13.3113, 4.4081 13.3446 L 4.37841 13.4597 C 4.32398 13.6037, 4.22997 13.6757, 4.09637 13.6757, 3.45896 13.6469, 2.81391 13.6325, 2.16165 13.6325, 1.51435 13.6325, 0.85715 13.6469, 0.189603 13.6757, 0.061852 13.6757, -0.00247361 13.6136, -0.00292344 13.4885 L -0.00292344 13.431, 0.0267653 13.3086 C 0.0668001 13.1507, 0.163063 13.0738, 0.316005 13.0783, 0.558013 13.0787, 0.790575 13.0751, 1.01279 13.0679, 1.23501 13.0607, 1.3956 13.0356, 1.49456 12.9919, 1.58362 12.9442, 1.6556 12.8147, 1.70958 12.6033 L 3.80758 4.49195 C 3.82737 4.40109, 3.83727 4.32912, 3.83727 4.27604, 3.83727 4.20451, 3.82512 4.15908, 3.79993 4.13929, 3.72121 4.1015, 3.57322 4.07766, 3.3555 4.06777, 3.13778 4.05832, 2.91287 4.05337, 2.68076 4.05292, 2.54221 4.05337, 2.47294 3.9886, 2.47294 3.85859 L 2.47294 3.80821, 2.50262 3.67866 C 2.55705 3.53517, 2.65107 3.46319, 2.78422 3.46275, 3.43197 3.48254, 4.08197 3.49198, 4.73423 3.49153, 5.39188 3.49198, 6.04413 3.48254, 6.69098 3.46275, 6.76026 3.46319, 6.81963 3.48704, 6.86912 3.53472, 6.88891 3.5734, 6.8988 3.60939, 6.8988 3.64268, 6.8988 3.67192, 6.89161 3.69846, 6.87631 3.72185 Z" stroke="none" fill="#000000" />
			<path d="M 25.5733 6.72311 C 25.5585 6.78608, 25.5266 6.84006, 25.4771 6.8855, 25.4276 6.93138, 25.3732 6.95387, 25.3138 6.95342, 25.294 6.96332, 25.2693 6.96826, 25.2396 6.96781, 25.1806 6.96826, 25.151 6.96332, 25.151 6.95342, 25.0277 6.95387, 24.9607 6.90124, 24.9508 6.79508 L 24.9508 6.7447 C 24.9805 6.51978, 25.0052 6.29172, 25.0246 6.06096, 25.0443 5.88373, 25.0542 5.72089, 25.0542 5.57154 L 25.0542 5.44919 C 25.0443 5.25756, 25.021 5.08618, 24.9841 4.93504, 24.9472 4.78389, 24.8815 4.65569, 24.7875 4.54953, 24.5999 4.32912, 24.321 4.19867, 23.9504 4.15773, 23.5797 4.11725, 23.1843 4.09655, 22.7642 4.0961 L 21.1709 4.0961 C 20.9091 4.09655, 20.7557 4.1159, 20.7111 4.15368, 20.6869 4.17348, 20.6374 4.31472, 20.5632 4.57832 L 19.6442 8.09059, 20.6666 8.09059 C 20.9437 8.09104, 21.1956 8.07934, 21.4228 8.05505, 21.6504 8.03121, 21.8456 7.95924, 22.0085 7.83868, 22.1569 7.71903, 22.2694 7.55124, 22.3458 7.33532, 22.4223 7.11941, 22.4979 6.87245, 22.5716 6.59356, 22.6261 6.45006, 22.7201 6.38034, 22.8532 6.38484 L 22.9792 6.38484 C 23.1177 6.38529, 23.1866 6.44781, 23.1866 6.57196 L 23.1866 6.62235, 22.2604 10.185 C 22.2307 10.3343, 22.1344 10.4063, 21.9711 10.4009 L 21.8528 10.4009 C 21.7143 10.4014, 21.645 10.3438, 21.645 10.2282, 21.645 10.1998, 21.6526 10.1733, 21.6675 10.149, 21.7318 9.88091, 21.7786 9.6335, 21.8083 9.40769, 21.8182 9.35056, 21.8231 9.30018, 21.8231 9.25654, 21.8231 9.12249, 21.7934 9.01454, 21.7341 8.93267, 21.6504 8.81796, 21.5006 8.74959, 21.2856 8.72799, 21.0706 8.7064, 20.8299 8.69561, 20.5632 8.69516 L 19.4957 8.69516, 18.4804 12.6393 C 18.431 12.8075, 18.4062 12.9325, 18.4062 13.0135 L 18.4062 13.0423 C 18.426 13.0621, 18.5646 13.0738, 18.8214 13.0783 L 20.5186 13.0783 C 20.9586 13.0787, 21.3845 13.0491, 21.797 12.9888, 22.21 12.9289, 22.5941 12.7765, 22.9495 12.5313, 23.1078 12.4166, 23.2585 12.2632, 23.4016 12.0711, 23.5451 11.8795, 23.6809 11.6672, 23.8096 11.4342, 23.9382 11.2016, 24.0601 10.9546, 24.1762 10.6928, 24.2922 10.4315, 24.4074 10.1733, 24.5208 9.91869, 24.5603 9.80399, 24.6472 9.74641, 24.7803 9.74596 L 24.9063 9.74596 C 25.0448 9.74641, 25.1136 9.80893, 25.1136 9.93309 L 25.1136 9.99067, 23.6386 13.5029 C 23.5847 13.6181, 23.4956 13.6757, 23.3719 13.6757 L 15.6641 13.6757 C 15.5898 13.6757, 15.5354 13.6541, 15.5008 13.6109, 15.4666 13.5776, 15.4495 13.5416, 15.449 13.5029, 15.4495 13.4746, 15.4544 13.4458, 15.4639 13.4166 L 15.4936 13.3086 C 15.5084 13.2465, 15.5431 13.193, 15.5975 13.1471, 15.6519 13.1017, 15.7135 13.0787, 15.7824 13.0783, 16.0149 13.0787, 16.2326 13.0751, 16.4351 13.0679, 16.6375 13.0607, 16.7909 13.0356, 16.8943 12.9919, 16.9834 12.9442, 17.0522 12.8147, 17.1017 12.6033 L 19.1844 4.54234 C 19.2141 4.43708, 19.229 4.35341, 19.229 4.29043, 19.229 4.2333, 19.2168 4.19957, 19.1916 4.18967, 19.1228 4.14694, 18.987 4.12085, 18.7845 4.11095, 18.5821 4.1015, 18.3644 4.09655, 18.1318 4.0961, 17.9937 4.09655, 17.9245 4.03178, 17.9245 3.90178 L 17.9245 3.8514, 17.9541 3.72904 C 17.9937 3.57115, 18.09 3.49198, 18.2429 3.49153 L 25.751 3.49153 C 25.8747 3.49198, 25.9413 3.55181, 25.9512 3.67147 L 25.9512 3.72185 Z" stroke="none" fill="#000000" />
			<path d="M 29.0705 13.5605 C 29.0705 14.1219, 28.9558 14.6522, 28.726 15.1511, 28.4966 15.6504, 28.174 16.0917, 27.7588 16.4754, 27.7148 16.5042, 27.6653 16.5186, 27.6104 16.5186, 27.5713 16.5186, 27.5195 16.5042, 27.4548 16.4754 L 27.4179 16.4178 C 27.3783 16.3796, 27.3585 16.3364, 27.3585 16.2883, 27.3585 16.2451, 27.3783 16.1947, 27.4179 16.1371, 27.7935 15.7917, 28.0814 15.3985, 28.2815 14.9568, 28.4817 14.5155, 28.5816 14.0499, 28.5816 13.5605, 28.5816 13.5272, 28.5793 13.4903, 28.5744 13.4494, 28.5694 13.4089, 28.5667 13.4337, 28.5667 13.5245, 28.4876 13.6158, 28.3049 13.6613, 28.0184 13.6613, 27.7319 13.6613, 27.5146 13.5731, 27.3661 13.3954, 27.2177 13.2182, 27.1435 13.0212, 27.1435 12.8048, 27.1435 12.5893, 27.2177 12.3941, 27.3661 12.2187, 27.5146 12.0437, 27.7319 11.956, 28.0184 11.9555, 28.2307 11.956, 28.4039 12.0099, 28.537 12.1179, 28.6706 12.2259, 28.7768 12.3568, 28.856 12.5102, 28.9351 12.664, 28.9905 12.834, 29.0224 13.0212, 29.0548 13.2083, 29.0705 13.3882, 29.0705 13.5605 Z" stroke="none" fill="#000000" />
			<path d="M 41.418 6.72311 C 41.4032 6.78608, 41.3722 6.84006, 41.3254 6.8855, 41.2786 6.93138, 41.2278 6.95387, 41.1733 6.95342, 41.1634 6.96332, 41.1387 6.96826, 41.0991 6.96781, 41.0402 6.96826, 41.0105 6.96332, 41.0105 6.95342 L 40.9957 6.95342 C 40.867 6.95387, 40.8027 6.90124, 40.8027 6.79508 L 40.8027 6.7447 C 40.8324 6.51978, 40.8571 6.29172, 40.8769 6.06096, 40.8967 5.88373, 40.9066 5.72089, 40.9066 5.57154 L 40.9066 5.44919 C 40.8967 5.25756, 40.8747 5.08528, 40.84 4.93144, 40.8054 4.77805, 40.746 4.65074, 40.6619 4.54953, 40.4743 4.32912, 40.2062 4.19867, 39.858 4.15773, 39.5099 4.11725, 39.1302 4.09655, 38.72 4.0961 L 37.2157 4.0961 C 36.9539 4.09655, 36.8006 4.1159, 36.756 4.15368, 36.7317 4.17348, 36.6822 4.31472, 36.608 4.57832 L 35.6445 8.28491, 36.6377 8.28491 C 36.8995 8.28536, 37.1406 8.27592, 37.3601 8.25657, 37.5801 8.23768, 37.769 8.16301, 37.9269 8.03301, 38.0655 7.92325, 38.1743 7.75636, 38.2535 7.53325, 38.3327 7.31013, 38.4114 7.06408, 38.4906 6.79508, 38.5054 6.7285, 38.5414 6.67453, 38.5981 6.63359, 38.6547 6.59311, 38.7155 6.57241, 38.7794 6.57196 L 38.8981 6.57196 C 38.9674 6.57241, 39.0295 6.59626, 39.0834 6.64394, 39.1032 6.68262, 39.1131 6.71861, 39.1131 6.7519, 39.1131 6.78114, 39.1059 6.80767, 39.0906 6.83107 L 38.1865 10.3937 C 38.1325 10.5381, 38.0362 10.6101, 37.8977 10.6096 L 37.7789 10.6096 C 37.6458 10.6101, 37.5738 10.5476, 37.5639 10.4225 L 37.5639 10.3649 C 37.6431 10.0775, 37.7002 9.82063, 37.7344 9.59482, 37.7443 9.54264, 37.7492 9.49225, 37.7492 9.44367, 37.7492 9.30962, 37.7196 9.20166, 37.6602 9.1198, 37.5765 9.00509, 37.4294 8.93672, 37.2193 8.91512, 37.0097 8.89353, 36.7763 8.88274, 36.519 8.88229 L 35.4812 8.88229, 34.5253 12.6321 C 34.5055 12.7045, 34.4956 12.7742, 34.4956 12.8408, 34.4956 12.9182, 34.5154 12.9636, 34.555 12.9775, 34.6589 13.0212, 34.8456 13.0491, 35.1146 13.0607, 35.384 13.0729, 35.6593 13.0787, 35.9409 13.0783, 36.0795 13.0787, 36.1483 13.1363, 36.1483 13.251, 36.1483 13.2803, 36.1434 13.3113, 36.1335 13.3446 L 36.1038 13.4597 C 36.0498 13.6037, 35.9558 13.6757, 35.8222 13.6757, 35.1456 13.6568, 34.4659 13.6424, 33.784 13.6325 L 33.4799 13.6325 C 32.8924 13.6325, 32.3018 13.6469, 31.7089 13.6757, 31.6347 13.6757, 31.5803 13.6541, 31.5457 13.6109, 31.5115 13.5776, 31.4944 13.5416, 31.4939 13.5029, 31.4944 13.4746, 31.4993 13.4458, 31.5088 13.4166 L 31.5385 13.3086 C 31.5533 13.2465, 31.5879 13.193, 31.6424 13.1471, 31.6968 13.1017, 31.7584 13.0787, 31.8272 13.0783, 32.0598 13.0787, 32.2775 13.0751, 32.4799 13.0679, 32.6824 13.0607, 32.8358 13.0356, 32.9392 12.9919, 33.0283 12.9442, 33.0971 12.8147, 33.1466 12.6033 L 35.2293 4.54234 C 35.259 4.43708, 35.2738 4.35341, 35.2738 4.29043, 35.2738 4.2333, 35.2617 4.19957, 35.2365 4.18967, 35.1677 4.14694, 35.0318 4.12085, 34.8294 4.11095, 34.627 4.1015, 34.4093 4.09655, 34.1767 4.0961, 34.0386 4.09655, 33.9693 4.03178, 33.9693 3.90178 L 33.9693 3.8514, 33.999 3.72904 C 34.0386 3.57115, 34.1349 3.49198, 34.2878 3.49153 L 41.6034 3.49153 C 41.7419 3.49198, 41.8107 3.5689, 41.8107 3.72185 Z" stroke="none" fill="#000000" />
			<path d="M 0.551354 -6.85682 C -0.629253 -6.42711, -1.41504 -5.30489, -1.41504 -4.04851 L -1.41504 -2.39894 C -1.41504 -1.39043, -2.0458 -0.489604, -2.99349 -0.144674 L -2.99349 0.144673 C -2.0458 0.489602, -1.41504 1.39043, -1.41504 2.39893 L -1.41504 4.04852 C -1.41504 5.30489, -0.629249 6.42712, 0.551358 6.85682 L 1.14926 6.81229 C 0.304311 6.41828, -0.23584 5.57042, -0.23584 4.63812 L -0.23584 2.39893 C -0.23584 1.39043, -0.866604 0.489603, -1.81429 0.144673 L -1.81429 -0.144674 C -0.866603 -0.489604, -0.23584 -1.39043, -0.23584 -2.39894 L -0.23584 -4.63811 C -0.23584 -5.57042, 0.304309 -6.41828, 1.14926 -6.81229" stroke="none" fill="#000000" transform="matrix(1 0 -0 1 12.3924 9.24805)" />
			<path d="M 0.551354 -6.85682 C -0.629253 -6.42711, -1.41504 -5.30489, -1.41504 -4.04851 L -1.41504 -2.39894 C -1.41504 -1.39043, -2.0458 -0.489604, -2.99349 -0.144674 L -2.99349 0.144673 C -2.0458 0.489602, -1.41504 1.39043, -1.41504 2.39893 L -1.41504 4.04852 C -1.41504 5.30489, -0.629249 6.42712, 0.551358 6.85682 L 1.14926 6.81229 C 0.304311 6.41828, -0.23584 5.57042, -0.23584 4.63812 L -0.23584 2.39893 C -0.23584 1.39043, -0.866604 0.489603, -1.81429 0.144673 L -1.81429 -0.144674 C -0.866603 -0.489604, -0.23584 -1.39043, -0.23584 -2.39894 L -0.23584 -4.63811 C -0.23584 -5.57042, 0.304309 -6.41828, 1.14926 -6.81229" stroke="none" fill="#000000" transform="matrix(-1 1.50996e-007 -1.50996e-007 -1 44.2949 9.24805)" />
			<rect />
		</svg>
	</g>
	<g transform="matrix(1 0 -0 1 24.6905 64.8609)">
		<svg width="35.935379" height="35.8877335">
			<defs />
			<path d="M 10.1243 6.28091 C 10.1099 6.34388, 10.0775 6.39786, 10.028 6.4433, 9.97856 6.48918, 9.92458 6.51167, 9.86521 6.51122, 9.84541 6.52112, 9.82067 6.52606, 9.79098 6.52561, 9.73161 6.52606, 9.70192 6.52112, 9.70192 6.51122, 9.57866 6.51167, 9.51164 6.45904, 9.50174 6.35288 L 9.50174 6.3025 C 9.53143 6.07758, 9.55617 5.84952, 9.57597 5.61876, 9.59576 5.44153, 9.60565 5.27869, 9.60565 5.12934 L 9.60565 5.00699 C 9.59576 4.81536, 9.57237 4.64398, 9.53548 4.49284, 9.4986 4.34169, 9.43292 4.21349, 9.33891 4.10733, 9.15088 3.88692, 8.87153 3.75647, 8.50087 3.71553, 8.13021 3.67505, 7.73482 3.65436, 7.31467 3.6539 L 5.72093 3.6539 C 5.45913 3.65436, 5.30619 3.6737, 5.26165 3.71148, 5.23691 3.73128, 5.18743 3.87252, 5.11321 4.13612 L 4.19376 7.64839, 5.21712 7.64839 C 5.49422 7.64884, 5.74612 7.63714, 5.97328 7.61285, 6.2009 7.58901, 6.39612 7.51704, 6.55896 7.39648, 6.70741 7.27683, 6.81986 7.10904, 6.89633 6.89312, 6.9728 6.67721, 7.04838 6.43025, 7.12215 6.15136, 7.17658 6.00786, 7.27059 5.93814, 7.40374 5.94264 L 7.52969 5.94264 C 7.66824 5.94309, 7.73751 6.00561, 7.73751 6.12976 L 7.73751 6.18015, 6.81087 9.74279 C 6.78118 9.89213, 6.68491 9.96411, 6.52163 9.95871 L 6.40287 9.95871 C 6.26477 9.95916, 6.1955 9.90158, 6.1955 9.78598, 6.1955 9.75764, 6.20315 9.7311, 6.21754 9.70681, 6.28232 9.43871, 6.3291 9.1913, 6.35879 8.96549, 6.36868 8.90836, 6.37363 8.85798, 6.37363 8.81434, 6.37363 8.68029, 6.34394 8.57234, 6.28457 8.49047, 6.2009 8.37576, 6.05111 8.30739, 5.83609 8.2858, 5.62107 8.2642, 5.38041 8.25341, 5.11321 8.25296 L 4.04577 8.25296, 3.03005 12.1971 C 2.98057 12.3653, 2.95583 12.4903, 2.95583 12.5713 L 2.95583 12.6001 C 2.97562 12.6199, 3.11417 12.6316, 3.37102 12.6361 L 5.06868 12.6361 C 5.50861 12.6365, 5.93505 12.6069, 6.34754 12.5466, 6.76049 12.4867, 7.14464 12.3343, 7.5 12.0891, 7.65834 11.9744, 7.80949 11.821, 7.95253 11.6289, 8.09603 11.4373, 8.23188 11.225, 8.36053 10.992, 8.48918 10.7594, 8.61108 10.5124, 8.72714 10.2506, 8.84319 9.9893, 8.95835 9.7311, 9.07171 9.47649, 9.11129 9.36179, 9.19811 9.30421, 9.33126 9.30376 L 9.45721 9.30376 C 9.59576 9.30421, 9.66503 9.36673, 9.66503 9.49089 L 9.66503 9.54847, 8.18959 13.0607 C 8.13561 13.1759, 8.04655 13.2335, 7.92284 13.2335 L 0.213224 13.2335 C 0.139002 13.2335, 0.0845724 13.2119, 0.0499356 13.1687, 0.0157486 13.1354, -0.00134492 13.0994, -0.00179474 13.0607, -0.00134492 13.0324, 0.00360321 13.0036, 0.0130496 12.9744 L 0.0427383 12.8664 C 0.0575827 12.8043, 0.0922195 12.7508, 0.146649 12.7049, 0.201078 12.6595, 0.262705 12.6365, 0.331529 12.6361, 0.56409 12.6365, 0.781807 12.6329, 0.984231 12.6257, 1.18665 12.6185, 1.34005 12.5934, 1.44351 12.5497, 1.53257 12.502, 1.60185 12.3725, 1.65133 12.1611 L 3.73449 4.10014 C 3.76417 3.99488, 3.77902 3.91121, 3.77902 3.84823, 3.77902 3.7911, 3.76687 3.75737, 3.74168 3.74747, 3.67241 3.70474, 3.53656 3.67865, 3.33414 3.66875, 3.13171 3.6593, 2.914 3.65436, 2.68144 3.6539, 2.54334 3.65436, 2.47406 3.58958, 2.47406 3.45958 L 2.47406 3.4092, 2.50375 3.28684 C 2.54334 3.12895, 2.64005 3.04978, 2.79299 3.04933 L 10.3024 3.04933 C 10.4261 3.04978, 10.4927 3.10961, 10.5026 3.22927 L 10.5026 3.27965 Z" stroke="none" fill="#000000" />
			<rect />
		</svg>
	</g>
	<g transform="matrix(1 0 -0 1 64.3831 64.8609)">
		<svg width="35.935379" height="35.8877335">
			<defs />
			<path d="M 9.92503 6.28091 C 9.91064 6.34388, 9.8796 6.39786, 9.83282 6.4433, 9.78603 6.48918, 9.7352 6.51167, 9.68077 6.51122, 9.67088 6.52112, 9.64614 6.52606, 9.60655 6.52561, 9.54718 6.52606, 9.51749 6.52112, 9.51749 6.51122 L 9.50264 6.51122 C 9.37444 6.51167, 9.31011 6.45904, 9.31011 6.35288 L 9.31011 6.3025 C 9.3398 6.07758, 9.36409 5.84952, 9.38389 5.61876, 9.40368 5.44153, 9.41358 5.27869, 9.41358 5.12934 L 9.41358 5.00699 C 9.40368 4.81536, 9.38164 4.64308, 9.347 4.48924, 9.31281 4.33585, 9.25344 4.20854, 9.16887 4.10733, 8.98129 3.88692, 8.71319 3.75647, 8.36502 3.71553, 8.01686 3.67505, 7.6372 3.65436, 7.22696 3.6539 L 5.72183 3.6539 C 5.46003 3.65436, 5.30709 3.6737, 5.26255 3.71148, 5.23781 3.73128, 5.18833 3.87252, 5.11411 4.13612 L 4.15058 7.84271, 5.1438 7.84271 C 5.4056 7.84316, 5.64671 7.83372, 5.86667 7.81437, 6.08664 7.79548, 6.27557 7.72081, 6.43346 7.59081, 6.57201 7.48105, 6.68086 7.31416, 6.76003 7.09105, 6.8392 6.86793, 6.91792 6.62188, 6.99709 6.35288, 7.01194 6.2863, 7.04793 6.23233, 7.1046 6.19139, 7.16128 6.15091, 7.22201 6.13021, 7.28633 6.12976 L 7.40464 6.12976 C 7.47391 6.13021, 7.53599 6.15406, 7.58997 6.20174, 7.60976 6.24042, 7.61966 6.27641, 7.61966 6.3097, 7.61966 6.33894, 7.61246 6.36548, 7.59762 6.38887 L 6.69301 9.95151 C 6.63903 10.0959, 6.54232 10.1679, 6.40377 10.1674 L 6.28547 10.1674 C 6.15232 10.1679, 6.08034 10.1054, 6.07045 9.9803 L 6.07045 9.92272 C 6.14962 9.63528, 6.20675 9.37843, 6.24093 9.15262, 6.25083 9.10044, 6.25578 9.05005, 6.25578 9.00147, 6.25578 8.86742, 6.22609 8.75947, 6.16671 8.6776, 6.08304 8.56289, 5.93595 8.49452, 5.72588 8.47292, 5.51581 8.45133, 5.28235 8.44054, 5.02504 8.44009 L 3.98729 8.44009, 3.03095 12.1899 C 3.01116 12.2623, 3.00126 12.332, 3.00126 12.3986, 3.00126 12.476, 3.02106 12.5214, 3.06064 12.5353, 3.16455 12.579, 3.35123 12.6069, 3.62023 12.6185, 3.88968 12.6307, 4.16542 12.6365, 4.44701 12.6361, 4.58556 12.6365, 4.65438 12.6941, 4.65438 12.8088, 4.65438 12.8381, 4.64944 12.8691, 4.63954 12.9024 L 4.60985 13.0175 C 4.55587 13.1615, 4.46186 13.2335, 4.32826 13.2335, 3.65127 13.2146, 2.97157 13.2002, 2.28963 13.1903 L 1.98555 13.1903 C 1.39762 13.1903, 0.806997 13.2047, 0.214122 13.2335, 0.139901 13.2335, 0.0854712 13.2119, 0.0508344 13.1687, 0.0166474 13.1354, -0.000446137 13.0994, -0.000895966 13.0607, -0.000446137 13.0324, 0.00450198 13.0036, 0.0139484 12.9744 L 0.0436371 12.8664 C 0.0584815 12.8043, 0.0931183 12.7508, 0.147548 12.7049, 0.201977 12.6595, 0.263604 12.6365, 0.332427 12.6361, 0.564989 12.6365, 0.782706 12.6329, 0.985129 12.6257, 1.18755 12.6185, 1.34094 12.5934, 1.4444 12.5497, 1.53347 12.502, 1.60274 12.3725, 1.65223 12.1611 L 3.73538 4.10014 C 3.76507 3.99488, 3.77992 3.91121, 3.77992 3.84823, 3.77992 3.7911, 3.76777 3.75737, 3.74258 3.74747, 3.67331 3.70474, 3.53746 3.67865, 3.33504 3.66875, 3.13261 3.6593, 2.9149 3.65436, 2.68233 3.6539, 2.54424 3.65436, 2.47496 3.58958, 2.47496 3.45958 L 2.47496 3.4092, 2.50465 3.28684 C 2.54424 3.12895, 2.64095 3.04978, 2.79389 3.04933 L 10.1104 3.04933 C 10.2489 3.04978, 10.3182 3.12671, 10.3182 3.27965 Z" stroke="none" fill="#000000" />
			<rect />
		</svg>
	</g>
	<g transform="matrix(1 0 -0 1 120.05 64.8609)">
		<svg width="35.935379" height="38.9535408">
			<defs />
			<path d="M 9.17112 6.8351 C 9.14143 6.9507, 9.06271 7.02492, 8.93406 7.05821 L 8.76357 7.05821 C 8.63042 7.05866, 8.55845 6.98894, 8.54856 6.84949, 8.59804 6.51887, 8.62548 6.20938, 8.62997 5.92104, 8.62997 5.76315, 8.62503 5.61426, 8.61513 5.47481, 8.57554 5.05287, 8.46939 4.67997, 8.29665 4.35609, 8.12392 4.03221, 7.89135 3.77311, 7.59986 3.57878, 7.30838 3.38446, 6.95211 3.28729, 6.53197 3.28684, 6.01827 3.28729, 5.50186 3.41235, 4.98276 3.66155, 4.46411 3.91121, 3.99449 4.24453, 3.57435 4.66152, 3.08493 5.15633, 2.70213 5.70333, 2.42548 6.30295, 2.14884 6.90302, 1.93112 7.51434, 1.77278 8.1378, 1.60005 8.77161, 1.50603 9.38833, 1.49119 9.9875, 1.48129 10.0455, 1.47634 10.0959, 1.47634 10.1386, 1.47634 10.6717, 1.5852 11.1589, 1.80247 11.5997, 2.01029 12.0176, 2.30898 12.3514, 2.69943 12.6006, 3.08988 12.8502, 3.5523 12.9748, 4.0858 12.9744, 4.37279 12.9748, 4.65663 12.9366, 4.93823 12.8597, 5.21982 12.7832, 5.47577 12.6716, 5.70564 12.525, 5.9355 12.3788, 6.13432 12.2061, 6.30256 12.0068, 6.47079 11.808, 6.5819 11.5929, 6.63588 11.3622 L 6.95481 10.0955 C 6.9746 10.0239, 6.9845 9.95421, 6.9845 9.88674, 6.9845 9.81027, 6.96471 9.76483, 6.92512 9.74999, 6.82166 9.70726, 6.64128 9.67982, 6.38398 9.66767, 6.12713 9.65597, 5.86263 9.64968, 5.59048 9.64923, 5.51671 9.64968, 5.46228 9.62809, 5.42764 9.58445, 5.393 9.55116, 5.37546 9.51518, 5.37546 9.47649, 5.37546 9.44815, 5.38041 9.42161, 5.39031 9.39732 L 5.41999 9.26777 C 5.43529 9.2012, 5.47127 9.14857, 5.52795 9.10988, 5.58463 9.07165, 5.64536 9.0523, 5.70923 9.05185, 6.41637 9.08109, 7.14014 9.09549, 7.88146 9.09504, 8.35603 9.09549, 8.83285 9.08109, 9.31192 9.05185, 9.38119 9.0523, 9.44057 9.07615, 9.49005 9.12383, 9.50984 9.16251, 9.51974 9.19625, 9.51974 9.22459, 9.51974 9.25383, 9.51479 9.28037, 9.50489 9.30376 L 9.4752 9.43331 C 9.44551 9.58265, 9.34925 9.65462, 9.18596 9.64923, 9.01323 9.64968, 8.86838 9.65462, 8.75233 9.66407, 8.63627 9.67397, 8.55125 9.69781, 8.49682 9.73559, 8.45229 9.75539, 8.39786 9.88719, 8.33354 10.1314 L 7.57737 13.0247 C 7.57737 13.0684, 7.55038 13.1165, 7.49595 13.1687, 7.45142 13.2119, 7.39204 13.2335, 7.31782 13.2335, 7.25395 13.2335, 7.20447 13.2096, 7.16983 13.1615, 7.05647 13.0324, 6.95391 12.8947, 6.86215 12.7481, 6.77083 12.6019, 6.7101 12.4854, 6.68042 12.3986, 6.39387 12.7396, 5.97373 13.018, 5.42044 13.2335, 4.86715 13.4494, 4.31072 13.5573, 3.75203 13.5573, 3.07009 13.5573, 2.46372 13.4147, 1.93247 13.1296, 1.40122 12.8444, 0.969835 12.4494, 0.638761 11.9452, 0.292842 11.4036, 0.0899695 10.8035, 0.0305919 10.1458, 0.0107995 9.96861, 0.000903249 9.78418, 0.000903249 9.59165, 0.000903249 9.10763, 0.0629796 8.61327, 0.186233 8.10901, 0.374261 7.40413, 0.672498 6.72399, 1.08004 6.06904, 1.48759 5.41409, 1.99769 4.81806, 2.61036 4.28007, 3.18884 3.7911, 3.81545 3.40245, 4.4902 3.11456, 5.16494 2.82667, 5.84058 2.68272, 6.51713 2.68227, 7.05602 2.68272, 7.5171 2.80148, 7.8999 3.03899, 8.28316 3.2765, 8.5661 3.56304, 8.74873 3.89861 L 9.7496 2.78304 C 9.78918 2.71646, 9.85576 2.68272, 9.94977 2.68227 L 10.0087 2.68227 C 10.1275 2.68272, 10.1868 2.7403, 10.1868 2.85501 L 10.1868 2.91259 Z" stroke="none" fill="#000000" />
			<rect />
		</svg>
	</g>
	<g transform="matrix(1 0 -0 1 157.858 64.8609)">
		<svg width="41.9907646" height="35.8877335">
			<defs />
			<path d="M 12.1229 3.38761 C 12.1085 3.45058, 12.0752 3.50321, 12.023 3.5464, 11.9713 3.58958, 11.9083 3.61117, 11.8341 3.61072, 11.602 3.61117, 11.3843 3.61612, 11.1819 3.62557, 10.9794 3.63546, 10.8287 3.66155, 10.7298 3.70429, 10.6362 3.73847, 10.5642 3.86308, 10.5148 4.07854 L 8.4172 12.1899 C 8.39741 12.2816, 8.38752 12.3558, 8.38752 12.413, 8.38752 12.4854, 8.40236 12.5335, 8.43205 12.5569, 8.49637 12.5956, 8.62997 12.6185, 8.8324 12.6257, 9.03482 12.6329, 9.25254 12.6365, 9.48465 12.6361, 9.6232 12.6365, 9.69202 12.6941, 9.69202 12.8088, 9.69202 12.8381, 9.68707 12.8691, 9.67718 12.9024 L 9.64749 13.0104 C 9.63309 13.0733, 9.5998 13.126, 9.54762 13.1687, 9.49589 13.2119, 9.43292 13.2335, 9.3587 13.2335, 8.74108 13.2047, 8.12077 13.1903, 7.4982 13.1903, 6.88059 13.1903, 6.25308 13.2047, 5.61567 13.2335, 5.5419 13.2335, 5.48747 13.2119, 5.45283 13.1687, 5.41819 13.1354, 5.40065 13.0994, 5.40065 13.0607, 5.40065 13.0324, 5.4056 13.0036, 5.4155 12.9744 L 5.44518 12.8664 C 5.47487 12.7085, 5.57159 12.6316, 5.73442 12.6361, 5.96654 12.6365, 6.18425 12.6329, 6.38668 12.6257, 6.5891 12.6185, 6.74249 12.5934, 6.84595 12.5497, 6.93502 12.502, 7.00429 12.3725, 7.05332 12.1611 L 8.06904 8.22417, 4.04442 8.22417, 3.02915 12.1899 C 2.99946 12.296, 2.98462 12.3797, 2.98462 12.4418, 2.98462 12.4998, 2.99721 12.5358, 3.02151 12.5497, 3.09078 12.5934, 3.22708 12.6185, 3.4295 12.6257, 3.63192 12.6329, 3.84919 12.6365, 4.0813 12.6361, 4.21985 12.6365, 4.28912 12.6941, 4.28912 12.8088, 4.28912 12.8381, 4.28417 12.8691, 4.27428 12.9024 L 4.24459 13.0104 C 4.2149 13.1597, 4.11864 13.2335, 3.95535 13.2335, 3.33818 13.2047, 2.71562 13.1903, 2.08766 13.1903, 1.47049 13.1903, 0.845232 13.2047, 0.212772 13.2335, 0.138551 13.2335, 0.0841213 13.2119, 0.0494844 13.1687, 0.0152974 13.1354, -0.00179609 13.0994, -0.00224591 13.0607, -0.00179609 13.0324, 0.00315204 13.0036, 0.0125984 12.9744 L 0.0422872 12.8664 C 0.0571315 12.8043, 0.0917684 12.7508, 0.146198 12.7049, 0.200627 12.6595, 0.262254 12.6365, 0.331077 12.6361, 0.563639 12.6365, 0.781356 12.6329, 0.983779 12.6257, 1.1862 12.6185, 1.33959 12.5934, 1.44305 12.5497, 1.53212 12.502, 1.60094 12.3725, 1.65043 12.1611 L 3.74798 4.04976 C 3.76777 3.95889, 3.77767 3.88692, 3.77767 3.83384, 3.77767 3.76231, 3.76282 3.71688, 3.73313 3.69709, 3.66926 3.6593, 3.53566 3.63546, 3.33324 3.62557, 3.13081 3.61612, 2.9131 3.61117, 2.68053 3.61072, 2.60676 3.61117, 2.55233 3.58733, 2.5177 3.53875, 2.48801 3.51041, 2.47316 3.47442, 2.47316 3.43079, 2.47316 3.40245, 2.48081 3.37591, 2.49521 3.35162 L 2.5177 3.23646 C 2.57213 3.09297, 2.66839 3.021, 2.80649 3.02055, 3.42455 3.04034, 4.04711 3.04978, 4.67418 3.04933, 5.30214 3.04978, 5.92965 3.04034, 6.55716 3.02055, 6.69571 3.021, 6.76453 3.08577, 6.76453 3.21487 L 6.76453 3.27245, 6.72 3.3948 C 6.69031 3.5392, 6.599 3.61117, 6.4456 3.61072, 6.21349 3.61117, 5.99398 3.61612, 5.78615 3.62557, 5.57878 3.63546, 5.42809 3.66065, 5.33408 3.70114, 5.24051 3.74207, 5.16629 3.86802, 5.11186 4.07854 L 4.20725 7.6196, 8.22468 7.6196, 9.13603 4.04976 C 9.16572 3.94449, 9.18056 3.86308, 9.18056 3.80505, 9.18056 3.74792, 9.16842 3.71418, 9.14368 3.70429, 9.0744 3.66155, 8.93991 3.63546, 8.73973 3.62557, 8.54001 3.61612, 8.32139 3.61117, 8.08388 3.61072, 8.01011 3.61117, 7.95568 3.58733, 7.92059 3.53875, 7.8909 3.51041, 7.87606 3.47442, 7.87606 3.43079, 7.87606 3.40245, 7.88371 3.37591, 7.89855 3.35162 L 7.92059 3.24366 C 7.93589 3.17709, 7.97187 3.12311, 8.02855 3.08217, 8.08523 3.04169, 8.14596 3.021, 8.20983 3.02055, 8.82745 3.04034, 9.45001 3.04978, 10.0775 3.04933, 10.705 3.04978, 11.3325 3.04034, 11.9601 3.02055, 12.0293 3.021, 12.0887 3.04484, 12.1377 3.09252, 12.1575 3.1312, 12.1674 3.16719, 12.1674 3.20048, 12.1674 3.22972, 12.1602 3.25626, 12.1454 3.27965 Z" stroke="none" fill="#000000" />
			<rect />
		</svg>
	</g>
	<path d="M 160.079 62.5602 L -160.08 -62.5598" fill="none" stroke="#000000" stroke-width="4.5999999" stroke-linecap="round" stroke-linejoin="round" marker-end="url(#CustomMarker-01)" transform="matrix(0.217391 0 0 0.217391 64.7428 99.4667)" />
	<path d="M 69 62.5602 L -68.9998 -62.5598" fill="none" stroke="#000000" stroke-width="4.5999999" stroke-linecap="round" stroke-linejoin="round" marker-end="url(#CustomMarker-02)" transform="matrix(0.217391 0 0 0.217391 84.5426 99.4667)" />
	<path d="M -58.8806 64.9411 L 58.8795 -64.9406" fill="none" stroke="#000000" stroke-width="4.5999999" stroke-linecap="round" stroke-linejoin="round" marker-end="url(#CustomMarker-03)" transform="matrix(0.217391 0 0 0.217391 112.343 98.9491)" />
	<path d="M -148.121 64.9411 L 148.12 -64.9406" fill="none" stroke="#000000" stroke-width="4.5999999" stroke-linecap="round" stroke-linejoin="round" marker-end="url(#CustomMarker-04)" transform="matrix(0.217391 0 0 0.217391 131.743 98.9491)" />
	<path d="M -58.8802 -58.8802 L 58.8802 -58.8802, 58.8802 58.8802, -58.8802 58.8802 Z" fill="none" stroke="#000000" stroke-width="4.5999999" stroke-linecap="round" stroke-linejoin="round" transform="matrix(0.217391 0 0 0.217391 182.743 19.4667)" />
	<g transform="matrix(1 0 -0 1 8.24999 10.6609)">
		<svg width="32.9815331" height="38.9535408">
			<defs />
			<path d="M 9.7415 13.0175 C 9.68752 13.1615, 9.5935 13.2335, 9.45991 13.2335, 8.96599 13.2047, 8.47388 13.1903, 7.98447 13.1903 L 7.73976 13.1903 C 7.16173 13.2002, 6.581 13.2146, 5.99802 13.2335, 5.86487 13.2335, 5.7929 13.1714, 5.783 13.0463 L 5.783 12.9888, 5.81269 12.8664 C 5.85228 12.7085, 5.94854 12.6316, 6.10148 12.6361, 6.28456 12.6365, 6.44785 12.6307, 6.5909 12.6185, 6.73439 12.6069, 6.87294 12.5646, 7.00609 12.4921, 7.05557 12.4688, 7.09785 12.435, 7.13204 12.3914, 7.15183 12.3536, 7.16443 12.3149, 7.16893 12.2762 L 7.16893 12.233, 6.99124 9.84355, 3.64047 9.84355, 2.46192 11.8588 C 2.39759 11.9744, 2.3652 12.0801, 2.3652 12.1755, 2.3652 12.2573, 2.38994 12.332, 2.43942 12.3986, 2.54828 12.5574, 2.75116 12.6365, 3.04714 12.6361, 3.18074 12.6365, 3.25226 12.6941, 3.26216 12.8088, 3.26216 12.8381, 3.25721 12.8691, 3.24732 12.9024 L 3.21808 13.0175 C 3.16365 13.1615, 3.06738 13.2335, 2.92884 13.2335, 2.47451 13.2146, 2.02468 13.2002, 1.57935 13.1903 L 1.37963 13.1903 C 0.994123 13.1903, 0.603671 13.2047, 0.208272 13.2335, 0.13405 13.2335, 0.0796205 13.2096, 0.0449836 13.1615, 0.0152949 13.1332, 0.000450552 13.0994, 0.000450552 13.0607, 0.000450552 13.0324, 0.00539869 13.0036, 0.0152949 12.9744 L 0.0449836 12.8664 C 0.0845686 12.7085, 0.181282 12.6316, 0.334224 12.6361, 0.492564 12.6365, 0.648204 12.6199, 0.801146 12.5862, 0.954538 12.5529, 1.09803 12.4926, 1.23118 12.4062, 1.36478 12.3199, 1.48848 12.2155, 1.60184 12.0931, 1.71565 11.9708, 1.81686 11.8327, 1.90593 11.6789 L 7.13924 2.71826 C 7.2283 2.58421, 7.34211 2.51944, 7.48066 2.52393 L 7.62145 2.52393 C 7.77979 2.52438, 7.86841 2.59861, 7.8882 2.74705 L 8.54045 12.1251 C 8.55035 12.2501, 8.5652 12.3451, 8.58499 12.4098, 8.60478 12.4746, 8.63942 12.5214, 8.6889 12.5497, 8.75817 12.5934, 8.87288 12.6185, 9.03347 12.6257, 9.19451 12.6329, 9.37579 12.6365, 9.57821 12.6361, 9.71676 12.6365, 9.78603 12.6941, 9.78603 12.8088, 9.78603 12.8381, 9.78108 12.8691, 9.77119 12.9024 Z M 6.63543 4.74069 L 3.99628 9.26058, 6.94671 9.26058 Z" stroke="none" fill="#000000" />
			<rect />
		</svg>
	</g>
	<path d="M 38.64 69.9434 L -38.6398 -69.9434" fill="none" stroke="#000000" stroke-width="4.5999999" stroke-linecap="round" stroke-linejoin="round" marker-end="url(#CustomMarker-05)" transform="matrix(0.217391 0 0 0.217391 21.5427 45.6617)" />
	<g transform="matrix(1 0 -0 1 28.4163 10.2187)">
		<svg width="108.009209" height="48.0116043">
			<defs />
			<path d="M 10.2404 6.03937 C 10.1567 6.38529, 9.98981 6.70916, 9.74015 7.01145, 9.49049 7.31373, 9.2026 7.57058, 8.87648 7.78111, 8.61963 7.95429, 8.35648 8.09104, 8.08703 8.1918, 7.81758 8.29256, 7.72222 8.33574, 7.80139 8.3209, 7.78699 8.3164, 7.91654 8.37803, 8.19094 8.50488, 8.46533 8.63218, 8.70599 8.80582, 8.91336 9.02623, 9.14593 9.26194, 9.30427 9.54488, 9.38793 9.87551, 9.42752 10.0392, 9.45001 10.1998, 9.45451 10.3577, 9.45451 10.5404, 9.42752 10.7302, 9.37309 10.9263, 9.27952 11.2961, 9.10634 11.6492, 8.85444 11.9848, 8.60253 12.3208, 8.3007 12.6132, 7.94983 12.8624, 7.57917 13.1314, 7.18512 13.3342, 6.76768 13.471, 6.35024 13.6077, 5.9337 13.6757, 5.51805 13.6757 L 0.210521 13.6757 C 0.136299 13.6757, 0.0818699 13.6541, 0.0472331 13.6109, 0.0130461 13.5776, -0.00449724 13.5416, -0.00449724 13.5029, -0.00449724 13.4746, 0.000450877 13.4458, 0.0103471 13.4166 L 0.0400358 13.3086 C 0.0697246 13.1507, 0.165988 13.0738, 0.328826 13.0783, 0.561388 13.0787, 0.779105 13.0751, 0.981528 13.0679, 1.18395 13.0607, 1.33734 13.0356, 1.4408 12.9919, 1.52987 12.9442, 1.59914 12.8147, 1.64862 12.6033 L 3.73178 4.49195 C 3.76147 4.38669, 3.77587 4.30527, 3.77587 4.24725, 3.77587 4.19012, 3.76372 4.15638, 3.73898 4.14649, 3.66971 4.10375, 3.53521 4.07766, 3.33503 4.06777, 3.13486 4.05832, 2.91624 4.05337, 2.67873 4.05292, 2.60496 4.05337, 2.55053 4.02953, 2.51589 3.98095, 2.48621 3.95261, 2.47136 3.91662, 2.47136 3.87299, 2.47136 3.84465, 2.47901 3.81811, 2.4934 3.79382 L 2.51589 3.68586 C 2.53074 3.61929, 2.56673 3.56531, 2.6234 3.52437, 2.68008 3.48389, 2.74081 3.46319, 2.80514 3.46275 L 7.71997 3.46275 C 8.12526 3.46319, 8.50807 3.52347, 8.86883 3.64313, 9.22959 3.76323, 9.52873 3.95261, 9.76579 4.21126, 9.99835 4.44697, 10.1616 4.72047, 10.2552 5.03175, 10.2948 5.19054, 10.3146 5.35113, 10.3146 5.51397, 10.3146 5.68715, 10.2898 5.86213, 10.2404 6.03937 Z M 8.74288 6.01058 C 8.79236 5.81895, 8.8171 5.62732, 8.8171 5.4348 L 8.8171 5.26206 C 8.79731 5.0322, 8.72803 4.81853, 8.60928 4.6215, 8.50582 4.44427, 8.36862 4.30527, 8.19814 4.20451, 8.02765 4.10375, 7.82883 4.05337, 7.60121 4.05292 L 5.64401 4.05292 C 5.38221 4.05337, 5.23151 4.07001, 5.19193 4.1033, 5.13255 4.15188, 5.07587 4.29088, 5.02144 4.52074 L 4.10244 8.13377, 6.12622 8.13377 C 6.40782 8.13422, 6.68716 8.07934, 6.9638 7.96868, 7.2409 7.85848, 7.50495 7.70238, 7.75685 7.50041, 8.2809 7.07847, 8.60973 6.58186, 8.74288 6.01058 Z M 7.83108 10.8831 C 7.90035 10.6389, 7.93499 10.3964, 7.93499 10.1562 L 7.93499 10.0051 C 7.91519 9.73696, 7.84367 9.48956, 7.71997 9.26374, 7.61111 9.06762, 7.46401 8.90793, 7.27869 8.78557, 7.09336 8.66322, 6.87744 8.60204, 6.63003 8.60159 L 3.96884 8.60159, 2.93828 12.6321 C 2.8987 12.7958, 2.87891 12.9132, 2.87891 12.9847, 2.87891 13.0234, 2.88161 13.045, 2.88655 13.0495, 2.89645 13.0643, 3.0251 13.0738, 3.27206 13.0783 L 5.25131 13.0783 C 5.523 13.0787, 5.7974 13.0203, 6.07404 12.9024, 6.35114 12.785, 6.60574 12.6303, 6.83785 12.4377, 7.09515 12.2223, 7.30612 11.9803, 7.47166 11.7113, 7.6372 11.4427, 7.7573 11.1665, 7.83108 10.8831 Z" stroke="none" fill="#000000" />
			<path d="M 28.6037 13.4597 C 28.5497 13.6037, 28.4557 13.6757, 28.3221 13.6757, 27.8282 13.6469, 27.3365 13.6325, 26.8471 13.6325 L 26.6029 13.6325 C 26.0248 13.6424, 25.4441 13.6568, 24.8611 13.6757, 24.728 13.6757, 24.656 13.6136, 24.6461 13.4885 L 24.6461 13.431, 24.6758 13.3086 C 24.7154 13.1507, 24.8116 13.0738, 24.9646 13.0783, 25.1477 13.0787, 25.311 13.0729, 25.454 13.0607, 25.597 13.0491, 25.7356 13.0068, 25.8687 12.9343, 25.9182 12.911, 25.9605 12.8772, 25.9947 12.8336, 26.0145 12.7958, 26.0271 12.7571, 26.032 12.7184 L 26.032 12.6752, 25.8539 10.2858, 22.504 10.2858, 21.3255 12.301 C 21.2616 12.4166, 21.2292 12.5223, 21.2292 12.6177, 21.2292 12.6995, 21.2539 12.7742, 21.3034 12.8408, 21.4123 12.9996, 21.6147 13.0787, 21.9111 13.0783, 22.0447 13.0787, 22.1163 13.1363, 22.1262 13.251, 22.1262 13.2803, 22.1212 13.3113, 22.1113 13.3446 L 22.0816 13.4597 C 22.0277 13.6037, 21.9309 13.6757, 21.7924 13.6757, 21.3381 13.6568, 20.8882 13.6424, 20.4434 13.6325 L 20.2436 13.6325 C 19.8581 13.6325, 19.4677 13.6469, 19.0723 13.6757, 18.9985 13.6757, 18.9441 13.6518, 18.9094 13.6037, 18.8797 13.5754, 18.8649 13.5416, 18.8649 13.5029, 18.8649 13.4746, 18.8699 13.4458, 18.8797 13.4166 L 18.9094 13.3086 C 18.949 13.1507, 19.0453 13.0738, 19.1982 13.0783, 19.3566 13.0787, 19.5127 13.0621, 19.6656 13.0284, 19.8185 12.9951, 19.962 12.9348, 20.0952 12.8484, 20.2288 12.7621, 20.3525 12.6577, 20.4658 12.5353, 20.5797 12.413, 20.6809 12.2749, 20.7695 12.1211 L 26.0023 3.16046 C 26.0914 3.02641, 26.2048 2.96164, 26.3433 2.96613 L 26.4841 2.96613 C 26.6425 2.96658, 26.7311 3.04081, 26.7509 3.18925 L 27.4031 12.5673 C 27.413 12.6923, 27.4279 12.7873, 27.4476 12.852, 27.4674 12.9168, 27.5021 12.9636, 27.5516 12.9919, 27.6208 13.0356, 27.7355 13.0607, 27.8961 13.0679, 28.0567 13.0751, 28.2384 13.0787, 28.4409 13.0783, 28.5794 13.0787, 28.6482 13.1363, 28.6482 13.251, 28.6482 13.2803, 28.6433 13.3113, 28.6334 13.3446 Z M 25.4985 5.18289 L 22.8598 9.70278, 25.8098 9.70278 Z" stroke="none" fill="#000000" />
			<path d="M 0.551354 -6.85682 C -0.629253 -6.42711, -1.41504 -5.30489, -1.41504 -4.04851 L -1.41504 -2.39894 C -1.41504 -1.39043, -2.0458 -0.489604, -2.99349 -0.144674 L -2.99349 0.144673 C -2.0458 0.489602, -1.41504 1.39043, -1.41504 2.39893 L -1.41504 4.04852 C -1.41504 5.30489, -0.629249 6.42712, 0.551358 6.85682 L 1.14926 6.81229 C 0.304311 6.41828, -0.23584 5.57042, -0.23584 4.63812 L -0.23584 2.39893 C -0.23584 1.39043, -0.866604 0.489603, -1.81429 0.144673 L -1.81429 -0.144674 C -0.866603 -0.489604, -0.23584 -1.39043, -0.23584 -2.39894 L -0.23584 -4.63811 C -0.23584 -5.57042, 0.304309 -6.41828, 1.14926 -6.81229" stroke="none" fill="#000000" transform="matrix(1 0 -0 1 15.8097 9.24805)" />
			<path d="M 0.551354 -6.85682 C -0.629253 -6.42711, -1.41504 -5.30489, -1.41504 -4.04851 L -1.41504 -2.39894 C -1.41504 -1.39043, -2.0458 -0.489604, -2.99349 -0.144674 L -2.99349 0.144673 C -2.0458 0.489602, -1.41504 1.39043, -1.41504 2.39893 L -1.41504 4.04852 C -1.41504 5.30489, -0.629249 6.42712, 0.551358 6.85682 L 1.14926 6.81229 C 0.304311 6.41828, -0.23584 5.57042, -0.23584 4.63812 L -0.23584 2.39893 C -0.23584 1.39043, -0.866604 0.489603, -1.81429 0.144673 L -1.81429 -0.144674 C -0.866603 -0.489604, -0.23584 -1.39043, -0.23584 -2.39894 L -0.23584 -4.63811 C -0.23584 -5.57042, 0.304309 -6.41828, 1.14926 -6.81229" stroke="none" fill="#000000" transform="matrix(-1 1.50996e-007 -1.50996e-007 -1 31.7102 9.24805)" />
			<rect />
		</svg>
	</g>
	<g transform="matrix(1 0 -0 1 83.7093 10.6609)">
		<svg width="35.935379" height="38.9535408">
			<defs />
			<path d="M 9.17112 6.84949 C 9.14143 6.98444, 9.05506 7.05371, 8.91157 7.05821 L 8.74873 7.05821 C 8.63537 7.05866, 8.5733 7.00108, 8.5634 6.88548 L 8.5634 6.8279 C 8.61288 6.52606, 8.64032 6.23592, 8.64482 5.95703, 8.64482 5.79914, 8.63987 5.63855, 8.62997 5.47481, 8.58049 5.05287, 8.46939 4.67997, 8.29665 4.35609, 8.12392 4.03221, 7.89135 3.77311, 7.59986 3.57878, 7.30838 3.38446, 6.95211 3.28729, 6.53197 3.28684, 6.01827 3.28729, 5.50186 3.41235, 4.98276 3.66155, 4.46411 3.91121, 3.99449 4.24453, 3.57435 4.66152, 3.08493 5.15633, 2.70213 5.70333, 2.42548 6.30295, 2.14884 6.90302, 1.93112 7.51434, 1.77278 8.1378, 1.60005 8.77161, 1.50108 9.38563, 1.47634 9.9803 L 1.47634 10.1818 C 1.47634 10.7054, 1.58025 11.1827, 1.78762 11.6141, 1.98555 12.0225, 2.27434 12.3514, 2.65489 12.6006, 3.03545 12.8502, 3.48798 12.9748, 4.01158 12.9744, 4.43667 12.9748, 4.85411 12.8839, 5.26435 12.7013, 5.6746 12.5191, 6.05155 12.2731, 6.39522 11.9636, 6.73889 11.6541, 7.03893 11.2956, 7.29578 10.8876, 7.55308 10.4801, 7.73841 10.0478, 7.85177 9.59165, 7.88146 9.4576, 7.96828 9.39058, 8.11132 9.39013 L 8.27416 9.39013 C 8.39786 9.39058, 8.46444 9.44321, 8.47433 9.54847, 8.47433 9.5777, 8.46714 9.60424, 8.45229 9.62764, 8.31914 10.1557, 8.09918 10.6573, 7.79239 11.1323, 7.48606 11.6073, 7.1217 12.0239, 6.69886 12.381, 6.27647 12.7387, 5.81314 13.0238, 5.30889 13.2371, 4.80508 13.4507, 4.28597 13.5573, 3.75203 13.5573, 3.07009 13.5573, 2.46372 13.4147, 1.93247 13.1296, 1.40122 12.8444, 0.969835 12.4494, 0.638761 11.9452, 0.292842 11.4036, 0.0899694 10.8035, 0.0305918 10.1458, 0.0107995 9.96861, 0.000903189 9.78418, 0.000903189 9.59165, 0.000903189 9.10763, 0.0629796 8.61327, 0.186233 8.10901, 0.374261 7.40413, 0.672498 6.72399, 1.08004 6.06904, 1.48759 5.41409, 1.99769 4.81806, 2.61036 4.28007, 3.18884 3.7911, 3.81545 3.40245, 4.4902 3.11456, 5.16494 2.82667, 5.84058 2.68272, 6.51713 2.68227, 7.05602 2.68272, 7.5171 2.80148, 7.8999 3.03899, 8.28316 3.2765, 8.5661 3.56304, 8.74873 3.89861 L 9.7496 2.78304 C 9.78918 2.71646, 9.85576 2.68272, 9.94977 2.68227 L 10.0087 2.68227 C 10.1275 2.68272, 10.1868 2.7403, 10.1868 2.85501 L 10.1868 2.91259 Z" stroke="none" fill="#000000" />
			<rect />
		</svg>
	</g>
	<path d="M -58.8802 -58.8802 L 58.8802 -58.8802, 58.8802 58.8802, -58.8802 58.8802 Z" fill="none" stroke="#000000" stroke-width="4.5999999" stroke-linecap="round" stroke-linejoin="round" transform="matrix(0.217391 0 0 0.217391 88.8023 19.4667)" />
	<path d="M 60.2599 65.7799 L -60.2599 -65.7802" fill="none" stroke="#000000" stroke-width="4.5999999" stroke-linecap="round" stroke-linejoin="round" marker-end="url(#CustomMarker-06)" transform="matrix(0.217391 0 0 0.217391 58.6427 46.5668)" />
	<path d="M -38.0518 66.9572 L 38.0515 -66.9572" fill="none" stroke="#000000" stroke-width="4.5999999" stroke-linecap="round" stroke-linejoin="round" marker-end="url(#CustomMarker-07)" transform="matrix(0.217391 0 0 0.217391 80.5302 46.8226)" />
	<g transform="matrix(1 0 -0 1 108.016 10.2187)">
		<svg width="108.009209" height="48.0116043">
			<defs />
			<path d="M 10.2404 6.03937 C 10.1567 6.38529, 9.98981 6.70916, 9.74015 7.01145, 9.49049 7.31373, 9.2026 7.57058, 8.87648 7.78111, 8.61963 7.95429, 8.35648 8.09104, 8.08703 8.1918, 7.81758 8.29256, 7.72222 8.33574, 7.80139 8.3209, 7.78699 8.3164, 7.91654 8.37803, 8.19094 8.50488, 8.46533 8.63218, 8.70599 8.80582, 8.91336 9.02623, 9.14593 9.26194, 9.30427 9.54488, 9.38793 9.87551, 9.42752 10.0392, 9.45001 10.1998, 9.45451 10.3577, 9.45451 10.5404, 9.42752 10.7302, 9.37309 10.9263, 9.27952 11.2961, 9.10634 11.6492, 8.85444 11.9848, 8.60253 12.3208, 8.3007 12.6132, 7.94983 12.8624, 7.57917 13.1314, 7.18512 13.3342, 6.76768 13.471, 6.35024 13.6077, 5.9337 13.6757, 5.51805 13.6757 L 0.210521 13.6757 C 0.136299 13.6757, 0.0818699 13.6541, 0.0472331 13.6109, 0.0130461 13.5776, -0.00449724 13.5416, -0.00449724 13.5029, -0.00449724 13.4746, 0.000450877 13.4458, 0.0103471 13.4166 L 0.0400358 13.3086 C 0.0697246 13.1507, 0.165988 13.0738, 0.328826 13.0783, 0.561388 13.0787, 0.779105 13.0751, 0.981528 13.0679, 1.18395 13.0607, 1.33734 13.0356, 1.4408 12.9919, 1.52987 12.9442, 1.59914 12.8147, 1.64862 12.6033 L 3.73178 4.49195 C 3.76147 4.38669, 3.77587 4.30527, 3.77587 4.24725, 3.77587 4.19012, 3.76372 4.15638, 3.73898 4.14649, 3.66971 4.10375, 3.53521 4.07766, 3.33503 4.06777, 3.13486 4.05832, 2.91624 4.05337, 2.67873 4.05292, 2.60496 4.05337, 2.55053 4.02953, 2.51589 3.98095, 2.48621 3.95261, 2.47136 3.91662, 2.47136 3.87299, 2.47136 3.84465, 2.47901 3.81811, 2.4934 3.79382 L 2.51589 3.68586 C 2.53074 3.61929, 2.56673 3.56531, 2.6234 3.52437, 2.68008 3.48389, 2.74081 3.46319, 2.80514 3.46275 L 7.71997 3.46275 C 8.12526 3.46319, 8.50807 3.52347, 8.86883 3.64313, 9.22959 3.76323, 9.52873 3.95261, 9.76579 4.21126, 9.99835 4.44697, 10.1616 4.72047, 10.2552 5.03175, 10.2948 5.19054, 10.3146 5.35113, 10.3146 5.51397, 10.3146 5.68715, 10.2898 5.86213, 10.2404 6.03937 Z M 8.74288 6.01058 C 8.79236 5.81895, 8.8171 5.62732, 8.8171 5.4348 L 8.8171 5.26206 C 8.79731 5.0322, 8.72803 4.81853, 8.60928 4.6215, 8.50582 4.44427, 8.36862 4.30527, 8.19814 4.20451, 8.02765 4.10375, 7.82883 4.05337, 7.60121 4.05292 L 5.64401 4.05292 C 5.38221 4.05337, 5.23151 4.07001, 5.19193 4.1033, 5.13255 4.15188, 5.07587 4.29088, 5.02144 4.52074 L 4.10244 8.13377, 6.12622 8.13377 C 6.40782 8.13422, 6.68716 8.07934, 6.9638 7.96868, 7.2409 7.85848, 7.50495 7.70238, 7.75685 7.50041, 8.2809 7.07847, 8.60973 6.58186, 8.74288 6.01058 Z M 7.83108 10.8831 C 7.90035 10.6389, 7.93499 10.3964, 7.93499 10.1562 L 7.93499 10.0051 C 7.91519 9.73696, 7.84367 9.48956, 7.71997 9.26374, 7.61111 9.06762, 7.46401 8.90793, 7.27869 8.78557, 7.09336 8.66322, 6.87744 8.60204, 6.63003 8.60159 L 3.96884 8.60159, 2.93828 12.6321 C 2.8987 12.7958, 2.87891 12.9132, 2.87891 12.9847, 2.87891 13.0234, 2.88161 13.045, 2.88655 13.0495, 2.89645 13.0643, 3.0251 13.0738, 3.27206 13.0783 L 5.25131 13.0783 C 5.523 13.0787, 5.7974 13.0203, 6.07404 12.9024, 6.35114 12.785, 6.60574 12.6303, 6.83785 12.4377, 7.09515 12.2223, 7.30612 11.9803, 7.47166 11.7113, 7.6372 11.4427, 7.7573 11.1665, 7.83108 10.8831 Z" stroke="none" fill="#000000" />
			<path d="M 28.6037 13.4597 C 28.5497 13.6037, 28.4557 13.6757, 28.3221 13.6757, 27.8282 13.6469, 27.3365 13.6325, 26.8471 13.6325 L 26.6029 13.6325 C 26.0248 13.6424, 25.4441 13.6568, 24.8611 13.6757, 24.728 13.6757, 24.656 13.6136, 24.6461 13.4885 L 24.6461 13.431, 24.6758 13.3086 C 24.7154 13.1507, 24.8116 13.0738, 24.9646 13.0783, 25.1477 13.0787, 25.311 13.0729, 25.454 13.0607, 25.597 13.0491, 25.7356 13.0068, 25.8687 12.9343, 25.9182 12.911, 25.9605 12.8772, 25.9947 12.8336, 26.0145 12.7958, 26.0271 12.7571, 26.032 12.7184 L 26.032 12.6752, 25.8539 10.2858, 22.504 10.2858, 21.3255 12.301 C 21.2616 12.4166, 21.2292 12.5223, 21.2292 12.6177, 21.2292 12.6995, 21.2539 12.7742, 21.3034 12.8408, 21.4123 12.9996, 21.6147 13.0787, 21.9111 13.0783, 22.0447 13.0787, 22.1163 13.1363, 22.1262 13.251, 22.1262 13.2803, 22.1212 13.3113, 22.1113 13.3446 L 22.0816 13.4597 C 22.0277 13.6037, 21.9309 13.6757, 21.7924 13.6757, 21.3381 13.6568, 20.8882 13.6424, 20.4434 13.6325 L 20.2436 13.6325 C 19.8581 13.6325, 19.4677 13.6469, 19.0723 13.6757, 18.9985 13.6757, 18.9441 13.6518, 18.9094 13.6037, 18.8797 13.5754, 18.8649 13.5416, 18.8649 13.5029, 18.8649 13.4746, 18.8699 13.4458, 18.8797 13.4166 L 18.9094 13.3086 C 18.949 13.1507, 19.0453 13.0738, 19.1982 13.0783, 19.3566 13.0787, 19.5127 13.0621, 19.6656 13.0284, 19.8185 12.9951, 19.962 12.9348, 20.0952 12.8484, 20.2288 12.7621, 20.3525 12.6577, 20.4658 12.5353, 20.5797 12.413, 20.6809 12.2749, 20.7695 12.1211 L 26.0023 3.16046 C 26.0914 3.02641, 26.2048 2.96164, 26.3433 2.96613 L 26.4841 2.96613 C 26.6425 2.96658, 26.7311 3.04081, 26.7509 3.18925 L 27.4031 12.5673 C 27.413 12.6923, 27.4279 12.7873, 27.4476 12.852, 27.4674 12.9168, 27.5021 12.9636, 27.5516 12.9919, 27.6208 13.0356, 27.7355 13.0607, 27.8961 13.0679, 28.0567 13.0751, 28.2384 13.0787, 28.4409 13.0783, 28.5794 13.0787, 28.6482 13.1363, 28.6482 13.251, 28.6482 13.2803, 28.6433 13.3113, 28.6334 13.3446 Z M 25.4985 5.18289 L 22.8598 9.70278, 25.8098 9.70278 Z" stroke="none" fill="#000000" />
			<path d="M 0.551354 -6.85682 C -0.629253 -6.42711, -1.41504 -5.30489, -1.41504 -4.04851 L -1.41504 -2.39894 C -1.41504 -1.39043, -2.0458 -0.489604, -2.99349 -0.144674 L -2.99349 0.144673 C -2.0458 0.489602, -1.41504 1.39043, -1.41504 2.39893 L -1.41504 4.04852 C -1.41504 5.30489, -0.629249 6.42712, 0.551358 6.85682 L 1.14926 6.81229 C 0.304311 6.41828, -0.23584 5.57042, -0.23584 4.63812 L -0.23584 2.39893 C -0.23584 1.39043, -0.866604 0.489603, -1.81429 0.144673 L -1.81429 -0.144674 C -0.866603 -0.489604, -0.23584 -1.39043, -0.23584 -2.39894 L -0.23584 -4.63811 C -0.23584 -5.57042, 0.304309 -6.41828, 1.14926 -6.81229" stroke="none" fill="#000000" transform="matrix(1 0 -0 1 15.8097 9.24805)" />
			<path d="M 0.551354 -6.85682 C -0.629253 -6.42711, -1.41504 -5.30489, -1.41504 -4.04851 L -1.41504 -2.39894 C -1.41504 -1.39043, -2.0458 -0.489604, -2.99349 -0.144674 L -2.99349 0.144673 C -2.0458 0.489602, -1.41504 1.39043, -1.41504 2.39893 L -1.41504 4.04852 C -1.41504 5.30489, -0.629249 6.42712, 0.551358 6.85682 L 1.14926 6.81229 C 0.304311 6.41828, -0.23584 5.57042, -0.23584 4.63812 L -0.23584 2.39893 C -0.23584 1.39043, -0.866604 0.489603, -1.81429 0.144673 L -1.81429 -0.144674 C -0.866603 -0.489604, -0.23584 -1.39043, -0.23584 -2.39894 L -0.23584 -4.63811 C -0.23584 -5.57042, 0.304309 -6.41828, 1.14926 -6.81229" stroke="none" fill="#000000" transform="matrix(-1 1.50996e-007 -1.50996e-007 -1 31.7102 9.24805)" />
			<rect />
		</svg>
	</g>
	<path d="M 0 69.4602 L 0 -69.4598" fill="none" stroke="#000000" stroke-width="4.5999999" stroke-linecap="round" stroke-linejoin="round" marker-end="url(#CustomMarker-08)" transform="matrix(0.217391 0 0 0.217391 125.143 45.7667)" />
	<path d="M 172.824 67.5403 L -172.823 -67.5402" fill="none" stroke="#000000" stroke-width="4.5999999" stroke-linecap="round" stroke-linejoin="round" stroke-dasharray="6.923, 11.477" marker-end="url(#CustomMarker-09)" transform="matrix(0.217391 0 0 0.217391 126.372 46.1841)" />
	<g transform="matrix(1 0 -0 1 177.264 10.6609)">
		<svg width="35.935379" height="35.8877335">
			<defs />
			<path d="M 10.7457 8.23856 C 10.5775 8.88677, 10.3121 9.51293, 9.94865 10.1175, 9.58563 10.7221, 9.12996 11.2713, 8.58117 11.7652, 8.08185 12.2119, 7.53351 12.5682, 6.93524 12.8345, 6.33742 13.1008, 5.7396 13.2335, 5.14132 13.2335 L 0.211646 13.2335 C 0.0784966 13.2335, 0.0069738 13.1714, -0.00337227 13.0463 L -0.00337227 12.9888, 0.0263165 12.8664 C 0.0659014 12.7085, 0.162165 12.6316, 0.315107 12.6361, 0.547668 12.6365, 0.767635 12.6329, 0.975006 12.6257, 1.18283 12.6185, 1.33577 12.5934, 1.43473 12.5497, 1.52875 12.4975, 1.60027 12.368, 1.64975 12.1611 L 3.73291 4.04976 C 3.7626 3.94449, 3.77699 3.86308, 3.77699 3.80505, 3.77699 3.74792, 3.76485 3.71418, 3.74011 3.70429, 3.67083 3.66155, 3.53633 3.63546, 3.33616 3.62557, 3.13598 3.61612, 2.91737 3.61117, 2.67986 3.61072, 2.54176 3.61117, 2.47249 3.5464, 2.47249 3.4164 L 2.47249 3.35882, 2.51702 3.23646 C 2.54671 3.09297, 2.63847 3.021, 2.79142 3.02055 L 7.73594 3.02055 C 8.3486 3.021, 8.88255 3.16269, 9.33733 3.44563, 9.7921 3.72903, 10.1578 4.10058, 10.4345 4.56076, 10.7309 5.07941, 10.8987 5.65519, 10.9383 6.2881, 10.9482 6.42305, 10.9531 6.54766, 10.9531 6.66236, 10.9531 7.17607, 10.8843 7.70147, 10.7457 8.23856 Z M 9.31484 4.89184 C 9.14705 4.49419, 8.8839 4.1811, 8.52539 3.95304, 8.16732 3.72543, 7.74853 3.61117, 7.26901 3.61072 L 5.67482 3.61072 C 5.42292 3.61117, 5.27222 3.63051, 5.22274 3.66875, 5.17326 3.70743, 5.12153 3.84373, 5.0671 4.07854 L 2.9691 12.1899 C 2.92951 12.3536, 2.90972 12.471, 2.90972 12.5425 L 2.90972 12.6001 C 2.92951 12.6199, 3.06086 12.6316, 3.30287 12.6361 L 4.89662 12.6361 C 5.38108 12.6365, 5.8642 12.5277, 6.34596 12.3091, 6.82818 12.0909, 7.25912 11.7873, 7.63967 11.3982, 8.07466 10.9474, 8.40843 10.445, 8.64054 9.89079, 8.87265 9.3366, 9.05798 8.77656, 9.19608 8.20977, 9.34947 7.62005, 9.45563 7.03707, 9.51501 6.46084, 9.52491 6.32679, 9.52985 6.19724, 9.52985 6.07219, 9.52985 5.65025, 9.45833 5.2571, 9.31484 4.89184 Z" stroke="none" fill="#000000" />
			<rect />
		</svg>
	</g>
	<path d="M -43.2399 65.7801 L 43.24 -65.78" fill="none" stroke="#000000" stroke-width="4.5999999" stroke-linecap="round" stroke-linejoin="round" marker-end="url(#CustomMarker-10)" transform="matrix(0.217391 0 0 0.217391 173.343 46.5667)" />
	<path d="M -58.8802 -58.8802 L 58.8802 -58.8802, 58.8802 58.8802, -58.8802 58.8802 Z" fill="none" stroke="#000000" stroke-width="4.5999999" stroke-linecap="round" stroke-linejoin="round" transform="matrix(0.217391 0 0 0.217391 125.143 73.6667)" />
</svg>
