<?xml version="1.0"?>
<svg xmlns="http://www.w3.org/2000/svg" xmlns:xlink="http://www.w3.org/1999/xlink" width="611.447754" height="575.224365">
	<defs>
		<marker id="CustomMarker-01" markerUnits="strokeWidth" markerWidth="15.000001" markerHeight="9" viewBox="-15 -4.5 15 9" orient="auto-start-reverse">
			<path d="M 0 -0 L -10 -3, -8 -0.5, -8 0.5, -10 3 Z" fill="#FF1E00" stroke="#FF1E00" stroke-linejoin="round" />
		</marker>
		<marker id="CustomMarker-02" markerUnits="strokeWidth" markerWidth="15.000001" markerHeight="9" viewBox="-15 -4.5 15 9" orient="auto-start-reverse">
			<path d="M 0 -0 L -10 -3, -8 -0.5, -8 0.5, -10 3 Z" fill="#FF1E00" stroke="#FF1E00" stroke-linejoin="round" />
		</marker>
		<marker id="CustomMarker-03" markerUnits="strokeWidth" markerWidth="15.000001" markerHeight="9" viewBox="-15 -4.5 15 9" orient="auto-start-reverse">
			<path d="M 0 -0 L -10 -3, -8 -0.5, -8 0.5, -10 3 Z" fill="#FF1E00" stroke="#FF1E00" stroke-linejoin="round" />
		</marker>
		<marker id="CustomMarker-04" markerUnits="strokeWidth" markerWidth="15.000001" markerHeight="9" viewBox="-15 -4.5 15 9" orient="auto-start-reverse">
			<path d="M 0 -0 L -10 -3, -8 -0.5, -8 0.5, -10 3 Z" fill="#0006BF" stroke="#0006BF" stroke-linejoin="round" />
		</marker>
		<marker id="CustomMarker-05" markerUnits="strokeWidth" markerWidth="15.000001" markerHeight="9" viewBox="-15 -4.5 15 9" orient="auto-start-reverse">
			<path d="M 0 -0 L -10 -3, -8 -0.5, -8 0.5, -10 3 Z" fill="#0006BF" stroke="#0006BF" stroke-linejoin="round" />
		</marker>
		<marker id="CustomMarker-06" markerUnits="strokeWidth" markerWidth="15.000001" markerHeight="9" viewBox="-15 -4.5 15 9" orient="auto-start-reverse">
			<path d="M 0 -0 L -10 -3, -8 -0.5, -8 0.5, -10 3 Z" fill="#0006BF" stroke="#0006BF" stroke-linejoin="round" />
		</marker>
		<marker id="CustomMarker-07" markerUnits="strokeWidth" markerWidth="15.000001" markerHeight="9" viewBox="-15 -4.5 15 9" orient="auto-start-reverse">
			<path d="M 0 -0 L -10 -3, -8 -0.5, -8 0.5, -10 3 Z" fill="#000000" stroke="#000000" stroke-linejoin="round" />
		</marker>
		<marker id="CustomMarker-08" markerUnits="strokeWidth" markerWidth="15.000001" markerHeight="9" viewBox="-15 -4.5 15 9" orient="auto-start-reverse">
			<path d="M 0 -0 L -10 -3, -8 -0.5, -8 0.5, -10 3 Z" fill="#000000" stroke="#000000" stroke-linejoin="round" />
		</marker>
	</defs>
	<rect x="-0" y="-0" width="611.447754" height="575.224365" stroke="none" fill="#FFFFFF" />
	<path d="M -295.724 -111.345 L 295.724 -111.345, 295.724 111.345, -295.724 111.345 Z" fill="none" stroke="#000000" stroke-width="1" stroke-linecap="round" stroke-linejoin="round" transform="matrix(1 0 0 1 305.724 150.228)" />
	<path d="M 0 -111.345 L 0 111.345" fill="none" stroke="#000000" stroke-width="0.5" stroke-linecap="round" stroke-linejoin="round" stroke-dasharray="1.7525, 1.2475" transform="matrix(1 0 0 1 305.724 150.228)" />
	<path d="M 15.1826 -0 C 15.1826 8.38511, 8.38513 15.1826, -0 15.1826, -8.38513 15.1826, -15.1826 8.38511, -15.1826 -0, -15.1826 -8.38511, -8.38513 -15.1826, -0 -15.1826, 8.38513 -15.1826, 15.1826 -8.38511, 15.1826 -0 Z" fill="none" stroke="#FF1E00" stroke-width="1" stroke-linecap="round" stroke-linejoin="round" transform="matrix(1 0 -0 1 40.0289 74.3153)" />
	<path d="M -10.6278 0 L 10.6278 0" fill="none" stroke="#FF1E00" stroke-width="1.20000005" stroke-linecap="round" stroke-linejoin="round" transform="matrix(1 0 -0 1 40.0289 74.3153)" />
	<path d="M 0 -10.6278 L 0 10.6278" fill="none" stroke="#FF1E00" stroke-width="1.20000005" stroke-linecap="round" stroke-linejoin="round" transform="matrix(1 0 -0 1 40.0289 74.3153)" />
	<path d="M 15.1826 -0 C 15.1826 8.38506, 8.38513 15.1825, -0 15.1825, -8.38513 15.1825, -15.1826 8.38506, -15.1826 -0, -15.1826 -8.38506, -8.38513 -15.1825, -0 -15.1825, 8.38513 -15.1825, 15.1826 -8.38506, 15.1826 -0 Z" fill="none" stroke="#FF1E00" stroke-width="1" stroke-linecap="round" stroke-linejoin="round" transform="matrix(1 0 -0 1 40.0289 150.228)" />
	<path d="M -10.6278 0 L 10.6278 0" fill="none" stroke="#FF1E00" stroke-width="1.20000005" stroke-linecap="round" stroke-linejoin="round" transform="matrix(1 0 -0 1 40.0289 150.228)" />
	<path d="M 0 -10.6277 L 0 10.6277" fill="none" stroke="#FF1E00" stroke-width="1.20000005" stroke-linecap="round" stroke-linejoin="round" transform="matrix(1 0 -0 1 40.0289 150.228)" />
	<path d="M 15.1826 -0 C 15.1826 8.38514, 8.38513 15.1826, -0 15.1826, -8.38513 15.1826, -15.1826 8.38514, -15.1826 -0, -15.1826 -8.38515, -8.38513 -15.1826, -0 -15.1826, 8.38513 -15.1826, 15.1826 -8.38515, 15.1826 -0 Z" fill="none" stroke="#FF1E00" stroke-width="1" stroke-linecap="round" stroke-linejoin="round" transform="matrix(1 0 -0 1 40.0289 226.141)" />
	<path d="M -10.6278 0 L 10.6278 0" fill="none" stroke="#FF1E00" stroke-width="1.20000005" stroke-linecap="round" stroke-linejoin="round" transform="matrix(1 0 -0 1 40.0289 226.141)" />
	<path d="M 0 -10.6279 L 0 10.6279" fill="none" stroke="#FF1E00" stroke-width="1.20000005" stroke-linecap="round" stroke-linejoin="round" transform="matrix(1 0 -0 1 40.0289 226.141)" />
	<path d="M 15.1824 -0 C 15.1824 8.38511, 8.38503 15.1826, -0 15.1826, -8.38503 15.1826, -15.1824 8.38511, -15.1824 -0, -15.1824 -8.38511, -8.38503 -15.1826, -0 -15.1826, 8.38503 -15.1826, 15.1824 -8.38511, 15.1824 -0 Z" fill="none" stroke="#FF1E00" stroke-width="1" stroke-linecap="round" stroke-linejoin="round" transform="matrix(1 0 -0 1 115.942 74.3153)" />
	<path d="M -10.6277 0 L 10.6277 0" fill="none" stroke="#FF1E00" stroke-width="1.20000005" stroke-linecap="round" stroke-linejoin="round" transform="matrix(1 0 -0 1 115.942 74.3153)" />
	<path d="M 0 -10.6278 L 0 10.6278" fill="none" stroke="#FF1E00" stroke-width="1.20000005" stroke-linecap="round" stroke-linejoin="round" transform="matrix(1 0 -0 1 115.942 74.3153)" />
	<path d="M 15.1824 -0 C 15.1824 8.38506, 8.38503 15.1825, -0 15.1825, -8.38503 15.1825, -15.1824 8.38506, -15.1824 -0, -15.1824 -8.38506, -8.38503 -15.1825, -0 -15.1825, 8.38503 -15.1825, 15.1824 -8.38506, 15.1824 -0 Z" fill="none" stroke="#FF1E00" stroke-width="1" stroke-linecap="round" stroke-linejoin="round" transform="matrix(1 0 -0 1 115.942 150.228)" />
	<path d="M -10.6277 0 L 10.6277 0" fill="none" stroke="#FF1E00" stroke-width="1.20000005" stroke-linecap="round" stroke-linejoin="round" transform="matrix(1 0 -0 1 115.942 150.228)" />
	<path d="M 0 -10.6277 L 0 10.6277" fill="none" stroke="#FF1E00" stroke-width="1.20000005" stroke-linecap="round" stroke-linejoin="round" transform="matrix(1 0 -0 1 115.942 150.228)" />
	<path d="M 15.1824 -0 C 15.1824 8.38514, 8.38503 15.1826, -0 15.1826, -8.38503 15.1826, -15.1824 8.38514, -15.1824 -0, -15.1824 -8.38515, -8.38503 -15.1826, -0 -15.1826, 8.38503 -15.1826, 15.1824 -8.38515, 15.1824 -0 Z" fill="none" stroke="#FF1E00" stroke-width="1" stroke-linecap="round" stroke-linejoin="round" transform="matrix(1 0 -0 1 115.942 226.141)" />
	<path d="M -10.6277 0 L 10.6277 0" fill="none" stroke="#FF1E00" stroke-width="1.20000005" stroke-linecap="round" stroke-linejoin="round" transform="matrix(1 0 -0 1 115.942 226.141)" />
	<path d="M 0 -10.6279 L 0 10.6279" fill="none" stroke="#FF1E00" stroke-width="1.20000005" stroke-linecap="round" stroke-linejoin="round" transform="matrix(1 0 -0 1 115.942 226.141)" />
	<path d="M 15.1826 -0 C 15.1826 8.38511, 8.38513 15.1826, -0 15.1826, -8.38513 15.1826, -15.1826 8.38511, -15.1826 -0, -15.1826 -8.38511, -8.38513 -15.1826, -0 -15.1826, 8.38513 -15.1826, 15.1826 -8.38511, 15.1826 -0 Z" fill="none" stroke="#FF1E00" stroke-width="1" stroke-linecap="round" stroke-linejoin="round" transform="matrix(1 0 -0 1 191.854 74.3153)" />
	<path d="M -10.6278 0 L 10.6278 0" fill="none" stroke="#FF1E00" stroke-width="1.20000005" stroke-linecap="round" stroke-linejoin="round" transform="matrix(1 0 -0 1 191.854 74.3153)" />
	<path d="M 0 -10.6278 L 0 10.6278" fill="none" stroke="#FF1E00" stroke-width="1.20000005" stroke-linecap="round" stroke-linejoin="round" transform="matrix(1 0 -0 1 191.854 74.3153)" />
	<path d="M 15.1826 -0 C 15.1826 8.38506, 8.38513 15.1825, -0 15.1825, -8.38513 15.1825, -15.1826 8.38506, -15.1826 -0, -15.1826 -8.38506, -8.38513 -15.1825, -0 -15.1825, 8.38513 -15.1825, 15.1826 -8.38506, 15.1826 -0 Z" fill="none" stroke="#FF1E00" stroke-width="1" stroke-linecap="round" stroke-linejoin="round" transform="matrix(1 0 -0 1 191.854 150.228)" />
	<path d="M -10.6278 0 L 10.6278 0" fill="none" stroke="#FF1E00" stroke-width="1.20000005" stroke-linecap="round" stroke-linejoin="round" transform="matrix(1 0 -0 1 191.854 150.228)" />
	<path d="M 0 -10.6277 L 0 10.6277" fill="none" stroke="#FF1E00" stroke-width="1.20000005" stroke-linecap="round" stroke-linejoin="round" transform="matrix(1 0 -0 1 191.854 150.228)" />
	<path d="M 15.1826 -0 C 15.1826 8.38514, 8.38513 15.1826, -0 15.1826, -8.38513 15.1826, -15.1826 8.38514, -15.1826 -0, -15.1826 -8.38515, -8.38513 -15.1826, -0 -15.1826, 8.38513 -15.1826, 15.1826 -8.38515, 15.1826 -0 Z" fill="none" stroke="#FF1E00" stroke-width="1" stroke-linecap="round" stroke-linejoin="round" transform="matrix(1 0 -0 1 191.854 226.141)" />
	<path d="M -10.6278 0 L 10.6278 0" fill="none" stroke="#FF1E00" stroke-width="1.20000005" stroke-linecap="round" stroke-linejoin="round" transform="matrix(1 0 -0 1 191.854 226.141)" />
	<path d="M 0 -10.6279 L 0 10.6279" fill="none" stroke="#FF1E00" stroke-width="1.20000005" stroke-linecap="round" stroke-linejoin="round" transform="matrix(1 0 -0 1 191.854 226.141)" />
	<path d="M 15.1826 -0 C 15.1826 8.38511, 8.38513 15.1826, -0 15.1826, -8.38513 15.1826, -15.1826 8.38511, -15.1826 -0, -15.1826 -8.38511, -8.38513 -15.1826, -0 -15.1826, 8.38513 -15.1826, 15.1826 -8.38511, 15.1826 -0 Z" fill="none" stroke="#FF1E00" stroke-width="1" stroke-linecap="round" stroke-linejoin="round" transform="matrix(1 0 -0 1 267.767 74.3153)" />
	<path d="M -10.6278 0 L 10.6278 0" fill="none" stroke="#FF1E00" stroke-width="1.20000005" stroke-linecap="round" stroke-linejoin="round" transform="matrix(1 0 -0 1 267.767 74.3153)" />
	<path d="M 0 -10.6278 L 0 10.6278" fill="none" stroke="#FF1E00" stroke-width="1.20000005" stroke-linecap="round" stroke-linejoin="round" transform="matrix(1 0 -0 1 267.767 74.3153)" />
	<path d="M 15.1826 -0 C 15.1826 8.38506, 8.38513 15.1825, -0 15.1825, -8.38513 15.1825, -15.1826 8.38506, -15.1826 -0, -15.1826 -8.38506, -8.38513 -15.1825, -0 -15.1825, 8.38513 -15.1825, 15.1826 -8.38506, 15.1826 -0 Z" fill="none" stroke="#FF1E00" stroke-width="1" stroke-linecap="round" stroke-linejoin="round" transform="matrix(1 0 -0 1 267.767 150.228)" />
	<path d="M -10.6278 0 L 10.6278 0" fill="none" stroke="#FF1E00" stroke-width="1.20000005" stroke-linecap="round" stroke-linejoin="round" transform="matrix(1 0 -0 1 267.767 150.228)" />
	<path d="M 0 -10.6277 L 0 10.6277" fill="none" stroke="#FF1E00" stroke-width="1.20000005" stroke-linecap="round" stroke-linejoin="round" transform="matrix(1 0 -0 1 267.767 150.228)" />
	<path d="M 15.1826 -0 C 15.1826 8.38514, 8.38513 15.1826, -0 15.1826, -8.38513 15.1826, -15.1826 8.38514, -15.1826 -0, -15.1826 -8.38515, -8.38513 -15.1826, -0 -15.1826, 8.38513 -15.1826, 15.1826 -8.38515, 15.1826 -0 Z" fill="none" stroke="#FF1E00" stroke-width="1" stroke-linecap="round" stroke-linejoin="round" transform="matrix(1 0 -0 1 267.767 226.141)" />
	<path d="M -10.6278 0 L 10.6278 0" fill="none" stroke="#FF1E00" stroke-width="1.20000005" stroke-linecap="round" stroke-linejoin="round" transform="matrix(1 0 -0 1 267.767 226.141)" />
	<path d="M 0 -10.6279 L 0 10.6279" fill="none" stroke="#FF1E00" stroke-width="1.20000005" stroke-linecap="round" stroke-linejoin="round" transform="matrix(1 0 -0 1 267.767 226.141)" />
	<path d="M 15.1825 -0 C 15.1825 8.38511, 8.38506 15.1826, -0 15.1826, -8.38506 15.1826, -15.1825 8.38511, -15.1825 -0, -15.1825 -8.38511, -8.38506 -15.1826, -0 -15.1826, 8.38506 -15.1826, 15.1825 -8.38511, 15.1825 -0 Z" fill="none" stroke="#0006BF" stroke-width="1" stroke-linecap="round" stroke-linejoin="round" transform="matrix(1 0 -0 1 343.68 74.3153)" />
	<path d="M -10.6277 0 L 10.6277 0" fill="none" stroke="#0006BF" stroke-width="1.20000005" stroke-linecap="round" stroke-linejoin="round" transform="matrix(1 0 -0 1 343.68 74.3153)" />
	<path d="M 15.1825 -0 C 15.1825 8.38506, 8.38506 15.1825, -0 15.1825, -8.38506 15.1825, -15.1825 8.38506, -15.1825 -0, -15.1825 -8.38506, -8.38506 -15.1825, -0 -15.1825, 8.38506 -15.1825, 15.1825 -8.38506, 15.1825 -0 Z" fill="none" stroke="#0006BF" stroke-width="1" stroke-linecap="round" stroke-linejoin="round" transform="matrix(1 0 -0 1 343.68 150.228)" />
	<path d="M -10.6277 0 L 10.6277 0" fill="none" stroke="#0006BF" stroke-width="1.20000005" stroke-linecap="round" stroke-linejoin="round" transform="matrix(1 0 -0 1 343.68 150.228)" />
	<path d="M 15.1825 -0 C 15.1825 8.38514, 8.38506 15.1826, -0 15.1826, -8.38506 15.1826, -15.1825 8.38514, -15.1825 -0, -15.1825 -8.38515, -8.38506 -15.1826, -0 -15.1826, 8.38506 -15.1826, 15.1825 -8.38515, 15.1825 -0 Z" fill="none" stroke="#0006BF" stroke-width="1" stroke-linecap="round" stroke-linejoin="round" transform="matrix(1 0 -0 1 343.68 226.141)" />
	<path d="M -10.6277 0 L 10.6277 0" fill="none" stroke="#0006BF" stroke-width="1.20000005" stroke-linecap="round" stroke-linejoin="round" transform="matrix(1 0 -0 1 343.68 226.141)" />
	<path d="M 15.1825 -0 C 15.1825 8.38511, 8.38506 15.1826, -0 15.1826, -8.38506 15.1826, -15.1825 8.38511, -15.1825 -0, -15.1825 -8.38511, -8.38506 -15.1826, -0 -15.1826, 8.38506 -15.1826, 15.1825 -8.38511, 15.1825 -0 Z" fill="none" stroke="#0006BF" stroke-width="1" stroke-linecap="round" stroke-linejoin="round" transform="matrix(1 0 -0 1 419.593 74.3153)" />
	<path d="M -10.6277 0 L 10.6277 0" fill="none" stroke="#0006BF" stroke-width="1.20000005" stroke-linecap="round" stroke-linejoin="round" transform="matrix(1 0 -0 1 419.593 74.3153)" />
	<path d="M 15.1825 -0 C 15.1825 8.38506, 8.38506 15.1825, -0 15.1825, -8.38506 15.1825, -15.1825 8.38506, -15.1825 -0, -15.1825 -8.38506, -8.38506 -15.1825, -0 -15.1825, 8.38506 -15.1825, 15.1825 -8.38506, 15.1825 -0 Z" fill="none" stroke="#0006BF" stroke-width="1" stroke-linecap="round" stroke-linejoin="round" transform="matrix(1 0 -0 1 419.593 150.228)" />
	<path d="M -10.6277 0 L 10.6277 0" fill="none" stroke="#0006BF" stroke-width="1.20000005" stroke-linecap="round" stroke-linejoin="round" transform="matrix(1 0 -0 1 419.593 150.228)" />
	<path d="M 15.1825 -0 C 15.1825 8.38514, 8.38506 15.1826, -0 15.1826, -8.38506 15.1826, -15.1825 8.38514, -15.1825 -0, -15.1825 -8.38515, -8.38506 -15.1826, -0 -15.1826, 8.38506 -15.1826, 15.1825 -8.38515, 15.1825 -0 Z" fill="none" stroke="#0006BF" stroke-width="1" stroke-linecap="round" stroke-linejoin="round" transform="matrix(1 0 -0 1 419.593 226.141)" />
	<path d="M -10.6277 0 L 10.6277 0" fill="none" stroke="#0006BF" stroke-width="1.20000005" stroke-linecap="round" stroke-linejoin="round" transform="matrix(1 0 -0 1 419.593 226.141)" />
	<path d="M 15.1825 -0 C 15.1825 8.38511, 8.38506 15.1826, -0 15.1826, -8.38506 15.1826, -15.1825 8.38511, -15.1825 -0, -15.1825 -8.38511, -8.38506 -15.1826, -0 -15.1826, 8.38506 -15.1826, 15.1825 -8.38511, 15.1825 -0 Z" fill="none" stroke="#0006BF" stroke-width="1" stroke-linecap="round" stroke-linejoin="round" transform="matrix(1 0 -0 1 495.506 74.3153)" />
	<path d="M -10.6277 0 L 10.6277 0" fill="none" stroke="#0006BF" stroke-width="1.20000005" stroke-linecap="round" stroke-linejoin="round" transform="matrix(1 0 -0 1 495.506 74.3153)" />
	<path d="M 15.1825 -0 C 15.1825 8.38506, 8.38506 15.1825, -0 15.1825, -8.38506 15.1825, -15.1825 8.38506, -15.1825 -0, -15.1825 -8.38506, -8.38506 -15.1825, -0 -15.1825, 8.38506 -15.1825, 15.1825 -8.38506, 15.1825 -0 Z" fill="none" stroke="#0006BF" stroke-width="1" stroke-linecap="round" stroke-linejoin="round" transform="matrix(1 0 -0 1 495.506 150.228)" />
	<path d="M -10.6277 0 L 10.6277 0" fill="none" stroke="#0006BF" stroke-width="1.20000005" stroke-linecap="round" stroke-linejoin="round" transform="matrix(1 0 -0 1 495.506 150.228)" />
	<path d="M 15.1825 -0 C 15.1825 8.38514, 8.38506 15.1826, -0 15.1826, -8.38506 15.1826, -15.1825 8.38514, -15.1825 -0, -15.1825 -8.38515, -8.38506 -15.1826, -0 -15.1826, 8.38506 -15.1826, 15.1825 -8.38515, 15.1825 -0 Z" fill="none" stroke="#0006BF" stroke-width="1" stroke-linecap="round" stroke-linejoin="round" transform="matrix(1 0 -0 1 495.506 226.141)" />
	<path d="M -10.6277 0 L 10.6277 0" fill="none" stroke="#0006BF" stroke-width="1.20000005" stroke-linecap="round" stroke-linejoin="round" transform="matrix(1 0 -0 1 495.506 226.141)" />
	<path d="M 15.1825 -0 C 15.1825 8.38511, 8.38506 15.1826, -0 15.1826, -8.38506 15.1826, -15.1825 8.38511, -15.1825 -0, -15.1825 -8.38511, -8.38506 -15.1826, -0 -15.1826, 8.38506 -15.1826, 15.1825 -8.38511, 15.1825 -0 Z" fill="none" stroke="#0006BF" stroke-width="1" stroke-linecap="round" stroke-linejoin="round" transform="matrix(1 0 -0 1 571.419 74.3153)" />
	<path d="M -10.6277 0 L 10.6277 0" fill="none" stroke="#0006BF" stroke-width="1.20000005" stroke-linecap="round" stroke-linejoin="round" transform="matrix(1 0 -0 1 571.419 74.3153)" />
	<path d="M 15.1825 -0 C 15.1825 8.38506, 8.38506 15.1825, -0 15.1825, -8.38506 15.1825, -15.1825 8.38506, -15.1825 -0, -15.1825 -8.38506, -8.38506 -15.1825, -0 -15.1825, 8.38506 -15.1825, 15.1825 -8.38506, 15.1825 -0 Z" fill="none" stroke="#0006BF" stroke-width="1" stroke-linecap="round" stroke-linejoin="round" transform="matrix(1 0 -0 1 571.419 150.228)" />
	<path d="M -10.6277 0 L 10.6277 0" fill="none" stroke="#0006BF" stroke-width="1.20000005" stroke-linecap="round" stroke-linejoin="round" transform="matrix(1 0 -0 1 571.419 150.228)" />
	<path d="M 15.1825 -0 C 15.1825 8.38514, 8.38506 15.1826, -0 15.1826, -8.38506 15.1826, -15.1825 8.38514, -15.1825 -0, -15.1825 -8.38515, -8.38506 -15.1826, -0 -15.1826, 8.38506 -15.1826, 15.1825 -8.38515, 15.1825 -0 Z" fill="none" stroke="#0006BF" stroke-width="1" stroke-linecap="round" stroke-linejoin="round" transform="matrix(1 0 -0 1 571.419 226.141)" />
	<path d="M -10.6277 0 L 10.6277 0" fill="none" stroke="#0006BF" stroke-width="1.20000005" stroke-linecap="round" stroke-linejoin="round" transform="matrix(1 0 -0 1 571.419 226.141)" />
	<path d="M -18.5315 5.83966 L 18.5315 -5.83975" fill="none" stroke="#FF1E00" stroke-width="1" stroke-linecap="round" stroke-linejoin="round" marker-end="url(#CustomMarker-01)" transform="matrix(1 0 0 1 301.468 67.8423)" />
	<path d="M -18.5315 5.83954 L 18.5315 -5.83984" fill="none" stroke="#FF1E00" stroke-width="1" stroke-linecap="round" stroke-linejoin="round" marker-end="url(#CustomMarker-02)" transform="matrix(1 0 0 1 301.2 144.688)" />
	<path d="M -18.5315 5.83972 L 18.5315 -5.83984" fill="none" stroke="#FF1E00" stroke-width="1" stroke-linecap="round" stroke-linejoin="round" marker-end="url(#CustomMarker-03)" transform="matrix(1 0 0 1 301.468 220.164)" />
	<path d="M 18.5315 -5.83972 L -18.5315 5.83978" fill="none" stroke="#0006BF" stroke-width="1" stroke-linecap="round" stroke-linejoin="round" marker-end="url(#CustomMarker-04)" transform="matrix(1 0 0 1 309.801 80.509)" />
	<path d="M 18.5315 -5.83963 L -18.5315 5.83984" fill="none" stroke="#0006BF" stroke-width="1" stroke-linecap="round" stroke-linejoin="round" marker-end="url(#CustomMarker-05)" transform="matrix(1 0 0 1 309.801 156.509)" />
	<path d="M 18.5315 -5.83966 L -18.5315 5.83984" fill="none" stroke="#0006BF" stroke-width="1" stroke-linecap="round" stroke-linejoin="round" marker-end="url(#CustomMarker-06)" transform="matrix(1 0 0 1 309.801 232.124)" />
	<g transform="matrix(1 0 -0 1 140.2 8.25)">
		<svg width="87.036911" height="48.0116081">
			<defs />
			<path d="M 10.2006 5.84907 C 10.0921 6.23817, 9.90682 6.59714, 9.64502 6.92551, 9.38322 7.25434, 9.07149 7.53863, 8.71072 7.77794, 8.32027 8.04694, 7.90418 8.24981, 7.46155 8.38656, 7.01937 8.5233, 6.58078 8.59168, 6.1458 8.59123 L 3.94389 8.59123, 3.01724 12.1899 C 2.98755 12.296, 2.9727 12.3797, 2.9727 12.4418, 2.9727 12.4998, 2.9853 12.5358, 3.01004 12.5497, 3.07931 12.5934, 3.21516 12.6185, 3.41759 12.6257, 3.62046 12.6329, 3.83773 12.6365, 4.06984 12.6361, 4.20838 12.6365, 4.27766 12.7036, 4.27766 12.8376 L 4.27766 12.888, 4.24797 13.0175 C 4.19354 13.1615, 4.09728 13.2335, 3.95873 13.2335, 3.34111 13.2047, 2.7208 13.1903, 2.09824 13.1903, 1.47073 13.1903, 0.843214 13.2047, 0.215253 13.2335, 0.0821033 13.2335, 0.0105805 13.1714, 0.000234447 13.0463 L 0.000234447 12.9888, 0.0299232 12.8664 C 0.0695081 12.7085, 0.165772 12.6316, 0.318713 12.6361, 0.551275 12.6365, 0.771241 12.6329, 0.978613 12.6257, 1.18643 12.6185, 1.33938 12.5934, 1.43834 12.5497, 1.53235 12.4975, 1.60388 12.368, 1.65336 12.1611 L 3.73651 4.04976 C 3.7662 3.94449, 3.7806 3.86308, 3.7806 3.80505, 3.7806 3.74792, 3.76845 3.71418, 3.74371 3.70429, 3.67444 3.66155, 3.53994 3.63546, 3.33977 3.62557, 3.13959 3.61612, 2.92097 3.61117, 2.68346 3.61072, 2.54537 3.61117, 2.47609 3.5464, 2.47609 3.4164 L 2.47609 3.35882, 2.52063 3.23646 C 2.55032 3.09297, 2.64208 3.021, 2.79502 3.02055 L 7.54657 3.02055 C 7.982 3.021, 8.38595 3.08937, 8.75886 3.22612, 9.13221 3.36287, 9.45204 3.56799, 9.71879 3.84103, 9.9608 4.09564, 10.1313 4.39792, 10.2302 4.74789, 10.2599 4.91163, 10.2748 5.07716, 10.2748 5.2445, 10.2748 5.43703, 10.25 5.63855, 10.2006 5.84907 Z M 8.62166 5.81309 C 8.70578 5.51125, 8.76245 5.21841, 8.79214 4.93502 L 8.79214 4.80547 C 8.79214 4.58505, 8.73052 4.38353, 8.60681 4.2009, 8.44398 3.98543, 8.22626 3.83339, 7.95456 3.74432, 7.68287 3.6557, 7.38868 3.61117, 7.07245 3.61072 L 5.67843 3.61072 C 5.42652 3.61117, 5.27583 3.63051, 5.22635 3.66875, 5.17687 3.70743, 5.12514 3.84373, 5.07071 4.07854 L 4.04015 8.05143, 5.89345 8.05143 C 6.21462 8.05188, 6.53625 8.00645, 6.85743 7.91514, 7.17861 7.82427, 7.47999 7.66818, 7.76159 7.44686, 8.01394 7.2314, 8.20062 6.97949, 8.32162 6.6916, 8.44263 6.40371, 8.54249 6.11087, 8.62166 5.81309 Z" stroke="none" fill="#000000" />
			<path d="M 18.3694 9.55422 C 18.4169 8.58835, 18.4367 7.80457, 18.4367 7.21079 L 18.4367 5.18404, 16.5445 5.18404 C 16.4574 7.42455, 15.262 9.15837, 12.9542 10.3776 L 12.8235 10.1876 C 14.6088 8.88128, 15.5668 7.21475, 15.6935 5.18404 L 15.0443 5.18404 C 14.4782 5.188, 13.9557 5.25134, 13.4767 5.37405 L 12.8908 4.80403, 15.6935 4.80403, 15.6935 2.14392, 14.8463 2.14392, 14.0626 2.27059, 13.544 1.76391, 19.4778 1.76391, 20.2616 1.00387, 21.4372 2.14392, 19.2838 2.14392, 19.2838 4.80403, 20.0003 4.80403, 20.8474 3.98066, 22.0864 5.18404, 19.2838 5.18404, 19.2838 7.21079 C 19.2838 8.05791, 19.3076 8.67148, 19.3471 9.04754 Z M 16.5445 2.14392 L 16.5445 4.80403, 18.4367 4.80403, 18.4367 2.14392 Z M 22.5456 7.4008 C 22.5892 6.43493, 22.6089 5.48489, 22.6089 4.55464, 22.6089 3.62836, 22.5892 2.82478, 22.5456 2.14392 L 23.9153 2.65061, 23.46 3.09396, 23.46 7.08412 Z M 25.2176 0.560522 L 26.5912 1.19388, 26.132 1.63723, 26.132 8.16083 C 26.2191 8.96837, 25.7639 9.55818, 24.7624 9.93424, 24.7228 9.43151, 24.0459 9.0317, 22.7396 8.73086 L 22.7396 8.41418 C 23.8717 8.54481, 24.5803 8.60023, 24.8613 8.57648, 25.1463 8.55668, 25.2849 8.29146, 25.2849 7.78082 L 25.2849 2.52394 C 25.2849 1.97766, 25.2651 1.32451, 25.2176 0.560522 Z M 19.5451 11.201 C 19.5451 10.5716, 19.5253 9.87486, 19.4778 9.11087 L 21.0453 9.74423, 20.4555 10.1876, 20.4555 11.201, 23.5234 11.201, 24.4378 10.3143, 25.7401 11.581, 20.4555 11.581, 20.4555 14.1777, 24.7624 14.1777, 25.8074 13.1644, 27.2404 14.5578, 14.977 14.5578 C 14.4149 14.5578, 13.8923 14.6211, 13.4134 14.7478 L 12.8235 14.1777, 19.5451 14.1777, 19.5451 11.581, 16.8691 11.581 C 16.307 11.5849, 15.7845 11.6483, 15.3055 11.771 L 14.7157 11.201 Z" stroke="none" fill="#000000" />
			<rect />
		</svg>
	</g>
	<g transform="matrix(1 0 -0 1 443.441 8.25)">
		<svg width="89.9907532" height="48.0116081">
			<defs />
			<path d="M 12.1274 3.38761 C 12.113 3.45058, 12.0797 3.50321, 12.0275 3.5464, 11.9754 3.58958, 11.9124 3.61117, 11.8382 3.61072, 11.6605 3.61117, 11.4877 3.62467, 11.3195 3.65076, 11.1513 3.6773, 10.9956 3.74072, 10.8521 3.84103, 10.7338 3.91346, 10.6398 4.00837, 10.5705 4.12578, 10.5013 4.24363, 10.4495 4.36913, 10.4149 4.50318 L 8.22828 13.0175 C 8.17385 13.1615, 8.07759 13.2335, 7.93904 13.2335 L 7.76856 13.2335 C 7.67949 13.2335, 7.61292 13.1952, 7.56838 13.1183, 7.01014 11.6123, 6.45551 10.1094, 5.90446 8.60967, 5.35342 7.11039, 4.82577 5.69343, 4.32152 4.35924 L 2.40884 11.794 C 2.37915 11.8759, 2.36431 11.9578, 2.36431 12.0387, 2.36431 12.0729, 2.36926 12.1089, 2.37915 12.1467, 2.394 12.2623, 2.43853 12.3536, 2.5123 12.4202, 2.60137 12.507, 2.72013 12.5646, 2.86857 12.5934, 3.01701 12.6221, 3.1848 12.6365, 3.37238 12.6361, 3.51092 12.6365, 3.5802 12.6941, 3.5802 12.8088, 3.5802 12.8381, 3.57525 12.8691, 3.56535 12.9024 L 3.53567 13.0104 C 3.52082 13.0778, 3.48483 13.1318, 3.42816 13.1723, 3.37148 13.2132, 3.31075 13.2335, 3.24643 13.2335, 2.75251 13.2047, 2.25095 13.1903, 1.74175 13.1903, 1.23794 13.1903, 0.728732 13.2047, 0.214577 13.2335, 0.140356 13.2335, 0.0859262 13.2119, 0.0512894 13.1687, 0.0171024 13.1354, 8.87364e-006 13.0994, -0.000440955 13.0607, 8.87364e-006 13.0324, 0.00495699 13.0036, 0.0144034 12.9744 L 0.0440921 12.8664 C 0.0589365 12.8043, 0.0935733 12.7508, 0.148003 12.7049, 0.202432 12.6595, 0.264059 12.6365, 0.332882 12.6361, 0.520911 12.6365, 0.696794 12.6221, 0.859632 12.5934, 1.02247 12.5646, 1.17811 12.5047, 1.32655 12.413, 1.44036 12.3415, 1.53168 12.247, 1.60095 12.1291, 1.67022 12.0117, 1.7242 11.8858, 1.76379 11.7508 L 3.8393 3.68269 C 3.75563 3.65436, 3.60359 3.63546, 3.38362 3.62557, 3.16366 3.61612, 2.9302 3.61117, 2.68279 3.61072, 2.60902 3.61117, 2.55459 3.58733, 2.51995 3.53875, 2.49026 3.51041, 2.47542 3.47442, 2.47542 3.43079, 2.47542 3.40245, 2.48307 3.37591, 2.49746 3.35162 L 2.51995 3.23646 C 2.57438 3.09297, 2.67064 3.021, 2.80919 3.02055 L 5.12941 3.02055 C 5.22342 3.021, 5.28505 3.05923, 5.31474 3.1357 L 8.13922 10.7504, 9.76265 4.46 C 9.79234 4.37408, 9.80718 4.28771, 9.80718 4.2009, 9.80718 4.05245, 9.7604 3.9301, 9.66638 3.83384, 9.56292 3.73353, 9.44057 3.67145, 9.29932 3.64716, 9.15853 3.62332, 8.99434 3.61117, 8.80631 3.61072, 8.73254 3.61117, 8.67811 3.58958, 8.64302 3.54595, 8.60884 3.51266, 8.59129 3.47442, 8.59129 3.43079, 8.59129 3.40245, 8.59894 3.37591, 8.61333 3.35162 L 8.63583 3.23646 C 8.69026 3.09297, 8.78652 3.021, 8.92507 3.02055, 9.42933 3.04034, 9.93583 3.04978, 10.4446 3.04933, 10.9488 3.04978, 11.4554 3.04034, 11.9641 3.02055, 12.0334 3.021, 12.0928 3.04484, 12.1422 3.09252, 12.162 3.1312, 12.1719 3.16719, 12.1719 3.20048, 12.1719 3.22972, 12.1647 3.25626, 12.1494 3.27965 Z" stroke="none" fill="#000000" />
			<path d="M 19.1903 9.55422 C 19.2378 8.58835, 19.2576 7.80457, 19.2576 7.21079 L 19.2576 5.18404, 17.3655 5.18404 C 17.2784 7.42455, 16.0829 9.15837, 13.7751 10.3776 L 13.6445 10.1876 C 15.4298 8.88128, 16.3877 7.21475, 16.5144 5.18404 L 15.8652 5.18404 C 15.2991 5.188, 14.7766 5.25134, 14.2976 5.37405 L 13.7118 4.80403, 16.5144 4.80403, 16.5144 2.14392, 15.6673 2.14392, 14.8835 2.27059, 14.3649 1.76391, 20.2987 1.76391, 21.0825 1.00387, 22.2582 2.14392, 20.1048 2.14392, 20.1048 4.80403, 20.8212 4.80403, 21.6684 3.98066, 22.9074 5.18404, 20.1048 5.18404, 20.1048 7.21079 C 20.1048 8.05791, 20.1285 8.67148, 20.1681 9.04754 Z M 17.3655 2.14392 L 17.3655 4.80403, 19.2576 4.80403, 19.2576 2.14392 Z M 23.3666 7.4008 C 23.4101 6.43493, 23.4299 5.48489, 23.4299 4.55464, 23.4299 3.62836, 23.4101 2.82478, 23.3666 2.14392 L 24.7362 2.65061, 24.281 3.09396, 24.281 7.08412 Z M 26.0385 0.560522 L 27.4121 1.19388, 26.9529 1.63723, 26.9529 8.16083 C 27.04 8.96837, 26.5848 9.55818, 25.5833 9.93424, 25.5437 9.43151, 24.8668 9.0317, 23.5605 8.73086 L 23.5605 8.41418 C 24.6926 8.54481, 25.4012 8.60023, 25.6823 8.57648, 25.9673 8.55668, 26.1058 8.29146, 26.1058 7.78082 L 26.1058 2.52394 C 26.1058 1.97766, 26.086 1.32451, 26.0385 0.560522 Z M 20.366 11.201 C 20.366 10.5716, 20.3462 9.87486, 20.2987 9.11087 L 21.8663 9.74423, 21.2765 10.1876, 21.2765 11.201, 24.3443 11.201, 25.2587 10.3143, 26.5611 11.581, 21.2765 11.581, 21.2765 14.1777, 25.5833 14.1777, 26.6284 13.1644, 28.0613 14.5578, 15.7979 14.5578 C 15.2358 14.5578, 14.7133 14.6211, 14.2343 14.7478 L 13.6445 14.1777, 20.366 14.1777, 20.366 11.581, 17.6901 11.581 C 17.128 11.5849, 16.6054 11.6483, 16.1265 11.771 L 15.5366 11.201 Z" stroke="none" fill="#000000" />
			<rect />
		</svg>
	</g>
	<path d="M -295.724 -111.345 L 295.724 -111.345, 295.724 111.345, -295.724 111.345 Z" fill="none" stroke="#000000" stroke-width="1" stroke-linecap="round" stroke-linejoin="round" transform="matrix(1 0 0 1 305.724 453.88)" />
	<path d="M 0 -111.345 L 0 111.345" fill="none" stroke="#000000" stroke-width="0.5" stroke-linecap="round" stroke-linejoin="round" stroke-dasharray="1.7525, 1.2475" transform="matrix(1 0 0 1 229.811 453.88)" />
	<path d="M 15.1826 -0 C 15.1826 8.38511, 8.38513 15.1826, -0 15.1826, -8.38513 15.1826, -15.1826 8.38511, -15.1826 -0, -15.1826 -8.38511, -8.38513 -15.1826, -0 -15.1826, 8.38513 -15.1826, 15.1826 -8.38511, 15.1826 -0 Z" fill="none" stroke="#FF1E00" stroke-width="1" stroke-linecap="round" stroke-linejoin="round" transform="matrix(1 0 -0 1 40.0289 377.967)" />
	<path d="M -10.6278 0 L 10.6278 0" fill="none" stroke="#FF1E00" stroke-width="1.20000005" stroke-linecap="round" stroke-linejoin="round" transform="matrix(1 0 -0 1 40.0289 377.967)" />
	<path d="M 0 -10.6278 L 0 10.6278" fill="none" stroke="#FF1E00" stroke-width="1.20000005" stroke-linecap="round" stroke-linejoin="round" transform="matrix(1 0 -0 1 40.0289 377.967)" />
	<path d="M 15.1826 -0 C 15.1826 8.38509, 8.38513 15.1826, -0 15.1826, -8.38513 15.1826, -15.1826 8.38509, -15.1826 -0, -15.1826 -8.38509, -8.38513 -15.1826, -0 -15.1826, 8.38513 -15.1826, 15.1826 -8.38509, 15.1826 -0 Z" fill="none" stroke="#FF1E00" stroke-width="1" stroke-linecap="round" stroke-linejoin="round" transform="matrix(1 0 -0 1 40.0289 453.88)" />
	<path d="M -10.6278 0 L 10.6278 0" fill="none" stroke="#FF1E00" stroke-width="1.20000005" stroke-linecap="round" stroke-linejoin="round" transform="matrix(1 0 -0 1 40.0289 453.88)" />
	<path d="M 0 -10.6278 L 0 10.6278" fill="none" stroke="#FF1E00" stroke-width="1.20000005" stroke-linecap="round" stroke-linejoin="round" transform="matrix(1 0 -0 1 40.0289 453.88)" />
	<path d="M 15.1826 -0 C 15.1826 8.38521, 8.38513 15.1828, -0 15.1828, -8.38513 15.1828, -15.1826 8.38521, -15.1826 -0, -15.1826 -8.38521, -8.38513 -15.1828, -0 -15.1828, 8.38513 -15.1828, 15.1826 -8.38521, 15.1826 -0 Z" fill="none" stroke="#FF1E00" stroke-width="1" stroke-linecap="round" stroke-linejoin="round" transform="matrix(1 0 -0 1 40.0289 529.792)" />
	<path d="M -10.6278 0 L 10.6278 0" fill="none" stroke="#FF1E00" stroke-width="1.20000005" stroke-linecap="round" stroke-linejoin="round" transform="matrix(1 0 -0 1 40.0289 529.792)" />
	<path d="M 0 -10.6279 L 0 10.6279" fill="none" stroke="#FF1E00" stroke-width="1.20000005" stroke-linecap="round" stroke-linejoin="round" transform="matrix(1 0 -0 1 40.0289 529.792)" />
	<path d="M 15.1824 -0 C 15.1824 8.38511, 8.38503 15.1826, -0 15.1826, -8.38503 15.1826, -15.1824 8.38511, -15.1824 -0, -15.1824 -8.38511, -8.38503 -15.1826, -0 -15.1826, 8.38503 -15.1826, 15.1824 -8.38511, 15.1824 -0 Z" fill="none" stroke="#FF1E00" stroke-width="1" stroke-linecap="round" stroke-linejoin="round" transform="matrix(1 0 -0 1 115.942 377.967)" />
	<path d="M -10.6277 0 L 10.6277 0" fill="none" stroke="#FF1E00" stroke-width="1.20000005" stroke-linecap="round" stroke-linejoin="round" transform="matrix(1 0 -0 1 115.942 377.967)" />
	<path d="M 0 -10.6278 L 0 10.6278" fill="none" stroke="#FF1E00" stroke-width="1.20000005" stroke-linecap="round" stroke-linejoin="round" transform="matrix(1 0 -0 1 115.942 377.967)" />
	<path d="M 15.1824 -0 C 15.1824 8.38509, 8.38503 15.1826, -0 15.1826, -8.38503 15.1826, -15.1824 8.38509, -15.1824 -0, -15.1824 -8.38509, -8.38503 -15.1826, -0 -15.1826, 8.38503 -15.1826, 15.1824 -8.38509, 15.1824 -0 Z" fill="none" stroke="#FF1E00" stroke-width="1" stroke-linecap="round" stroke-linejoin="round" transform="matrix(1 0 -0 1 115.942 453.88)" />
	<path d="M -10.6277 0 L 10.6277 0" fill="none" stroke="#FF1E00" stroke-width="1.20000005" stroke-linecap="round" stroke-linejoin="round" transform="matrix(1 0 -0 1 115.942 453.88)" />
	<path d="M 0 -10.6278 L 0 10.6278" fill="none" stroke="#FF1E00" stroke-width="1.20000005" stroke-linecap="round" stroke-linejoin="round" transform="matrix(1 0 -0 1 115.942 453.88)" />
	<path d="M 15.1824 -0 C 15.1824 8.38521, 8.38503 15.1828, -0 15.1828, -8.38503 15.1828, -15.1824 8.38521, -15.1824 -0, -15.1824 -8.38521, -8.38503 -15.1828, -0 -15.1828, 8.38503 -15.1828, 15.1824 -8.38521, 15.1824 -0 Z" fill="none" stroke="#FF1E00" stroke-width="1" stroke-linecap="round" stroke-linejoin="round" transform="matrix(1 0 -0 1 115.942 529.792)" />
	<path d="M -10.6277 0 L 10.6277 0" fill="none" stroke="#FF1E00" stroke-width="1.20000005" stroke-linecap="round" stroke-linejoin="round" transform="matrix(1 0 -0 1 115.942 529.792)" />
	<path d="M 0 -10.6279 L 0 10.6279" fill="none" stroke="#FF1E00" stroke-width="1.20000005" stroke-linecap="round" stroke-linejoin="round" transform="matrix(1 0 -0 1 115.942 529.792)" />
	<path d="M 15.1826 -0 C 15.1826 8.38511, 8.38513 15.1826, -0 15.1826, -8.38513 15.1826, -15.1826 8.38511, -15.1826 -0, -15.1826 -8.38511, -8.38513 -15.1826, -0 -15.1826, 8.38513 -15.1826, 15.1826 -8.38511, 15.1826 -0 Z" fill="none" stroke="#FF1E00" stroke-width="1" stroke-linecap="round" stroke-linejoin="round" transform="matrix(1 0 -0 1 191.854 377.967)" />
	<path d="M -10.6278 0 L 10.6278 0" fill="none" stroke="#FF1E00" stroke-width="1.20000005" stroke-linecap="round" stroke-linejoin="round" transform="matrix(1 0 -0 1 191.854 377.967)" />
	<path d="M 0 -10.6278 L 0 10.6278" fill="none" stroke="#FF1E00" stroke-width="1.20000005" stroke-linecap="round" stroke-linejoin="round" transform="matrix(1 0 -0 1 191.854 377.967)" />
	<path d="M 15.1826 -0 C 15.1826 8.38509, 8.38513 15.1826, -0 15.1826, -8.38513 15.1826, -15.1826 8.38509, -15.1826 -0, -15.1826 -8.38509, -8.38513 -15.1826, -0 -15.1826, 8.38513 -15.1826, 15.1826 -8.38509, 15.1826 -0 Z" fill="none" stroke="#FF1E00" stroke-width="1" stroke-linecap="round" stroke-linejoin="round" transform="matrix(1 0 -0 1 191.854 453.88)" />
	<path d="M -10.6278 0 L 10.6278 0" fill="none" stroke="#FF1E00" stroke-width="1.20000005" stroke-linecap="round" stroke-linejoin="round" transform="matrix(1 0 -0 1 191.854 453.88)" />
	<path d="M 0 -10.6278 L 0 10.6278" fill="none" stroke="#FF1E00" stroke-width="1.20000005" stroke-linecap="round" stroke-linejoin="round" transform="matrix(1 0 -0 1 191.854 453.88)" />
	<path d="M 15.1826 -0 C 15.1826 8.38521, 8.38513 15.1828, -0 15.1828, -8.38513 15.1828, -15.1826 8.38521, -15.1826 -0, -15.1826 -8.38521, -8.38513 -15.1828, -0 -15.1828, 8.38513 -15.1828, 15.1826 -8.38521, 15.1826 -0 Z" fill="none" stroke="#FF1E00" stroke-width="1" stroke-linecap="round" stroke-linejoin="round" transform="matrix(1 0 -0 1 191.854 529.792)" />
	<path d="M -10.6278 0 L 10.6278 0" fill="none" stroke="#FF1E00" stroke-width="1.20000005" stroke-linecap="round" stroke-linejoin="round" transform="matrix(1 0 -0 1 191.854 529.792)" />
	<path d="M 0 -10.6279 L 0 10.6279" fill="none" stroke="#FF1E00" stroke-width="1.20000005" stroke-linecap="round" stroke-linejoin="round" transform="matrix(1 0 -0 1 191.854 529.792)" />
	<path d="M 15.1826 -0 C 15.1826 8.38511, 8.38513 15.1826, -0 15.1826, -8.38513 15.1826, -15.1826 8.38511, -15.1826 -0, -15.1826 -8.38511, -8.38513 -15.1826, -0 -15.1826, 8.38513 -15.1826, 15.1826 -8.38511, 15.1826 -0 Z" fill="none" stroke="#FF1E00" stroke-width="1" stroke-linecap="round" stroke-linejoin="round" transform="matrix(1 0 -0 1 343.516 377.967)" />
	<path d="M -10.6278 0 L 10.6278 0" fill="none" stroke="#FF1E00" stroke-width="1.20000005" stroke-linecap="round" stroke-linejoin="round" transform="matrix(1 0 -0 1 343.516 377.967)" />
	<path d="M 0 -10.6278 L 0 10.6278" fill="none" stroke="#FF1E00" stroke-width="1.20000005" stroke-linecap="round" stroke-linejoin="round" transform="matrix(1 0 -0 1 343.516 377.967)" />
	<path d="M 15.1826 -0 C 15.1826 8.38509, 8.38513 15.1826, -0 15.1826, -8.38513 15.1826, -15.1826 8.38509, -15.1826 -0, -15.1826 -8.38509, -8.38513 -15.1826, -0 -15.1826, 8.38513 -15.1826, 15.1826 -8.38509, 15.1826 -0 Z" fill="none" stroke="#FF1E00" stroke-width="1" stroke-linecap="round" stroke-linejoin="round" transform="matrix(1 0 -0 1 343.516 453.88)" />
	<path d="M -10.6278 0 L 10.6278 0" fill="none" stroke="#FF1E00" stroke-width="1.20000005" stroke-linecap="round" stroke-linejoin="round" transform="matrix(1 0 -0 1 343.516 453.88)" />
	<path d="M 0 -10.6278 L 0 10.6278" fill="none" stroke="#FF1E00" stroke-width="1.20000005" stroke-linecap="round" stroke-linejoin="round" transform="matrix(1 0 -0 1 343.516 453.88)" />
	<path d="M 15.1826 -0 C 15.1826 8.38521, 8.38513 15.1828, -0 15.1828, -8.38513 15.1828, -15.1826 8.38521, -15.1826 -0, -15.1826 -8.38521, -8.38513 -15.1828, -0 -15.1828, 8.38513 -15.1828, 15.1826 -8.38521, 15.1826 -0 Z" fill="none" stroke="#FF1E00" stroke-width="1" stroke-linecap="round" stroke-linejoin="round" transform="matrix(1 0 -0 1 343.516 529.792)" />
	<path d="M -10.6278 0 L 10.6278 0" fill="none" stroke="#FF1E00" stroke-width="1.20000005" stroke-linecap="round" stroke-linejoin="round" transform="matrix(1 0 -0 1 343.516 529.792)" />
	<path d="M 0 -10.6279 L 0 10.6279" fill="none" stroke="#FF1E00" stroke-width="1.20000005" stroke-linecap="round" stroke-linejoin="round" transform="matrix(1 0 -0 1 343.516 529.792)" />
	<path d="M 15.1824 -0 C 15.1824 8.38511, 8.38503 15.1826, -0 15.1826, -8.38503 15.1826, -15.1824 8.38511, -15.1824 -0, -15.1824 -8.38511, -8.38503 -15.1826, -0 -15.1826, 8.38503 -15.1826, 15.1824 -8.38511, 15.1824 -0 Z" fill="none" stroke="#0006BF" stroke-width="1" stroke-linecap="round" stroke-linejoin="round" transform="matrix(1 0 -0 1 267.768 377.967)" />
	<path d="M -10.6277 0 L 10.6277 0" fill="none" stroke="#0006BF" stroke-width="1.20000005" stroke-linecap="round" stroke-linejoin="round" transform="matrix(1 0 -0 1 267.768 377.967)" />
	<path d="M 15.1824 -0 C 15.1824 8.38509, 8.38503 15.1826, -0 15.1826, -8.38503 15.1826, -15.1824 8.38509, -15.1824 -0, -15.1824 -8.38509, -8.38503 -15.1826, -0 -15.1826, 8.38503 -15.1826, 15.1824 -8.38509, 15.1824 -0 Z" fill="none" stroke="#0006BF" stroke-width="1" stroke-linecap="round" stroke-linejoin="round" transform="matrix(1 0 -0 1 267.768 453.88)" />
	<path d="M -10.6277 0 L 10.6277 0" fill="none" stroke="#0006BF" stroke-width="1.20000005" stroke-linecap="round" stroke-linejoin="round" transform="matrix(1 0 -0 1 267.768 453.88)" />
	<path d="M 15.1824 -0 C 15.1824 8.38521, 8.38503 15.1828, -0 15.1828, -8.38503 15.1828, -15.1824 8.38521, -15.1824 -0, -15.1824 -8.38521, -8.38503 -15.1828, -0 -15.1828, 8.38503 -15.1828, 15.1824 -8.38521, 15.1824 -0 Z" fill="none" stroke="#0006BF" stroke-width="1" stroke-linecap="round" stroke-linejoin="round" transform="matrix(1 0 -0 1 267.768 529.792)" />
	<path d="M -10.6277 0 L 10.6277 0" fill="none" stroke="#0006BF" stroke-width="1.20000005" stroke-linecap="round" stroke-linejoin="round" transform="matrix(1 0 -0 1 267.768 529.792)" />
	<path d="M 15.1825 -0 C 15.1825 8.38511, 8.38506 15.1826, -0 15.1826, -8.38506 15.1826, -15.1825 8.38511, -15.1825 -0, -15.1825 -8.38511, -8.38506 -15.1826, -0 -15.1826, 8.38506 -15.1826, 15.1825 -8.38511, 15.1825 -0 Z" fill="none" stroke="#0006BF" stroke-width="1" stroke-linecap="round" stroke-linejoin="round" transform="matrix(1 0 -0 1 419.593 377.967)" />
	<path d="M -10.6277 0 L 10.6277 0" fill="none" stroke="#0006BF" stroke-width="1.20000005" stroke-linecap="round" stroke-linejoin="round" transform="matrix(1 0 -0 1 419.593 377.967)" />
	<path d="M 15.1825 -0 C 15.1825 8.38509, 8.38506 15.1826, -0 15.1826, -8.38506 15.1826, -15.1825 8.38509, -15.1825 -0, -15.1825 -8.38509, -8.38506 -15.1826, -0 -15.1826, 8.38506 -15.1826, 15.1825 -8.38509, 15.1825 -0 Z" fill="none" stroke="#0006BF" stroke-width="1" stroke-linecap="round" stroke-linejoin="round" transform="matrix(1 0 -0 1 419.593 453.88)" />
	<path d="M -10.6277 0 L 10.6277 0" fill="none" stroke="#0006BF" stroke-width="1.20000005" stroke-linecap="round" stroke-linejoin="round" transform="matrix(1 0 -0 1 419.593 453.88)" />
	<path d="M 15.1825 -0 C 15.1825 8.38521, 8.38506 15.1828, -0 15.1828, -8.38506 15.1828, -15.1825 8.38521, -15.1825 -0, -15.1825 -8.38521, -8.38506 -15.1828, -0 -15.1828, 8.38506 -15.1828, 15.1825 -8.38521, 15.1825 -0 Z" fill="none" stroke="#0006BF" stroke-width="1" stroke-linecap="round" stroke-linejoin="round" transform="matrix(1 0 -0 1 419.593 529.792)" />
	<path d="M -10.6277 0 L 10.6277 0" fill="none" stroke="#0006BF" stroke-width="1.20000005" stroke-linecap="round" stroke-linejoin="round" transform="matrix(1 0 -0 1 419.593 529.792)" />
	<path d="M 15.1825 -0 C 15.1825 8.38511, 8.38506 15.1826, -0 15.1826, -8.38506 15.1826, -15.1825 8.38511, -15.1825 -0, -15.1825 -8.38511, -8.38506 -15.1826, -0 -15.1826, 8.38506 -15.1826, 15.1825 -8.38511, 15.1825 -0 Z" fill="none" stroke="#0006BF" stroke-width="1" stroke-linecap="round" stroke-linejoin="round" transform="matrix(1 0 -0 1 495.506 377.967)" />
	<path d="M -10.6277 0 L 10.6277 0" fill="none" stroke="#0006BF" stroke-width="1.20000005" stroke-linecap="round" stroke-linejoin="round" transform="matrix(1 0 -0 1 495.506 377.967)" />
	<path d="M 15.1825 -0 C 15.1825 8.38509, 8.38506 15.1826, -0 15.1826, -8.38506 15.1826, -15.1825 8.38509, -15.1825 -0, -15.1825 -8.38509, -8.38506 -15.1826, -0 -15.1826, 8.38506 -15.1826, 15.1825 -8.38509, 15.1825 -0 Z" fill="none" stroke="#0006BF" stroke-width="1" stroke-linecap="round" stroke-linejoin="round" transform="matrix(1 0 -0 1 495.506 453.88)" />
	<path d="M -10.6277 0 L 10.6277 0" fill="none" stroke="#0006BF" stroke-width="1.20000005" stroke-linecap="round" stroke-linejoin="round" transform="matrix(1 0 -0 1 495.506 453.88)" />
	<path d="M 15.1825 -0 C 15.1825 8.38521, 8.38506 15.1828, -0 15.1828, -8.38506 15.1828, -15.1825 8.38521, -15.1825 -0, -15.1825 -8.38521, -8.38506 -15.1828, -0 -15.1828, 8.38506 -15.1828, 15.1825 -8.38521, 15.1825 -0 Z" fill="none" stroke="#0006BF" stroke-width="1" stroke-linecap="round" stroke-linejoin="round" transform="matrix(1 0 -0 1 495.506 529.792)" />
	<path d="M -10.6277 0 L 10.6277 0" fill="none" stroke="#0006BF" stroke-width="1.20000005" stroke-linecap="round" stroke-linejoin="round" transform="matrix(1 0 -0 1 495.506 529.792)" />
	<path d="M 15.1825 -0 C 15.1825 8.38511, 8.38506 15.1826, -0 15.1826, -8.38506 15.1826, -15.1825 8.38511, -15.1825 -0, -15.1825 -8.38511, -8.38506 -15.1826, -0 -15.1826, 8.38506 -15.1826, 15.1825 -8.38511, 15.1825 -0 Z" fill="none" stroke="#0006BF" stroke-width="1" stroke-linecap="round" stroke-linejoin="round" transform="matrix(1 0 -0 1 571.419 377.967)" />
	<path d="M -10.6277 0 L 10.6277 0" fill="none" stroke="#0006BF" stroke-width="1.20000005" stroke-linecap="round" stroke-linejoin="round" transform="matrix(1 0 -0 1 571.419 377.967)" />
	<path d="M 15.1825 -0 C 15.1825 8.38509, 8.38506 15.1826, -0 15.1826, -8.38506 15.1826, -15.1825 8.38509, -15.1825 -0, -15.1825 -8.38509, -8.38506 -15.1826, -0 -15.1826, 8.38506 -15.1826, 15.1825 -8.38509, 15.1825 -0 Z" fill="none" stroke="#0006BF" stroke-width="1" stroke-linecap="round" stroke-linejoin="round" transform="matrix(1 0 -0 1 571.419 453.88)" />
	<path d="M -10.6277 0 L 10.6277 0" fill="none" stroke="#0006BF" stroke-width="1.20000005" stroke-linecap="round" stroke-linejoin="round" transform="matrix(1 0 -0 1 571.419 453.88)" />
	<path d="M 15.1825 -0 C 15.1825 8.38521, 8.38506 15.1828, -0 15.1828, -8.38506 15.1828, -15.1825 8.38521, -15.1825 -0, -15.1825 -8.38521, -8.38506 -15.1828, -0 -15.1828, 8.38506 -15.1828, 15.1825 -8.38521, 15.1825 -0 Z" fill="none" stroke="#0006BF" stroke-width="1" stroke-linecap="round" stroke-linejoin="round" transform="matrix(1 0 -0 1 571.419 529.792)" />
	<path d="M -10.6277 0 L 10.6277 0" fill="none" stroke="#0006BF" stroke-width="1.20000005" stroke-linecap="round" stroke-linejoin="round" transform="matrix(1 0 -0 1 571.419 529.792)" />
	<g transform="matrix(1 0 -0 1 140.2 311.902)">
		<svg width="87.036911" height="48.0116081">
			<defs />
			<path d="M 10.2006 5.84907 C 10.0921 6.23817, 9.90682 6.59714, 9.64502 6.92551, 9.38322 7.25434, 9.07149 7.53863, 8.71072 7.77794, 8.32027 8.04694, 7.90418 8.24981, 7.46155 8.38656, 7.01937 8.5233, 6.58078 8.59168, 6.1458 8.59123 L 3.94389 8.59123, 3.01724 12.1899 C 2.98755 12.296, 2.9727 12.3797, 2.9727 12.4418, 2.9727 12.4998, 2.9853 12.5358, 3.01004 12.5497, 3.07931 12.5934, 3.21516 12.6185, 3.41759 12.6257, 3.62046 12.6329, 3.83773 12.6365, 4.06984 12.6361, 4.20838 12.6365, 4.27766 12.7036, 4.27766 12.8376 L 4.27766 12.888, 4.24797 13.0175 C 4.19354 13.1615, 4.09728 13.2335, 3.95873 13.2335, 3.34111 13.2047, 2.7208 13.1903, 2.09824 13.1903, 1.47073 13.1903, 0.843214 13.2047, 0.215253 13.2335, 0.0821033 13.2335, 0.0105805 13.1714, 0.000234447 13.0463 L 0.000234447 12.9888, 0.0299232 12.8664 C 0.0695081 12.7085, 0.165772 12.6316, 0.318713 12.6361, 0.551275 12.6365, 0.771241 12.6329, 0.978613 12.6257, 1.18643 12.6185, 1.33938 12.5934, 1.43834 12.5497, 1.53235 12.4975, 1.60388 12.368, 1.65336 12.1611 L 3.73651 4.04976 C 3.7662 3.94449, 3.7806 3.86308, 3.7806 3.80505, 3.7806 3.74792, 3.76845 3.71418, 3.74371 3.70429, 3.67444 3.66155, 3.53994 3.63546, 3.33977 3.62557, 3.13959 3.61612, 2.92097 3.61117, 2.68346 3.61072, 2.54537 3.61117, 2.47609 3.5464, 2.47609 3.4164 L 2.47609 3.35882, 2.52063 3.23646 C 2.55032 3.09297, 2.64208 3.021, 2.79502 3.02055 L 7.54657 3.02055 C 7.982 3.021, 8.38595 3.08937, 8.75886 3.22612, 9.13221 3.36287, 9.45204 3.56799, 9.71879 3.84103, 9.9608 4.09564, 10.1313 4.39792, 10.2302 4.74789, 10.2599 4.91163, 10.2748 5.07716, 10.2748 5.2445, 10.2748 5.43703, 10.25 5.63855, 10.2006 5.84907 Z M 8.62166 5.81309 C 8.70578 5.51125, 8.76245 5.21841, 8.79214 4.93502 L 8.79214 4.80547 C 8.79214 4.58505, 8.73052 4.38353, 8.60681 4.2009, 8.44398 3.98543, 8.22626 3.83339, 7.95456 3.74432, 7.68287 3.6557, 7.38868 3.61117, 7.07245 3.61072 L 5.67843 3.61072 C 5.42652 3.61117, 5.27583 3.63051, 5.22635 3.66875, 5.17687 3.70743, 5.12514 3.84373, 5.07071 4.07854 L 4.04015 8.05143, 5.89345 8.05143 C 6.21462 8.05188, 6.53625 8.00645, 6.85743 7.91514, 7.17861 7.82427, 7.47999 7.66818, 7.76159 7.44686, 8.01394 7.2314, 8.20062 6.97949, 8.32162 6.6916, 8.44263 6.40371, 8.54249 6.11087, 8.62166 5.81309 Z" stroke="none" fill="#000000" />
			<path d="M 18.3694 9.55422 C 18.4169 8.58835, 18.4367 7.80457, 18.4367 7.21079 L 18.4367 5.18404, 16.5445 5.18404 C 16.4574 7.42455, 15.262 9.15837, 12.9542 10.3776 L 12.8235 10.1876 C 14.6088 8.88128, 15.5668 7.21475, 15.6935 5.18404 L 15.0443 5.18404 C 14.4782 5.188, 13.9557 5.25134, 13.4767 5.37405 L 12.8908 4.80403, 15.6935 4.80403, 15.6935 2.14392, 14.8463 2.14392, 14.0626 2.27059, 13.544 1.76391, 19.4778 1.76391, 20.2616 1.00387, 21.4372 2.14392, 19.2838 2.14392, 19.2838 4.80403, 20.0003 4.80403, 20.8474 3.98066, 22.0864 5.18404, 19.2838 5.18404, 19.2838 7.21079 C 19.2838 8.05791, 19.3076 8.67148, 19.3471 9.04754 Z M 16.5445 2.14392 L 16.5445 4.80403, 18.4367 4.80403, 18.4367 2.14392 Z M 22.5456 7.4008 C 22.5892 6.43493, 22.6089 5.48489, 22.6089 4.55464, 22.6089 3.62836, 22.5892 2.82478, 22.5456 2.14392 L 23.9153 2.65061, 23.46 3.09396, 23.46 7.08412 Z M 25.2176 0.560522 L 26.5912 1.19388, 26.132 1.63723, 26.132 8.16083 C 26.2191 8.96837, 25.7639 9.55818, 24.7624 9.93424, 24.7228 9.43151, 24.0459 9.0317, 22.7396 8.73086 L 22.7396 8.41418 C 23.8717 8.54481, 24.5803 8.60023, 24.8613 8.57648, 25.1463 8.55668, 25.2849 8.29146, 25.2849 7.78082 L 25.2849 2.52394 C 25.2849 1.97766, 25.2651 1.32451, 25.2176 0.560522 Z M 19.5451 11.201 C 19.5451 10.5716, 19.5253 9.87486, 19.4778 9.11087 L 21.0453 9.74423, 20.4555 10.1876, 20.4555 11.201, 23.5234 11.201, 24.4378 10.3143, 25.7401 11.581, 20.4555 11.581, 20.4555 14.1777, 24.7624 14.1777, 25.8074 13.1644, 27.2404 14.5578, 14.977 14.5578 C 14.4149 14.5578, 13.8923 14.6211, 13.4134 14.7478 L 12.8235 14.1777, 19.5451 14.1777, 19.5451 11.581, 16.8691 11.581 C 16.307 11.5849, 15.7845 11.6483, 15.3055 11.771 L 14.7157 11.201 Z" stroke="none" fill="#000000" />
			<rect />
		</svg>
	</g>
	<g transform="matrix(1 0 -0 1 443.441 311.902)">
		<svg width="89.9907532" height="48.0116081">
			<defs />
			<path d="M 12.1274 3.38761 C 12.113 3.45058, 12.0797 3.50321, 12.0275 3.5464, 11.9754 3.58958, 11.9124 3.61117, 11.8382 3.61072, 11.6605 3.61117, 11.4877 3.62467, 11.3195 3.65076, 11.1513 3.6773, 10.9956 3.74072, 10.8521 3.84103, 10.7338 3.91346, 10.6398 4.00837, 10.5705 4.12578, 10.5013 4.24363, 10.4495 4.36913, 10.4149 4.50318 L 8.22828 13.0175 C 8.17385 13.1615, 8.07759 13.2335, 7.93904 13.2335 L 7.76856 13.2335 C 7.67949 13.2335, 7.61292 13.1952, 7.56838 13.1183, 7.01014 11.6123, 6.45551 10.1094, 5.90446 8.60967, 5.35342 7.11039, 4.82577 5.69343, 4.32152 4.35924 L 2.40884 11.794 C 2.37915 11.8759, 2.36431 11.9578, 2.36431 12.0387, 2.36431 12.0729, 2.36926 12.1089, 2.37915 12.1467, 2.394 12.2623, 2.43853 12.3536, 2.5123 12.4202, 2.60137 12.507, 2.72013 12.5646, 2.86857 12.5934, 3.01701 12.6221, 3.1848 12.6365, 3.37238 12.6361, 3.51092 12.6365, 3.5802 12.6941, 3.5802 12.8088, 3.5802 12.8381, 3.57525 12.8691, 3.56535 12.9024 L 3.53567 13.0104 C 3.52082 13.0778, 3.48483 13.1318, 3.42816 13.1723, 3.37148 13.2132, 3.31075 13.2335, 3.24643 13.2335, 2.75251 13.2047, 2.25095 13.1903, 1.74175 13.1903, 1.23794 13.1903, 0.728732 13.2047, 0.214577 13.2335, 0.140356 13.2335, 0.0859262 13.2119, 0.0512894 13.1687, 0.0171024 13.1354, 8.87364e-006 13.0994, -0.000440955 13.0607, 8.87364e-006 13.0324, 0.00495699 13.0036, 0.0144034 12.9744 L 0.0440921 12.8664 C 0.0589365 12.8043, 0.0935733 12.7508, 0.148003 12.7049, 0.202432 12.6595, 0.264059 12.6365, 0.332882 12.6361, 0.520911 12.6365, 0.696794 12.6221, 0.859632 12.5934, 1.02247 12.5646, 1.17811 12.5047, 1.32655 12.413, 1.44036 12.3415, 1.53168 12.247, 1.60095 12.1291, 1.67022 12.0117, 1.7242 11.8858, 1.76379 11.7508 L 3.8393 3.68269 C 3.75563 3.65436, 3.60359 3.63546, 3.38362 3.62557, 3.16366 3.61612, 2.9302 3.61117, 2.68279 3.61072, 2.60902 3.61117, 2.55459 3.58733, 2.51995 3.53875, 2.49026 3.51041, 2.47542 3.47442, 2.47542 3.43079, 2.47542 3.40245, 2.48307 3.37591, 2.49746 3.35162 L 2.51995 3.23646 C 2.57438 3.09297, 2.67064 3.021, 2.80919 3.02055 L 5.12941 3.02055 C 5.22342 3.021, 5.28505 3.05923, 5.31474 3.1357 L 8.13922 10.7504, 9.76265 4.46 C 9.79234 4.37408, 9.80718 4.28771, 9.80718 4.2009, 9.80718 4.05245, 9.7604 3.9301, 9.66638 3.83384, 9.56292 3.73353, 9.44057 3.67145, 9.29932 3.64716, 9.15853 3.62332, 8.99434 3.61117, 8.80631 3.61072, 8.73254 3.61117, 8.67811 3.58958, 8.64302 3.54595, 8.60884 3.51266, 8.59129 3.47442, 8.59129 3.43079, 8.59129 3.40245, 8.59894 3.37591, 8.61333 3.35162 L 8.63583 3.23646 C 8.69026 3.09297, 8.78652 3.021, 8.92507 3.02055, 9.42933 3.04034, 9.93583 3.04978, 10.4446 3.04933, 10.9488 3.04978, 11.4554 3.04034, 11.9641 3.02055, 12.0334 3.021, 12.0928 3.04484, 12.1422 3.09252, 12.162 3.1312, 12.1719 3.16719, 12.1719 3.20048, 12.1719 3.22972, 12.1647 3.25626, 12.1494 3.27965 Z" stroke="none" fill="#000000" />
			<path d="M 19.1903 9.55422 C 19.2378 8.58835, 19.2576 7.80457, 19.2576 7.21079 L 19.2576 5.18404, 17.3655 5.18404 C 17.2784 7.42455, 16.0829 9.15837, 13.7751 10.3776 L 13.6445 10.1876 C 15.4298 8.88128, 16.3877 7.21475, 16.5144 5.18404 L 15.8652 5.18404 C 15.2991 5.188, 14.7766 5.25134, 14.2976 5.37405 L 13.7118 4.80403, 16.5144 4.80403, 16.5144 2.14392, 15.6673 2.14392, 14.8835 2.27059, 14.3649 1.76391, 20.2987 1.76391, 21.0825 1.00387, 22.2582 2.14392, 20.1048 2.14392, 20.1048 4.80403, 20.8212 4.80403, 21.6684 3.98066, 22.9074 5.18404, 20.1048 5.18404, 20.1048 7.21079 C 20.1048 8.05791, 20.1285 8.67148, 20.1681 9.04754 Z M 17.3655 2.14392 L 17.3655 4.80403, 19.2576 4.80403, 19.2576 2.14392 Z M 23.3666 7.4008 C 23.4101 6.43493, 23.4299 5.48489, 23.4299 4.55464, 23.4299 3.62836, 23.4101 2.82478, 23.3666 2.14392 L 24.7362 2.65061, 24.281 3.09396, 24.281 7.08412 Z M 26.0385 0.560522 L 27.4121 1.19388, 26.9529 1.63723, 26.9529 8.16083 C 27.04 8.96837, 26.5848 9.55818, 25.5833 9.93424, 25.5437 9.43151, 24.8668 9.0317, 23.5605 8.73086 L 23.5605 8.41418 C 24.6926 8.54481, 25.4012 8.60023, 25.6823 8.57648, 25.9673 8.55668, 26.1058 8.29146, 26.1058 7.78082 L 26.1058 2.52394 C 26.1058 1.97766, 26.086 1.32451, 26.0385 0.560522 Z M 20.366 11.201 C 20.366 10.5716, 20.3462 9.87486, 20.2987 9.11087 L 21.8663 9.74423, 21.2765 10.1876, 21.2765 11.201, 24.3443 11.201, 25.2587 10.3143, 26.5611 11.581, 21.2765 11.581, 21.2765 14.1777, 25.5833 14.1777, 26.6284 13.1644, 28.0613 14.5578, 15.7979 14.5578 C 15.2358 14.5578, 14.7133 14.6211, 14.2343 14.7478 L 13.6445 14.1777, 20.366 14.1777, 20.366 11.581, 17.6901 11.581 C 17.128 11.5849, 16.6054 11.6483, 16.1265 11.771 L 15.5366 11.201 Z" stroke="none" fill="#000000" />
			<rect />
		</svg>
	</g>
	<path d="M 0 -111.345 L 0 111.345" fill="none" stroke="#000000" stroke-width="0.5" stroke-linecap="round" stroke-linejoin="round" stroke-dasharray="1.7525, 1.2475" transform="matrix(1 0 0 1 381.637 453.88)" />
	<path d="M 75.913 0 L -75.9127 0" fill="none" stroke="#000000" stroke-width="1" stroke-linecap="round" stroke-linejoin="round" marker-end="url(#CustomMarker-07)" transform="matrix(1 0 0 1 305.724 415.923)" />
	<path d="M 75.913 0 L -75.9127 0" fill="none" stroke="#000000" stroke-width="1" stroke-linecap="round" stroke-linejoin="round" marker-end="url(#CustomMarker-08)" transform="matrix(1 0 0 1 305.724 491.836)" />
	<g transform="matrix(1 0 -0 1 295.615 437.123)">
		<svg width="66.0646057" height="59.9961205">
			<defs />
			<path d="M 10.1243 10.3945 C 10.1099 10.4574, 10.0775 10.5114, 10.028 10.5569, 9.97856 10.6027, 9.92458 10.6252, 9.86521 10.6248, 9.84541 10.6347, 9.82067 10.6396, 9.79098 10.6392, 9.73161 10.6396, 9.70192 10.6347, 9.70192 10.6248, 9.57866 10.6252, 9.51164 10.5726, 9.50174 10.4664 L 9.50174 10.4161 C 9.53143 10.1911, 9.55617 9.96309, 9.57597 9.73232, 9.59576 9.55509, 9.60565 9.39225, 9.60565 9.24291 L 9.60565 9.12056 C 9.59576 8.92893, 9.57237 8.75754, 9.53548 8.6064, 9.4986 8.45526, 9.43292 8.32706, 9.33891 8.2209, 9.15088 8.00048, 8.87153 7.87003, 8.50087 7.8291, 8.13021 7.78861, 7.73482 7.76792, 7.31467 7.76747 L 5.72093 7.76747 C 5.45913 7.76792, 5.30619 7.78726, 5.26165 7.82505, 5.23691 7.84484, 5.18743 7.98609, 5.11321 8.24969 L 4.19376 11.762, 5.21712 11.762 C 5.49422 11.7624, 5.74612 11.7507, 5.97328 11.7264, 6.2009 11.7026, 6.39612 11.6306, 6.55896 11.51, 6.70741 11.3904, 6.81986 11.2226, 6.89633 11.0067, 6.9728 10.7908, 7.04838 10.5438, 7.12215 10.2649, 7.17658 10.1214, 7.27059 10.0517, 7.40374 10.0562 L 7.52969 10.0562 C 7.66824 10.0567, 7.73751 10.1192, 7.73751 10.2433 L 7.73751 10.2937, 6.81087 13.8564 C 6.78118 14.0057, 6.68491 14.0777, 6.52163 14.0723 L 6.40287 14.0723 C 6.26477 14.0727, 6.1955 14.0151, 6.1955 13.8995, 6.1955 13.8712, 6.20315 13.8447, 6.21754 13.8204, 6.28232 13.5523, 6.3291 13.3049, 6.35879 13.0791, 6.36868 13.0219, 6.37363 12.9715, 6.37363 12.9279, 6.37363 12.7939, 6.34394 12.6859, 6.28457 12.604, 6.2009 12.4893, 6.05111 12.421, 5.83609 12.3994, 5.62107 12.3778, 5.38041 12.367, 5.11321 12.3665 L 4.04577 12.3665, 3.03005 16.3106 C 2.98057 16.4789, 2.95583 16.6039, 2.95583 16.6849 L 2.95583 16.7137 C 2.97562 16.7335, 3.11417 16.7452, 3.37102 16.7497 L 5.06868 16.7497 C 5.50861 16.7501, 5.93505 16.7204, 6.34754 16.6601, 6.76049 16.6003, 7.14464 16.4478, 7.5 16.2027, 7.65834 16.088, 7.80949 15.9346, 7.95253 15.7425, 8.09603 15.5509, 8.23188 15.3385, 8.36053 15.1055, 8.48918 14.873, 8.61108 14.626, 8.72714 14.3642, 8.84319 14.1029, 8.95835 13.8447, 9.07171 13.5901, 9.11129 13.4754, 9.19811 13.4178, 9.33126 13.4173 L 9.45721 13.4173 C 9.59576 13.4178, 9.66503 13.4803, 9.66503 13.6045 L 9.66503 13.662, 8.18959 17.1743 C 8.13561 17.2895, 8.04655 17.347, 7.92284 17.347 L 0.213224 17.347 C 0.139002 17.347, 0.0845724 17.3254, 0.0499356 17.2823, 0.0157486 17.249, -0.00134492 17.213, -0.00179474 17.1743, -0.00134492 17.146, 0.00360321 17.1172, 0.0130496 17.0879 L 0.0427383 16.98 C 0.0575827 16.9179, 0.0922195 16.8644, 0.146649 16.8185, 0.201078 16.773, 0.262705 16.7501, 0.331529 16.7497, 0.56409 16.7501, 0.781807 16.7465, 0.984231 16.7393, 1.18665 16.7321, 1.34005 16.7069, 1.44351 16.6633, 1.53257 16.6156, 1.60185 16.4861, 1.65133 16.2746 L 3.73449 8.2137 C 3.76417 8.10844, 3.77902 8.02477, 3.77902 7.9618, 3.77902 7.90467, 3.76687 7.87093, 3.74168 7.86104, 3.67241 7.8183, 3.53656 7.79221, 3.33414 7.78232, 3.13171 7.77287, 2.914 7.76792, 2.68144 7.76747, 2.54334 7.76792, 2.47406 7.70315, 2.47406 7.57314 L 2.47406 7.52276, 2.50375 7.40041 C 2.54334 7.24252, 2.64005 7.16335, 2.79299 7.1629 L 10.3024 7.1629 C 10.4261 7.16335, 10.4927 7.22318, 10.5026 7.34283 L 10.5026 7.39321 Z" stroke="none" fill="#000000" />
			<polygon points="-3.71448 0 -1.35608 -1.474 -0.80333 -1.474 -2.05623 -0.276375 3.71448 -0.276375 3.71448 0.276375 -2.05623 0.276375 -0.80333 1.474 -1.35608 1.474" stroke="none" fill="#000000" transform="matrix(-1 8.74228e-008 -8.74228e-008 -1 6.32817 3.685)" />
			<path d="M -1.94316 -1.90375 C -1.52863 -1.52247, -1.22493 -1.17444, -1.02986 -0.855224, -0.834784 -0.536011, -0.74168 -0.192414, -0.754981 0.173351, -0.766064 0.541333, -0.870252 0.829512, -1.06533 1.04232, -1.2604 1.25513, -1.55301 1.397, -1.94316 1.46572, -1.94316 1.15981, -2.18479 0.935916, -2.67248 0.791827 L -2.67248 0.649954 C -2.23356 0.698723, -1.91213 0.718674, -1.70375 0.705373, -1.49538 0.694289, -1.37346 0.594535, -1.33799 0.403894, -1.30252 0.21547, -1.28479 0.0381291, -1.28479 -0.130344, -1.28479 -0.365321, -1.3269 -0.593647, -1.41114 -0.819756, -1.49538 -1.04365, -1.73479 -1.40498, -2.12494 -1.90375 L -1.50424 -4.06731, -2.85647 -4.06731, -2.85647 2.99085, -3.36632 3.2746 C -3.34194 2.2837, -3.33085 0.807344, -3.33085 -1.1567, -3.33085 -3.11853, -3.34194 -4.26681, -3.36632 -4.59933 L -2.85647 -4.28011, -1.50424 -4.28011, -1.24932 -4.6348, -0.626409 -4.17371 C -0.870252 -4.02962, -1.07641 -3.78578, -1.2471 -3.4444, -1.41779 -3.1008, -1.65055 -2.58651, -1.94316 -1.90375 Z M 0.468669 -3.99637 L 0.468669 -2.04562, 2.80735 -2.04562, 2.80735 -3.99637 Z M 0.468669 -1.83281 L 0.468669 0.117932, 2.80735 0.117932, 2.80735 -1.83281 Z M 0.468669 0.330741 L 0.468669 2.4943, 2.80735 2.4943, 2.80735 0.330741 Z M -1.5774 2.4943 L -0.0057168 2.4943 C -0.0057168 -1.54685, -0.0168004 -3.88775, -0.0434017 -4.52839 L 0.468669 -4.20918, 2.76966 -4.20918, 3.06228 -4.59933, 3.6475 -4.13824, 3.3172 -3.8545, 3.3172 2.4943, 3.50119 2.4943, 4.01326 1.99774, 4.66942 2.70711, -0.371482 2.70711 C -0.686261 2.70711, -0.978873 2.74257, -1.24932 2.81351 Z" stroke="none" fill="#000000" transform="matrix(1.12 0 0 1 15.582 17.3384)" />
			<rect />
		</svg>
	</g>
	<g transform="matrix(1 0 -0 1 283.878 311.902)">
		<svg width="135.036896" height="50.9380569">
			<defs />
			<path d="M 10.1969 5.84907 C 10.0885 6.23817, 9.90313 6.59714, 9.64133 6.92551, 9.37953 7.25434, 9.06825 7.53863, 8.70748 7.77794, 8.31703 8.04694, 7.90094 8.24981, 7.45876 8.38656, 7.01658 8.5233, 6.57799 8.59168, 6.14301 8.59123 L 3.94155 8.59123, 3.01535 12.1899 C 2.98566 12.296, 2.97082 12.3797, 2.97082 12.4418, 2.97082 12.4998, 2.98341 12.5358, 3.0077 12.5497, 3.07697 12.5934, 3.21327 12.6185, 3.4157 12.6257, 3.61812 12.6329, 3.83539 12.6365, 4.0675 12.6361, 4.20605 12.6365, 4.27532 12.7036, 4.27532 12.8376 L 4.27532 12.888, 4.24563 13.0175 C 4.19165 13.1615, 4.09494 13.2335, 3.95639 13.2335, 3.33923 13.2047, 2.71891 13.1903, 2.09635 13.1903, 1.46884 13.1903, 0.841324 13.2047, 0.213813 13.2335, 0.0806635 13.2335, 0.00914066 13.1714, -0.00120541 13.0463 L -0.00120541 12.9888, 0.0284833 12.8664 C 0.0680683 12.7085, 0.164332 12.6316, 0.317274 12.6361, 0.549835 12.6365, 0.769802 12.6329, 0.977173 12.6257, 1.18499 12.6185, 1.33794 12.5934, 1.43645 12.5497, 1.53046 12.4975, 1.60199 12.368, 1.65147 12.1611 L 3.73418 4.04976 C 3.76386 3.94449, 3.77871 3.86308, 3.77871 3.80505, 3.77871 3.74792, 3.76656 3.71418, 3.74137 3.70429, 3.67255 3.66155, 3.53805 3.63546, 3.33788 3.62557, 3.1377 3.61612, 2.91908 3.61117, 2.68158 3.61072, 2.54348 3.61117, 2.4742 3.5464, 2.4742 3.4164 L 2.4742 3.35882, 2.51874 3.23646 C 2.54843 3.09297, 2.63974 3.021, 2.79268 3.02055 L 7.54378 3.02055 C 7.97876 3.021, 8.38271 3.08937, 8.75562 3.22612, 9.12897 3.36287, 9.4488 3.56799, 9.7151 3.84103, 9.95756 4.09564, 10.128 4.39792, 10.2266 4.74789, 10.2562 4.91163, 10.2711 5.07716, 10.2711 5.2445, 10.2711 5.43703, 10.2464 5.63855, 10.1969 5.84907 Z M 8.61842 5.81309 C 8.70254 5.51125, 8.75921 5.21841, 8.7889 4.93502 L 8.7889 4.80547 C 8.7889 4.58505, 8.72728 4.38353, 8.60357 4.2009, 8.44074 3.98543, 8.22302 3.83339, 7.95132 3.74432, 7.67963 3.6557, 7.38589 3.61117, 7.06921 3.61072 L 5.67609 3.61072 C 5.42418 3.61117, 5.27349 3.63051, 5.22401 3.66875, 5.17453 3.70743, 5.1228 3.84373, 5.06837 4.07854 L 4.03781 8.05143, 5.89111 8.05143 C 6.21228 8.05188, 6.53346 8.00645, 6.85464 7.91514, 7.17582 7.82427, 7.4772 7.66818, 7.7588 7.44686, 8.0107 7.2314, 8.19738 6.97949, 8.31838 6.6916, 8.43939 6.40371, 8.53925 6.11087, 8.61842 5.81309 Z" stroke="none" fill="#000000" />
			<path d="M 14.3741 10.2394 C 14.3345 10.3982, 14.2382 10.4774, 14.0849 10.4769 L 10.7341 10.4769 C 10.6009 10.4774, 10.529 10.4103, 10.5191 10.2754 L 10.5191 10.2178, 10.6599 9.7284 C 10.6751 9.66632, 10.7084 9.61369, 10.7602 9.57051, 10.8123 9.52732, 10.8726 9.50573, 10.9419 9.50528 L 14.2999 9.50528 C 14.4285 9.50573, 14.4928 9.57051, 14.4928 9.69961 L 14.4928 9.74999 Z" stroke="none" fill="#000000" />
			<path d="M 27.5991 3.38761 C 27.5847 3.45058, 27.5514 3.50321, 27.4992 3.5464, 27.4475 3.58958, 27.3845 3.61117, 27.3103 3.61072, 27.1326 3.61117, 26.9599 3.62467, 26.7917 3.65076, 26.6234 3.6773, 26.4678 3.74072, 26.3243 3.84103, 26.206 3.91346, 26.1124 4.00837, 26.0431 4.12578, 25.9739 4.24363, 25.9221 4.36913, 25.8871 4.50318 L 23.7009 13.0175 C 23.6469 13.1615, 23.5502 13.2335, 23.4116 13.2335 L 23.2412 13.2335 C 23.1525 13.2335, 23.086 13.1952, 23.041 13.1183, 22.4827 11.6123, 21.9281 10.1094, 21.3771 8.60967, 20.8265 7.11039, 20.2988 5.69343, 19.795 4.35924 L 17.8828 11.794 C 17.8531 11.8759, 17.8383 11.9578, 17.8383 12.0387, 17.8383 12.0729, 17.8432 12.1089, 17.8531 12.1467, 17.8679 12.2623, 17.9125 12.3536, 17.9863 12.4202, 18.0753 12.507, 18.1941 12.5646, 18.3421 12.5934, 18.4905 12.6221, 18.6583 12.6365, 18.8463 12.6361, 18.9849 12.6365, 19.0537 12.6941, 19.0537 12.8088, 19.0537 12.8381, 19.0487 12.8691, 19.0389 12.9024 L 19.0092 13.0104 C 18.9948 13.0778, 18.9588 13.1318, 18.9021 13.1723, 18.8454 13.2132, 18.7847 13.2335, 18.7204 13.2335, 18.2265 13.2047, 17.7249 13.1903, 17.2157 13.1903, 16.7119 13.1903, 16.2027 13.2047, 15.689 13.2335, 15.6148 13.2335, 15.5603 13.2119, 15.5257 13.1687, 15.4915 13.1354, 15.4744 13.0994, 15.474 13.0607, 15.4744 13.0324, 15.4794 13.0036, 15.4888 12.9744 L 15.5185 12.8664 C 15.5333 12.8043, 15.568 12.7508, 15.6224 12.7049, 15.6768 12.6595, 15.7385 12.6365, 15.8073 12.6361, 15.9953 12.6365, 16.1707 12.6221, 16.3336 12.5934, 16.4969 12.5646, 16.6525 12.5047, 16.8005 12.413, 16.9143 12.3415, 17.0056 12.247, 17.0749 12.1291, 17.1442 12.0117, 17.1982 11.8858, 17.2377 11.7508 L 19.3132 3.68269 C 19.2296 3.65436, 19.0775 3.63546, 18.8576 3.62557, 18.6376 3.61612, 18.4041 3.61117, 18.1567 3.61072, 18.083 3.61117, 18.0285 3.58733, 17.9939 3.53875, 17.9642 3.51041, 17.9494 3.47442, 17.9494 3.43079, 17.9494 3.40245, 17.957 3.37591, 17.9714 3.35162 L 17.9939 3.23646 C 18.0483 3.09297, 18.1446 3.021, 18.2827 3.02055 L 20.6029 3.02055 C 20.6969 3.021, 20.7586 3.05923, 20.7878 3.1357 L 23.6118 10.7504, 25.2348 4.46 C 25.2645 4.37408, 25.2793 4.28771, 25.2793 4.2009, 25.2793 4.05245, 25.2326 3.9301, 25.1385 3.83384, 25.0351 3.73353, 24.9127 3.67145, 24.7719 3.64716, 24.6311 3.62332, 24.4669 3.61117, 24.2789 3.61072, 24.2051 3.61117, 24.1507 3.58958, 24.1156 3.54595, 24.0814 3.51266, 24.0639 3.47442, 24.0639 3.43079, 24.0639 3.40245, 24.0715 3.37591, 24.0864 3.35162 L 24.1084 3.23646 C 24.1629 3.09297, 24.2591 3.021, 24.3977 3.02055, 24.9015 3.04034, 25.408 3.04978, 25.9167 3.04933, 26.421 3.04978, 26.9275 3.04034, 27.4363 3.02055, 27.5055 3.021, 27.5649 3.04484, 27.6139 3.09252, 27.6337 3.1312, 27.6436 3.16719, 27.6436 3.20048, 27.6436 3.22972, 27.6364 3.25626, 27.6216 3.27965 Z" stroke="none" fill="#000000" />
			<path d="M 38.5143 3.91733 C 38.5143 2.19142, 38.4945 1.05138, 38.4509 0.497187 L 40.0145 1.32055, 39.3653 1.76391, 39.3653 3.91733, 41.7761 3.91733, 42.5598 3.1573, 43.6682 4.29734, 39.3653 4.29734, 39.3653 7.14746, 41.1269 7.14746, 41.9067 6.38743, 43.019 7.52747, 37.4732 7.52747 C 36.9071 7.53143, 36.3846 7.59477, 35.9056 7.71748 L 35.3198 7.14746, 38.5143 7.14746, 38.5143 4.29734, 36.8834 4.29734 C 36.3213 4.3013, 35.7987 4.36464, 35.3198 4.48735 L 34.7339 3.91733 Z M 35.8423 15.3178 C 35.8858 14.3915, 35.9056 13.3188, 35.9056 12.0916, 35.9056 10.8684, 35.8858 9.81153, 35.8423 8.92087 L 36.8834 9.49089, 41.3208 9.49089, 41.9067 8.92087, 42.8211 9.80757, 42.2352 10.1876, 42.2352 12.7844 C 42.2352 13.7186, 42.259 14.3678, 42.2986 14.7478 L 41.3881 15.1278, 41.3881 13.8611, 36.7527 13.8611, 36.7527 14.8744 Z M 36.7527 9.8709 L 36.7527 13.4811, 41.3881 13.4811, 41.3881 9.8709 Z M 30.4904 9.8709 L 34.9912 9.17421, 34.9912 9.42755 C 34.4726 9.55818, 33.6493 9.77986, 32.5171 10.0965, 31.385 10.4132, 30.5577 10.7616, 30.0352 11.1376 L 29.3187 9.99758 C 29.667 9.87486, 29.9956 9.66506, 30.2964 9.36817, 30.6012 9.07525, 31.3177 8.16479, 32.4498 6.64077, 31.9273 6.72786, 31.4286 6.82682, 30.9496 6.92974, 30.4706 7.03662, 30.0154 7.21475, 29.5799 7.46414 L 28.9901 6.32409 C 29.4256 6.32805, 29.9402 5.72636, 30.526 4.52298, 31.1119 3.31959, 31.579 2.08454, 31.9273 0.813867 L 33.297 1.51056, 32.7111 1.82724 C 31.8006 3.52148, 30.906 5.01779, 30.0352 6.32409 L 32.6438 6.26076 C 33.1663 5.46114, 33.582 4.72486, 33.8828 4.044 L 35.0585 4.86737, 34.4726 5.18404 C 33.2534 6.75161, 31.9273 8.31126, 30.4904 9.8709 Z M 29.6433 14.4311 L 28.9901 13.2277 C 29.5997 13.1485, 30.332 13.01, 31.1792 12.82, 32.0263 12.63, 33.3405 12.2816, 35.1218 11.771 L 35.1891 12.0243 C 31.9709 13.2515, 30.1222 14.0511, 29.6433 14.4311 Z" stroke="none" fill="#000000" />
			<rect />
		</svg>
	</g>
</svg>
