<?xml version="1.0"?>
<svg xmlns="http://www.w3.org/2000/svg" xmlns:xlink="http://www.w3.org/1999/xlink" width="782.418457" height="280.299622">
	<defs>
		<marker id="CustomMarker-01" markerUnits="strokeWidth" markerWidth="15.000001" markerHeight="9" viewBox="-15 -4.5 15 9" orient="auto-start-reverse">
			<path d="M 0 -0 L -10 -3, -8 -0.5, -8 0.5, -10 3 Z" fill="#000000" stroke="#000000" stroke-linejoin="round" />
		</marker>
		<marker id="CustomMarker-02" markerUnits="strokeWidth" markerWidth="15.000001" markerHeight="9" viewBox="-15 -4.5 15 9" orient="auto-start-reverse">
			<path d="M 0 -0 L -10 -3, -8 -0.5, -8 0.5, -10 3 Z" fill="#000000" stroke="#000000" stroke-linejoin="round" />
		</marker>
		<marker id="CustomMarker-03" markerUnits="strokeWidth" markerWidth="15.000001" markerHeight="9" viewBox="-15 -4.5 15 9" orient="auto-start-reverse">
			<path d="M 0 -0 L -10 -3, -8 -0.5, -8 0.5, -10 3 Z" fill="#000000" stroke="#000000" stroke-linejoin="round" />
		</marker>
	</defs>
	<rect x="-0" y="-0" width="782.418457" height="280.299622" stroke="none" fill="#FFFFFF" />
	<path d="M 0 186.429 L 0 -186.429" fill="none" stroke="#000000" stroke-width="1.60000002" stroke-linecap="round" stroke-linejoin="round" marker-end="url(#CustomMarker-01)" transform="matrix(0.625 0 0 0.625 8.49999 125.018)" />
	<rect x="-157.898529" y="-34.0091553" width="315.797058" height="68.0183105" stroke="none" fill="#7ED7FD" fill-opacity="0.51372546" transform="matrix(0.625 0 -0 0.625 107.187 220.28)" />
	<path d="M -157.899 -34.0092 L 157.899 -34.0092, 157.899 34.0092, -157.899 34.0092 Z" fill="none" stroke="#000000" stroke-width="1.60000002" stroke-linecap="round" stroke-linejoin="round" transform="matrix(0.625 0 -0 0.625 107.187 220.28)" />
	<g transform="matrix(1 0 -0 1 92.2582 211.474)">
		<svg width="95.8984451" height="50.9380569">
			<defs />
			<path d="M 7.19611 2.90395 C 7.19611 1.85099, 7.17632 1.05138, 7.12882 0.497187 L 8.56575 1.06721, 7.97594 1.5739, 7.97594 2.90395, 10.26 2.90395 C 10.26 1.89454, 10.2402 1.1345, 10.1967 0.623858 L 11.6296 1.13055, 11.0438 1.63723, 11.0438 2.90395, 12.738 2.90395, 13.5218 2.14392, 14.6302 3.28397, 11.0438 3.28397 C 11.0438 3.66794, 11.0675 4.02816, 11.1071 4.36068 L 10.26 4.74069, 10.26 3.28397, 7.97594 3.28397, 7.97594 4.48735, 7.12882 4.86737 C 7.17632 4.32109, 7.19611 3.79461, 7.19611 3.28397 L 6.47567 3.28397 C 5.91356 3.28793, 5.39104 3.35126, 4.91206 3.47398 L 4.3262 2.90395 Z M 5.56521 8.22417 L 5.56521 13.3544 C 6.74089 11.9649, 7.39404 10.2549, 7.52071 8.22417 Z M 4.6508 15.3178 C 4.69434 14.3915, 4.71414 13.0535, 4.71414 11.2999, 4.71414 9.55027, 4.69434 8.22813, 4.6508 7.33747 L 5.62855 7.84415, 7.52071 7.84415, 7.52071 5.94408, 6.08378 5.94408 C 5.52167 5.94803, 4.99915 6.01137, 4.52017 6.13408 L 3.93431 5.56406, 13.0666 5.56406, 13.8503 4.80403, 14.9587 5.94408, 10.8498 5.94408, 10.8498 7.84415, 12.8053 7.84415, 13.2605 7.21079, 14.3056 7.97083, 13.783 8.41418, 13.783 13.6711 C 13.8306 14.4746, 13.3951 15.0644, 12.4807 15.4445, 12.4372 14.8111, 11.8711 14.3915, 10.7825 14.1777 L 10.7825 13.9244 C 11.5227 13.9679, 12.0651 14.0115, 12.4134 14.0511, 12.7618 14.0511, 12.9359 13.8611, 12.9359 13.4811 L 12.9359 8.22417, 10.8498 8.22417 C 10.8063 8.81794, 10.739 9.49485, 10.6519 10.2509, 11.4792 10.5913, 11.9899 10.8566, 12.1878 11.0466, 12.3857 11.2366, 12.4807 11.4385, 12.4807 11.6443, 12.4807 11.8581, 12.4372 12.06, 12.3501 12.25, 12.263 12.44, 12.1997 12.535, 12.1521 12.531, 12.0651 12.535, 11.9582 12.3648, 11.8276 12.0243, 11.6098 11.5651, 11.1982 11.0585, 10.5885 10.5043, 10.3273 11.6483, 9.6108 12.7052, 8.43512 13.6711 L 8.2372 13.5444 C 9.49996 12.155, 10.1096 10.3815, 10.066 8.22417 L 8.30449 8.22417 C 8.26095 8.60814, 8.2174 9.0317, 8.17386 9.49089, 8.69638 9.79173, 9.03681 10.0451, 9.18724 10.2549, 9.33766 10.4686, 9.41287 10.6349, 9.41287 10.7576, 9.41287 10.8882, 9.34953 11.0466, 9.2189 11.2366, 9.08827 11.4266, 9.00119 11.5216, 8.95764 11.5176, 8.82701 11.5216, 8.73993 11.3751, 8.69638 11.0743, 8.6093 10.6151, 8.41533 10.1717, 8.10657 9.74423, 7.67509 11.3949, 6.82797 12.7052, 5.56521 13.6711 L 5.56521 14.8111 Z M 8.30449 5.94408 L 8.30449 7.84415, 10.066 7.84415, 10.066 5.94408 Z M 4.06494 4.10733 C 3.10699 7.91145, 2.58447 10.1401, 2.49738 10.7932, 2.41029 11.4503, 2.34696 12.155, 2.30341 12.915, 2.25987 13.675, 2.23612 14.2411, 2.23612 14.6211, 2.23612 14.8349, 2.14903 14.9378, 1.97486 14.9378, 1.88777 14.9378, 1.70568 14.8665, 1.42067 14.7161, 1.13962 14.5696, 0.99711 14.348, 0.99711 14.0511, 0.99711 13.7977, 1.0644 13.485, 1.19108 13.101, 1.32566 12.6814, 1.389 12.345, 1.389 12.0877, 1.389 11.7947, 1.28212 11.5651, 1.0644 11.3949, 0.846687 11.2287, 0.411253 11.0585, -0.241899 10.8843 L -0.241899 10.6309 C 0.541883 10.718, 1.02086 10.7418, 1.19503 10.6982, 1.36921 10.6586, 1.57505 10.4766, 1.81256 10.1599, 2.05403 9.84319, 2.71906 7.80457, 3.80368 4.044 Z M -0.178563 4.74069 C 1.21483 5.37801, 1.94715 5.89657, 2.01048 6.29638, 2.07382 6.70015, 2.03028 7.00495, 1.87985 7.21475, 1.72943 7.42851, 1.60672 7.53143, 1.51963 7.52747, 1.34546 7.53143, 1.19503 7.34143, 1.0644 6.95745, 0.846687 6.37159, 0.387502 5.69469, -0.309193 4.9307 Z M 1.32171 1.19388 C 2.54092 1.78766, 3.19407 2.2033, 3.28116 2.43289, 3.36825 2.66644, 3.41179 2.82478, 3.41179 2.90395, 3.41179 3.16125, 3.33658 3.3948, 3.1822 3.60461, 3.03178 3.81836, 2.90906 3.92128, 2.82198 3.91733, 2.6953 3.92128, 2.58447 3.75107, 2.49738 3.41064, 2.28362 2.86437, 1.84819 2.19142, 1.19108 1.38389 Z" stroke="none" fill="#000000" />
			<path d="M 18.8083 5.69073 C 18.8558 5.14446, 18.8756 4.44777, 18.8756 3.60065 L 16.6549 3.60065, 16.069 3.72732, 15.5465 3.22063, 18.8756 3.22063 C 18.8756 2.25476, 18.8558 1.40764, 18.8083 0.687195 L 20.178 1.38389, 19.7227 1.82724, 19.7227 3.22063, 22.1374 3.22063 C 22.1374 2.21122, 22.1176 1.34431, 22.0701 0.623858 L 23.4398 1.32055, 22.9845 1.70057, 22.9845 3.22063, 25.3319 3.22063 C 25.3319 2.25476, 25.3121 1.40764, 25.2686 0.687195 L 26.6382 1.38389, 26.179 1.76391, 26.179 3.22063, 27.3547 3.22063, 28.2691 2.33393, 29.5715 3.60065, 26.179 3.60065 C 26.179 4.28151, 26.2028 4.85153, 26.2463 5.31072 L 25.2686 5.69073 C 25.3121 5.01779, 25.3319 4.32109, 25.3319 3.60065 L 22.9845 3.60065 C 22.9845 4.23796, 23.0083 4.7882, 23.0479 5.24738 L 22.0701 5.6274 C 22.1176 4.95445, 22.1374 4.28151, 22.1374 3.60065 L 19.7227 3.60065 C 19.7227 4.15484, 19.7465 4.72486, 19.7861 5.31072 Z M 22.9845 9.11087 C 22.9845 12.2816, 23.0083 14.2648, 23.0479 15.0644 L 22.0701 15.4445 C 22.1176 14.4311, 22.1374 12.3252, 22.1374 9.11087 L 18.939 9.11087, 18.939 13.7344, 18.0245 14.2411 C 18.072 13.105, 18.0918 12.06, 18.0918 11.1099, 18.0918 10.1599, 18.072 9.22171, 18.0245 8.28751 L 18.939 8.73086, 22.1374 8.73086, 22.1374 6.70411, 16.9162 6.70411 C 16.9637 7.51164, 16.833 7.99854, 16.5282 8.16479, 16.2234 8.33501, 15.982 8.41814, 15.8078 8.41418, 15.6336 8.41814, 15.4951 8.36668, 15.3842 8.2598, 15.2773 8.15687, 15.2219 8.05791, 15.2219 7.97083, 15.2219 7.84811, 15.3763 7.6779, 15.6772 7.46414, 16.1126 7.17121, 16.4411 6.53785, 16.6549 5.56406 L 16.9162 5.56406, 16.9162 6.32409, 28.2018 6.32409, 28.7917 5.6274, 29.9634 6.83078 C 29.3577 6.87828, 28.5739 7.36122, 27.616 8.28751 L 27.422 8.16083, 28.2691 6.70411, 22.9845 6.70411, 22.9845 8.73086, 26.1157 8.73086, 26.7016 8.0975, 27.7466 8.92087, 27.1607 9.36422, 27.1607 12.721 C 27.2043 13.4415, 26.7689 13.9679, 25.8544 14.3044, 25.8544 13.8848, 25.225 13.4652, 23.9623 13.0377 L 23.9623 12.721 C 24.8767 12.8517, 25.4982 12.915, 25.8228 12.915, 26.1474 12.915, 26.3097 12.7685, 26.3097 12.4677 L 26.3097 9.11087 Z" stroke="none" fill="#000000" />
			<rect />
		</svg>
	</g>
	<rect x="-157.898529" y="-34.0089111" width="315.797058" height="68.0178223" stroke="none" fill="#7ED7FD" fill-opacity="0.51372546" transform="matrix(0.625 0 -0 0.625 107.187 177.769)" />
	<path d="M -157.899 -34.0089 L 157.899 -34.0089, 157.899 34.0089, -157.899 34.0089 Z" fill="none" stroke="#000000" stroke-width="1.60000002" stroke-linecap="round" stroke-linejoin="round" transform="matrix(0.625 0 -0 0.625 107.187 177.769)" />
	<g transform="matrix(1 0 -0 1 92.2582 168.963)">
		<svg width="92.944603" height="50.9380569">
			<defs />
			<path d="M 4.0689 7.46414 C 3.15845 7.4681, 2.69926 7.06829, 2.69926 6.26076, 2.69926 3.3948, 2.67947 1.57786, 2.63197 0.813867 L 3.67701 1.38389, 10.6677 1.38389, 11.3209 0.75053, 12.2353 1.63723, 11.7128 1.95391 C 11.7128 3.18105, 11.7365 4.11129, 11.7761 4.74069 L 10.7983 5.12071, 10.7983 4.42401, 3.61368 4.42401, 3.61368 5.88074 C 3.61368 6.47451, 3.94223 6.7714, 4.59142 6.76744 L 11.974 6.76744 C 12.3659 6.7714, 12.6153 6.60514, 12.7261 6.26471, 12.837 5.92824, 12.9122 5.188, 12.9518 4.044 L 13.2803 4.044 C 13.2803 4.76444, 13.3357 5.34634, 13.4426 5.78969, 13.5535 6.23305, 13.7593 6.49827, 14.0641 6.57744, 13.8028 7.17121, 13.1932 7.4681, 12.2353 7.46414 Z M 3.61368 1.76391 L 3.61368 4.044, 10.7983 4.044, 10.7983 1.76391 Z M 6.42025 13.4811 C 7.63946 13.6117, 8.447 13.6869, 8.83889 13.7067, 9.23078 13.7304, 9.4485 13.5483, 9.49204 13.1644 L 9.49204 9.93424, 2.30737 9.93424 C 1.74131 9.9382, 1.21879 10.0015, 0.739808 10.1242 L 0.149992 9.55422, 9.49204 9.55422 C 9.49204 8.71502, 9.47225 8.05791, 9.42475 7.59081 L 10.9923 8.28751, 10.4065 8.73086, 10.4065 9.55422, 12.168 9.55422, 13.213 8.54085, 14.65 9.93424, 10.4065 9.93424, 10.4065 13.5444 C 10.4065 14.2648, 9.88393 14.8349, 8.83889 15.2545, 8.70826 14.6646, 7.90072 14.1777, 6.42025 13.7977 Z M 3.54638 10.3143 L 3.74431 10.1242 C 5.05061 11.0149, 5.71564 11.672, 5.73543 12.0916, 5.75918 12.5152, 5.67209 12.8121, 5.47417 12.9783, 5.2802 13.1485, 5.1377 13.2317, 5.05061 13.2277, 4.87643 13.2317, 4.72601 12.9981, 4.59142 12.531, 4.41725 11.8581, 4.0689 11.1218, 3.54638 10.3143 Z" stroke="none" fill="#000000" />
			<path d="M 18.8083 5.69073 C 18.8558 5.14446, 18.8756 4.44777, 18.8756 3.60065 L 16.6549 3.60065, 16.069 3.72732, 15.5465 3.22063, 18.8756 3.22063 C 18.8756 2.25476, 18.8558 1.40764, 18.8083 0.687195 L 20.178 1.38389, 19.7227 1.82724, 19.7227 3.22063, 22.1374 3.22063 C 22.1374 2.21122, 22.1176 1.34431, 22.0701 0.623858 L 23.4398 1.32055, 22.9845 1.70057, 22.9845 3.22063, 25.3319 3.22063 C 25.3319 2.25476, 25.3121 1.40764, 25.2686 0.687195 L 26.6382 1.38389, 26.179 1.76391, 26.179 3.22063, 27.3547 3.22063, 28.2691 2.33393, 29.5715 3.60065, 26.179 3.60065 C 26.179 4.28151, 26.2028 4.85153, 26.2463 5.31072 L 25.2686 5.69073 C 25.3121 5.01779, 25.3319 4.32109, 25.3319 3.60065 L 22.9845 3.60065 C 22.9845 4.23796, 23.0083 4.7882, 23.0479 5.24738 L 22.0701 5.6274 C 22.1176 4.95445, 22.1374 4.28151, 22.1374 3.60065 L 19.7227 3.60065 C 19.7227 4.15484, 19.7465 4.72486, 19.7861 5.31072 Z M 22.9845 9.11087 C 22.9845 12.2816, 23.0083 14.2648, 23.0479 15.0644 L 22.0701 15.4445 C 22.1176 14.4311, 22.1374 12.3252, 22.1374 9.11087 L 18.939 9.11087, 18.939 13.7344, 18.0245 14.2411 C 18.072 13.105, 18.0918 12.06, 18.0918 11.1099, 18.0918 10.1599, 18.072 9.22171, 18.0245 8.28751 L 18.939 8.73086, 22.1374 8.73086, 22.1374 6.70411, 16.9162 6.70411 C 16.9637 7.51164, 16.833 7.99854, 16.5282 8.16479, 16.2234 8.33501, 15.982 8.41814, 15.8078 8.41418, 15.6336 8.41814, 15.4951 8.36668, 15.3842 8.2598, 15.2773 8.15687, 15.2219 8.05791, 15.2219 7.97083, 15.2219 7.84811, 15.3763 7.6779, 15.6772 7.46414, 16.1126 7.17121, 16.4411 6.53785, 16.6549 5.56406 L 16.9162 5.56406, 16.9162 6.32409, 28.2018 6.32409, 28.7917 5.6274, 29.9634 6.83078 C 29.3577 6.87828, 28.5739 7.36122, 27.616 8.28751 L 27.422 8.16083, 28.2691 6.70411, 22.9845 6.70411, 22.9845 8.73086, 26.1157 8.73086, 26.7016 8.0975, 27.7466 8.92087, 27.1607 9.36422, 27.1607 12.721 C 27.2043 13.4415, 26.7689 13.9679, 25.8544 14.3044, 25.8544 13.8848, 25.225 13.4652, 23.9623 13.0377 L 23.9623 12.721 C 24.8767 12.8517, 25.4982 12.915, 25.8228 12.915, 26.1474 12.915, 26.3097 12.7685, 26.3097 12.4677 L 26.3097 9.11087 Z" stroke="none" fill="#000000" />
			<rect />
		</svg>
	</g>
	<g transform="matrix(1 0 -0 1 92.2582 254.438)">
		<svg width="96.0461426" height="50.9380569">
			<defs />
			<path d="M 4.0689 7.46414 C 3.15845 7.4681, 2.69926 7.06829, 2.69926 6.26076, 2.69926 3.3948, 2.67947 1.57786, 2.63197 0.813867 L 3.67701 1.38389, 10.6677 1.38389, 11.3209 0.75053, 12.2353 1.63723, 11.7128 1.95391 C 11.7128 3.18105, 11.7365 4.11129, 11.7761 4.74069 L 10.7983 5.12071, 10.7983 4.42401, 3.61368 4.42401, 3.61368 5.88074 C 3.61368 6.47451, 3.94223 6.7714, 4.59142 6.76744 L 11.974 6.76744 C 12.3659 6.7714, 12.6153 6.60514, 12.7261 6.26471, 12.837 5.92824, 12.9122 5.188, 12.9518 4.044 L 13.2803 4.044 C 13.2803 4.76444, 13.3357 5.34634, 13.4426 5.78969, 13.5535 6.23305, 13.7593 6.49827, 14.0641 6.57744, 13.8028 7.17121, 13.1932 7.4681, 12.2353 7.46414 Z M 3.61368 1.76391 L 3.61368 4.044, 10.7983 4.044, 10.7983 1.76391 Z M 6.42025 13.4811 C 7.63946 13.6117, 8.447 13.6869, 8.83889 13.7067, 9.23078 13.7304, 9.4485 13.5483, 9.49204 13.1644 L 9.49204 9.93424, 2.30737 9.93424 C 1.74131 9.9382, 1.21879 10.0015, 0.739808 10.1242 L 0.149992 9.55422, 9.49204 9.55422 C 9.49204 8.71502, 9.47225 8.05791, 9.42475 7.59081 L 10.9923 8.28751, 10.4065 8.73086, 10.4065 9.55422, 12.168 9.55422, 13.213 8.54085, 14.65 9.93424, 10.4065 9.93424, 10.4065 13.5444 C 10.4065 14.2648, 9.88393 14.8349, 8.83889 15.2545, 8.70826 14.6646, 7.90072 14.1777, 6.42025 13.7977 Z M 3.54638 10.3143 L 3.74431 10.1242 C 5.05061 11.0149, 5.71564 11.672, 5.73543 12.0916, 5.75918 12.5152, 5.67209 12.8121, 5.47417 12.9783, 5.2802 13.1485, 5.1377 13.2317, 5.05061 13.2277, 4.87643 13.2317, 4.72601 12.9981, 4.59142 12.531, 4.41725 11.8581, 4.0689 11.1218, 3.54638 10.3143 Z" stroke="none" fill="#000000" />
			<path d="M 17.4426 15.3178 C 17.4901 13.9679, 17.5099 12.915, 17.5099 12.151 L 17.5099 5.6274 C 16.8132 6.72786, 15.9661 7.76498, 14.9607 8.73086 L 14.7667 8.54085 C 15.7682 7.32163, 16.6272 5.85303, 17.3476 4.14296, 18.0681 2.43289, 18.4916 1.24138, 18.6183 0.560522 L 19.9919 1.44723, 19.4694 1.70057 C 18.7727 3.09792, 18.2304 4.19442, 17.8345 4.99404 L 18.8796 5.56406, 18.3571 6.00741, 18.3571 14.8111 Z M 24.8252 12.341 C 24.8252 13.1485, 24.849 13.9679, 24.8886 14.8111 L 23.8435 15.2545 C 23.891 13.9046, 23.9108 12.9981, 23.9108 12.531 L 23.9108 11.7076, 22.8658 11.7076 C 22.2997 11.7116, 21.7772 11.7749, 21.2982 11.8977 L 20.7084 11.3276, 23.9108 11.3276, 23.9108 5.24738 C 23.2577 6.81495, 22.4937 8.16479, 21.6228 9.30484, 20.7519 10.4449, 19.8177 11.3949, 18.8162 12.151 L 18.6183 11.961 C 19.4496 11.2049, 20.2888 10.1282, 21.1359 8.73482, 21.983 7.34143, 22.6243 6.01137, 23.0597 4.74069 L 21.6228 4.74069 C 21.0607 4.74465, 20.5382 4.80799, 20.0553 4.9307 L 19.4694 4.36068, 23.9108 4.36068, 23.9108 2.4606 C 23.9108 2.041, 23.891 1.43139, 23.8435 0.623858 L 25.4111 1.32055, 24.8252 1.76391, 24.8252 4.36068, 27.7624 4.36068, 28.6135 3.53731, 29.8525 4.74069, 25.4111 4.74069 C 26.0207 6.51806, 26.7728 7.94312, 27.6674 9.01983, 28.5621 10.0965, 29.3775 10.7616, 30.1138 11.011 L 30.1138 11.2643 C 29.4171 11.2683, 28.9619 11.4583, 28.7441 11.8343, 28.1345 11.3751, 27.4735 10.4686, 26.753 9.11483, 26.0326 7.76498, 25.4784 6.30826, 25.0865 4.74069 L 24.8252 4.74069, 24.8252 11.3276, 26.1315 11.3276, 26.9153 10.5676, 28.091 11.7076, 24.8252 11.7076 Z" stroke="none" fill="#000000" />
			<rect />
		</svg>
	</g>
	<path d="M 0 186.429 L 0 -186.429" fill="none" stroke="#000000" stroke-width="1.60000002" stroke-linecap="round" stroke-linejoin="round" marker-end="url(#CustomMarker-02)" transform="matrix(0.625 0 0 0.625 281 125.018)" />
	<rect x="-157.89856" y="-34.0091553" width="315.797119" height="68.0183105" stroke="none" fill="#7ED7FD" fill-opacity="0.51372546" transform="matrix(0.625 0 -0 0.625 379.687 220.28)" />
	<path d="M -157.899 -34.0092 L 157.899 -34.0092, 157.899 34.0092, -157.899 34.0092 Z" fill="none" stroke="#000000" stroke-width="1.60000002" stroke-linecap="round" stroke-linejoin="round" transform="matrix(0.625 0 -0 0.625 379.687 220.28)" />
	<g transform="matrix(1 0 -0 1 364.758 211.474)">
		<svg width="95.8984451" height="50.9380569">
			<defs />
			<path d="M 7.19611 2.90395 C 7.19611 1.85099, 7.17632 1.05138, 7.12882 0.497187 L 8.56575 1.06721, 7.97594 1.5739, 7.97594 2.90395, 10.26 2.90395 C 10.26 1.89454, 10.2402 1.1345, 10.1967 0.623858 L 11.6296 1.13055, 11.0438 1.63723, 11.0438 2.90395, 12.738 2.90395, 13.5218 2.14392, 14.6302 3.28397, 11.0438 3.28397 C 11.0438 3.66794, 11.0675 4.02816, 11.1071 4.36068 L 10.26 4.74069, 10.26 3.28397, 7.97594 3.28397, 7.97594 4.48735, 7.12882 4.86737 C 7.17632 4.32109, 7.19611 3.79461, 7.19611 3.28397 L 6.47567 3.28397 C 5.91356 3.28793, 5.39104 3.35126, 4.91206 3.47398 L 4.3262 2.90395 Z M 5.56521 8.22417 L 5.56521 13.3544 C 6.74089 11.9649, 7.39404 10.2549, 7.52071 8.22417 Z M 4.6508 15.3178 C 4.69434 14.3915, 4.71414 13.0535, 4.71414 11.2999, 4.71414 9.55027, 4.69434 8.22813, 4.6508 7.33747 L 5.62855 7.84415, 7.52071 7.84415, 7.52071 5.94408, 6.08378 5.94408 C 5.52167 5.94803, 4.99915 6.01137, 4.52017 6.13408 L 3.93431 5.56406, 13.0666 5.56406, 13.8503 4.80403, 14.9587 5.94408, 10.8498 5.94408, 10.8498 7.84415, 12.8053 7.84415, 13.2605 7.21079, 14.3056 7.97083, 13.783 8.41418, 13.783 13.6711 C 13.8306 14.4746, 13.3951 15.0644, 12.4807 15.4445, 12.4372 14.8111, 11.8711 14.3915, 10.7825 14.1777 L 10.7825 13.9244 C 11.5227 13.9679, 12.0651 14.0115, 12.4134 14.0511, 12.7618 14.0511, 12.9359 13.8611, 12.9359 13.4811 L 12.9359 8.22417, 10.8498 8.22417 C 10.8063 8.81794, 10.739 9.49485, 10.6519 10.2509, 11.4792 10.5913, 11.9899 10.8566, 12.1878 11.0466, 12.3857 11.2366, 12.4807 11.4385, 12.4807 11.6443, 12.4807 11.8581, 12.4372 12.06, 12.3501 12.25, 12.263 12.44, 12.1997 12.535, 12.1521 12.531, 12.0651 12.535, 11.9582 12.3648, 11.8276 12.0243, 11.6098 11.5651, 11.1982 11.0585, 10.5885 10.5043, 10.3273 11.6483, 9.6108 12.7052, 8.43512 13.6711 L 8.2372 13.5444 C 9.49996 12.155, 10.1096 10.3815, 10.066 8.22417 L 8.30449 8.22417 C 8.26095 8.60814, 8.2174 9.0317, 8.17386 9.49089, 8.69638 9.79173, 9.03681 10.0451, 9.18724 10.2549, 9.33766 10.4686, 9.41287 10.6349, 9.41287 10.7576, 9.41287 10.8882, 9.34953 11.0466, 9.2189 11.2366, 9.08827 11.4266, 9.00119 11.5216, 8.95764 11.5176, 8.82701 11.5216, 8.73993 11.3751, 8.69638 11.0743, 8.6093 10.6151, 8.41533 10.1717, 8.10657 9.74423, 7.67509 11.3949, 6.82797 12.7052, 5.56521 13.6711 L 5.56521 14.8111 Z M 8.30449 5.94408 L 8.30449 7.84415, 10.066 7.84415, 10.066 5.94408 Z M 4.06494 4.10733 C 3.10699 7.91145, 2.58447 10.1401, 2.49738 10.7932, 2.41029 11.4503, 2.34696 12.155, 2.30341 12.915, 2.25987 13.675, 2.23612 14.2411, 2.23612 14.6211, 2.23612 14.8349, 2.14903 14.9378, 1.97486 14.9378, 1.88777 14.9378, 1.70568 14.8665, 1.42067 14.7161, 1.13962 14.5696, 0.99711 14.348, 0.99711 14.0511, 0.99711 13.7977, 1.0644 13.485, 1.19108 13.101, 1.32566 12.6814, 1.389 12.345, 1.389 12.0877, 1.389 11.7947, 1.28212 11.5651, 1.0644 11.3949, 0.846687 11.2287, 0.411253 11.0585, -0.241899 10.8843 L -0.241899 10.6309 C 0.541883 10.718, 1.02086 10.7418, 1.19503 10.6982, 1.36921 10.6586, 1.57505 10.4766, 1.81256 10.1599, 2.05403 9.84319, 2.71906 7.80457, 3.80368 4.044 Z M -0.178563 4.74069 C 1.21483 5.37801, 1.94715 5.89657, 2.01048 6.29638, 2.07382 6.70015, 2.03028 7.00495, 1.87985 7.21475, 1.72943 7.42851, 1.60672 7.53143, 1.51963 7.52747, 1.34546 7.53143, 1.19503 7.34143, 1.0644 6.95745, 0.846687 6.37159, 0.387502 5.69469, -0.309193 4.9307 Z M 1.32171 1.19388 C 2.54092 1.78766, 3.19407 2.2033, 3.28116 2.43289, 3.36825 2.66644, 3.41179 2.82478, 3.41179 2.90395, 3.41179 3.16125, 3.33658 3.3948, 3.1822 3.60461, 3.03178 3.81836, 2.90906 3.92128, 2.82198 3.91733, 2.6953 3.92128, 2.58447 3.75107, 2.49738 3.41064, 2.28362 2.86437, 1.84819 2.19142, 1.19108 1.38389 Z" stroke="none" fill="#000000" />
			<path d="M 18.8083 5.69073 C 18.8558 5.14446, 18.8756 4.44777, 18.8756 3.60065 L 16.6549 3.60065, 16.069 3.72732, 15.5465 3.22063, 18.8756 3.22063 C 18.8756 2.25476, 18.8558 1.40764, 18.8083 0.687195 L 20.178 1.38389, 19.7227 1.82724, 19.7227 3.22063, 22.1374 3.22063 C 22.1374 2.21122, 22.1176 1.34431, 22.0701 0.623858 L 23.4398 1.32055, 22.9845 1.70057, 22.9845 3.22063, 25.3319 3.22063 C 25.3319 2.25476, 25.3121 1.40764, 25.2686 0.687195 L 26.6382 1.38389, 26.179 1.76391, 26.179 3.22063, 27.3547 3.22063, 28.2691 2.33393, 29.5715 3.60065, 26.179 3.60065 C 26.179 4.28151, 26.2028 4.85153, 26.2463 5.31072 L 25.2686 5.69073 C 25.3121 5.01779, 25.3319 4.32109, 25.3319 3.60065 L 22.9845 3.60065 C 22.9845 4.23796, 23.0083 4.7882, 23.0479 5.24738 L 22.0701 5.6274 C 22.1176 4.95445, 22.1374 4.28151, 22.1374 3.60065 L 19.7227 3.60065 C 19.7227 4.15484, 19.7465 4.72486, 19.7861 5.31072 Z M 22.9845 9.11087 C 22.9845 12.2816, 23.0083 14.2648, 23.0479 15.0644 L 22.0701 15.4445 C 22.1176 14.4311, 22.1374 12.3252, 22.1374 9.11087 L 18.939 9.11087, 18.939 13.7344, 18.0245 14.2411 C 18.072 13.105, 18.0918 12.06, 18.0918 11.1099, 18.0918 10.1599, 18.072 9.22171, 18.0245 8.28751 L 18.939 8.73086, 22.1374 8.73086, 22.1374 6.70411, 16.9162 6.70411 C 16.9637 7.51164, 16.833 7.99854, 16.5282 8.16479, 16.2234 8.33501, 15.982 8.41814, 15.8078 8.41418, 15.6336 8.41814, 15.4951 8.36668, 15.3842 8.2598, 15.2773 8.15687, 15.2219 8.05791, 15.2219 7.97083, 15.2219 7.84811, 15.3763 7.6779, 15.6772 7.46414, 16.1126 7.17121, 16.4411 6.53785, 16.6549 5.56406 L 16.9162 5.56406, 16.9162 6.32409, 28.2018 6.32409, 28.7917 5.6274, 29.9634 6.83078 C 29.3577 6.87828, 28.5739 7.36122, 27.616 8.28751 L 27.422 8.16083, 28.2691 6.70411, 22.9845 6.70411, 22.9845 8.73086, 26.1157 8.73086, 26.7016 8.0975, 27.7466 8.92087, 27.1607 9.36422, 27.1607 12.721 C 27.2043 13.4415, 26.7689 13.9679, 25.8544 14.3044, 25.8544 13.8848, 25.225 13.4652, 23.9623 13.0377 L 23.9623 12.721 C 24.8767 12.8517, 25.4982 12.915, 25.8228 12.915, 26.1474 12.915, 26.3097 12.7685, 26.3097 12.4677 L 26.3097 9.11087 Z" stroke="none" fill="#000000" />
			<rect />
		</svg>
	</g>
	<rect x="-157.89856" y="-34.0090485" width="315.797119" height="68.0180969" stroke="none" fill="#7ED7FD" fill-opacity="0.51372546" transform="matrix(0.625 0 -0 0.625 379.687 137.501)" />
	<path d="M -157.899 -34.009 L 157.899 -34.009, 157.899 34.009, -157.899 34.009 Z" fill="none" stroke="#000000" stroke-width="1.60000002" stroke-linecap="round" stroke-linejoin="round" transform="matrix(0.625 0 -0 0.625 379.687 137.501)" />
	<g transform="matrix(1 0 -0 1 364.758 128.696)">
		<svg width="92.944603" height="50.9380569">
			<defs />
			<path d="M 4.0689 7.46414 C 3.15845 7.4681, 2.69926 7.06829, 2.69926 6.26076, 2.69926 3.3948, 2.67947 1.57786, 2.63197 0.813867 L 3.67701 1.38389, 10.6677 1.38389, 11.3209 0.75053, 12.2353 1.63723, 11.7128 1.95391 C 11.7128 3.18105, 11.7365 4.11129, 11.7761 4.74069 L 10.7983 5.12071, 10.7983 4.42401, 3.61368 4.42401, 3.61368 5.88074 C 3.61368 6.47451, 3.94223 6.7714, 4.59142 6.76744 L 11.974 6.76744 C 12.3659 6.7714, 12.6153 6.60514, 12.7261 6.26471, 12.837 5.92824, 12.9122 5.188, 12.9518 4.044 L 13.2803 4.044 C 13.2803 4.76444, 13.3357 5.34634, 13.4426 5.78969, 13.5535 6.23305, 13.7593 6.49827, 14.0641 6.57744, 13.8028 7.17121, 13.1932 7.4681, 12.2353 7.46414 Z M 3.61368 1.76391 L 3.61368 4.044, 10.7983 4.044, 10.7983 1.76391 Z M 6.42025 13.4811 C 7.63946 13.6117, 8.447 13.6869, 8.83889 13.7067, 9.23078 13.7304, 9.4485 13.5483, 9.49204 13.1644 L 9.49204 9.93424, 2.30737 9.93424 C 1.74131 9.9382, 1.21879 10.0015, 0.739808 10.1242 L 0.149992 9.55422, 9.49204 9.55422 C 9.49204 8.71502, 9.47225 8.05791, 9.42475 7.59081 L 10.9923 8.28751, 10.4065 8.73086, 10.4065 9.55422, 12.168 9.55422, 13.213 8.54085, 14.65 9.93424, 10.4065 9.93424, 10.4065 13.5444 C 10.4065 14.2648, 9.88393 14.8349, 8.83889 15.2545, 8.70826 14.6646, 7.90072 14.1777, 6.42025 13.7977 Z M 3.54638 10.3143 L 3.74431 10.1242 C 5.05061 11.0149, 5.71564 11.672, 5.73543 12.0916, 5.75918 12.5152, 5.67209 12.8121, 5.47417 12.9783, 5.2802 13.1485, 5.1377 13.2317, 5.05061 13.2277, 4.87643 13.2317, 4.72601 12.9981, 4.59142 12.531, 4.41725 11.8581, 4.0689 11.1218, 3.54638 10.3143 Z" stroke="none" fill="#000000" />
			<path d="M 18.8083 5.69073 C 18.8558 5.14446, 18.8756 4.44777, 18.8756 3.60065 L 16.6549 3.60065, 16.069 3.72732, 15.5465 3.22063, 18.8756 3.22063 C 18.8756 2.25476, 18.8558 1.40764, 18.8083 0.687195 L 20.178 1.38389, 19.7227 1.82724, 19.7227 3.22063, 22.1374 3.22063 C 22.1374 2.21122, 22.1176 1.34431, 22.0701 0.623858 L 23.4398 1.32055, 22.9845 1.70057, 22.9845 3.22063, 25.3319 3.22063 C 25.3319 2.25476, 25.3121 1.40764, 25.2686 0.687195 L 26.6382 1.38389, 26.179 1.76391, 26.179 3.22063, 27.3547 3.22063, 28.2691 2.33393, 29.5715 3.60065, 26.179 3.60065 C 26.179 4.28151, 26.2028 4.85153, 26.2463 5.31072 L 25.2686 5.69073 C 25.3121 5.01779, 25.3319 4.32109, 25.3319 3.60065 L 22.9845 3.60065 C 22.9845 4.23796, 23.0083 4.7882, 23.0479 5.24738 L 22.0701 5.6274 C 22.1176 4.95445, 22.1374 4.28151, 22.1374 3.60065 L 19.7227 3.60065 C 19.7227 4.15484, 19.7465 4.72486, 19.7861 5.31072 Z M 22.9845 9.11087 C 22.9845 12.2816, 23.0083 14.2648, 23.0479 15.0644 L 22.0701 15.4445 C 22.1176 14.4311, 22.1374 12.3252, 22.1374 9.11087 L 18.939 9.11087, 18.939 13.7344, 18.0245 14.2411 C 18.072 13.105, 18.0918 12.06, 18.0918 11.1099, 18.0918 10.1599, 18.072 9.22171, 18.0245 8.28751 L 18.939 8.73086, 22.1374 8.73086, 22.1374 6.70411, 16.9162 6.70411 C 16.9637 7.51164, 16.833 7.99854, 16.5282 8.16479, 16.2234 8.33501, 15.982 8.41814, 15.8078 8.41418, 15.6336 8.41814, 15.4951 8.36668, 15.3842 8.2598, 15.2773 8.15687, 15.2219 8.05791, 15.2219 7.97083, 15.2219 7.84811, 15.3763 7.6779, 15.6772 7.46414, 16.1126 7.17121, 16.4411 6.53785, 16.6549 5.56406 L 16.9162 5.56406, 16.9162 6.32409, 28.2018 6.32409, 28.7917 5.6274, 29.9634 6.83078 C 29.3577 6.87828, 28.5739 7.36122, 27.616 8.28751 L 27.422 8.16083, 28.2691 6.70411, 22.9845 6.70411, 22.9845 8.73086, 26.1157 8.73086, 26.7016 8.0975, 27.7466 8.92087, 27.1607 9.36422, 27.1607 12.721 C 27.2043 13.4415, 26.7689 13.9679, 25.8544 14.3044, 25.8544 13.8848, 25.225 13.4652, 23.9623 13.0377 L 23.9623 12.721 C 24.8767 12.8517, 25.4982 12.915, 25.8228 12.915, 26.1474 12.915, 26.3097 12.7685, 26.3097 12.4677 L 26.3097 9.11087 Z" stroke="none" fill="#000000" />
			<rect />
		</svg>
	</g>
	<g transform="matrix(1 0 -0 1 357.22 254.438)">
		<svg width="140.944595" height="50.9380569">
			<defs />
			<path d="M 2.17674 2.20726 C 3.30887 2.84457, 4.08474 3.34334, 4.49642 3.69961, 4.9081 4.05983, 5.11394 4.38443, 5.11394 4.67736, 5.11394 4.85153, 5.03873 5.07321, 4.88831 5.34634, 4.73789 5.62344, 4.61517 5.75803, 4.52809 5.75407, 4.39746 5.75803, 4.28662 5.63136, 4.19953 5.37405, 3.98577 4.91487, 3.71264 4.45172, 3.38408 3.98462, 3.05949 3.52148, 2.58842 2.99104, 1.97882 2.39726 Z M 11.4515 1.76391 L 12.8211 2.77728 C 12.3857 2.95145, 11.8988 3.28001, 11.3525 3.76295, 10.8102 4.24984, 10.0383 4.9782, 9.03285 5.94408 L 8.77159 5.8174 C 9.3812 5.10488, 9.9156 4.3963, 10.3748 3.69961, 10.834 3.00291, 11.1902 2.35768, 11.4515 1.76391 Z M 6.7488 6.5141 L 6.7488 2.65061 C 6.7488 2.27455, 6.72901 1.57786, 6.68151 0.560522 L 8.18574 1.32055, 7.66322 1.82724, 7.66322 6.5141, 11.7128 6.5141, 12.5599 5.69073, 13.8028 6.89412, 7.66322 6.89412, 7.66322 9.8709, 12.6272 9.8709, 13.6049 8.92087, 14.9785 10.2509, 7.66322 10.2509, 7.66322 12.5943 C 7.66322 13.3148, 7.68697 14.0946, 7.72655 14.9378 L 6.68151 15.3811 C 6.72901 14.4944, 6.7488 13.6948, 6.7488 12.9744 L 6.7488 10.2509, 2.10945 10.2509 C 1.54734 10.2549, 1.02482 10.3182, 0.541883 10.4409 L -0.0439743 9.8709, 6.7488 9.8709, 6.7488 6.89412, 3.02386 6.89412 C 2.46175 6.89807, 1.93923 6.96141, 1.4563 7.08412 L 0.870438 6.5141 Z" stroke="none" fill="#000000" />
			<path d="M 19.1449 7.46414 C 18.2344 7.4681, 17.7752 7.06829, 17.7752 6.26076, 17.7752 3.3948, 17.7554 1.57786, 17.7079 0.813867 L 18.753 1.38389, 25.7437 1.38389, 26.3968 0.75053, 27.3112 1.63723, 26.7887 1.95391 C 26.7887 3.18105, 26.8125 4.11129, 26.8521 4.74069 L 25.8743 5.12071, 25.8743 4.42401, 18.6896 4.42401, 18.6896 5.88074 C 18.6896 6.47451, 19.0182 6.7714, 19.6674 6.76744 L 27.05 6.76744 C 27.4419 6.7714, 27.6913 6.60514, 27.8021 6.26471, 27.9129 5.92824, 27.9881 5.188, 28.0277 4.044 L 28.3563 4.044 C 28.3563 4.76444, 28.4117 5.34634, 28.5186 5.78969, 28.6294 6.23305, 28.8353 6.49827, 29.1401 6.57744, 28.8788 7.17121, 28.2692 7.4681, 27.3112 7.46414 Z M 18.6896 1.76391 L 18.6896 4.044, 25.8743 4.044, 25.8743 1.76391 Z M 21.4962 13.4811 C 22.7154 13.6117, 23.523 13.6869, 23.9149 13.7067, 24.3067 13.7304, 24.5245 13.5483, 24.568 13.1644 L 24.568 9.93424, 17.3833 9.93424 C 16.8173 9.9382, 16.2948 10.0015, 15.8158 10.1242 L 15.226 9.55422, 24.568 9.55422 C 24.568 8.71502, 24.5482 8.05791, 24.5007 7.59081 L 26.0683 8.28751, 25.4824 8.73086, 25.4824 9.55422, 27.2439 9.55422, 28.289 8.54085, 29.7259 9.93424, 25.4824 9.93424, 25.4824 13.5444 C 25.4824 14.2648, 24.9599 14.8349, 23.9149 15.2545, 23.7842 14.6646, 22.9767 14.1777, 21.4962 13.7977 Z M 18.6223 10.3143 L 18.8203 10.1242 C 20.1266 11.0149, 20.7916 11.672, 20.8114 12.0916, 20.8351 12.5152, 20.7481 12.8121, 20.5501 12.9783, 20.3562 13.1485, 20.2137 13.2317, 20.1266 13.2277, 19.9524 13.2317, 19.802 12.9981, 19.6674 12.531, 19.4932 11.8581, 19.1449 11.1218, 18.6223 10.3143 Z" stroke="none" fill="#000000" />
			<path d="M 32.5186 15.3178 C 32.5661 13.9679, 32.5859 12.915, 32.5859 12.151 L 32.5859 5.6274 C 31.8892 6.72786, 31.0421 7.76498, 30.0366 8.73086 L 29.8427 8.54085 C 30.8442 7.32163, 31.7032 5.85303, 32.4236 4.14296, 33.1441 2.43289, 33.5676 1.24138, 33.6943 0.560522 L 35.0679 1.44723, 34.5454 1.70057 C 33.8487 3.09792, 33.3064 4.19442, 32.9105 4.99404 L 33.9555 5.56406, 33.433 6.00741, 33.433 14.8111 Z M 39.9012 12.341 C 39.9012 13.1485, 39.925 13.9679, 39.9645 14.8111 L 38.9195 15.2545 C 38.967 13.9046, 38.9868 12.9981, 38.9868 12.531 L 38.9868 11.7076, 37.9417 11.7076 C 37.3757 11.7116, 36.8532 11.7749, 36.3742 11.8977 L 35.7844 11.3276, 38.9868 11.3276, 38.9868 5.24738 C 38.3336 6.81495, 37.5697 8.16479, 36.6988 9.30484, 35.8279 10.4449, 34.8937 11.3949, 33.8922 12.151 L 33.6943 11.961 C 34.5256 11.2049, 35.3648 10.1282, 36.2119 8.73482, 37.059 7.34143, 37.7003 6.01137, 38.1357 4.74069 L 36.6988 4.74069 C 36.1367 4.74465, 35.6142 4.80799, 35.1312 4.9307 L 34.5454 4.36068, 38.9868 4.36068, 38.9868 2.4606 C 38.9868 2.041, 38.967 1.43139, 38.9195 0.623858 L 40.4871 1.32055, 39.9012 1.76391, 39.9012 4.36068, 42.8384 4.36068, 43.6895 3.53731, 44.9285 4.74069, 40.4871 4.74069 C 41.0967 6.51806, 41.8488 7.94312, 42.7434 9.01983, 43.638 10.0965, 44.4535 10.7616, 45.1898 11.011 L 45.1898 11.2643 C 44.4931 11.2683, 44.0378 11.4583, 43.8201 11.8343, 43.2105 11.3751, 42.5494 10.4686, 41.829 9.11483, 41.1085 7.76498, 40.5544 6.30826, 40.1625 4.74069 L 39.9012 4.74069, 39.9012 11.3276, 41.2075 11.3276, 41.9913 10.5676, 43.167 11.7076, 39.9012 11.7076 Z" stroke="none" fill="#000000" />
			<rect />
		</svg>
	</g>
	<g transform="matrix(1 0 -0 1 329.527 168.917)">
		<svg width="311.972229" height="89.9574051">
			<defs />
			<path d="M 4.52017 4.29734 C 4.52017 5.48489, 4.54392 6.5616, 4.58351 7.52747 L 3.60576 7.84415 C 3.65326 7.2583, 3.67305 6.05491, 3.67305 4.23401, 2.67551 5.80157, 1.47609 7.00495, 0.0826975 7.84415 L 0.0193616 7.59081 C 1.32566 6.37159, 2.36675 4.95445, 3.15053 3.3473 L 2.36675 3.3473 C 1.80464 3.35126, 1.28212 3.4146, 0.803144 3.53731 L 0.213328 2.96729, 3.67305 2.96729 C 3.67305 2.16767, 3.65326 1.34431, 3.60576 0.497187 L 4.9754 1.06721, 4.52017 1.51056, 4.52017 2.96729, 5.56521 2.96729, 6.2817 2.27059, 7.32674 3.3473, 4.52017 3.3473, 4.52017 4.044 C 5.39104 4.3013, 5.96898 4.54673, 6.25003 4.77632, 6.53504 5.00987, 6.67359 5.25134, 6.67359 5.50072, 6.67359 5.71448, 6.61026 5.91637, 6.47963 6.10637, 6.349 6.29638, 6.26191 6.39139, 6.21441 6.38743, 6.08773 6.39139, 5.9571 6.20138, 5.82647 5.8174, 5.56521 5.27113, 5.12978 4.76444, 4.52017 4.29734 Z M 10.066 2.96729 C 10.066 2.33789, 10.0462 1.51452, 9.99873 0.497187 L 11.3684 1.06721, 10.9131 1.44723, 10.9131 2.96729, 12.8053 2.96729, 13.5891 2.20726, 14.6975 3.3473, 10.9765 3.3473 C 11.4119 4.02816, 11.9701 4.64965, 12.643 5.21967, 13.3159 5.78969, 14.0879 6.18159, 14.9587 6.38743 L 14.9587 6.57744 C 14.4362 6.62494, 14.0681 6.85453, 13.8503 7.27413, 13.1536 6.7714, 12.5797 6.2568, 12.1205 5.72636, 11.6653 5.19988, 11.2615 4.57444, 10.9131 3.85399, 10.9131 5.84116, 10.9369 7.02475, 10.9765 7.4008 L 9.99873 7.78082 C 10.0462 6.60119, 10.066 5.46114, 10.066 4.36068, 9.10807 5.75803, 7.95614 6.85453, 6.6063 7.65415 L 6.47567 7.46414 C 7.86906 6.24492, 8.93785 4.87132, 9.67413 3.3473, 9.11202 3.35126, 8.5895 3.4146, 8.10657 3.53731 L 7.52071 2.96729 Z M 2.23612 8.35084 L 10.9131 8.35084, 11.6969 7.59081, 12.8053 8.73086, 4.38954 8.73086 C 3.82743 8.73482, 3.30491 8.79815, 2.82198 8.92087 Z M 4.58351 13.7977 C 6.02044 14.0115, 6.79235 14.0827, 6.90318 14.0194, 7.01402 13.9561, 7.06548 13.8611, 7.06548 13.7344 L 7.06548 10.4409, 1.84423 10.4409 C 1.28212 10.4449, 0.7596 10.5082, 0.280622 10.6309 L -0.309193 10.0609, 12.9993 10.0609, 13.8503 9.23754, 15.0221 10.4409, 7.97594 10.4409, 7.97594 13.7977 C 7.97594 14.2213, 7.89281 14.5498, 7.71863 14.7794, 7.54446 15.013, 7.15257 15.2347, 6.54296 15.4445, 6.2817 14.8111, 5.62855 14.348, 4.58351 14.0511 Z M 4.52017 10.8843 L 5.69584 11.8977, 5.04269 12.0243 C 3.47909 13.2515, 2.04215 14.158, 0.735849 14.7478 L 0.672513 14.4944 C 2.27966 13.4415, 3.56221 12.2381, 4.52017 10.8843 Z M 9.5435 11.201 C 11.3723 12.0085, 12.457 12.5983, 12.8053 12.9783, 13.1536 13.3583, 13.3278 13.6948, 13.3278 13.9877, 13.3278 14.1144, 13.2843 14.2727, 13.1972 14.4628, 13.1101 14.6528, 13.023 14.7478, 12.9359 14.7478, 12.8488 14.7478, 12.7182 14.6211, 12.544 14.3678, 12.2432 13.9482, 11.8394 13.485, 11.3407 12.9783, 10.8419 12.4716, 10.2204 11.9649, 9.47621 11.4543 Z" stroke="none" fill="#000000" />
			<path d="M 18.8124 5.69073 C 18.8599 5.14446, 18.8797 4.44777, 18.8797 3.60065 L 16.6589 3.60065, 16.0731 3.72732, 15.5506 3.22063, 18.8797 3.22063 C 18.8797 2.25476, 18.8599 1.40764, 18.8124 0.687195 L 20.182 1.38389, 19.7268 1.82724, 19.7268 3.22063, 22.1414 3.22063 C 22.1414 2.21122, 22.1217 1.34431, 22.0742 0.623858 L 23.4438 1.32055, 22.9886 1.70057, 22.9886 3.22063, 25.336 3.22063 C 25.336 2.25476, 25.3162 1.40764, 25.2726 0.687195 L 26.6423 1.38389, 26.1831 1.76391, 26.1831 3.22063, 27.3587 3.22063, 28.2732 2.33393, 29.5755 3.60065, 26.1831 3.60065 C 26.1831 4.28151, 26.2068 4.85153, 26.2504 5.31072 L 25.2726 5.69073 C 25.3162 5.01779, 25.336 4.32109, 25.336 3.60065 L 22.9886 3.60065 C 22.9886 4.23796, 23.0123 4.7882, 23.0519 5.24738 L 22.0742 5.6274 C 22.1217 4.95445, 22.1414 4.28151, 22.1414 3.60065 L 19.7268 3.60065 C 19.7268 4.15484, 19.7505 4.72486, 19.7901 5.31072 Z M 22.9886 9.11087 C 22.9886 12.2816, 23.0123 14.2648, 23.0519 15.0644 L 22.0742 15.4445 C 22.1217 14.4311, 22.1414 12.3252, 22.1414 9.11087 L 18.943 9.11087, 18.943 13.7344, 18.0286 14.2411 C 18.0761 13.105, 18.0959 12.06, 18.0959 11.1099, 18.0959 10.1599, 18.0761 9.22171, 18.0286 8.28751 L 18.943 8.73086, 22.1414 8.73086, 22.1414 6.70411, 16.9202 6.70411 C 16.9677 7.51164, 16.8371 7.99854, 16.5323 8.16479, 16.2275 8.33501, 15.986 8.41814, 15.8118 8.41418, 15.6376 8.41814, 15.4991 8.36668, 15.3883 8.2598, 15.2814 8.15687, 15.226 8.05791, 15.226 7.97083, 15.226 7.84811, 15.3803 7.6779, 15.6812 7.46414, 16.1166 7.17121, 16.4452 6.53785, 16.6589 5.56406 L 16.9202 5.56406, 16.9202 6.32409, 28.2059 6.32409, 28.7957 5.6274, 29.9674 6.83078 C 29.3617 6.87828, 28.578 7.36122, 27.62 8.28751 L 27.426 8.16083, 28.2732 6.70411, 22.9886 6.70411, 22.9886 8.73086, 26.1197 8.73086, 26.7056 8.0975, 27.7506 8.92087, 27.1648 9.36422, 27.1648 12.721 C 27.2083 13.4415, 26.7729 13.9679, 25.8585 14.3044, 25.8585 13.8848, 25.2291 13.4652, 23.9663 13.0377 L 23.9663 12.721 C 24.8807 12.8517, 25.5022 12.915, 25.8268 12.915, 26.1514 12.915, 26.3137 12.7685, 26.3137 12.4677 L 26.3137 9.11087 Z" stroke="none" fill="#000000" />
			<path d="M 41.9511 12.9528 C 41.966 12.987, 41.9732 13.018, 41.9732 13.0463, 41.9732 13.085, 41.9633 13.1138, 41.9435 13.1327, 41.9138 13.1903, 41.8571 13.2191, 41.773 13.2191 L 30.8017 13.2191 C 30.7225 13.2191, 30.6658 13.1903, 30.6312 13.1327, 30.6114 13.1138, 30.6015 13.085, 30.6015 13.0463, 30.6015 13.018, 30.6092 12.987, 30.6236 12.9528 L 35.8798 2.71106 C 35.9441 2.57252, 36.0579 2.50504, 36.2208 2.50954 L 36.3539 2.50954 C 36.5073 2.50999, 36.6211 2.57477, 36.6949 2.70387 L 41.9511 12.9528 Z M 35.8425 4.12173 L 31.7801 12.0315, 39.8977 12.0315 Z" stroke="none" fill="#000000" />
			<path d="M 52.8935 6.28091 C 52.8791 6.34388, 52.8468 6.39786, 52.7973 6.4433, 52.7478 6.48918, 52.6938 6.51167, 52.6344 6.51122, 52.6146 6.52112, 52.5899 6.52606, 52.5602 6.52561, 52.5008 6.52606, 52.4711 6.52112, 52.4711 6.51122, 52.3479 6.51167, 52.2809 6.45904, 52.271 6.35288 L 52.271 6.3025 C 52.3007 6.07758, 52.3254 5.84952, 52.3452 5.61876, 52.365 5.44153, 52.3749 5.27869, 52.3749 5.12934 L 52.3749 5.00699 C 52.365 4.81536, 52.3416 4.64398, 52.3047 4.49284, 52.2678 4.34169, 52.2021 4.21349, 52.1081 4.10733, 51.9201 3.88692, 51.6408 3.75647, 51.2701 3.71553, 50.8994 3.67505, 50.504 3.65436, 50.0839 3.6539 L 48.4902 3.6539 C 48.2284 3.65436, 48.0754 3.6737, 48.0309 3.71148, 48.0061 3.73128, 47.9567 3.87252, 47.8824 4.13612 L 46.963 7.64839, 47.9863 7.64839 C 48.2634 7.64884, 48.5153 7.63714, 48.7425 7.61285, 48.9701 7.58901, 49.1654 7.51704, 49.3282 7.39648, 49.4766 7.27683, 49.5891 7.10904, 49.6656 6.89312, 49.742 6.67721, 49.8176 6.43025, 49.8914 6.15136, 49.9458 6.00786, 50.0398 5.93814, 50.173 5.94264 L 50.2989 5.94264 C 50.4375 5.94309, 50.5067 6.00561, 50.5067 6.12976 L 50.5067 6.18015, 49.5801 9.74279 C 49.5504 9.89213, 49.4541 9.96411, 49.2909 9.95871 L 49.1721 9.95871 C 49.034 9.95916, 48.9647 9.90158, 48.9647 9.78598, 48.9647 9.75764, 48.9724 9.7311, 48.9868 9.70681, 49.0515 9.43871, 49.0983 9.1913, 49.128 8.96549, 49.1379 8.90836, 49.1429 8.85798, 49.1429 8.81434, 49.1429 8.68029, 49.1132 8.57234, 49.0538 8.49047, 48.9701 8.37576, 48.8203 8.30739, 48.6053 8.2858, 48.3903 8.2642, 48.1496 8.25341, 47.8824 8.25296 L 46.815 8.25296, 45.7993 12.1971 C 45.7498 12.3653, 45.7251 12.4903, 45.7251 12.5713 L 45.7251 12.6001 C 45.7449 12.6199, 45.8834 12.6316, 46.1403 12.6361 L 47.8379 12.6361 C 48.2778 12.6365, 48.7043 12.6069, 49.1168 12.5466, 49.5297 12.4867, 49.9139 12.3343, 50.2692 12.0891, 50.4276 11.9744, 50.5787 11.821, 50.7218 11.6289, 50.8653 11.4373, 51.0011 11.225, 51.1298 10.992, 51.2584 10.7594, 51.3803 10.5124, 51.4964 10.2506, 51.6124 9.9893, 51.7276 9.7311, 51.8409 9.47649, 51.8805 9.36179, 51.9673 9.30421, 52.1005 9.30376 L 52.2264 9.30376 C 52.365 9.30421, 52.4343 9.36673, 52.4343 9.49089 L 52.4343 9.54847, 50.9588 13.0607 C 50.9048 13.1759, 50.8158 13.2335, 50.6921 13.2335 L 42.9824 13.2335 C 42.9082 13.2335, 42.8538 13.2119, 42.8192 13.1687, 42.785 13.1354, 42.7679 13.0994, 42.7674 13.0607, 42.7679 13.0324, 42.7728 13.0036, 42.7823 12.9744 L 42.812 12.8664 C 42.8268 12.8043, 42.8614 12.7508, 42.9159 12.7049, 42.9703 12.6595, 43.0319 12.6365, 43.1008 12.6361, 43.3333 12.6365, 43.551 12.6329, 43.7535 12.6257, 43.9559 12.6185, 44.1093 12.5934, 44.2127 12.5497, 44.3018 12.502, 44.3711 12.3725, 44.4206 12.1611 L 46.5037 4.10014 C 46.5334 3.99488, 46.5482 3.91121, 46.5482 3.84823, 46.5482 3.7911, 46.5361 3.75737, 46.5109 3.74747, 46.4416 3.70474, 46.3058 3.67865, 46.1034 3.66875, 45.9009 3.6593, 45.6832 3.65436, 45.4507 3.6539, 45.3126 3.65436, 45.2433 3.58958, 45.2433 3.45958 L 45.2433 3.4092, 45.273 3.28684 C 45.3126 3.12895, 45.4093 3.04978, 45.5622 3.04933 L 53.0717 3.04933 C 53.1954 3.04978, 53.2619 3.10961, 53.2718 3.22927 L 53.2718 3.27965 Z" stroke="none" fill="#000000" />
			<path d="M 1.17944 3.0239 C 1.13259 3.19872, 1.05148 3.35994, 0.936608 3.50756, 0.82174 3.65542, 0.688231 3.78163, 0.53608 3.88642, 0.38393 3.99121, 0.216414 4.07333, 0.0337832 4.13228, -0.148847 4.19148, -0.331478 4.22095, -0.514361 4.22095, -0.638801 4.22095, -0.771555 4.21566, -0.912621 4.20483, -1.05369 4.19425, -1.18191 4.16805, -1.29678 4.12623, -1.41164 4.08467, -1.49805 4.01943, -1.55624 3.93076, -1.60057 3.8771, -1.624 3.80858, -1.62677 3.7252, -1.62677 3.6849, -1.62123 3.63804, -1.61014 3.58414, -1.57966 3.46322, -1.51744 3.37329, -1.42348 3.31409, -1.32927 3.25515, -1.23531 3.22542, -1.1411 3.22542, -1.04412 3.22542, -0.963758 3.25641, -0.900278 3.31812, -0.853172 3.36397, -0.829745 3.42292, -0.829745 3.49546, -0.829745 3.52519, -0.835287 3.55995, -0.84637 3.60026, -0.865515 3.68641, -0.901537 3.75694, -0.954185 3.81186, -1.00683 3.86702, -1.03605 3.89448, -1.0416 3.89448, -1.02497 3.90254, -0.960483 3.91413, -0.848386 3.92874, -0.736288 3.9436, -0.60958 3.95091, -0.468514 3.95091, -0.355157 3.95091, -0.245075 3.92622, -0.138519 3.87634, -0.0319638 3.82672, 0.0670346 3.75745, 0.158224 3.66878, 0.249665 3.5801, 0.330023 3.47934, 0.399044 3.36649, 0.468318 3.25364, 0.519455 3.13423, 0.552706 3.00778 L 0.772618 2.14526 C 0.709139 2.20723, 0.59553 2.28532, 0.432296 2.37928, 0.269062 2.47349, 0.0987746 2.52009, -0.0783142 2.52009, -0.291425 2.52009, -0.474812 2.46744, -0.628473 2.36114, -0.782135 2.25509, -0.900278 2.11856, -0.983406 1.9518, -1.08291 1.75858, -1.13556 1.549, -1.1411 1.32304 L -1.1411 1.27468 C -1.1411 1.06812, -1.11339 0.858531, -1.05822 0.645923, -1.00003 0.409637, -0.910102 0.182168, -0.78818 -0.0369892, -0.666259 -0.255894, -0.507307 -0.460944, -0.310822 -0.651888, -0.150107 -0.812855, 0.031768 -0.94586, 0.235055 -1.05065, 0.438593 -1.15544, 0.645407 -1.20784, 0.855747 -1.20809, 1.03561 -1.20784, 1.18524 -1.15998, 1.30414 -1.06476, 1.42304 -0.969287, 1.49911 -0.889433, 1.53236 -0.825198 L 1.51145 -0.748619 C 1.53664 -0.847869, 1.58703 -0.921677, 1.6631 -0.970043, 1.73918 -1.01841, 1.81601 -1.04259, 1.89359 -1.04284, 1.97395 -1.04259, 2.04045 -1.01715, 2.09285 -0.966264, 2.12887 -0.930998, 2.14676 -0.882632, 2.14676 -0.821167, 2.14676 -0.791443, 2.14399 -0.761718, 2.13844 -0.732497 Z M 1.37467 -0.208536 C 1.36913 -0.259421, 1.36081 -0.309046, 1.34973 -0.357411, 1.33865 -0.405777, 1.3263 -0.454143, 1.3122 -0.50276, 1.26811 -0.628712, 1.20514 -0.732749, 1.12352 -0.81487, 1.0419 -0.896739, 0.938623 -0.937799, 0.814183 -0.938051, 0.698055 -0.937799, 0.583187 -0.895983, 0.469578 -0.812855, 0.356221 -0.729474, 0.252436 -0.624682, 0.158224 -0.49873, 0.0310123 -0.323908, -0.065719 -0.137751, -0.132222 0.0597422, -0.198725 0.257235, -0.260945 0.458003, -0.319135 0.662045, -0.369012 0.871882, -0.411836 1.07618, -0.447858 1.27468, -0.470025 1.37166, -0.481109 1.46562, -0.481109 1.55681, -0.481109 1.65379, -0.470025 1.74649, -0.447858 1.83491, -0.422919 1.95608, -0.375813 2.05684, -0.306791 2.13745, -0.237518 2.21806, -0.144817 2.25836, -0.028689 2.25811, 0.0987746 2.25836, 0.225986 2.21478, 0.35345 2.12737, 0.480913 2.04021, 0.599812 1.93467, 0.710398 1.81073, 0.790756 1.71702, 0.866831 1.61475, 0.938623 1.50441 L 1.37467 -0.208536 Z" stroke="none" fill="#000000" transform="matrix(1.12 0 0 1 55.769 12.8121)" />
			<polyline points="-5.159 -1.5477 5.159 -1.5477" fill="none" stroke="#000000" stroke-width="0.589599967" stroke-linecap="round" stroke-linejoin="round" transform="matrix(1 0 0 1 67.9204 8.80585)" />
			<polyline points="-5.159 1.5477 5.159 1.5477" fill="none" stroke="#000000" stroke-width="0.589599967" stroke-linecap="round" stroke-linejoin="round" transform="matrix(1 0 0 1 67.9204 8.80585)" />
			<path d="M 82.7169 13.174 C 81.826 13.1458, 80.9589 13.1317, 80.116 13.1317, 79.2736 13.1317, 78.4065 13.1458, 77.5151 13.174 L 77.5151 12.5674, 78.0168 12.5674 C 78.1764 12.5679, 78.3267 12.5657, 78.4669 12.5608, 78.6075 12.5564, 78.7406 12.5445, 78.8667 12.5256, 78.9928 12.507, 79.1017 12.4881, 79.1934 12.4687, 79.271 12.455, 79.3353 12.4118, 79.386 12.3386, 79.4371 12.2659, 79.4623 12.1848, 79.4623 12.0949 L 79.4623 4.14577 C 79.2203 4.26391, 78.9223 4.3534, 78.5687 4.41423, 78.2152 4.47551, 77.8277 4.50593, 77.4062 4.50549 L 77.4062 3.90595 C 77.9877 3.90639, 78.5242 3.83718, 79.0157 3.69832, 79.5072 3.5599, 79.9322 3.29981, 80.2906 2.91849 L 80.5159 2.91849 C 80.6755 2.91893, 80.7552 2.99652, 80.7552 3.15125 L 80.7552 12.0949 C 80.7552 12.1892, 80.7795 12.2716, 80.828 12.3422, 80.8765 12.4127, 80.947 12.455, 81.0387 12.4687, 81.1163 12.4881, 81.2159 12.507, 81.3367 12.5256, 81.4579 12.5445, 81.5946 12.5564, 81.7471 12.5608, 81.8996 12.5657, 82.0486 12.5679, 82.1937 12.5674 L 82.7169 12.5674, 82.7169 13.174 Z" stroke="none" fill="#000000" />
			<path d="M 90.5217 11.4773 C 90.5568 11.5115, 90.5739 11.5475, 90.5739 11.5853, 90.5739 11.6289, 90.5541 11.6771, 90.5145 11.7292, 90.124 12.2717, 89.6265 12.686, 89.0211 12.9712, 88.4156 13.2564, 87.8092 13.399, 87.2015 13.399, 86.7616 13.399, 86.3873 13.2888, 86.0787 13.0684, 85.7701 12.848, 85.5268 12.5767, 85.3487 12.2546, 85.1507 11.8664, 85.0473 11.444, 85.0374 10.9879, 85.0275 10.9402, 85.0225 10.8876, 85.0225 10.8296, 85.0225 10.422, 85.077 10.0046, 85.1854 9.57725, 85.2893 9.1841, 85.4598 8.80535, 85.6968 8.44054, 85.9343 8.07617, 86.2357 7.7496, 86.601 7.46126, 86.942 7.18326, 87.3153 6.96645, 87.7202 6.81036, 88.1255 6.65472, 88.5258 6.57645, 88.9208 6.57599, 89.1632 6.57645, 89.3908 6.61873, 89.6031 6.7024, 89.8155 6.78652, 89.9909 6.90032, 90.129 7.04427, 90.2675 7.18821, 90.3638 7.36095, 90.4182 7.56202, 90.438 7.65379, 90.4475 7.75185, 90.4475 7.85711, 90.4475 7.97271, 90.4331 8.09507, 90.4034 8.22417, 90.3098 8.61822, 90.116 8.9241, 89.8218 9.14227, 89.5276 9.36089, 89.1902 9.52013, 88.8096 9.62089, 88.4291 9.72165, 88.0265 9.78193, 87.6014 9.80082, 87.1768 9.82016, 86.7962 9.82961, 86.4602 9.82916, 86.3567 10.2039, 86.2848 10.5804, 86.2452 10.9591, 86.2254 11.0891, 86.2155 11.2137, 86.2155 11.3334, 86.2155 11.5736, 86.2452 11.8017, 86.3046 12.0171, 86.3788 12.2816, 86.4962 12.4989, 86.6568 12.6689, 86.8174 12.8394, 87.0261 12.9244, 87.2829 12.924, 87.8065 12.9244, 88.318 12.7904, 88.8173 12.5214, 89.3166 12.2528, 89.7313 11.888, 90.0624 11.427, 90.102 11.3604, 90.1587 11.3194, 90.2329 11.3046 L 90.2698 11.3046 C 90.3292 11.305, 90.3764 11.3217, 90.4106 11.355 L 90.5217 11.4773 Z M 89.699 8.19538 C 89.7286 8.08067, 89.7435 7.97766, 89.7435 7.8859, 89.7435 7.69427, 89.6868 7.52648, 89.573 7.38209, 89.4052 7.16662, 89.1583 7.05866, 88.8321 7.05821, 88.5802 7.05866, 88.327 7.12254, 88.0724 7.24939, 87.8178 7.37669, 87.592 7.55032, 87.394 7.77074, 87.1718 8.00645, 86.9977 8.2669, 86.8718 8.55209, 86.7458 8.83774, 86.6455 9.10763, 86.5713 9.36134, 86.8925 9.36179, 87.2348 9.34739, 87.5978 9.3186, 87.9613 9.28981, 88.286 9.23493, 88.5726 9.15307, 88.8591 9.07165, 89.1011 8.95289, 89.2991 8.7968, 89.497 8.64116, 89.6301 8.44054, 89.699 8.19538 Z" stroke="none" fill="#000000" />
			<path d="M 101.717 3.3948 C 101.688 3.5392, 101.599 3.61117, 101.45 3.61072, 101.292 3.61117, 101.142 3.62916, 100.998 3.66515, 100.855 3.70114, 100.715 3.76231, 100.579 3.84868, 100.444 3.93505, 100.319 4.03941, 100.205 4.16176, 100.092 4.28412, 99.9879 4.42221, 99.8938 4.57516 L 94.4909 13.363 C 94.4172 13.4975, 94.3034 13.5623, 94.15 13.5573 L 94.0092 13.5573 C 93.8265 13.5573, 93.7375 13.4809, 93.7424 13.327 L 92.8158 4.13612 C 92.796 4.01197, 92.7762 3.91481, 92.7564 3.84508, 92.7366 3.77581, 92.7074 3.72633, 92.6678 3.69709, 92.5985 3.6593, 92.4888 3.63546, 92.3381 3.62557, 92.1874 3.61612, 92.0155 3.61117, 91.8226 3.61072, 91.7488 3.61117, 91.6944 3.58733, 91.6597 3.53875, 91.63 3.51041, 91.6152 3.47442, 91.6152 3.43079, 91.6152 3.40245, 91.6228 3.37591, 91.6372 3.35162 L 91.6597 3.24366 C 91.6746 3.18158, 91.7079 3.12895, 91.7596 3.08577, 91.8118 3.04259, 91.8747 3.021, 91.9485 3.02055, 92.4231 3.04978, 92.9026 3.06418, 93.3866 3.06373, 93.4608 3.06418, 93.54 3.05923, 93.6237 3.04933, 94.1968 3.04978, 94.7703 3.04034, 95.3434 3.02055, 95.4126 3.021, 95.4743 3.04484, 95.5287 3.09252, 95.5485 3.1312, 95.5579 3.16719, 95.5579 3.20048, 95.5579 3.22972, 95.5507 3.25626, 95.5359 3.27965 L 95.5139 3.38761 C 95.499 3.45508, 95.463 3.50951, 95.4063 3.54999, 95.3497 3.59093, 95.2889 3.61117, 95.2246 3.61072, 95.0519 3.61117, 94.8935 3.61837, 94.7505 3.63276, 94.6075 3.64716, 94.4662 3.68539, 94.3277 3.74747, 94.244 3.7911, 94.2044 3.86308, 94.2094 3.96339 L 94.2094 4.01377 C 94.3821 5.29038, 94.5206 6.57285, 94.6241 7.86116, 94.728 9.14947, 94.8391 10.3694, 94.9579 11.5205 L 99.3307 4.40242 C 99.395 4.30211, 99.4346 4.1964, 99.4494 4.08574 L 99.4494 4.04976 C 99.4494 3.97823, 99.4323 3.91346, 99.3972 3.85543, 99.2888 3.69259, 99.0864 3.61117, 98.7895 3.61072, 98.6613 3.61117, 98.597 3.5464, 98.597 3.4164 L 98.597 3.36601, 98.6267 3.23646 C 98.6811 3.09297, 98.7774 3.021, 98.9155 3.02055, 99.3504 3.04034, 99.7877 3.04978, 100.228 3.04933, 100.287 3.05923, 100.344 3.06418, 100.398 3.06373, 100.774 3.06418, 101.159 3.04978, 101.554 3.02055, 101.688 3.021, 101.759 3.08577, 101.769 3.21487 L 101.769 3.27245 Z" stroke="none" fill="#000000" />
			<rect />
		</svg>
	</g>
	<path d="M 0 186.429 L 0 -186.429" fill="none" stroke="#000000" stroke-width="1.60000002" stroke-linecap="round" stroke-linejoin="round" marker-end="url(#CustomMarker-03)" transform="matrix(0.625 0 0 0.625 550.286 125.018)" />
	<rect x="-157.89856" y="-34.0091553" width="315.797119" height="68.0183105" stroke="none" fill="#7ED7FD" fill-opacity="0.51372546" transform="matrix(0.625 0 -0 0.625 648.972 220.28)" />
	<path d="M -157.899 -34.0092 L 157.899 -34.0092, 157.899 34.0092, -157.899 34.0092 Z" fill="none" stroke="#000000" stroke-width="1.60000002" stroke-linecap="round" stroke-linejoin="round" transform="matrix(0.625 0 -0 0.625 648.972 220.28)" />
	<g transform="matrix(1 0 -0 1 634.044 211.474)">
		<svg width="95.8984451" height="50.9380569">
			<defs />
			<path d="M 7.19611 2.90395 C 7.19611 1.85099, 7.17632 1.05138, 7.12882 0.497187 L 8.56575 1.06721, 7.97594 1.5739, 7.97594 2.90395, 10.26 2.90395 C 10.26 1.89454, 10.2402 1.1345, 10.1967 0.623858 L 11.6296 1.13055, 11.0438 1.63723, 11.0438 2.90395, 12.738 2.90395, 13.5218 2.14392, 14.6302 3.28397, 11.0438 3.28397 C 11.0438 3.66794, 11.0675 4.02816, 11.1071 4.36068 L 10.26 4.74069, 10.26 3.28397, 7.97594 3.28397, 7.97594 4.48735, 7.12882 4.86737 C 7.17632 4.32109, 7.19611 3.79461, 7.19611 3.28397 L 6.47567 3.28397 C 5.91356 3.28793, 5.39104 3.35126, 4.91206 3.47398 L 4.3262 2.90395 Z M 5.56521 8.22417 L 5.56521 13.3544 C 6.74089 11.9649, 7.39404 10.2549, 7.52071 8.22417 Z M 4.6508 15.3178 C 4.69434 14.3915, 4.71414 13.0535, 4.71414 11.2999, 4.71414 9.55027, 4.69434 8.22813, 4.6508 7.33747 L 5.62855 7.84415, 7.52071 7.84415, 7.52071 5.94408, 6.08378 5.94408 C 5.52167 5.94803, 4.99915 6.01137, 4.52017 6.13408 L 3.93431 5.56406, 13.0666 5.56406, 13.8503 4.80403, 14.9587 5.94408, 10.8498 5.94408, 10.8498 7.84415, 12.8053 7.84415, 13.2605 7.21079, 14.3056 7.97083, 13.783 8.41418, 13.783 13.6711 C 13.8306 14.4746, 13.3951 15.0644, 12.4807 15.4445, 12.4372 14.8111, 11.8711 14.3915, 10.7825 14.1777 L 10.7825 13.9244 C 11.5227 13.9679, 12.0651 14.0115, 12.4134 14.0511, 12.7618 14.0511, 12.9359 13.8611, 12.9359 13.4811 L 12.9359 8.22417, 10.8498 8.22417 C 10.8063 8.81794, 10.739 9.49485, 10.6519 10.2509, 11.4792 10.5913, 11.9899 10.8566, 12.1878 11.0466, 12.3857 11.2366, 12.4807 11.4385, 12.4807 11.6443, 12.4807 11.8581, 12.4372 12.06, 12.3501 12.25, 12.263 12.44, 12.1997 12.535, 12.1521 12.531, 12.0651 12.535, 11.9582 12.3648, 11.8276 12.0243, 11.6098 11.5651, 11.1982 11.0585, 10.5885 10.5043, 10.3273 11.6483, 9.6108 12.7052, 8.43512 13.6711 L 8.2372 13.5444 C 9.49996 12.155, 10.1096 10.3815, 10.066 8.22417 L 8.30449 8.22417 C 8.26095 8.60814, 8.2174 9.0317, 8.17386 9.49089, 8.69638 9.79173, 9.03681 10.0451, 9.18724 10.2549, 9.33766 10.4686, 9.41287 10.6349, 9.41287 10.7576, 9.41287 10.8882, 9.34953 11.0466, 9.2189 11.2366, 9.08827 11.4266, 9.00119 11.5216, 8.95764 11.5176, 8.82701 11.5216, 8.73993 11.3751, 8.69638 11.0743, 8.6093 10.6151, 8.41533 10.1717, 8.10657 9.74423, 7.67509 11.3949, 6.82797 12.7052, 5.56521 13.6711 L 5.56521 14.8111 Z M 8.30449 5.94408 L 8.30449 7.84415, 10.066 7.84415, 10.066 5.94408 Z M 4.06494 4.10733 C 3.10699 7.91145, 2.58447 10.1401, 2.49738 10.7932, 2.41029 11.4503, 2.34696 12.155, 2.30341 12.915, 2.25987 13.675, 2.23612 14.2411, 2.23612 14.6211, 2.23612 14.8349, 2.14903 14.9378, 1.97486 14.9378, 1.88777 14.9378, 1.70568 14.8665, 1.42067 14.7161, 1.13962 14.5696, 0.99711 14.348, 0.99711 14.0511, 0.99711 13.7977, 1.0644 13.485, 1.19108 13.101, 1.32566 12.6814, 1.389 12.345, 1.389 12.0877, 1.389 11.7947, 1.28212 11.5651, 1.0644 11.3949, 0.846687 11.2287, 0.411253 11.0585, -0.241899 10.8843 L -0.241899 10.6309 C 0.541883 10.718, 1.02086 10.7418, 1.19503 10.6982, 1.36921 10.6586, 1.57505 10.4766, 1.81256 10.1599, 2.05403 9.84319, 2.71906 7.80457, 3.80368 4.044 Z M -0.178563 4.74069 C 1.21483 5.37801, 1.94715 5.89657, 2.01048 6.29638, 2.07382 6.70015, 2.03028 7.00495, 1.87985 7.21475, 1.72943 7.42851, 1.60672 7.53143, 1.51963 7.52747, 1.34546 7.53143, 1.19503 7.34143, 1.0644 6.95745, 0.846687 6.37159, 0.387502 5.69469, -0.309193 4.9307 Z M 1.32171 1.19388 C 2.54092 1.78766, 3.19407 2.2033, 3.28116 2.43289, 3.36825 2.66644, 3.41179 2.82478, 3.41179 2.90395, 3.41179 3.16125, 3.33658 3.3948, 3.1822 3.60461, 3.03178 3.81836, 2.90906 3.92128, 2.82198 3.91733, 2.6953 3.92128, 2.58447 3.75107, 2.49738 3.41064, 2.28362 2.86437, 1.84819 2.19142, 1.19108 1.38389 Z" stroke="none" fill="#000000" />
			<path d="M 18.8083 5.69073 C 18.8558 5.14446, 18.8756 4.44777, 18.8756 3.60065 L 16.6549 3.60065, 16.069 3.72732, 15.5465 3.22063, 18.8756 3.22063 C 18.8756 2.25476, 18.8558 1.40764, 18.8083 0.687195 L 20.178 1.38389, 19.7227 1.82724, 19.7227 3.22063, 22.1374 3.22063 C 22.1374 2.21122, 22.1176 1.34431, 22.0701 0.623858 L 23.4398 1.32055, 22.9845 1.70057, 22.9845 3.22063, 25.3319 3.22063 C 25.3319 2.25476, 25.3121 1.40764, 25.2686 0.687195 L 26.6382 1.38389, 26.179 1.76391, 26.179 3.22063, 27.3547 3.22063, 28.2691 2.33393, 29.5715 3.60065, 26.179 3.60065 C 26.179 4.28151, 26.2028 4.85153, 26.2463 5.31072 L 25.2686 5.69073 C 25.3121 5.01779, 25.3319 4.32109, 25.3319 3.60065 L 22.9845 3.60065 C 22.9845 4.23796, 23.0083 4.7882, 23.0479 5.24738 L 22.0701 5.6274 C 22.1176 4.95445, 22.1374 4.28151, 22.1374 3.60065 L 19.7227 3.60065 C 19.7227 4.15484, 19.7465 4.72486, 19.7861 5.31072 Z M 22.9845 9.11087 C 22.9845 12.2816, 23.0083 14.2648, 23.0479 15.0644 L 22.0701 15.4445 C 22.1176 14.4311, 22.1374 12.3252, 22.1374 9.11087 L 18.939 9.11087, 18.939 13.7344, 18.0245 14.2411 C 18.072 13.105, 18.0918 12.06, 18.0918 11.1099, 18.0918 10.1599, 18.072 9.22171, 18.0245 8.28751 L 18.939 8.73086, 22.1374 8.73086, 22.1374 6.70411, 16.9162 6.70411 C 16.9637 7.51164, 16.833 7.99854, 16.5282 8.16479, 16.2234 8.33501, 15.982 8.41814, 15.8078 8.41418, 15.6336 8.41814, 15.4951 8.36668, 15.3842 8.2598, 15.2773 8.15687, 15.2219 8.05791, 15.2219 7.97083, 15.2219 7.84811, 15.3763 7.6779, 15.6772 7.46414, 16.1126 7.17121, 16.4411 6.53785, 16.6549 5.56406 L 16.9162 5.56406, 16.9162 6.32409, 28.2018 6.32409, 28.7917 5.6274, 29.9634 6.83078 C 29.3577 6.87828, 28.5739 7.36122, 27.616 8.28751 L 27.422 8.16083, 28.2691 6.70411, 22.9845 6.70411, 22.9845 8.73086, 26.1157 8.73086, 26.7016 8.0975, 27.7466 8.92087, 27.1607 9.36422, 27.1607 12.721 C 27.2043 13.4415, 26.7689 13.9679, 25.8544 14.3044, 25.8544 13.8848, 25.225 13.4652, 23.9623 13.0377 L 23.9623 12.721 C 24.8767 12.8517, 25.4982 12.915, 25.8228 12.915, 26.1474 12.915, 26.3097 12.7685, 26.3097 12.4677 L 26.3097 9.11087 Z" stroke="none" fill="#000000" />
			<rect />
		</svg>
	</g>
	<rect x="-157.89856" y="-34.0090332" width="315.797119" height="68.0180664" stroke="none" fill="#7ED7FD" fill-opacity="0.51372546" transform="matrix(0.625 0 -0 0.625 648.972 50.3586)" />
	<path d="M -157.899 -34.009 L 157.899 -34.009, 157.899 34.009, -157.899 34.009 Z" fill="none" stroke="#000000" stroke-width="1.60000002" stroke-linecap="round" stroke-linejoin="round" transform="matrix(0.625 0 -0 0.625 648.972 50.3586)" />
	<g transform="matrix(1 0 -0 1 634.044 41.5528)">
		<svg width="92.944603" height="50.9380569">
			<defs />
			<path d="M 4.0689 7.46414 C 3.15845 7.4681, 2.69926 7.06829, 2.69926 6.26076, 2.69926 3.3948, 2.67947 1.57786, 2.63197 0.813867 L 3.67701 1.38389, 10.6677 1.38389, 11.3209 0.75053, 12.2353 1.63723, 11.7128 1.95391 C 11.7128 3.18105, 11.7365 4.11129, 11.7761 4.74069 L 10.7983 5.12071, 10.7983 4.42401, 3.61368 4.42401, 3.61368 5.88074 C 3.61368 6.47451, 3.94223 6.7714, 4.59142 6.76744 L 11.974 6.76744 C 12.3659 6.7714, 12.6153 6.60514, 12.7261 6.26471, 12.837 5.92824, 12.9122 5.188, 12.9518 4.044 L 13.2803 4.044 C 13.2803 4.76444, 13.3357 5.34634, 13.4426 5.78969, 13.5535 6.23305, 13.7593 6.49827, 14.0641 6.57744, 13.8028 7.17121, 13.1932 7.4681, 12.2353 7.46414 Z M 3.61368 1.76391 L 3.61368 4.044, 10.7983 4.044, 10.7983 1.76391 Z M 6.42025 13.4811 C 7.63946 13.6117, 8.447 13.6869, 8.83889 13.7067, 9.23078 13.7304, 9.4485 13.5483, 9.49204 13.1644 L 9.49204 9.93424, 2.30737 9.93424 C 1.74131 9.9382, 1.21879 10.0015, 0.739808 10.1242 L 0.149992 9.55422, 9.49204 9.55422 C 9.49204 8.71502, 9.47225 8.05791, 9.42475 7.59081 L 10.9923 8.28751, 10.4065 8.73086, 10.4065 9.55422, 12.168 9.55422, 13.213 8.54085, 14.65 9.93424, 10.4065 9.93424, 10.4065 13.5444 C 10.4065 14.2648, 9.88393 14.8349, 8.83889 15.2545, 8.70826 14.6646, 7.90072 14.1777, 6.42025 13.7977 Z M 3.54638 10.3143 L 3.74431 10.1242 C 5.05061 11.0149, 5.71564 11.672, 5.73543 12.0916, 5.75918 12.5152, 5.67209 12.8121, 5.47417 12.9783, 5.2802 13.1485, 5.1377 13.2317, 5.05061 13.2277, 4.87643 13.2317, 4.72601 12.9981, 4.59142 12.531, 4.41725 11.8581, 4.0689 11.1218, 3.54638 10.3143 Z" stroke="none" fill="#000000" />
			<path d="M 18.8083 5.69073 C 18.8558 5.14446, 18.8756 4.44777, 18.8756 3.60065 L 16.6549 3.60065, 16.069 3.72732, 15.5465 3.22063, 18.8756 3.22063 C 18.8756 2.25476, 18.8558 1.40764, 18.8083 0.687195 L 20.178 1.38389, 19.7227 1.82724, 19.7227 3.22063, 22.1374 3.22063 C 22.1374 2.21122, 22.1176 1.34431, 22.0701 0.623858 L 23.4398 1.32055, 22.9845 1.70057, 22.9845 3.22063, 25.3319 3.22063 C 25.3319 2.25476, 25.3121 1.40764, 25.2686 0.687195 L 26.6382 1.38389, 26.179 1.76391, 26.179 3.22063, 27.3547 3.22063, 28.2691 2.33393, 29.5715 3.60065, 26.179 3.60065 C 26.179 4.28151, 26.2028 4.85153, 26.2463 5.31072 L 25.2686 5.69073 C 25.3121 5.01779, 25.3319 4.32109, 25.3319 3.60065 L 22.9845 3.60065 C 22.9845 4.23796, 23.0083 4.7882, 23.0479 5.24738 L 22.0701 5.6274 C 22.1176 4.95445, 22.1374 4.28151, 22.1374 3.60065 L 19.7227 3.60065 C 19.7227 4.15484, 19.7465 4.72486, 19.7861 5.31072 Z M 22.9845 9.11087 C 22.9845 12.2816, 23.0083 14.2648, 23.0479 15.0644 L 22.0701 15.4445 C 22.1176 14.4311, 22.1374 12.3252, 22.1374 9.11087 L 18.939 9.11087, 18.939 13.7344, 18.0245 14.2411 C 18.072 13.105, 18.0918 12.06, 18.0918 11.1099, 18.0918 10.1599, 18.072 9.22171, 18.0245 8.28751 L 18.939 8.73086, 22.1374 8.73086, 22.1374 6.70411, 16.9162 6.70411 C 16.9637 7.51164, 16.833 7.99854, 16.5282 8.16479, 16.2234 8.33501, 15.982 8.41814, 15.8078 8.41418, 15.6336 8.41814, 15.4951 8.36668, 15.3842 8.2598, 15.2773 8.15687, 15.2219 8.05791, 15.2219 7.97083, 15.2219 7.84811, 15.3763 7.6779, 15.6772 7.46414, 16.1126 7.17121, 16.4411 6.53785, 16.6549 5.56406 L 16.9162 5.56406, 16.9162 6.32409, 28.2018 6.32409, 28.7917 5.6274, 29.9634 6.83078 C 29.3577 6.87828, 28.5739 7.36122, 27.616 8.28751 L 27.422 8.16083, 28.2691 6.70411, 22.9845 6.70411, 22.9845 8.73086, 26.1157 8.73086, 26.7016 8.0975, 27.7466 8.92087, 27.1607 9.36422, 27.1607 12.721 C 27.2043 13.4415, 26.7689 13.9679, 25.8544 14.3044, 25.8544 13.8848, 25.225 13.4652, 23.9623 13.0377 L 23.9623 12.721 C 24.8767 12.8517, 25.4982 12.915, 25.8228 12.915, 26.1474 12.915, 26.3097 12.7685, 26.3097 12.4677 L 26.3097 9.11087 Z" stroke="none" fill="#000000" />
			<rect />
		</svg>
	</g>
	<g transform="matrix(1 0 -0 1 626.506 254.438)">
		<svg width="143.898438" height="50.9380569">
			<defs />
			<path d="M 7.85718 6.32409 L 7.85718 9.36422, 9.94727 9.36422, 9.94727 6.32409 Z M 10.731 6.32409 L 10.731 9.36422, 12.8884 9.36422, 12.8884 6.32409 Z M 10.4698 5.94408 L 11.8434 3.28397, 8.83889 3.28397 C 8.49054 3.87774, 7.99177 4.61798, 7.33466 5.50072 L 7.85718 5.94408 Z M 10.2758 1.32055 L 9.68601 1.63723 C 9.42475 2.14788, 9.18724 2.57144, 8.96952 2.90395 L 11.7761 2.90395, 12.4292 2.27059, 13.4743 3.3473 C 13.0389 3.43439, 12.6153 3.71148, 12.2036 4.17463, 11.7919 4.64173, 11.3446 5.23155, 10.8617 5.94408 L 12.8884 5.94408, 13.4743 5.37405, 14.2581 6.13408, 13.7355 6.5141 C 13.7355 8.46168, 13.7593 9.66506, 13.8028 10.1242 L 12.8884 10.5676, 12.8884 9.74423, 7.85718 9.74423, 7.85718 13.2277 C 7.85718 13.8611, 8.20553 14.1777, 8.90222 14.1777 L 13.1497 14.1777 C 13.4545 14.1777, 13.6287 13.9996, 13.6722 13.6433, 13.7158 13.2871, 13.7593 12.5152, 13.8028 11.3276 L 14.1274 11.3276 C 14.1749 12.4281, 14.2502 13.1169, 14.357 13.39, 14.4679 13.6671, 14.6737 13.8848, 14.9785 14.0511, 14.7173 14.5578, 14.4045 14.8349, 14.0324 14.8744, 13.6603 14.918, 13.411 14.9378, 13.2803 14.9378 L 8.3797 14.9378 C 7.46925 14.9378, 7.01006 14.4746, 7.01006 13.5444 L 7.01006 5.88074 C 6.444 6.43493, 5.87793 6.87828, 5.31187 7.21079 L 5.11394 7.02079 C 6.15899 6.05491, 6.99819 4.95841, 7.63155 3.73128, 8.26491 2.5081, 8.70826 1.43139, 8.96952 0.497187 Z M 0.0193616 13.4811 C 0.328124 13.4415, 0.949608 13.2871, 1.88381 13.01, 2.81802 12.7369, 4.22328 12.2381, 6.09565 11.5176 L 6.22628 11.771 C 2.91698 13.2515, 1.11191 14.2015, 0.803144 14.6211 Z M 1.65422 9.80757 L 6.09565 9.30088, 6.09565 9.55422 C 4.87643 9.81153, 3.83139 10.057, 2.96052 10.2865, 2.08965 10.5201, 1.41671 10.7814, 0.933774 11.0743 L 0.280622 9.93424 C 0.763559 9.85507, 1.28608 9.48693, 1.85214 8.82982, 2.41821 8.17667, 3.07136 7.29788, 3.80764 6.19742, 3.24553 6.28451, 2.61218 6.41514, 1.91548 6.58139, 1.21879 6.75161, 0.739808 6.96141, 0.478547 7.21079 L -0.174605 6.00741 C 0.304373 6.01137, 0.933774 5.37009, 1.71756 4.07963, 2.50134 2.79311, 3.04761 1.68474, 3.35241 0.75053 L 4.65872 1.5739, 4.00557 1.89058 C 2.96052 3.45814, 1.91548 4.82778, 0.870438 6.00741 L 4.00557 5.8174 C 4.48454 5.188, 4.96352 4.32109, 5.4425 3.22063 L 6.68151 4.10733, 5.96502 4.36068 C 4.57163 6.39139, 3.1347 8.20834, 1.65422 9.80757 Z" stroke="none" fill="#000000" />
			<path d="M 23.4557 2.77728 C 23.2815 3.16125, 23.0875 3.66794, 22.8698 4.29734 L 26.1356 4.29734 C 26.2227 4.00441, 26.377 3.49773, 26.5908 2.77728 Z M 25.6131 6.00741 C 25.7872 5.50468, 25.9416 5.06133, 26.0683 4.67736 L 22.8025 4.67736, 22.4106 5.12071, 21.6941 4.36068 C 21.9989 4.23796, 22.28 3.7867, 22.5413 3.00291, 22.8025 2.22309, 23.0202 1.43139, 23.1944 0.623858 L 24.2395 1.13055 C 23.9782 1.30472, 23.7407 1.72432, 23.523 2.39726 L 26.5275 2.39726, 27.05 1.76391, 27.9644 2.58727 C 27.616 2.7179, 27.3231 3.17313, 27.0817 3.95295, 26.8441 4.73674, 26.6343 5.42155, 26.4602 6.00741 L 28.0277 6.00741, 28.9421 5.18404, 30.1178 6.38743, 25.0232 6.38743 C 24.7224 6.60119, 24.3938 6.85453, 24.0455 7.14746, 24.7422 7.82832, 25.2212 8.43793, 25.4824 8.9842, 26.571 8.3548, 27.4617 7.61456, 28.1584 6.76744 L 29.0728 7.84415 C 28.6373 7.89166, 28.1584 8.03812, 27.6358 8.29146, 27.1133 8.54481, 26.6343 8.77836, 26.1989 8.9842, 26.6343 10.0015, 27.1687 10.8487, 27.8021 11.5216, 28.4355 12.1985, 29.2074 12.6419, 30.1178 12.8477 L 30.1178 13.0377 C 29.5557 13.0417, 29.1203 13.2752, 28.8115 13.7344, 28.3761 13.3583, 27.8892 12.8121, 27.3429 12.0916, 26.8006 11.3751, 26.3335 10.3815, 25.9376 9.11087 L 25.6131 9.23754 C 25.9614 10.5082, 26.1277 11.5453, 26.1039 12.345, 26.0802 13.1485, 25.9297 13.7819, 25.6447 14.2411, 25.3637 14.7082, 24.8728 15.0447, 24.1761 15.2545, 24.2197 14.7082, 23.6971 14.2648, 22.6086 13.9244 L 22.6086 13.6711 C 23.1746 13.7581, 23.6219 13.8215, 23.9465 13.8611, 24.2751 13.9046, 24.5363 13.8729, 24.7303 13.77, 24.9282 13.6671, 25.0589 13.3583, 25.1222 12.8517, 25.1895 12.345, 25.2014 11.6681, 25.1539 10.8209, 24.3701 11.6285, 23.4794 12.3252, 22.4779 12.915, 21.4764 13.5088, 20.3878 14.0313, 19.2122 14.4944 L 19.0815 14.3044 C 20.7362 13.4217, 21.9673 12.6616, 22.7709 12.0283, 23.5784 11.3949, 24.3067 10.6547, 24.9599 9.80757, 24.8728 9.30484, 24.7857 8.98816, 24.6986 8.85753, 24.0019 9.41172, 23.2538 9.89861, 22.4463 10.3182, 21.6387 10.7418, 20.756 11.098, 19.798 11.391 L 19.7347 11.201 C 20.4749 10.908, 21.2904 10.4686, 22.185 9.87486, 23.0796 9.28505, 23.7842 8.69127, 24.3067 8.0975, 24.1326 7.80457, 23.9584 7.55123, 23.7842 7.33747, 23.1311 7.76498, 22.565 8.08166, 22.086 8.29146, 21.6071 8.50522, 20.9301 8.75461, 20.0593 9.04754 L 19.9959 8.85753 C 20.9104 8.43793, 21.6506 8.03812, 22.2167 7.6581, 22.7827 7.27809, 23.2815 6.85453, 23.7169 6.38743 L 22.086 6.38743 C 21.52 6.39139, 20.9974 6.45472, 20.5185 6.57744 L 19.9286 6.00741 Z M 16.4016 9.6809 C 16.9717 9.60173, 18.278 9.4513, 20.3205 9.23754 L 20.3205 9.49089 C 18.9272 9.79173, 17.9257 10.0451, 17.316 10.2549, 16.7064 10.4686, 16.2512 10.6982, 15.9464 10.9476 L 15.1626 9.6809 C 15.3368 9.68485, 15.6099 9.53839, 15.9781 9.2415, 16.3502 8.94857, 17.1854 7.91145, 18.4917 6.13408, 17.8425 6.22117, 17.2765 6.32013, 16.7975 6.42305, 16.3185 6.52993, 15.9029 6.70807, 15.5545 6.95745 L 14.8341 5.88074 C 15.2299 5.84116, 15.7287 5.27509, 16.3383 4.17463, 16.9479 3.07813, 17.4269 1.95787, 17.7752 0.813867 L 19.0815 1.5739 C 18.7332 1.70453, 18.2978 2.19142, 17.7752 3.03062, 17.2092 3.92128, 16.5758 4.87132, 15.8791 5.88074 L 18.6896 5.75407 C 19.038 5.25134, 19.4299 4.47152, 19.8653 3.41064 L 21.041 4.23401 C 20.6926 4.40818, 20.1939 4.95445, 19.5368 5.88074, 18.8401 6.81495, 17.795 8.08166, 16.4016 9.6809 Z M 14.9647 12.911 C 15.5743 12.8319, 16.1641 12.7487, 16.7302 12.6616, 17.2963 12.5785, 18.4917 12.345, 20.3205 11.961 L 20.3878 12.2143 C 19.038 12.5983, 17.9692 12.9387, 17.1854 13.2317, 16.4016 13.5286, 15.8791 13.8215, 15.6178 14.1144 Z" stroke="none" fill="#000000" />
			<path d="M 32.5186 15.3178 C 32.5661 13.9679, 32.5859 12.915, 32.5859 12.151 L 32.5859 5.6274 C 31.8892 6.72786, 31.0421 7.76498, 30.0366 8.73086 L 29.8427 8.54085 C 30.8442 7.32163, 31.7032 5.85303, 32.4236 4.14296, 33.1441 2.43289, 33.5676 1.24138, 33.6943 0.560522 L 35.0679 1.44723, 34.5454 1.70057 C 33.8487 3.09792, 33.3064 4.19442, 32.9105 4.99404 L 33.9555 5.56406, 33.433 6.00741, 33.433 14.8111 Z M 39.9012 12.341 C 39.9012 13.1485, 39.925 13.9679, 39.9645 14.8111 L 38.9195 15.2545 C 38.967 13.9046, 38.9868 12.9981, 38.9868 12.531 L 38.9868 11.7076, 37.9417 11.7076 C 37.3757 11.7116, 36.8532 11.7749, 36.3742 11.8977 L 35.7844 11.3276, 38.9868 11.3276, 38.9868 5.24738 C 38.3336 6.81495, 37.5697 8.16479, 36.6988 9.30484, 35.8279 10.4449, 34.8937 11.3949, 33.8922 12.151 L 33.6943 11.961 C 34.5256 11.2049, 35.3648 10.1282, 36.2119 8.73482, 37.059 7.34143, 37.7003 6.01137, 38.1357 4.74069 L 36.6988 4.74069 C 36.1367 4.74465, 35.6142 4.80799, 35.1312 4.9307 L 34.5454 4.36068, 38.9868 4.36068, 38.9868 2.4606 C 38.9868 2.041, 38.967 1.43139, 38.9195 0.623858 L 40.4871 1.32055, 39.9012 1.76391, 39.9012 4.36068, 42.8384 4.36068, 43.6895 3.53731, 44.9285 4.74069, 40.4871 4.74069 C 41.0967 6.51806, 41.8488 7.94312, 42.7434 9.01983, 43.638 10.0965, 44.4535 10.7616, 45.1898 11.011 L 45.1898 11.2643 C 44.4931 11.2683, 44.0378 11.4583, 43.8201 11.8343, 43.2105 11.3751, 42.5494 10.4686, 41.829 9.11483, 41.1085 7.76498, 40.5544 6.30826, 40.1625 4.74069 L 39.9012 4.74069, 39.9012 11.3276, 41.2075 11.3276, 41.9913 10.5676, 43.167 11.7076, 39.9012 11.7076 Z" stroke="none" fill="#000000" />
			<rect />
		</svg>
	</g>
	<g transform="matrix(1 0 -0 1 594.927 128.65)">
		<svg width="335.898376" height="89.9574051">
			<defs />
			<path d="M 4.52017 4.29734 C 4.52017 5.48489, 4.54392 6.5616, 4.58351 7.52747 L 3.60576 7.84415 C 3.65326 7.2583, 3.67305 6.05491, 3.67305 4.23401, 2.67551 5.80157, 1.47609 7.00495, 0.0826975 7.84415 L 0.0193616 7.59081 C 1.32566 6.37159, 2.36675 4.95445, 3.15053 3.3473 L 2.36675 3.3473 C 1.80464 3.35126, 1.28212 3.4146, 0.803144 3.53731 L 0.213328 2.96729, 3.67305 2.96729 C 3.67305 2.16767, 3.65326 1.34431, 3.60576 0.497187 L 4.9754 1.06721, 4.52017 1.51056, 4.52017 2.96729, 5.56521 2.96729, 6.2817 2.27059, 7.32674 3.3473, 4.52017 3.3473, 4.52017 4.044 C 5.39104 4.3013, 5.96898 4.54673, 6.25003 4.77632, 6.53504 5.00987, 6.67359 5.25134, 6.67359 5.50072, 6.67359 5.71448, 6.61026 5.91637, 6.47963 6.10637, 6.349 6.29638, 6.26191 6.39139, 6.21441 6.38743, 6.08773 6.39139, 5.9571 6.20138, 5.82647 5.8174, 5.56521 5.27113, 5.12978 4.76444, 4.52017 4.29734 Z M 10.066 2.96729 C 10.066 2.33789, 10.0462 1.51452, 9.99873 0.497187 L 11.3684 1.06721, 10.9131 1.44723, 10.9131 2.96729, 12.8053 2.96729, 13.5891 2.20726, 14.6975 3.3473, 10.9765 3.3473 C 11.4119 4.02816, 11.9701 4.64965, 12.643 5.21967, 13.3159 5.78969, 14.0879 6.18159, 14.9587 6.38743 L 14.9587 6.57744 C 14.4362 6.62494, 14.0681 6.85453, 13.8503 7.27413, 13.1536 6.7714, 12.5797 6.2568, 12.1205 5.72636, 11.6653 5.19988, 11.2615 4.57444, 10.9131 3.85399, 10.9131 5.84116, 10.9369 7.02475, 10.9765 7.4008 L 9.99873 7.78082 C 10.0462 6.60119, 10.066 5.46114, 10.066 4.36068, 9.10807 5.75803, 7.95614 6.85453, 6.6063 7.65415 L 6.47567 7.46414 C 7.86906 6.24492, 8.93785 4.87132, 9.67413 3.3473, 9.11202 3.35126, 8.5895 3.4146, 8.10657 3.53731 L 7.52071 2.96729 Z M 2.23612 8.35084 L 10.9131 8.35084, 11.6969 7.59081, 12.8053 8.73086, 4.38954 8.73086 C 3.82743 8.73482, 3.30491 8.79815, 2.82198 8.92087 Z M 4.58351 13.7977 C 6.02044 14.0115, 6.79235 14.0827, 6.90318 14.0194, 7.01402 13.9561, 7.06548 13.8611, 7.06548 13.7344 L 7.06548 10.4409, 1.84423 10.4409 C 1.28212 10.4449, 0.7596 10.5082, 0.280622 10.6309 L -0.309193 10.0609, 12.9993 10.0609, 13.8503 9.23754, 15.0221 10.4409, 7.97594 10.4409, 7.97594 13.7977 C 7.97594 14.2213, 7.89281 14.5498, 7.71863 14.7794, 7.54446 15.013, 7.15257 15.2347, 6.54296 15.4445, 6.2817 14.8111, 5.62855 14.348, 4.58351 14.0511 Z M 4.52017 10.8843 L 5.69584 11.8977, 5.04269 12.0243 C 3.47909 13.2515, 2.04215 14.158, 0.735849 14.7478 L 0.672513 14.4944 C 2.27966 13.4415, 3.56221 12.2381, 4.52017 10.8843 Z M 9.5435 11.201 C 11.3723 12.0085, 12.457 12.5983, 12.8053 12.9783, 13.1536 13.3583, 13.3278 13.6948, 13.3278 13.9877, 13.3278 14.1144, 13.2843 14.2727, 13.1972 14.4628, 13.1101 14.6528, 13.023 14.7478, 12.9359 14.7478, 12.8488 14.7478, 12.7182 14.6211, 12.544 14.3678, 12.2432 13.9482, 11.8394 13.485, 11.3407 12.9783, 10.8419 12.4716, 10.2204 11.9649, 9.47621 11.4543 Z" stroke="none" fill="#000000" />
			<path d="M 18.8124 5.69073 C 18.8599 5.14446, 18.8797 4.44777, 18.8797 3.60065 L 16.6589 3.60065, 16.0731 3.72732, 15.5506 3.22063, 18.8797 3.22063 C 18.8797 2.25476, 18.8599 1.40764, 18.8124 0.687195 L 20.182 1.38389, 19.7268 1.82724, 19.7268 3.22063, 22.1414 3.22063 C 22.1414 2.21122, 22.1217 1.34431, 22.0742 0.623858 L 23.4438 1.32055, 22.9886 1.70057, 22.9886 3.22063, 25.336 3.22063 C 25.336 2.25476, 25.3162 1.40764, 25.2726 0.687195 L 26.6423 1.38389, 26.1831 1.76391, 26.1831 3.22063, 27.3587 3.22063, 28.2732 2.33393, 29.5755 3.60065, 26.1831 3.60065 C 26.1831 4.28151, 26.2068 4.85153, 26.2504 5.31072 L 25.2726 5.69073 C 25.3162 5.01779, 25.336 4.32109, 25.336 3.60065 L 22.9886 3.60065 C 22.9886 4.23796, 23.0123 4.7882, 23.0519 5.24738 L 22.0742 5.6274 C 22.1217 4.95445, 22.1414 4.28151, 22.1414 3.60065 L 19.7268 3.60065 C 19.7268 4.15484, 19.7505 4.72486, 19.7901 5.31072 Z M 22.9886 9.11087 C 22.9886 12.2816, 23.0123 14.2648, 23.0519 15.0644 L 22.0742 15.4445 C 22.1217 14.4311, 22.1414 12.3252, 22.1414 9.11087 L 18.943 9.11087, 18.943 13.7344, 18.0286 14.2411 C 18.0761 13.105, 18.0959 12.06, 18.0959 11.1099, 18.0959 10.1599, 18.0761 9.22171, 18.0286 8.28751 L 18.943 8.73086, 22.1414 8.73086, 22.1414 6.70411, 16.9202 6.70411 C 16.9677 7.51164, 16.8371 7.99854, 16.5323 8.16479, 16.2275 8.33501, 15.986 8.41814, 15.8118 8.41418, 15.6376 8.41814, 15.4991 8.36668, 15.3883 8.2598, 15.2814 8.15687, 15.226 8.05791, 15.226 7.97083, 15.226 7.84811, 15.3803 7.6779, 15.6812 7.46414, 16.1166 7.17121, 16.4452 6.53785, 16.6589 5.56406 L 16.9202 5.56406, 16.9202 6.32409, 28.2059 6.32409, 28.7957 5.6274, 29.9674 6.83078 C 29.3617 6.87828, 28.578 7.36122, 27.62 8.28751 L 27.426 8.16083, 28.2732 6.70411, 22.9886 6.70411, 22.9886 8.73086, 26.1197 8.73086, 26.7056 8.0975, 27.7506 8.92087, 27.1648 9.36422, 27.1648 12.721 C 27.2083 13.4415, 26.7729 13.9679, 25.8585 14.3044, 25.8585 13.8848, 25.2291 13.4652, 23.9663 13.0377 L 23.9663 12.721 C 24.8807 12.8517, 25.5022 12.915, 25.8268 12.915, 26.1514 12.915, 26.3137 12.7685, 26.3137 12.4677 L 26.3137 9.11087 Z" stroke="none" fill="#000000" />
			<path d="M 41.9484 12.9528 C 41.9637 12.987, 41.9709 13.018, 41.9709 13.0463, 41.9709 13.085, 41.961 13.1138, 41.9413 13.1327, 41.9116 13.1903, 41.8549 13.2191, 41.7708 13.2191 L 30.8012 13.2191 C 30.7225 13.2191, 30.6658 13.1903, 30.6308 13.1327, 30.6114 13.1138, 30.6015 13.085, 30.6015 13.0463, 30.6015 13.018, 30.6092 12.987, 30.6236 12.9528 L 35.8785 2.71106 C 35.9428 2.57252, 36.0566 2.50504, 36.2194 2.50954 L 36.3526 2.50954 C 36.506 2.50999, 36.6198 2.57477, 36.6935 2.70387 L 41.9484 12.9528 Z M 35.8411 4.12173 L 31.7796 12.0315, 39.8954 12.0315 Z" stroke="none" fill="#000000" />
			<path d="M 52.8935 6.28091 C 52.8791 6.34388, 52.8468 6.39786, 52.7973 6.4433, 52.7478 6.48918, 52.6938 6.51167, 52.6344 6.51122, 52.6146 6.52112, 52.5899 6.52606, 52.5602 6.52561, 52.5008 6.52606, 52.4711 6.52112, 52.4711 6.51122, 52.3479 6.51167, 52.2809 6.45904, 52.271 6.35288 L 52.271 6.3025 C 52.3007 6.07758, 52.3254 5.84952, 52.3452 5.61876, 52.365 5.44153, 52.3749 5.27869, 52.3749 5.12934 L 52.3749 5.00699 C 52.365 4.81536, 52.3416 4.64398, 52.3047 4.49284, 52.2678 4.34169, 52.2021 4.21349, 52.1081 4.10733, 51.9201 3.88692, 51.6408 3.75647, 51.2701 3.71553, 50.8994 3.67505, 50.504 3.65436, 50.0839 3.6539 L 48.4902 3.6539 C 48.2284 3.65436, 48.0754 3.6737, 48.0309 3.71148, 48.0061 3.73128, 47.9567 3.87252, 47.8824 4.13612 L 46.963 7.64839, 47.9863 7.64839 C 48.2634 7.64884, 48.5153 7.63714, 48.7425 7.61285, 48.9701 7.58901, 49.1654 7.51704, 49.3282 7.39648, 49.4766 7.27683, 49.5891 7.10904, 49.6656 6.89312, 49.742 6.67721, 49.8176 6.43025, 49.8914 6.15136, 49.9458 6.00786, 50.0398 5.93814, 50.173 5.94264 L 50.2989 5.94264 C 50.4375 5.94309, 50.5067 6.00561, 50.5067 6.12976 L 50.5067 6.18015, 49.5801 9.74279 C 49.5504 9.89213, 49.4541 9.96411, 49.2909 9.95871 L 49.1721 9.95871 C 49.034 9.95916, 48.9647 9.90158, 48.9647 9.78598, 48.9647 9.75764, 48.9724 9.7311, 48.9868 9.70681, 49.0515 9.43871, 49.0983 9.1913, 49.128 8.96549, 49.1379 8.90836, 49.1429 8.85798, 49.1429 8.81434, 49.1429 8.68029, 49.1132 8.57234, 49.0538 8.49047, 48.9701 8.37576, 48.8203 8.30739, 48.6053 8.2858, 48.3903 8.2642, 48.1496 8.25341, 47.8824 8.25296 L 46.815 8.25296, 45.7993 12.1971 C 45.7498 12.3653, 45.7251 12.4903, 45.7251 12.5713 L 45.7251 12.6001 C 45.7449 12.6199, 45.8834 12.6316, 46.1403 12.6361 L 47.8379 12.6361 C 48.2778 12.6365, 48.7043 12.6069, 49.1168 12.5466, 49.5297 12.4867, 49.9139 12.3343, 50.2692 12.0891, 50.4276 11.9744, 50.5787 11.821, 50.7218 11.6289, 50.8653 11.4373, 51.0011 11.225, 51.1298 10.992, 51.2584 10.7594, 51.3803 10.5124, 51.4964 10.2506, 51.6124 9.9893, 51.7276 9.7311, 51.8409 9.47649, 51.8805 9.36179, 51.9673 9.30421, 52.1005 9.30376 L 52.2264 9.30376 C 52.365 9.30421, 52.4343 9.36673, 52.4343 9.49089 L 52.4343 9.54847, 50.9588 13.0607 C 50.9048 13.1759, 50.8158 13.2335, 50.6921 13.2335 L 42.9824 13.2335 C 42.9082 13.2335, 42.8538 13.2119, 42.8192 13.1687, 42.785 13.1354, 42.7679 13.0994, 42.7674 13.0607, 42.7679 13.0324, 42.7728 13.0036, 42.7823 12.9744 L 42.812 12.8664 C 42.8268 12.8043, 42.8614 12.7508, 42.9159 12.7049, 42.9703 12.6595, 43.0319 12.6365, 43.1008 12.6361, 43.3333 12.6365, 43.551 12.6329, 43.7535 12.6257, 43.9559 12.6185, 44.1093 12.5934, 44.2127 12.5497, 44.3018 12.502, 44.3711 12.3725, 44.4206 12.1611 L 46.5037 4.10014 C 46.5334 3.99488, 46.5482 3.91121, 46.5482 3.84823, 46.5482 3.7911, 46.5361 3.75737, 46.5109 3.74747, 46.4416 3.70474, 46.3058 3.67865, 46.1034 3.66875, 45.9009 3.6593, 45.6832 3.65436, 45.4507 3.6539, 45.3126 3.65436, 45.2433 3.58958, 45.2433 3.45958 L 45.2433 3.4092, 45.273 3.28684 C 45.3126 3.12895, 45.4093 3.04978, 45.5622 3.04933 L 53.0717 3.04933 C 53.1954 3.04978, 53.2619 3.10961, 53.2718 3.22927 L 53.2718 3.27965 Z" stroke="none" fill="#000000" />
			<path d="M 1.17944 3.0239 C 1.13259 3.19872, 1.05148 3.35994, 0.936608 3.50756, 0.82174 3.65542, 0.688231 3.78163, 0.53608 3.88642, 0.38393 3.99121, 0.216414 4.07333, 0.0337832 4.13228, -0.148847 4.19148, -0.331478 4.22095, -0.514361 4.22095, -0.638801 4.22095, -0.771555 4.21566, -0.912621 4.20483, -1.05369 4.19425, -1.18191 4.16805, -1.29678 4.12623, -1.41164 4.08467, -1.49805 4.01943, -1.55624 3.93076, -1.60057 3.8771, -1.624 3.80858, -1.62677 3.7252, -1.62677 3.6849, -1.62123 3.63804, -1.61014 3.58414, -1.57966 3.46322, -1.51744 3.37329, -1.42348 3.31409, -1.32927 3.25515, -1.23531 3.22542, -1.1411 3.22542, -1.04412 3.22542, -0.963758 3.25641, -0.900278 3.31812, -0.853172 3.36397, -0.829745 3.42292, -0.829745 3.49546, -0.829745 3.52519, -0.835287 3.55995, -0.84637 3.60026, -0.865515 3.68641, -0.901537 3.75694, -0.954185 3.81186, -1.00683 3.86702, -1.03605 3.89448, -1.0416 3.89448, -1.02497 3.90254, -0.960483 3.91413, -0.848386 3.92874, -0.736288 3.9436, -0.60958 3.95091, -0.468514 3.95091, -0.355157 3.95091, -0.245075 3.92622, -0.138519 3.87634, -0.0319638 3.82672, 0.0670346 3.75745, 0.158224 3.66878, 0.249665 3.5801, 0.330023 3.47934, 0.399044 3.36649, 0.468318 3.25364, 0.519455 3.13423, 0.552706 3.00778 L 0.772618 2.14526 C 0.709139 2.20723, 0.59553 2.28532, 0.432296 2.37928, 0.269062 2.47349, 0.0987746 2.52009, -0.0783142 2.52009, -0.291425 2.52009, -0.474812 2.46744, -0.628473 2.36114, -0.782135 2.25509, -0.900278 2.11856, -0.983406 1.9518, -1.08291 1.75858, -1.13556 1.549, -1.1411 1.32304 L -1.1411 1.27468 C -1.1411 1.06812, -1.11339 0.858531, -1.05822 0.645923, -1.00003 0.409637, -0.910102 0.182168, -0.78818 -0.0369892, -0.666259 -0.255894, -0.507307 -0.460944, -0.310822 -0.651888, -0.150107 -0.812855, 0.031768 -0.94586, 0.235055 -1.05065, 0.438593 -1.15544, 0.645407 -1.20784, 0.855747 -1.20809, 1.03561 -1.20784, 1.18524 -1.15998, 1.30414 -1.06476, 1.42304 -0.969287, 1.49911 -0.889433, 1.53236 -0.825198 L 1.51145 -0.748619 C 1.53664 -0.847869, 1.58703 -0.921677, 1.6631 -0.970043, 1.73918 -1.01841, 1.81601 -1.04259, 1.89359 -1.04284, 1.97395 -1.04259, 2.04045 -1.01715, 2.09285 -0.966264, 2.12887 -0.930998, 2.14676 -0.882632, 2.14676 -0.821167, 2.14676 -0.791443, 2.14399 -0.761718, 2.13844 -0.732497 Z M 1.37467 -0.208536 C 1.36913 -0.259421, 1.36081 -0.309046, 1.34973 -0.357411, 1.33865 -0.405777, 1.3263 -0.454143, 1.3122 -0.50276, 1.26811 -0.628712, 1.20514 -0.732749, 1.12352 -0.81487, 1.0419 -0.896739, 0.938623 -0.937799, 0.814183 -0.938051, 0.698055 -0.937799, 0.583187 -0.895983, 0.469578 -0.812855, 0.356221 -0.729474, 0.252436 -0.624682, 0.158224 -0.49873, 0.0310123 -0.323908, -0.065719 -0.137751, -0.132222 0.0597422, -0.198725 0.257235, -0.260945 0.458003, -0.319135 0.662045, -0.369012 0.871882, -0.411836 1.07618, -0.447858 1.27468, -0.470025 1.37166, -0.481109 1.46562, -0.481109 1.55681, -0.481109 1.65379, -0.470025 1.74649, -0.447858 1.83491, -0.422919 1.95608, -0.375813 2.05684, -0.306791 2.13745, -0.237518 2.21806, -0.144817 2.25836, -0.028689 2.25811, 0.0987746 2.25836, 0.225986 2.21478, 0.35345 2.12737, 0.480913 2.04021, 0.599812 1.93467, 0.710398 1.81073, 0.790756 1.71702, 0.866831 1.61475, 0.938623 1.50441 L 1.37467 -0.208536 Z" stroke="none" fill="#000000" transform="matrix(1.12 0 0 1 55.769 12.8121)" />
			<polyline points="-5.159 -1.5477 5.159 -1.5477" fill="none" stroke="#000000" stroke-width="0.589599967" stroke-linecap="round" stroke-linejoin="round" transform="matrix(1 0 0 1 67.9204 8.80585)" />
			<polyline points="-5.159 1.5477 5.159 1.5477" fill="none" stroke="#000000" stroke-width="0.589599967" stroke-linecap="round" stroke-linejoin="round" transform="matrix(1 0 0 1 67.9204 8.80585)" />
			<path d="M 82.7195 13.174 C 81.8286 13.1458, 80.9615 13.1317, 80.1186 13.1317, 79.2762 13.1317, 78.4091 13.1458, 77.5177 13.174 L 77.5177 12.5674, 78.0194 12.5674 C 78.179 12.5679, 78.3293 12.5657, 78.4695 12.5608, 78.6101 12.5564, 78.7432 12.5445, 78.8693 12.5256, 78.9954 12.507, 79.1043 12.4881, 79.196 12.4687, 79.2736 12.455, 79.3379 12.4118, 79.3886 12.3386, 79.4397 12.2659, 79.4649 12.1848, 79.4649 12.0949 L 79.4649 4.14577 C 79.2229 4.26391, 78.9249 4.3534, 78.5713 4.41423, 78.2178 4.47551, 77.8303 4.50593, 77.4088 4.50549 L 77.4088 3.90595 C 77.9903 3.90639, 78.5268 3.83718, 79.0183 3.69832, 79.5098 3.5599, 79.9348 3.29981, 80.2932 2.91849 L 80.5185 2.91849 C 80.678 2.91893, 80.7578 2.99652, 80.7578 3.15125 L 80.7578 12.0949 C 80.7578 12.1892, 80.7821 12.2716, 80.8306 12.3422, 80.8791 12.4127, 80.9496 12.455, 81.0413 12.4687, 81.1189 12.4881, 81.2185 12.507, 81.3393 12.5256, 81.4605 12.5445, 81.5972 12.5564, 81.7497 12.5608, 81.9022 12.5657, 82.0512 12.5679, 82.1963 12.5674 L 82.7195 12.5674, 82.7195 13.174 Z" stroke="none" fill="#000000" />
			<path d="M 91.1415 8.2649 C 91.1415 8.94246, 91.0943 9.61606, 91 10.2861, 90.9057 10.9562, 90.672 11.5853, 90.2991 12.1724, 90.0328 12.6009, 89.6766 12.9298, 89.2314 13.1599, 88.7861 13.3905, 88.3017 13.5055, 87.7784 13.5055, 87.275 13.5055, 86.7993 13.3905, 86.3514 13.1599, 85.9035 12.9298, 85.546 12.6009, 85.2798 12.1724, 84.9073 11.5853, 84.6736 10.9562, 84.5793 10.2861, 84.4849 9.61606, 84.4373 8.94246, 84.4373 8.2649, 84.4373 7.57897, 84.4849 6.89348, 84.5793 6.2093, 84.6736 5.52513, 84.9073 4.8846, 85.2798 4.28683, 85.546 3.85482, 85.9022 3.51846, 86.3475 3.27865, 86.7931 3.03884, 87.2701 2.91893, 87.7784 2.91849, 88.2968 2.91893, 88.7795 3.03884, 89.2274 3.27865, 89.6753 3.51846, 90.0328 3.85482, 90.2991 4.28683, 90.672 4.8846, 90.9057 5.52513, 91 6.2093, 91.0943 6.89348, 91.1415 7.57897, 91.1415 8.2649 Z M 89.7031 8.01804 C 89.7031 7.72224, 89.7009 7.40969, 89.696 7.08039, 89.6916 6.75153, 89.6793 6.42928, 89.6599 6.11408, 89.6405 5.79933, 89.6057 5.50177, 89.5545 5.22184, 89.5038 4.94235, 89.4421 4.70342, 89.3694 4.50549, 89.2239 4.18632, 89.011 3.92403, 88.7302 3.71948, 88.4493 3.51493, 88.132 3.41266, 87.7784 3.41222, 87.4345 3.41266, 87.1238 3.51626, 86.8452 3.72301, 86.567 3.9302, 86.3549 4.19073, 86.2095 4.50549, 86.1372 4.70342, 86.0755 4.94235, 86.0243 5.22184, 85.9736 5.50177, 85.9384 5.79933, 85.919 6.11408, 85.8996 6.42928, 85.8877 6.75153, 85.8828 7.08039, 85.878 7.40969, 85.8753 7.72224, 85.8753 8.01804, 85.8753 8.34778, 85.878 8.69472, 85.8828 9.05884, 85.8877 9.42341, 85.8996 9.77608, 85.919 10.1168, 85.9384 10.458, 85.9736 10.7812, 86.0243 11.0867, 86.0755 11.3926, 86.1372 11.6487, 86.2095 11.855, 86.3453 12.1989, 86.5551 12.481, 86.8381 12.7019, 87.1211 12.9232, 87.4345 13.0334, 87.7784 13.0329, 88.1368 13.0334, 88.4577 12.9232, 88.7407 12.7019, 89.0242 12.481, 89.2336 12.1989, 89.3694 11.855, 89.4421 11.6487, 89.5038 11.3926, 89.5545 11.0867, 89.6057 10.7812, 89.6405 10.458, 89.6599 10.1168, 89.6793 9.77608, 89.6916 9.42341, 89.696 9.05884, 89.7009 8.69472, 89.7031 8.34778, 89.7031 8.01804 Z" stroke="none" fill="#000000" />
			<path d="M 98.2924 11.4773 C 98.3275 11.5115, 98.3446 11.5475, 98.3446 11.5853, 98.3446 11.6289, 98.3248 11.6771, 98.2852 11.7292, 97.8948 12.2717, 97.3973 12.686, 96.7918 12.9712, 96.1863 13.2564, 95.58 13.399, 94.9722 13.399, 94.5323 13.399, 94.1581 13.2888, 93.8495 13.0684, 93.5409 12.848, 93.2975 12.5767, 93.1194 12.2546, 92.9215 11.8664, 92.818 11.444, 92.8081 10.9879, 92.7982 10.9402, 92.7933 10.8876, 92.7933 10.8296, 92.7933 10.422, 92.8477 10.0046, 92.9561 9.57725, 93.06 9.1841, 93.2305 8.80535, 93.4676 8.44054, 93.7051 8.07617, 94.0065 7.7496, 94.3717 7.46126, 94.7127 7.18326, 95.0861 6.96645, 95.4909 6.81036, 95.8962 6.65472, 96.2965 6.57645, 96.6915 6.57599, 96.9339 6.57645, 97.1616 6.61873, 97.3739 6.7024, 97.5862 6.78652, 97.7616 6.90032, 97.8997 7.04427, 98.0383 7.18821, 98.1345 7.36095, 98.189 7.56202, 98.2088 7.65379, 98.2182 7.75185, 98.2182 7.85711, 98.2182 7.97271, 98.2038 8.09507, 98.1741 8.22417, 98.0806 8.61822, 97.8867 8.9241, 97.5925 9.14227, 97.2983 9.36089, 96.9609 9.52013, 96.5804 9.62089, 96.1998 9.72165, 95.7972 9.78193, 95.3721 9.80082, 94.9475 9.82016, 94.5669 9.82961, 94.2309 9.82916, 94.1275 10.2039, 94.0555 10.5804, 94.0159 10.9591, 93.9961 11.0891, 93.9862 11.2137, 93.9862 11.3334, 93.9862 11.5736, 94.0159 11.8017, 94.0753 12.0171, 94.1495 12.2816, 94.2669 12.4989, 94.4275 12.6689, 94.5881 12.8394, 94.7968 12.9244, 95.0537 12.924, 95.5773 12.9244, 96.0887 12.7904, 96.588 12.5214, 97.0873 12.2528, 97.5021 11.888, 97.8332 11.427, 97.8727 11.3604, 97.9294 11.3194, 98.0036 11.3046 L 98.0405 11.3046 C 98.0999 11.305, 98.1471 11.3217, 98.1813 11.355 L 98.2924 11.4773 Z M 97.4697 8.19538 C 97.4994 8.08067, 97.5142 7.97766, 97.5142 7.8859, 97.5142 7.69427, 97.4576 7.52648, 97.3437 7.38209, 97.176 7.16662, 96.929 7.05866, 96.6029 7.05821, 96.351 7.05866, 96.0977 7.12254, 95.8431 7.24939, 95.5885 7.37669, 95.3627 7.55032, 95.1648 7.77074, 94.9426 8.00645, 94.7685 8.2669, 94.6425 8.55209, 94.5166 8.83774, 94.4163 9.10763, 94.342 9.36134, 94.6632 9.36179, 95.0055 9.34739, 95.3685 9.3186, 95.732 9.28981, 96.0568 9.23493, 96.3433 9.15307, 96.6299 9.07165, 96.8719 8.95289, 97.0698 8.7968, 97.2677 8.64116, 97.4009 8.44054, 97.4697 8.19538 Z" stroke="none" fill="#000000" />
			<path d="M 109.488 3.3948 C 109.459 3.5392, 109.369 3.61117, 109.221 3.61072, 109.063 3.61117, 108.912 3.62916, 108.769 3.66515, 108.626 3.70114, 108.486 3.76231, 108.35 3.84868, 108.214 3.93505, 108.09 4.03941, 107.976 4.16176, 107.863 4.28412, 107.759 4.42221, 107.665 4.57516 L 102.262 13.363 C 102.188 13.4975, 102.074 13.5623, 101.921 13.5573 L 101.78 13.5573 C 101.597 13.5573, 101.508 13.4809, 101.513 13.327 L 100.587 4.13612 C 100.567 4.01197, 100.547 3.91481, 100.527 3.84508, 100.507 3.77581, 100.478 3.72633, 100.439 3.69709, 100.369 3.6593, 100.26 3.63546, 100.109 3.62557, 99.9581 3.61612, 99.7863 3.61117, 99.5933 3.61072, 99.5195 3.61117, 99.4651 3.58733, 99.4305 3.53875, 99.4008 3.51041, 99.3859 3.47442, 99.3859 3.43079, 99.3859 3.40245, 99.3936 3.37591, 99.408 3.35162 L 99.4305 3.24366 C 99.4453 3.18158, 99.4786 3.12895, 99.5303 3.08577, 99.5825 3.04259, 99.6455 3.021, 99.7193 3.02055, 100.194 3.04978, 100.673 3.06418, 101.157 3.06373, 101.232 3.06418, 101.311 3.05923, 101.394 3.04933, 101.968 3.04978, 102.541 3.04034, 103.114 3.02055, 103.183 3.021, 103.245 3.04484, 103.299 3.09252, 103.319 3.1312, 103.329 3.16719, 103.329 3.20048, 103.329 3.22972, 103.321 3.25626, 103.307 3.27965 L 103.285 3.38761 C 103.27 3.45508, 103.234 3.50951, 103.177 3.54999, 103.12 3.59093, 103.06 3.61117, 102.995 3.61072, 102.823 3.61117, 102.664 3.61837, 102.521 3.63276, 102.378 3.64716, 102.237 3.68539, 102.098 3.74747, 102.015 3.7911, 101.975 3.86308, 101.98 3.96339 L 101.98 4.01377 C 102.153 5.29038, 102.291 6.57285, 102.395 7.86116, 102.499 9.14947, 102.61 10.3694, 102.729 11.5205 L 107.101 4.40242 C 107.166 4.30211, 107.205 4.1964, 107.22 4.08574 L 107.22 4.04976 C 107.22 3.97823, 107.203 3.91346, 107.168 3.85543, 107.06 3.69259, 106.857 3.61117, 106.56 3.61072, 106.432 3.61117, 106.368 3.5464, 106.368 3.4164 L 106.368 3.36601, 106.397 3.23646 C 106.452 3.09297, 106.548 3.021, 106.686 3.02055, 107.121 3.04034, 107.558 3.04978, 107.998 3.04933, 108.058 3.05923, 108.114 3.06418, 108.169 3.06373, 108.544 3.06418, 108.93 3.04978, 109.325 3.02055, 109.459 3.021, 109.53 3.08577, 109.54 3.21487 L 109.54 3.27245 Z" stroke="none" fill="#000000" />
			<rect />
		</svg>
	</g>
</svg>
