<?xml version="1.0"?>
<svg xmlns="http://www.w3.org/2000/svg" xmlns:xlink="http://www.w3.org/1999/xlink" width="306.574097" height="216.496094">
	<defs>
		<marker id="CustomMarker-01" markerUnits="strokeWidth" markerWidth="15.000001" markerHeight="9" viewBox="-15 -4.5 15 9" orient="auto-start-reverse">
			<path d="M 0 -0 L -10 -3, -8 -0.5, -8 0.5, -10 3 Z" fill="#000000" stroke="#000000" stroke-linejoin="round" />
		</marker>
		<marker id="CustomMarker-02" markerUnits="strokeWidth" markerWidth="15.000001" markerHeight="9" viewBox="-15 -4.5 15 9" orient="auto-start-reverse">
			<path d="M 0 -0 L -10 -3, -8 -0.5, -8 0.5, -10 3 Z" fill="#000000" stroke="#000000" stroke-linejoin="round" />
		</marker>
		<marker id="CustomMarker-03" markerUnits="strokeWidth" markerWidth="15.000001" markerHeight="9" viewBox="-15 -4.5 15 9" orient="auto-start-reverse">
			<path d="M 0 -0 L -10 -3, -8 -0.5, -8 0.5, -10 3 Z" fill="#000000" stroke="#000000" stroke-linejoin="round" />
		</marker>
		<marker id="CustomMarker-04" markerUnits="strokeWidth" markerWidth="15.000001" markerHeight="9" viewBox="-15 -4.5 15 9" orient="auto-start-reverse">
			<path d="M 0 -0 L -10 -3, -8 -0.5, -8 0.5, -10 3 Z" fill="#000000" stroke="#000000" stroke-linejoin="round" />
		</marker>
		<marker id="CustomMarker-05" markerUnits="strokeWidth" markerWidth="15.000001" markerHeight="9" viewBox="-15 -4.5 15 9" orient="auto-start-reverse">
			<path d="M 0 -0 L -10 -3, -8 -0.5, -8 0.5, -10 3 Z" fill="#000000" stroke="#000000" stroke-linejoin="round" />
		</marker>
		<marker id="CustomMarker-06" markerUnits="strokeWidth" markerWidth="15.000001" markerHeight="9" viewBox="-15 -4.5 15 9" orient="auto-start-reverse">
			<path d="M 0 -0 L -10 -3, -8 -0.5, -8 0.5, -10 3 Z" fill="#000000" stroke="#000000" stroke-linejoin="round" />
		</marker>
		<marker id="CustomMarker-07" markerUnits="strokeWidth" markerWidth="15.000001" markerHeight="9" viewBox="-15 -4.5 15 9" orient="auto-start-reverse">
			<path d="M 0 -0 L -10 -3, -8 -0.5, -8 0.5, -10 3 Z" fill="#000000" stroke="#000000" stroke-linejoin="round" />
		</marker>
		<marker id="CustomMarker-08" markerUnits="strokeWidth" markerWidth="15.000001" markerHeight="9" viewBox="-15 -4.5 15 9" orient="auto-start-reverse">
			<path d="M 0 -0 L -10 -3, -8 -0.5, -8 0.5, -10 3 Z" fill="#000000" stroke="#000000" stroke-linejoin="round" />
		</marker>
		<marker id="CustomMarker-09" markerUnits="strokeWidth" markerWidth="15.000001" markerHeight="9" viewBox="-15 -4.5 15 9" orient="auto-start-reverse">
			<path d="M 0 -0 L -10 -3, -8 -0.5, -8 0.5, -10 3 Z" fill="#000000" stroke="#000000" stroke-linejoin="round" />
		</marker>
		<marker id="CustomMarker-10" markerUnits="strokeWidth" markerWidth="15.000001" markerHeight="9" viewBox="-15 -4.5 15 9" orient="auto-start-reverse">
			<path d="M 0 -0 L -10 -3, -8 -0.5, -8 0.5, -10 3 Z" fill="#000000" stroke="#000000" stroke-linejoin="round" />
		</marker>
	</defs>
	<rect x="-0" y="-0" width="306.574097" height="216.496094" stroke="none" fill="#FFFFFF" />
	<path d="M 0 0 L -113.869 113.869" fill="none" stroke="#000000" stroke-width="3" stroke-linecap="round" stroke-linejoin="round" marker-end="url(#CustomMarker-01)" transform="matrix(0.333333 0 0 0.333333 115.331 34.3852)" />
	<path d="M 0 0 L 0 227.738" fill="none" stroke="#000000" stroke-width="3" stroke-linecap="round" stroke-linejoin="round" marker-end="url(#CustomMarker-02)" transform="matrix(0.333333 0 0 0.333333 77.3742 72.3416)" />
	<path d="M 0 0 L 113.869 113.869" fill="none" stroke="#000000" stroke-width="3" stroke-linecap="round" stroke-linejoin="round" marker-end="url(#CustomMarker-03)" transform="matrix(0.333333 0 0 0.333333 77.3742 148.254)" />
	<path d="M 0 0 L 227.739 0" fill="none" stroke="#000000" stroke-width="3" stroke-linecap="round" stroke-linejoin="round" marker-start="url(#CustomMarker-04)" marker-end="url(#CustomMarker-05)" transform="matrix(0.333333 0 0 0.333333 115.331 34.3852)" />
	<path d="M 0 0 L 113.869 113.869" fill="none" stroke="#000000" stroke-width="3" stroke-linecap="round" stroke-linejoin="round" marker-end="url(#CustomMarker-06)" transform="matrix(0.333333 0 0 0.333333 191.243 34.3852)" />
	<path d="M 0 0 L 0 227.738" fill="none" stroke="#000000" stroke-width="3" stroke-linecap="round" stroke-linejoin="round" marker-end="url(#CustomMarker-07)" transform="matrix(0.333333 0 0 0.333333 229.2 72.3416)" />
	<path d="M 0 0 L -113.869 110.269" fill="none" stroke="#000000" stroke-width="3" stroke-linecap="round" stroke-linejoin="round" marker-end="url(#CustomMarker-08)" transform="matrix(0.333333 0 0 0.333333 229.2 148.254)" />
	<path d="M 0 0 L 227.739 0" fill="none" stroke="#000000" stroke-width="3" stroke-linecap="round" stroke-linejoin="round" marker-start="url(#CustomMarker-09)" marker-end="url(#CustomMarker-10)" transform="matrix(0.333333 0 0 0.333333 115.331 185.011)" />
	<ellipse cx="1015.1307373046875" cy="313.88949584960937" rx="7.875" ry="7.875" stroke="none" fill="#000000" transform="matrix(0.333333 0 0 0.333333 -223.046 -70.4186)" />
	<ellipse cx="901.261474609375" cy="428.28070068359375" rx="7.875" ry="7.875" stroke="none" fill="#000000" transform="matrix(0.333333 0 0 0.333333 -223.046 -70.4186)" />
	<ellipse cx="901.261474609375" cy="656.0191650390625" rx="7.875" ry="7.875" stroke="none" fill="#000000" transform="matrix(0.333333 0 0 0.333333 -223.046 -70.4186)" />
	<ellipse cx="1015.1307373046875" cy="769.888427734375" rx="7.875" ry="7.875" stroke="none" fill="#000000" transform="matrix(0.333333 0 0 0.333333 -223.046 -70.4186)" />
	<ellipse cx="1242.8692626953125" cy="766.2884521484375" rx="7.875" ry="7.875" stroke="none" fill="#000000" transform="matrix(0.333333 0 0 0.333333 -223.046 -70.4186)" />
	<ellipse cx="1356.738525390625" cy="656.0191650390625" rx="7.875" ry="7.875" stroke="none" fill="#000000" transform="matrix(0.333333 0 0 0.333333 -223.046 -70.4186)" />
	<ellipse cx="1356.738525390625" cy="428.28070068359375" rx="7.875" ry="7.875" stroke="none" fill="#000000" transform="matrix(0.333333 0 0 0.333333 -223.046 -70.4186)" />
	<ellipse cx="1242.8692626953125" cy="314.41143798828125" rx="7.875" ry="7.875" stroke="none" fill="#000000" transform="matrix(0.333333 0 0 0.333333 -223.046 -70.4186)" />
	<g transform="matrix(1 0 -0 1 65.7901 8.24999)">
		<svg width="210.06456" height="81.0387039">
			<defs />
			<polyline points="-4.1272 5.159 0 -5.159" fill="none" stroke="#000000" stroke-width="0.589599967" stroke-linecap="round" stroke-linejoin="round" transform="matrix(-1 1.50996e-007 -1.50996e-007 -1 9.0651 8.42103)" />
			<polyline points="0 -5.159 4.1272 5.159" fill="none" stroke="#000000" stroke-width="0.589599967" stroke-linecap="round" stroke-linejoin="round" transform="matrix(-1 1.50996e-007 -1.50996e-007 -1 9.0651 8.42103)" />
			<ellipse cx="-4.1271999478340149" cy="5.15900057554245" rx="0.29479998350143433" ry="0.29479998350143433" stroke="none" fill="#000000" transform="matrix(-1 1.50996e-007 -1.50996e-007 -1 9.0651 8.42103)" />
			<ellipse cx="-0" cy="-5.1590002179145813" rx="0.29479998350143433" ry="0.29479998350143433" stroke="none" fill="#000000" transform="matrix(-1 1.50996e-007 -1.50996e-007 -1 9.0651 8.42103)" />
			<ellipse cx="4.1272000670433044" cy="5.15900057554245" rx="0.29479998350143433" ry="0.29479998350143433" stroke="none" fill="#000000" transform="matrix(-1 1.50996e-007 -1.50996e-007 -1 9.0651 8.42103)" />
			<polyline points="-2.22869 -6.1908 2.22869 -6.1908" fill="none" stroke="#000000" stroke-width="0.589599967" stroke-linecap="round" stroke-linejoin="round" transform="matrix(1 0 0 1 9.0651 13.3737)" />
			<path d="M 22.8688 8.22014 C 22.8148 8.43651, 22.7046 8.59844, 22.5391 8.7064, 22.3736 8.81436, 22.2071 8.86834, 22.0389 8.86789, 21.8662 8.86834, 21.7227 8.81301, 21.6089 8.70235, 21.5252 8.62139, 21.4807 8.51568, 21.4753 8.38568, 21.4753 8.3335, 21.4852 8.26602, 21.5049 8.18415, 21.5594 8.00242, 21.6435 7.86432, 21.7568 7.77076, 21.8707 7.67719, 21.9498 7.62321, 21.9944 7.60837, 21.9008 7.53685, 21.7078 7.50086, 21.4159 7.50041, 21.159 7.50086, 20.9292 7.63401, 20.7267 7.90031, 20.5243 8.16661, 20.3732 8.48689, 20.2742 8.86069 L 19.5923 11.4949 C 19.523 11.7594, 19.4713 12.0113, 19.4366 12.2506, 19.4168 12.3325, 19.4069 12.4044, 19.4069 12.4665, 19.4069 12.6159, 19.4317 12.7571, 19.4812 12.8912, 19.5306 13.0356, 19.6049 13.1507, 19.7038 13.2371, 19.8028 13.3234, 19.9287 13.3666, 20.0817 13.3662, 20.2796 13.3666, 20.4699 13.3154, 20.6525 13.2119, 20.8356 13.1089, 21.0038 12.9699, 21.1568 12.7944, 21.3097 12.6195, 21.4456 12.4157, 21.5643 12.1827, 21.6831 11.9501, 21.7766 11.7113, 21.8459 11.4661, 21.8756 11.342, 21.9597 11.2794, 22.0978 11.279 L 22.2683 11.279 C 22.397 11.2794, 22.4613 11.3276, 22.4613 11.4229, 22.4613 11.4522, 22.4541 11.4787, 22.4392 11.5021, 22.37 11.7904, 22.2575 12.0747, 22.1019 12.3554, 21.9462 12.6361, 21.7649 12.8844, 21.5571 13.1003, 21.3493 13.3163, 21.1136 13.4939, 20.8491 13.6325, 20.5846 13.7719, 20.3017 13.8412, 20.0003 13.8412, 19.6939 13.8412, 19.4294 13.7755, 19.2072 13.6433, 18.985 13.5119, 18.8042 13.3401, 18.6656 13.1287, 18.6215 13.0765, 18.5869 13.0225, 18.5622 12.9672, 18.5374 12.9123, 18.5298 12.9038, 18.5397 12.9415, 18.4214 13.1386, 18.2338 13.3378, 17.9765 13.5394, 17.7196 13.7409, 17.4232 13.8412, 17.0867 13.8412, 16.8991 13.8412, 16.7138 13.8174, 16.5307 13.7692, 16.3481 13.7215, 16.1884 13.6473, 16.0526 13.5466, 15.9167 13.4458, 15.8142 13.3234, 15.7449 13.1791, 15.7107 13.0931, 15.6936 12.9996, 15.6932 12.8984, 15.6936 12.8268, 15.7035 12.7427, 15.7228 12.6465, 15.7773 12.431, 15.8884 12.269, 16.0566 12.1611, 16.2248 12.0531, 16.3926 11.9992, 16.5604 11.9987, 16.7336 11.9992, 16.882 12.0545, 17.0053 12.1642, 17.0894 12.2461, 17.1313 12.3518, 17.1313 12.4809, 17.1313 12.5484, 17.1214 12.6159, 17.1016 12.6824, 17.0575 12.8507, 16.977 12.9865, 16.8609 13.0895, 16.7449 13.193, 16.6616 13.2492, 16.6122 13.2582, 16.7062 13.3356, 16.8964 13.3716, 17.183 13.3662, 17.4403 13.3666, 17.6724 13.2326, 17.8798 12.9636, 18.0876 12.695, 18.2383 12.3734, 18.3323 11.9987 L 19.0214 9.35011 C 19.0907 9.1009, 19.1451 8.8562, 19.1847 8.61599, 19.1946 8.53952, 19.1996 8.46754, 19.1996 8.40007, 19.1996 8.25163, 19.1775 8.11263, 19.1325 7.98263, 19.0835 7.83913, 19.007 7.72308, 18.9031 7.63401, 18.7992 7.54539, 18.6706 7.50086, 18.5176 7.50041, 18.3197 7.50086, 18.1281 7.55259, 17.9427 7.6556, 17.7574 7.75906, 17.5883 7.89671, 17.4353 8.06945, 17.2824 8.24218, 17.1465 8.4428, 17.0278 8.67042, 16.909 8.89848, 16.8227 9.13959, 16.7678 9.39329, 16.7138 9.52329, 16.6225 9.59032, 16.4938 9.59482 L 16.3306 9.59482 C 16.2123 9.59527, 16.1529 9.53544, 16.1529 9.41488 L 16.1529 9.3645 C 16.2271 9.06762, 16.3409 8.77838, 16.4938 8.49768, 16.6468 8.21699, 16.8299 7.96868, 17.0422 7.75277, 17.255 7.53685, 17.4925 7.36051, 17.7543 7.22377, 18.0161 7.08702, 18.3004 7.01864, 18.6062 7.01819, 18.9031 7.01864, 19.1649 7.08342, 19.3921 7.21297, 19.6197 7.34252, 19.805 7.51526, 19.9481 7.73072, 19.9778 7.7838, 20.0052 7.84048, 20.03 7.90031, 20.0547 7.96059, 20.0619 7.97588, 20.052 7.94664, 20.1757 7.73612, 20.366 7.52875, 20.6228 7.32453, 20.8801 7.12076, 21.1739 7.01864, 21.5049 7.01819, 21.693 7.01864, 21.8792 7.04159, 22.0645 7.08702, 22.2499 7.1329, 22.4109 7.20577, 22.5467 7.30654, 22.6826 7.4073, 22.7829 7.5319, 22.8468 7.68034, 22.8814 7.76716, 22.8985 7.86567, 22.8985 7.97543, 22.8985 8.04785, 22.8886 8.12927, 22.8688 8.22014 Z" stroke="none" fill="#000000" />
			<path d="M 1.21527 7.03705 C -3.58997 3.87038, -3.58997 -3.87038, 1.21527 -7.03705 L 1.96995 -7.03705 C -2.36361 -3.87038, -2.36361 3.87038, 1.96995 7.03705" stroke="none" fill="#000000" transform="matrix(1 0 -0 1 2.211 9.24805)" />
			<path d="M 1.21527 7.03705 C -3.58997 3.87038, -3.58997 -3.87038, 1.21527 -7.03705 L 1.96995 -7.03705 C -2.36361 -3.87038, -2.36361 3.87038, 1.96995 7.03705" stroke="none" fill="#000000" transform="matrix(-1 1.50996e-007 -1.50996e-007 -1 25.6304 9.24805)" />
			<polyline points="-4.1272 5.159 0 -5.159" fill="none" stroke="#000000" stroke-width="0.589599967" stroke-linecap="round" stroke-linejoin="round" transform="matrix(-1 1.50996e-007 -1.50996e-007 -1 42.8025 8.42103)" />
			<polyline points="0 -5.159 4.1272 5.159" fill="none" stroke="#000000" stroke-width="0.589599967" stroke-linecap="round" stroke-linejoin="round" transform="matrix(-1 1.50996e-007 -1.50996e-007 -1 42.8025 8.42103)" />
			<ellipse cx="-4.1271999478340149" cy="5.15900057554245" rx="0.29479998350143433" ry="0.29479998350143433" stroke="none" fill="#000000" transform="matrix(-1 1.50996e-007 -1.50996e-007 -1 42.8025 8.42103)" />
			<ellipse cx="-0" cy="-5.1590002179145813" rx="0.29479998350143433" ry="0.29479998350143433" stroke="none" fill="#000000" transform="matrix(-1 1.50996e-007 -1.50996e-007 -1 42.8025 8.42103)" />
			<ellipse cx="4.1272000670433044" cy="5.15900057554245" rx="0.29479998350143433" ry="0.29479998350143433" stroke="none" fill="#000000" transform="matrix(-1 1.50996e-007 -1.50996e-007 -1 42.8025 8.42103)" />
			<polyline points="-2.22869 -6.1908 2.22869 -6.1908" fill="none" stroke="#000000" stroke-width="0.589599967" stroke-linecap="round" stroke-linejoin="round" transform="matrix(1 0 0 1 42.8025 13.3737)" />
			<path d="M 54.6053 13.6181 C 54.5019 14.0211, 54.3386 14.4062, 54.1164 14.7732, 53.8942 15.1403, 53.6319 15.4669, 53.3305 15.7521, 53.0291 16.0377, 52.6909 16.2694, 52.3153 16.4466, 51.9397 16.6243, 51.5492 16.7129, 51.1439 16.7129, 50.9019 16.7129, 50.6797 16.6688, 50.4773 16.5798, 50.2748 16.4911, 50.1093 16.371, 49.9807 16.2199, 49.852 16.0688, 49.7656 15.8902, 49.7211 15.6837, 49.7013 15.5928, 49.6914 15.4993, 49.6914 15.403, 49.6914 15.2784, 49.7063 15.1511, 49.7359 15.0216, 49.7904 14.8056, 49.9015 14.6437, 50.0693 14.5357, 50.2375 14.4278, 50.403 14.3738, 50.5659 14.3738, 50.7391 14.3738, 50.8848 14.4291, 51.0031 14.5393, 51.0872 14.6212, 51.1291 14.7265, 51.1291 14.856, 51.1291 14.9091, 51.1192 14.9739, 51.0994 15.0503, 51.0454 15.2663, 50.9343 15.4282, 50.7661 15.5362, 50.5983 15.6441, 50.4647 15.6981, 50.3657 15.6981, 50.3954 15.8276, 50.4881 15.9491, 50.6437 16.0616, 50.7993 16.1745, 50.9986 16.2307, 51.2406 16.2307, 51.5074 16.2307, 51.757 16.1587, 51.9891 16.0148, 52.2213 15.8708, 52.434 15.6779, 52.6265 15.4354, 52.8191 15.1934, 52.9882 14.9127, 53.134 14.5933, 53.2797 14.2744, 53.3971 13.9397, 53.4862 13.5893 L 53.5307 13.4166 C 53.4569 13.484, 53.3013 13.5718, 53.0638 13.6793, 52.8267 13.7872, 52.5672 13.8412, 52.2856 13.8412, 51.9496 13.8412, 51.6495 13.7791, 51.385 13.6541, 51.1205 13.5299, 50.9118 13.3378, 50.7589 13.0783, 50.6104 12.8003, 50.5389 12.4935, 50.5438 12.157 L 50.5438 12.0995 C 50.5537 11.7495, 50.5983 11.4018, 50.677 11.0559, 50.7562 10.7252, 50.8713 10.3609, 51.022 9.96233, 51.1727 9.56423, 51.3171 9.17782, 51.4552 8.80312, 51.6036 8.40547, 51.6779 8.07889, 51.6779 7.82429, 51.6779 7.60882, 51.5865 7.50086, 51.4035 7.50041, 51.2357 7.50086, 51.0836 7.54899, 50.9478 7.64481, 50.8119 7.74107, 50.6887 7.87422, 50.5771 8.04425, 50.466 8.21474, 50.3662 8.41626, 50.2771 8.64882, 50.188 8.88184, 50.1138 9.12969, 50.0544 9.39329, 50.0004 9.52329, 49.9091 9.59032, 49.7805 9.59482 L 49.61 9.59482 C 49.4912 9.59527, 49.4319 9.53544, 49.4319 9.41488 L 49.4319 9.3645 C 49.5011 9.1009, 49.5929 8.83146, 49.7063 8.55526, 49.8201 8.27952, 49.9636 8.02896, 50.1363 7.80315, 50.309 7.57778, 50.507 7.39065, 50.7292 7.24176, 50.9514 7.09332, 51.206 7.01864, 51.4925 7.01819, 51.7399 7.01864, 51.9509 7.07172, 52.1263 7.17698, 52.3018 7.28269, 52.4349 7.42304, 52.5262 7.59802, 52.618 7.77346, 52.6684 7.97093, 52.6783 8.19135 L 52.6783 8.24173 C 52.6783 8.44865, 52.6364 8.66187, 52.5523 8.88229, 52.4093 9.25699, 52.2671 9.6398, 52.1263 10.0307, 51.9855 10.4221, 51.8758 10.7734, 51.7966 11.0851, 51.7174 11.3973, 51.663 11.7063, 51.6333 12.0131, 51.6135 12.095, 51.6014 12.184, 51.596 12.2794, 51.596 12.467, 51.6284 12.6519, 51.6927 12.8336, 51.7372 12.9973, 51.8187 13.1269, 51.9374 13.2227, 52.0562 13.319, 52.197 13.3666, 52.3598 13.3662, 52.676 13.3666, 52.9527 13.2731, 53.1897 13.0859, 53.4272 12.8988, 53.6346 12.6541, 53.8123 12.3514 L 55.0057 7.70913 C 55.0502 7.5319, 55.1402 7.40145, 55.276 7.31733, 55.4119 7.23366, 55.5491 7.19138, 55.6872 7.19093, 55.8307 7.19138, 55.9494 7.23456, 56.043 7.32048, 56.1078 7.38346, 56.1397 7.46712, 56.1397 7.57238, 56.1397 7.62546, 56.1348 7.68079, 56.1249 7.73792 Z" stroke="none" fill="#000000" />
			<path d="M 1.21527 7.03705 C -3.58997 3.87038, -3.58997 -3.87038, 1.21527 -7.03705 L 1.96995 -7.03705 C -2.36361 -3.87038, -2.36361 3.87038, 1.96995 7.03705" stroke="none" fill="#000000" transform="matrix(1 0 -0 1 35.9484 9.24805)" />
			<path d="M 1.21527 7.03705 C -3.58997 3.87038, -3.58997 -3.87038, 1.21527 -7.03705 L 1.96995 -7.03705 C -2.36361 -3.87038, -2.36361 3.87038, 1.96995 7.03705" stroke="none" fill="#000000" transform="matrix(-1 1.50996e-007 -1.50996e-007 -1 58.8702 9.24805)" />
			<rect />
		</svg>
	</g>
	<g transform="matrix(1 0 -0 1 182.289 8.24999)">
		<svg width="210.06456" height="81.0387039">
			<defs />
			<polyline points="-4.1272 5.159 0 -5.159" fill="none" stroke="#000000" stroke-width="0.589599967" stroke-linecap="round" stroke-linejoin="round" transform="matrix(-1 1.50996e-007 -1.50996e-007 -1 9.0651 8.42103)" />
			<polyline points="0 -5.159 4.1272 5.159" fill="none" stroke="#000000" stroke-width="0.589599967" stroke-linecap="round" stroke-linejoin="round" transform="matrix(-1 1.50996e-007 -1.50996e-007 -1 9.0651 8.42103)" />
			<ellipse cx="-4.1271999478340149" cy="5.15900057554245" rx="0.29479998350143433" ry="0.29479998350143433" stroke="none" fill="#000000" transform="matrix(-1 1.50996e-007 -1.50996e-007 -1 9.0651 8.42103)" />
			<ellipse cx="-0" cy="-5.1590002179145813" rx="0.29479998350143433" ry="0.29479998350143433" stroke="none" fill="#000000" transform="matrix(-1 1.50996e-007 -1.50996e-007 -1 9.0651 8.42103)" />
			<ellipse cx="4.1272000670433044" cy="5.15900057554245" rx="0.29479998350143433" ry="0.29479998350143433" stroke="none" fill="#000000" transform="matrix(-1 1.50996e-007 -1.50996e-007 -1 9.0651 8.42103)" />
			<polyline points="-2.22869 -6.1908 2.22869 -6.1908" fill="none" stroke="#000000" stroke-width="0.589599967" stroke-linecap="round" stroke-linejoin="round" transform="matrix(1 0 0 1 9.0651 13.3737)" />
			<path d="M 20.8741 13.6181 C 20.7706 14.0211, 20.6073 14.4062, 20.3851 14.7732, 20.1629 15.1403, 19.9006 15.4669, 19.5992 15.7521, 19.2979 16.0377, 18.9596 16.2694, 18.584 16.4466, 18.2084 16.6243, 17.8179 16.7129, 17.4122 16.7129, 17.1702 16.7129, 16.948 16.6688, 16.7451 16.5798, 16.5427 16.4911, 16.3771 16.371, 16.2485 16.2199, 16.1198 16.0688, 16.0334 15.8902, 15.9889 15.6837, 15.9691 15.5928, 15.9592 15.4993, 15.9592 15.403, 15.9592 15.2784, 15.9741 15.1511, 16.0038 15.0216, 16.0582 14.8056, 16.1693 14.6437, 16.3375 14.5357, 16.5058 14.4278, 16.6713 14.3738, 16.8341 14.3738, 17.0073 14.3738, 17.1531 14.4291, 17.2714 14.5393, 17.3555 14.6212, 17.3973 14.7265, 17.3973 14.856, 17.3973 14.9091, 17.3874 14.9739, 17.3676 15.0503, 17.3137 15.2663, 17.2026 15.4282, 17.0343 15.5362, 16.8661 15.6441, 16.7329 15.6981, 16.634 15.6981, 16.6637 15.8276, 16.7563 15.9491, 16.912 16.0616, 17.0676 16.1745, 17.2664 16.2307, 17.5084 16.2307, 17.7756 16.2307, 18.0253 16.1587, 18.2574 16.0148, 18.49 15.8708, 18.7027 15.6779, 18.8953 15.4354, 19.0878 15.1934, 19.2569 14.9127, 19.4027 14.5933, 19.5484 14.2744, 19.6658 13.9397, 19.7549 13.5893 L 19.7994 13.4166 C 19.7256 13.484, 19.57 13.5718, 19.3325 13.6793, 19.0954 13.7872, 18.8359 13.8412, 18.5538 13.8412, 18.2183 13.8412, 17.9178 13.7791, 17.6533 13.6541, 17.3888 13.5299, 17.1801 13.3378, 17.0267 13.0783, 16.8787 12.8003, 16.8072 12.4935, 16.8117 12.157 L 16.8117 12.0995 C 16.8215 11.7495, 16.8661 11.4018, 16.9453 11.0559, 17.0244 10.7252, 17.1396 10.3609, 17.2903 9.96233, 17.441 9.56423, 17.5854 9.17782, 17.7235 8.80312, 17.8719 8.40547, 17.9461 8.07889, 17.9461 7.82429, 17.9461 7.60882, 17.8548 7.50086, 17.6717 7.50041, 17.5039 7.50086, 17.3519 7.54899, 17.216 7.64481, 17.0802 7.74107, 16.9565 7.87422, 16.8454 8.04425, 16.7343 8.21474, 16.634 8.41626, 16.5449 8.64882, 16.4558 8.88184, 16.3821 9.12969, 16.3227 9.39329, 16.2683 9.52329, 16.1769 9.59032, 16.0483 9.59482 L 15.8778 9.59482 C 15.7591 9.59527, 15.6997 9.53544, 15.6997 9.41488 L 15.6997 9.3645 C 15.7689 9.1009, 15.8607 8.83146, 15.9741 8.55526, 16.0879 8.27952, 16.2314 8.02896, 16.4041 7.80315, 16.5773 7.57778, 16.7752 7.39065, 16.9974 7.24176, 17.2196 7.09332, 17.4742 7.01864, 17.7608 7.01819, 18.0082 7.01864, 18.2192 7.07172, 18.3946 7.17698, 18.57 7.28269, 18.7036 7.42304, 18.7949 7.59802, 18.8867 7.77346, 18.9371 7.97093, 18.947 8.19135 L 18.947 8.24173 C 18.947 8.44865, 18.9052 8.66187, 18.8206 8.88229, 18.6775 9.25699, 18.5358 9.6398, 18.3946 10.0307, 18.2538 10.4221, 18.144 10.7734, 18.0649 11.0851, 17.9857 11.3973, 17.9313 11.7063, 17.9016 12.0131, 17.8818 12.095, 17.8696 12.184, 17.8647 12.2794, 17.8647 12.467, 17.8971 12.6519, 17.961 12.8336, 18.0055 12.9973, 18.0869 13.1269, 18.2057 13.2227, 18.3244 13.319, 18.4652 13.3666, 18.6281 13.3662, 18.9447 13.3666, 19.2214 13.2731, 19.4584 13.0859, 19.696 12.8988, 19.9033 12.6541, 20.081 12.3514 L 21.2744 7.70913 C 21.3194 7.5319, 21.4094 7.40145, 21.5452 7.31733, 21.6811 7.23366, 21.8182 7.19138, 21.9563 7.19093, 22.0998 7.19138, 22.2186 7.23456, 22.3126 7.32048, 22.3769 7.38346, 22.4089 7.46712, 22.4089 7.57238, 22.4089 7.62546, 22.4039 7.68079, 22.394 7.73792 Z" stroke="none" fill="#000000" />
			<path d="M 1.21527 7.03705 C -3.58997 3.87038, -3.58997 -3.87038, 1.21527 -7.03705 L 1.96995 -7.03705 C -2.36361 -3.87038, -2.36361 3.87038, 1.96995 7.03705" stroke="none" fill="#000000" transform="matrix(1 0 -0 1 2.211 9.24805)" />
			<path d="M 1.21527 7.03705 C -3.58997 3.87038, -3.58997 -3.87038, 1.21527 -7.03705 L 1.96995 -7.03705 C -2.36361 -3.87038, -2.36361 3.87038, 1.96995 7.03705" stroke="none" fill="#000000" transform="matrix(-1 1.50996e-007 -1.50996e-007 -1 25.1342 9.24805)" />
			<polyline points="-4.1272 5.159 0 -5.159" fill="none" stroke="#000000" stroke-width="0.589599967" stroke-linecap="round" stroke-linejoin="round" transform="matrix(-1 1.50996e-007 -1.50996e-007 -1 42.3063 8.42103)" />
			<polyline points="0 -5.159 4.1272 5.159" fill="none" stroke="#000000" stroke-width="0.589599967" stroke-linecap="round" stroke-linejoin="round" transform="matrix(-1 1.50996e-007 -1.50996e-007 -1 42.3063 8.42103)" />
			<ellipse cx="-4.1271999478340149" cy="5.15900057554245" rx="0.29479998350143433" ry="0.29479998350143433" stroke="none" fill="#000000" transform="matrix(-1 1.50996e-007 -1.50996e-007 -1 42.3063 8.42103)" />
			<ellipse cx="-0" cy="-5.1590002179145813" rx="0.29479998350143433" ry="0.29479998350143433" stroke="none" fill="#000000" transform="matrix(-1 1.50996e-007 -1.50996e-007 -1 42.3063 8.42103)" />
			<ellipse cx="4.1272000670433044" cy="5.15900057554245" rx="0.29479998350143433" ry="0.29479998350143433" stroke="none" fill="#000000" transform="matrix(-1 1.50996e-007 -1.50996e-007 -1 42.3063 8.42103)" />
			<polyline points="-2.22869 -6.1908 2.22869 -6.1908" fill="none" stroke="#000000" stroke-width="0.589599967" stroke-linecap="round" stroke-linejoin="round" transform="matrix(1 0 0 1 42.3063 13.3737)" />
			<path d="M 56.11 8.22014 C 56.056 8.43651, 55.9458 8.59844, 55.7803 8.7064, 55.6148 8.81436, 55.4483 8.86834, 55.2801 8.86789, 55.1074 8.86834, 54.9639 8.81301, 54.8501 8.70235, 54.7664 8.62139, 54.7219 8.51568, 54.7165 8.38568, 54.7165 8.3335, 54.7264 8.26602, 54.7461 8.18415, 54.8006 8.00242, 54.8847 7.86432, 54.9981 7.77076, 55.1119 7.67719, 55.191 7.62321, 55.2356 7.60837, 55.142 7.53685, 54.949 7.50086, 54.6571 7.50041, 54.4002 7.50086, 54.1704 7.63401, 53.9679 7.90031, 53.7655 8.16661, 53.6144 8.48689, 53.5154 8.86069 L 52.8335 11.4949 C 52.7642 11.7594, 52.7125 12.0113, 52.6778 12.2506, 52.658 12.3325, 52.6481 12.4044, 52.6481 12.4665, 52.6481 12.6159, 52.6729 12.7571, 52.7224 12.8912, 52.7718 13.0356, 52.8461 13.1507, 52.945 13.2371, 53.044 13.3234, 53.1699 13.3666, 53.3229 13.3662, 53.5208 13.3666, 53.7111 13.3154, 53.8937 13.2119, 54.0768 13.1089, 54.245 12.9699, 54.398 12.7944, 54.5509 12.6195, 54.6868 12.4157, 54.8055 12.1827, 54.9243 11.9501, 55.0178 11.7113, 55.0871 11.4661, 55.1168 11.342, 55.2009 11.2794, 55.339 11.279 L 55.5095 11.279 C 55.6382 11.2794, 55.7025 11.3276, 55.7025 11.4229, 55.7025 11.4522, 55.6953 11.4787, 55.6804 11.5021, 55.6112 11.7904, 55.4987 12.0747, 55.3431 12.3554, 55.1874 12.6361, 55.0061 12.8844, 54.7983 13.1003, 54.5905 13.3163, 54.3548 13.4939, 54.0903 13.6325, 53.8258 13.7719, 53.5429 13.8412, 53.2415 13.8412, 52.9351 13.8412, 52.6706 13.7755, 52.4484 13.6433, 52.2262 13.5119, 52.0454 13.3401, 51.9068 13.1287, 51.8627 13.0765, 51.8281 13.0225, 51.8034 12.9672, 51.7786 12.9123, 51.771 12.9038, 51.7809 12.9415, 51.6626 13.1386, 51.475 13.3378, 51.2177 13.5394, 50.9608 13.7409, 50.6644 13.8412, 50.3279 13.8412, 50.1403 13.8412, 49.955 13.8174, 49.7719 13.7692, 49.5893 13.7215, 49.4296 13.6473, 49.2938 13.5466, 49.1579 13.4458, 49.0554 13.3234, 48.9861 13.1791, 48.9519 13.0931, 48.9348 12.9996, 48.9344 12.8984, 48.9348 12.8268, 48.9447 12.7427, 48.964 12.6465, 49.0185 12.431, 49.1296 12.269, 49.2978 12.1611, 49.4661 12.0531, 49.6338 11.9992, 49.8016 11.9987, 49.9748 11.9992, 50.1233 12.0545, 50.2465 12.1642, 50.3306 12.2461, 50.3725 12.3518, 50.3725 12.4809, 50.3725 12.5484, 50.3626 12.6159, 50.3428 12.6824, 50.2987 12.8507, 50.2182 12.9865, 50.1021 13.0895, 49.9861 13.193, 49.9028 13.2492, 49.8534 13.2582, 49.9474 13.3356, 50.1376 13.3716, 50.4242 13.3662, 50.6815 13.3666, 50.9136 13.2326, 51.121 12.9636, 51.3288 12.695, 51.4795 12.3734, 51.5735 11.9987 L 52.2626 9.35011 C 52.3319 9.1009, 52.3863 8.8562, 52.4259 8.61599, 52.4358 8.53952, 52.4408 8.46754, 52.4408 8.40007, 52.4408 8.25163, 52.4187 8.11263, 52.3737 7.98263, 52.3247 7.83913, 52.2482 7.72308, 52.1443 7.63401, 52.0404 7.54539, 51.9118 7.50086, 51.7588 7.50041, 51.5609 7.50086, 51.3693 7.55259, 51.1839 7.6556, 50.9986 7.75906, 50.8295 7.89671, 50.6765 8.06945, 50.5236 8.24218, 50.3878 8.4428, 50.269 8.67042, 50.1502 8.89848, 50.0639 9.13959, 50.009 9.39329, 49.955 9.52329, 49.8637 9.59032, 49.7351 9.59482 L 49.5718 9.59482 C 49.4535 9.59527, 49.3941 9.53544, 49.3941 9.41488 L 49.3941 9.3645 C 49.4683 9.06762, 49.5821 8.77838, 49.7351 8.49768, 49.888 8.21699, 50.0711 7.96868, 50.2834 7.75277, 50.4962 7.53685, 50.7337 7.36051, 50.9955 7.22377, 51.2573 7.08702, 51.5416 7.01864, 51.8474 7.01819, 52.1443 7.01864, 52.4061 7.08342, 52.6333 7.21297, 52.8609 7.34252, 53.0462 7.51526, 53.1893 7.73072, 53.219 7.7838, 53.2464 7.84048, 53.2712 7.90031, 53.2959 7.96059, 53.3031 7.97588, 53.2932 7.94664, 53.4169 7.73612, 53.6072 7.52875, 53.864 7.32453, 54.1213 7.12076, 54.4151 7.01864, 54.7461 7.01819, 54.9342 7.01864, 55.1204 7.04159, 55.3057 7.08702, 55.4911 7.1329, 55.6521 7.20577, 55.788 7.30654, 55.9238 7.4073, 56.0241 7.5319, 56.088 7.68034, 56.1226 7.76716, 56.1397 7.86567, 56.1397 7.97543, 56.1397 8.04785, 56.1298 8.12927, 56.11 8.22014 Z" stroke="none" fill="#000000" />
			<path d="M 1.21527 7.03705 C -3.58997 3.87038, -3.58997 -3.87038, 1.21527 -7.03705 L 1.96995 -7.03705 C -2.36361 -3.87038, -2.36361 3.87038, 1.96995 7.03705" stroke="none" fill="#000000" transform="matrix(1 0 -0 1 35.4522 9.24805)" />
			<path d="M 1.21527 7.03705 C -3.58997 3.87038, -3.58997 -3.87038, 1.21527 -7.03705 L 1.96995 -7.03705 C -2.36361 -3.87038, -2.36361 3.87038, 1.96995 7.03705" stroke="none" fill="#000000" transform="matrix(-1 1.50996e-007 -1.50996e-007 -1 58.8716 9.24805)" />
			<rect />
		</svg>
	</g>
	<g transform="matrix(1 0 -0 1 8.24999 63.0936)">
		<svg width="219.073792" height="102.081261">
			<defs />
			<polyline points="-3.79186 -7.11942 3.79186 -7.11942" fill="none" stroke="#000000" stroke-width="0.589599967" stroke-linecap="round" stroke-linejoin="round" transform="matrix(1 0 0 1 8.80715 13.3737)" />
			<polyline points="-3.79186 -3.55971 3.79186 -3.55971" fill="none" stroke="#000000" stroke-width="0.589599967" stroke-linecap="round" stroke-linejoin="round" transform="matrix(1 0 0 1 8.80715 13.3737)" />
			<polyline points="-3.79186 0 3.79186 0" fill="none" stroke="#000000" stroke-width="0.589599967" stroke-linecap="round" stroke-linejoin="round" transform="matrix(1 0 0 1 8.80715 13.3737)" />
			<polyline points="3.79186 -7.11942 3.79186 0" fill="none" stroke="#000000" stroke-width="0.589599967" stroke-linecap="round" stroke-linejoin="round" transform="matrix(1 0 0 1 8.80715 13.3737)" />
			<path d="M 22.127 13.6181 C 22.0235 14.0211, 21.8602 14.4062, 21.638 14.7732, 21.4158 15.1403, 21.1535 15.4669, 20.8521 15.7521, 20.5508 16.0377, 20.2125 16.2694, 19.8369 16.4466, 19.4613 16.6243, 19.0708 16.7129, 18.6651 16.7129, 18.4231 16.7129, 18.2008 16.6688, 17.998 16.5798, 17.7956 16.4911, 17.63 16.371, 17.5014 16.2199, 17.3727 16.0688, 17.2863 15.8902, 17.2418 15.6837, 17.222 15.5928, 17.2121 15.4993, 17.2121 15.403, 17.2121 15.2784, 17.227 15.1511, 17.2567 15.0216, 17.3111 14.8056, 17.4222 14.6437, 17.5904 14.5357, 17.7587 14.4278, 17.9242 14.3738, 18.087 14.3738, 18.2602 14.3738, 18.406 14.4291, 18.5243 14.5393, 18.6084 14.6212, 18.6502 14.7265, 18.6502 14.856, 18.6502 14.9091, 18.6403 14.9739, 18.6205 15.0503, 18.5666 15.2663, 18.4555 15.4282, 18.2872 15.5362, 18.119 15.6441, 17.9858 15.6981, 17.8869 15.6981, 17.9166 15.8276, 18.0092 15.9491, 18.1649 16.0616, 18.3205 16.1745, 18.5193 16.2307, 18.7613 16.2307, 19.0285 16.2307, 19.2782 16.1587, 19.5103 16.0148, 19.7429 15.8708, 19.9556 15.6779, 20.1482 15.4354, 20.3407 15.1934, 20.5098 14.9127, 20.6556 14.5933, 20.8013 14.2744, 20.9187 13.9397, 21.0078 13.5893 L 21.0523 13.4166 C 20.9785 13.484, 20.8229 13.5718, 20.5854 13.6793, 20.3483 13.7872, 20.0888 13.8412, 19.8067 13.8412, 19.4712 13.8412, 19.1707 13.7791, 18.9062 13.6541, 18.6417 13.5299, 18.433 13.3378, 18.2796 13.0783, 18.1316 12.8003, 18.0601 12.4935, 18.0646 12.157 L 18.0646 12.0995 C 18.0744 11.7495, 18.119 11.4018, 18.1982 11.0559, 18.2773 10.7252, 18.3925 10.3609, 18.5432 9.96233, 18.6939 9.56423, 18.8383 9.17782, 18.9764 8.80312, 19.1248 8.40547, 19.199 8.07889, 19.199 7.82429, 19.199 7.60882, 19.1077 7.50086, 18.9246 7.50041, 18.7568 7.50086, 18.6048 7.54899, 18.4689 7.64481, 18.3331 7.74107, 18.2094 7.87422, 18.0983 8.04425, 17.9872 8.21474, 17.8869 8.41626, 17.7978 8.64882, 17.7087 8.88184, 17.635 9.12969, 17.5756 9.39329, 17.5212 9.52329, 17.4298 9.59032, 17.3012 9.59482 L 17.1307 9.59482 C 17.012 9.59527, 16.9526 9.53544, 16.9526 9.41488 L 16.9526 9.3645 C 17.0218 9.1009, 17.1136 8.83146, 17.227 8.55526, 17.3408 8.27952, 17.4843 8.02896, 17.657 7.80315, 17.8302 7.57778, 18.0281 7.39065, 18.2503 7.24176, 18.4725 7.09332, 18.7271 7.01864, 19.0137 7.01819, 19.2611 7.01864, 19.4721 7.07172, 19.6475 7.17698, 19.8229 7.28269, 19.9565 7.42304, 20.0478 7.59802, 20.1396 7.77346, 20.19 7.97093, 20.1999 8.19135 L 20.1999 8.24173 C 20.1999 8.44865, 20.1581 8.66187, 20.0735 8.88229, 19.9304 9.25699, 19.7887 9.6398, 19.6475 10.0307, 19.5067 10.4221, 19.3969 10.7734, 19.3178 11.0851, 19.2386 11.3973, 19.1842 11.7063, 19.1545 12.0131, 19.1347 12.095, 19.1225 12.184, 19.1176 12.2794, 19.1176 12.467, 19.15 12.6519, 19.2139 12.8336, 19.2584 12.9973, 19.3398 13.1269, 19.4586 13.2227, 19.5773 13.319, 19.7181 13.3666, 19.881 13.3662, 20.1976 13.3666, 20.4743 13.2731, 20.7113 13.0859, 20.9489 12.8988, 21.1562 12.6541, 21.3339 12.3514 L 22.5273 7.70913 C 22.5723 7.5319, 22.6623 7.40145, 22.7981 7.31733, 22.934 7.23366, 23.0711 7.19138, 23.2092 7.19093, 23.3527 7.19138, 23.4715 7.23456, 23.5655 7.32048, 23.6298 7.38346, 23.6618 7.46712, 23.6618 7.57238, 23.6618 7.62546, 23.6568 7.68079, 23.6469 7.73792 Z" stroke="none" fill="#000000" />
			<path d="M 1.21527 7.03705 C -3.58997 3.87038, -3.58997 -3.87038, 1.21527 -7.03705 L 1.96995 -7.03705 C -2.36361 -3.87038, -2.36361 3.87038, 1.96995 7.03705" stroke="none" fill="#000000" transform="matrix(1 0 -0 1 2.211 9.24805)" />
			<path d="M 1.21527 7.03705 C -3.58997 3.87038, -3.58997 -3.87038, 1.21527 -7.03705 L 1.96995 -7.03705 C -2.36361 -3.87038, -2.36361 3.87038, 1.96995 7.03705" stroke="none" fill="#000000" transform="matrix(-1 1.50996e-007 -1.50996e-007 -1 26.3871 9.24805)" />
			<polyline points="-4.1272 5.159 0 -5.159" fill="none" stroke="#000000" stroke-width="0.589599967" stroke-linecap="round" stroke-linejoin="round" transform="matrix(-1 1.50996e-007 -1.50996e-007 -1 43.5592 8.42103)" />
			<polyline points="0 -5.159 4.1272 5.159" fill="none" stroke="#000000" stroke-width="0.589599967" stroke-linecap="round" stroke-linejoin="round" transform="matrix(-1 1.50996e-007 -1.50996e-007 -1 43.5592 8.42103)" />
			<ellipse cx="-4.1271999478340149" cy="5.15900057554245" rx="0.29479998350143433" ry="0.29479998350143433" stroke="none" fill="#000000" transform="matrix(-1 1.50996e-007 -1.50996e-007 -1 43.5592 8.42103)" />
			<ellipse cx="-0" cy="-5.1590002179145813" rx="0.29479998350143433" ry="0.29479998350143433" stroke="none" fill="#000000" transform="matrix(-1 1.50996e-007 -1.50996e-007 -1 43.5592 8.42103)" />
			<ellipse cx="4.1272000670433044" cy="5.15900057554245" rx="0.29479998350143433" ry="0.29479998350143433" stroke="none" fill="#000000" transform="matrix(-1 1.50996e-007 -1.50996e-007 -1 43.5592 8.42103)" />
			<polyline points="-2.22869 -6.1908 2.22869 -6.1908" fill="none" stroke="#000000" stroke-width="0.589599967" stroke-linecap="round" stroke-linejoin="round" transform="matrix(1 0 0 1 43.5592 13.3737)" />
			<path d="M 57.3629 8.22014 C 57.3089 8.43651, 57.1987 8.59844, 57.0332 8.7064, 56.8677 8.81436, 56.7012 8.86834, 56.533 8.86789, 56.3603 8.86834, 56.2168 8.81301, 56.103 8.70235, 56.0193 8.62139, 55.9748 8.51568, 55.9694 8.38568, 55.9694 8.3335, 55.9793 8.26602, 55.999 8.18415, 56.0535 8.00242, 56.1376 7.86432, 56.2509 7.77076, 56.3648 7.67719, 56.4439 7.62321, 56.4885 7.60837, 56.3949 7.53685, 56.2019 7.50086, 55.91 7.50041, 55.6531 7.50086, 55.4233 7.63401, 55.2208 7.90031, 55.0184 8.16661, 54.8673 8.48689, 54.7683 8.86069 L 54.0864 11.4949 C 54.0171 11.7594, 53.9654 12.0113, 53.9307 12.2506, 53.9109 12.3325, 53.901 12.4044, 53.901 12.4665, 53.901 12.6159, 53.9258 12.7571, 53.9753 12.8912, 54.0247 13.0356, 54.099 13.1507, 54.1979 13.2371, 54.2969 13.3234, 54.4228 13.3666, 54.5758 13.3662, 54.7737 13.3666, 54.964 13.3154, 55.1466 13.2119, 55.3297 13.1089, 55.4979 12.9699, 55.6509 12.7944, 55.8038 12.6195, 55.9397 12.4157, 56.0584 12.1827, 56.1772 11.9501, 56.2707 11.7113, 56.34 11.4661, 56.3697 11.342, 56.4538 11.2794, 56.5919 11.279 L 56.7624 11.279 C 56.8911 11.2794, 56.9554 11.3276, 56.9554 11.4229, 56.9554 11.4522, 56.9482 11.4787, 56.9333 11.5021, 56.8641 11.7904, 56.7516 12.0747, 56.596 12.3554, 56.4403 12.6361, 56.259 12.8844, 56.0512 13.1003, 55.8434 13.3163, 55.6077 13.4939, 55.3432 13.6325, 55.0787 13.7719, 54.7958 13.8412, 54.4944 13.8412, 54.188 13.8412, 53.9235 13.7755, 53.7013 13.6433, 53.4791 13.5119, 53.2983 13.3401, 53.1597 13.1287, 53.1156 13.0765, 53.081 13.0225, 53.0563 12.9672, 53.0315 12.9123, 53.0239 12.9038, 53.0338 12.9415, 52.9155 13.1386, 52.7279 13.3378, 52.4706 13.5394, 52.2137 13.7409, 51.9173 13.8412, 51.5808 13.8412, 51.3932 13.8412, 51.2079 13.8174, 51.0248 13.7692, 50.8422 13.7215, 50.6825 13.6473, 50.5467 13.5466, 50.4108 13.4458, 50.3083 13.3234, 50.239 13.1791, 50.2048 13.0931, 50.1877 12.9996, 50.1873 12.8984, 50.1877 12.8268, 50.1976 12.7427, 50.2169 12.6465, 50.2714 12.431, 50.3825 12.269, 50.5507 12.1611, 50.719 12.0531, 50.8867 11.9992, 51.0545 11.9987, 51.2277 11.9992, 51.3762 12.0545, 51.4994 12.1642, 51.5835 12.2461, 51.6254 12.3518, 51.6254 12.4809, 51.6254 12.5484, 51.6155 12.6159, 51.5957 12.6824, 51.5516 12.8507, 51.4711 12.9865, 51.355 13.0895, 51.239 13.193, 51.1557 13.2492, 51.1063 13.2582, 51.2003 13.3356, 51.3905 13.3716, 51.6771 13.3662, 51.9344 13.3666, 52.1665 13.2326, 52.3739 12.9636, 52.5817 12.695, 52.7324 12.3734, 52.8264 11.9987 L 53.5155 9.35011 C 53.5848 9.1009, 53.6392 8.8562, 53.6788 8.61599, 53.6887 8.53952, 53.6937 8.46754, 53.6937 8.40007, 53.6937 8.25163, 53.6716 8.11263, 53.6266 7.98263, 53.5776 7.83913, 53.5011 7.72308, 53.3972 7.63401, 53.2933 7.54539, 53.1647 7.50086, 53.0117 7.50041, 52.8138 7.50086, 52.6222 7.55259, 52.4368 7.6556, 52.2515 7.75906, 52.0824 7.89671, 51.9294 8.06945, 51.7765 8.24218, 51.6407 8.4428, 51.5219 8.67042, 51.4031 8.89848, 51.3168 9.13959, 51.2619 9.39329, 51.2079 9.52329, 51.1166 9.59032, 50.9879 9.59482 L 50.8247 9.59482 C 50.7064 9.59527, 50.647 9.53544, 50.647 9.41488 L 50.647 9.3645 C 50.7212 9.06762, 50.835 8.77838, 50.9879 8.49768, 51.1409 8.21699, 51.324 7.96868, 51.5363 7.75277, 51.7491 7.53685, 51.9866 7.36051, 52.2484 7.22377, 52.5102 7.08702, 52.7945 7.01864, 53.1003 7.01819, 53.3972 7.01864, 53.659 7.08342, 53.8862 7.21297, 54.1138 7.34252, 54.2991 7.51526, 54.4422 7.73072, 54.4719 7.7838, 54.4993 7.84048, 54.5241 7.90031, 54.5488 7.96059, 54.556 7.97588, 54.5461 7.94664, 54.6698 7.73612, 54.8601 7.52875, 55.1169 7.32453, 55.3742 7.12076, 55.668 7.01864, 55.999 7.01819, 56.1871 7.01864, 56.3733 7.04159, 56.5586 7.08702, 56.744 7.1329, 56.905 7.20577, 57.0409 7.30654, 57.1767 7.4073, 57.277 7.5319, 57.3409 7.68034, 57.3755 7.76716, 57.3926 7.86567, 57.3926 7.97543, 57.3926 8.04785, 57.3827 8.12927, 57.3629 8.22014 Z" stroke="none" fill="#000000" />
			<path d="M 1.21527 7.03705 C -3.58997 3.87038, -3.58997 -3.87038, 1.21527 -7.03705 L 1.96995 -7.03705 C -2.36361 -3.87038, -2.36361 3.87038, 1.96995 7.03705" stroke="none" fill="#000000" transform="matrix(1 0 -0 1 36.7051 9.24805)" />
			<path d="M 1.21527 7.03705 C -3.58997 3.87038, -3.58997 -3.87038, 1.21527 -7.03705 L 1.96995 -7.03705 C -2.36361 -3.87038, -2.36361 3.87038, 1.96995 7.03705" stroke="none" fill="#000000" transform="matrix(-1 1.50996e-007 -1.50996e-007 -1 60.1245 9.24805)" />
			<rect />
		</svg>
	</g>
	<g transform="matrix(1 0 -0 1 235.989 63.0936)">
		<svg width="219.073792" height="102.081261">
			<defs />
			<polyline points="-3.79186 -7.11942 3.79186 -7.11942" fill="none" stroke="#000000" stroke-width="0.589599967" stroke-linecap="round" stroke-linejoin="round" transform="matrix(1 0 0 1 8.80715 13.3737)" />
			<polyline points="-3.79186 -3.55971 3.79186 -3.55971" fill="none" stroke="#000000" stroke-width="0.589599967" stroke-linecap="round" stroke-linejoin="round" transform="matrix(1 0 0 1 8.80715 13.3737)" />
			<polyline points="-3.79186 0 3.79186 0" fill="none" stroke="#000000" stroke-width="0.589599967" stroke-linecap="round" stroke-linejoin="round" transform="matrix(1 0 0 1 8.80715 13.3737)" />
			<polyline points="3.79186 -7.11942 3.79186 0" fill="none" stroke="#000000" stroke-width="0.589599967" stroke-linecap="round" stroke-linejoin="round" transform="matrix(1 0 0 1 8.80715 13.3737)" />
			<path d="M 24.1217 8.22014 C 24.0677 8.43651, 23.9575 8.59844, 23.792 8.7064, 23.6265 8.81436, 23.46 8.86834, 23.2918 8.86789, 23.1191 8.86834, 22.9756 8.81301, 22.8618 8.70235, 22.7781 8.62139, 22.7336 8.51568, 22.7282 8.38568, 22.7282 8.3335, 22.7381 8.26602, 22.7578 8.18415, 22.8123 8.00242, 22.8964 7.86432, 23.0097 7.77076, 23.1236 7.67719, 23.2027 7.62321, 23.2473 7.60837, 23.1537 7.53685, 22.9607 7.50086, 22.6688 7.50041, 22.4119 7.50086, 22.1821 7.63401, 21.9796 7.90031, 21.7772 8.16661, 21.6261 8.48689, 21.5271 8.86069 L 20.8452 11.4949 C 20.7759 11.7594, 20.7242 12.0113, 20.6895 12.2506, 20.6697 12.3325, 20.6598 12.4044, 20.6598 12.4665, 20.6598 12.6159, 20.6846 12.7571, 20.7341 12.8912, 20.7835 13.0356, 20.8578 13.1507, 20.9567 13.2371, 21.0557 13.3234, 21.1816 13.3666, 21.3346 13.3662, 21.5325 13.3666, 21.7228 13.3154, 21.9054 13.2119, 22.0885 13.1089, 22.2567 12.9699, 22.4097 12.7944, 22.5626 12.6195, 22.6985 12.4157, 22.8172 12.1827, 22.936 11.9501, 23.0295 11.7113, 23.0988 11.4661, 23.1285 11.342, 23.2126 11.2794, 23.3507 11.279 L 23.5212 11.279 C 23.6499 11.2794, 23.7142 11.3276, 23.7142 11.4229, 23.7142 11.4522, 23.707 11.4787, 23.6921 11.5021, 23.6229 11.7904, 23.5104 12.0747, 23.3548 12.3554, 23.1991 12.6361, 23.0178 12.8844, 22.81 13.1003, 22.6022 13.3163, 22.3665 13.4939, 22.102 13.6325, 21.8375 13.7719, 21.5546 13.8412, 21.2532 13.8412, 20.9468 13.8412, 20.6823 13.7755, 20.4601 13.6433, 20.2379 13.5119, 20.0571 13.3401, 19.9185 13.1287, 19.8744 13.0765, 19.8398 13.0225, 19.8151 12.9672, 19.7903 12.9123, 19.7827 12.9038, 19.7926 12.9415, 19.6743 13.1386, 19.4867 13.3378, 19.2294 13.5394, 18.9725 13.7409, 18.6761 13.8412, 18.3396 13.8412, 18.152 13.8412, 17.9667 13.8174, 17.7836 13.7692, 17.601 13.7215, 17.4413 13.6473, 17.3055 13.5466, 17.1696 13.4458, 17.0671 13.3234, 16.9978 13.1791, 16.9636 13.0931, 16.9465 12.9996, 16.9461 12.8984, 16.9465 12.8268, 16.9564 12.7427, 16.9757 12.6465, 17.0302 12.431, 17.1413 12.269, 17.3095 12.1611, 17.4777 12.0531, 17.6455 11.9992, 17.8133 11.9987, 17.9865 11.9992, 18.1349 12.0545, 18.2582 12.1642, 18.3423 12.2461, 18.3842 12.3518, 18.3842 12.4809, 18.3842 12.5484, 18.3743 12.6159, 18.3545 12.6824, 18.3104 12.8507, 18.2299 12.9865, 18.1138 13.0895, 17.9978 13.193, 17.9145 13.2492, 17.8651 13.2582, 17.9591 13.3356, 18.1493 13.3716, 18.4359 13.3662, 18.6932 13.3666, 18.9253 13.2326, 19.1327 12.9636, 19.3405 12.695, 19.4912 12.3734, 19.5852 11.9987 L 20.2743 9.35011 C 20.3436 9.1009, 20.398 8.8562, 20.4376 8.61599, 20.4475 8.53952, 20.4525 8.46754, 20.4525 8.40007, 20.4525 8.25163, 20.4304 8.11263, 20.3854 7.98263, 20.3364 7.83913, 20.2599 7.72308, 20.156 7.63401, 20.0521 7.54539, 19.9235 7.50086, 19.7705 7.50041, 19.5726 7.50086, 19.381 7.55259, 19.1956 7.6556, 19.0103 7.75906, 18.8412 7.89671, 18.6882 8.06945, 18.5353 8.24218, 18.3994 8.4428, 18.2807 8.67042, 18.1619 8.89848, 18.0756 9.13959, 18.0207 9.39329, 17.9667 9.52329, 17.8754 9.59032, 17.7467 9.59482 L 17.5835 9.59482 C 17.4652 9.59527, 17.4058 9.53544, 17.4058 9.41488 L 17.4058 9.3645 C 17.48 9.06762, 17.5938 8.77838, 17.7467 8.49768, 17.8997 8.21699, 18.0828 7.96868, 18.2951 7.75277, 18.5079 7.53685, 18.7454 7.36051, 19.0072 7.22377, 19.269 7.08702, 19.5533 7.01864, 19.8591 7.01819, 20.156 7.01864, 20.4178 7.08342, 20.645 7.21297, 20.8726 7.34252, 21.0579 7.51526, 21.201 7.73072, 21.2307 7.7838, 21.2581 7.84048, 21.2829 7.90031, 21.3076 7.96059, 21.3148 7.97588, 21.3049 7.94664, 21.4286 7.73612, 21.6189 7.52875, 21.8757 7.32453, 22.133 7.12076, 22.4268 7.01864, 22.7578 7.01819, 22.9459 7.01864, 23.1321 7.04159, 23.3174 7.08702, 23.5028 7.1329, 23.6638 7.20577, 23.7996 7.30654, 23.9355 7.4073, 24.0358 7.5319, 24.0997 7.68034, 24.1343 7.76716, 24.1514 7.86567, 24.1514 7.97543, 24.1514 8.04785, 24.1415 8.12927, 24.1217 8.22014 Z" stroke="none" fill="#000000" />
			<path d="M 1.21527 7.03705 C -3.58997 3.87038, -3.58997 -3.87038, 1.21527 -7.03705 L 1.96995 -7.03705 C -2.36361 -3.87038, -2.36361 3.87038, 1.96995 7.03705" stroke="none" fill="#000000" transform="matrix(1 0 -0 1 2.211 9.24805)" />
			<path d="M 1.21527 7.03705 C -3.58997 3.87038, -3.58997 -3.87038, 1.21527 -7.03705 L 1.96995 -7.03705 C -2.36361 -3.87038, -2.36361 3.87038, 1.96995 7.03705" stroke="none" fill="#000000" transform="matrix(-1 1.50996e-007 -1.50996e-007 -1 26.8833 9.24805)" />
			<polyline points="-4.1272 5.159 0 -5.159" fill="none" stroke="#000000" stroke-width="0.589599967" stroke-linecap="round" stroke-linejoin="round" transform="matrix(-1 1.50996e-007 -1.50996e-007 -1 44.0554 8.42103)" />
			<polyline points="0 -5.159 4.1272 5.159" fill="none" stroke="#000000" stroke-width="0.589599967" stroke-linecap="round" stroke-linejoin="round" transform="matrix(-1 1.50996e-007 -1.50996e-007 -1 44.0554 8.42103)" />
			<ellipse cx="-4.1271999478340149" cy="5.15900057554245" rx="0.29479998350143433" ry="0.29479998350143433" stroke="none" fill="#000000" transform="matrix(-1 1.50996e-007 -1.50996e-007 -1 44.0554 8.42103)" />
			<ellipse cx="-0" cy="-5.1590002179145813" rx="0.29479998350143433" ry="0.29479998350143433" stroke="none" fill="#000000" transform="matrix(-1 1.50996e-007 -1.50996e-007 -1 44.0554 8.42103)" />
			<ellipse cx="4.1272000670433044" cy="5.15900057554245" rx="0.29479998350143433" ry="0.29479998350143433" stroke="none" fill="#000000" transform="matrix(-1 1.50996e-007 -1.50996e-007 -1 44.0554 8.42103)" />
			<polyline points="-2.22869 -6.1908 2.22869 -6.1908" fill="none" stroke="#000000" stroke-width="0.589599967" stroke-linecap="round" stroke-linejoin="round" transform="matrix(1 0 0 1 44.0554 13.3737)" />
			<path d="M 55.8643 13.6181 C 55.7609 14.0211, 55.5976 14.4062, 55.3753 14.7732, 55.1531 15.1403, 54.8909 15.4669, 54.5895 15.7521, 54.2881 16.0377, 53.9498 16.2694, 53.5742 16.4466, 53.1986 16.6243, 52.8082 16.7129, 52.4024 16.7129, 52.1604 16.7129, 51.9382 16.6688, 51.7353 16.5798, 51.5329 16.4911, 51.3674 16.371, 51.2387 16.2199, 51.1101 16.0688, 51.0237 15.8902, 50.9792 15.6837, 50.9594 15.5928, 50.9495 15.4993, 50.9495 15.403, 50.9495 15.2784, 50.9643 15.1511, 50.994 15.0216, 51.0484 14.8056, 51.1595 14.6437, 51.3278 14.5357, 51.496 14.4278, 51.6616 14.3738, 51.8244 14.3738, 51.9976 14.3738, 52.1433 14.4291, 52.2616 14.5393, 52.3457 14.6212, 52.3876 14.7265, 52.3876 14.856, 52.3876 14.9091, 52.3777 14.9739, 52.3579 15.0503, 52.3039 15.2663, 52.1928 15.4282, 52.0246 15.5362, 51.8563 15.6441, 51.7232 15.6981, 51.6242 15.6981, 51.6539 15.8276, 51.7466 15.9491, 51.9022 16.0616, 52.0579 16.1745, 52.2567 16.2307, 52.4987 16.2307, 52.7659 16.2307, 53.0155 16.1587, 53.2477 16.0148, 53.4802 15.8708, 53.693 15.6779, 53.8855 15.4354, 54.078 15.1934, 54.2472 14.9127, 54.3929 14.5933, 54.5387 14.2744, 54.6561 13.9397, 54.7451 13.5893 L 54.7897 13.4166 C 54.7159 13.484, 54.5603 13.5718, 54.3228 13.6793, 54.0857 13.7872, 53.8261 13.8412, 53.5441 13.8412, 53.2085 13.8412, 52.908 13.7791, 52.6435 13.6541, 52.379 13.5299, 52.1703 13.3378, 52.0169 13.0783, 51.8689 12.8003, 51.7974 12.4935, 51.8019 12.157 L 51.8019 12.0995 C 51.8118 11.7495, 51.8563 11.4018, 51.9355 11.0559, 52.0147 10.7252, 52.1298 10.3609, 52.2805 9.96233, 52.4312 9.56423, 52.5756 9.17782, 52.7137 8.80312, 52.8622 8.40547, 52.9364 8.07889, 52.9364 7.82429, 52.9364 7.60882, 52.8451 7.50086, 52.662 7.50041, 52.4942 7.50086, 52.3422 7.54899, 52.2063 7.64481, 52.0705 7.74107, 51.9468 7.87422, 51.8356 8.04425, 51.7245 8.21474, 51.6242 8.41626, 51.5352 8.64882, 51.4461 8.88184, 51.3723 9.12969, 51.3129 9.39329, 51.2585 9.52329, 51.1672 9.59032, 51.0385 9.59482 L 50.8681 9.59482 C 50.7493 9.59527, 50.6899 9.53544, 50.6899 9.41488 L 50.6899 9.3645 C 50.7592 9.1009, 50.851 8.83146, 50.9643 8.55526, 51.0781 8.27952, 51.2216 8.02896, 51.3944 7.80315, 51.5675 7.57778, 51.7655 7.39065, 51.9877 7.24176, 52.2099 7.09332, 52.4645 7.01864, 52.751 7.01819, 52.9985 7.01864, 53.2094 7.07172, 53.3849 7.17698, 53.5603 7.28269, 53.6939 7.42304, 53.7852 7.59802, 53.877 7.77346, 53.9273 7.97093, 53.9372 8.19135 L 53.9372 8.24173 C 53.9372 8.44865, 53.8954 8.66187, 53.8108 8.88229, 53.6678 9.25699, 53.5261 9.6398, 53.3849 10.0307, 53.2441 10.4221, 53.1343 10.7734, 53.0551 11.0851, 52.976 11.3973, 52.9215 11.7063, 52.8918 12.0131, 52.8721 12.095, 52.8599 12.184, 52.855 12.2794, 52.855 12.467, 52.8873 12.6519, 52.9512 12.8336, 52.9958 12.9973, 53.0772 13.1269, 53.1959 13.2227, 53.3147 13.319, 53.4555 13.3666, 53.6183 13.3662, 53.935 13.3666, 54.2116 13.2731, 54.4487 13.0859, 54.6862 12.8988, 54.8936 12.6541, 55.0713 12.3514 L 56.2647 7.70913 C 56.3096 7.5319, 56.3996 7.40145, 56.5355 7.31733, 56.6713 7.23366, 56.8085 7.19138, 56.9466 7.19093, 57.0901 7.19138, 57.2089 7.23456, 57.3029 7.32048, 57.3672 7.38346, 57.3991 7.46712, 57.3991 7.57238, 57.3991 7.62546, 57.3942 7.68079, 57.3843 7.73792 Z" stroke="none" fill="#000000" />
			<path d="M 1.21527 7.03705 C -3.58997 3.87038, -3.58997 -3.87038, 1.21527 -7.03705 L 1.96995 -7.03705 C -2.36361 -3.87038, -2.36361 3.87038, 1.96995 7.03705" stroke="none" fill="#000000" transform="matrix(1 0 -0 1 37.2013 9.24805)" />
			<path d="M 1.21527 7.03705 C -3.58997 3.87038, -3.58997 -3.87038, 1.21527 -7.03705 L 1.96995 -7.03705 C -2.36361 -3.87038, -2.36361 3.87038, 1.96995 7.03705" stroke="none" fill="#000000" transform="matrix(-1 1.50996e-007 -1.50996e-007 -1 60.1245 9.24805)" />
			<rect />
		</svg>
	</g>
	<g transform="matrix(1 0 -0 1 8.24999 139.006)">
		<svg width="213.018402" height="102.081261">
			<defs />
			<polyline points="-4.1272 5.159 0 -5.159" fill="none" stroke="#000000" stroke-width="0.589599967" stroke-linecap="round" stroke-linejoin="round" transform="matrix(-1 1.50996e-007 -1.50996e-007 -1 9.0651 8.42103)" />
			<polyline points="0 -5.159 4.1272 5.159" fill="none" stroke="#000000" stroke-width="0.589599967" stroke-linecap="round" stroke-linejoin="round" transform="matrix(-1 1.50996e-007 -1.50996e-007 -1 9.0651 8.42103)" />
			<ellipse cx="-4.1271999478340149" cy="5.15900057554245" rx="0.29479998350143433" ry="0.29479998350143433" stroke="none" fill="#000000" transform="matrix(-1 1.50996e-007 -1.50996e-007 -1 9.0651 8.42103)" />
			<ellipse cx="-0" cy="-5.1590002179145813" rx="0.29479998350143433" ry="0.29479998350143433" stroke="none" fill="#000000" transform="matrix(-1 1.50996e-007 -1.50996e-007 -1 9.0651 8.42103)" />
			<ellipse cx="4.1272000670433044" cy="5.15900057554245" rx="0.29479998350143433" ry="0.29479998350143433" stroke="none" fill="#000000" transform="matrix(-1 1.50996e-007 -1.50996e-007 -1 9.0651 8.42103)" />
			<polyline points="-2.22869 -6.1908 2.22869 -6.1908" fill="none" stroke="#000000" stroke-width="0.589599967" stroke-linecap="round" stroke-linejoin="round" transform="matrix(1 0 0 1 9.0651 13.3737)" />
			<path d="M 22.8688 8.22014 C 22.8148 8.43651, 22.7046 8.59844, 22.5391 8.7064, 22.3736 8.81436, 22.2071 8.86834, 22.0389 8.86789, 21.8662 8.86834, 21.7227 8.81301, 21.6089 8.70235, 21.5252 8.62139, 21.4807 8.51568, 21.4753 8.38568, 21.4753 8.3335, 21.4852 8.26602, 21.5049 8.18415, 21.5594 8.00242, 21.6435 7.86432, 21.7568 7.77076, 21.8707 7.67719, 21.9498 7.62321, 21.9944 7.60837, 21.9008 7.53685, 21.7078 7.50086, 21.4159 7.50041, 21.159 7.50086, 20.9292 7.63401, 20.7267 7.90031, 20.5243 8.16661, 20.3732 8.48689, 20.2742 8.86069 L 19.5923 11.4949 C 19.523 11.7594, 19.4713 12.0113, 19.4366 12.2506, 19.4168 12.3325, 19.4069 12.4044, 19.4069 12.4665, 19.4069 12.6159, 19.4317 12.7571, 19.4812 12.8912, 19.5306 13.0356, 19.6049 13.1507, 19.7038 13.2371, 19.8028 13.3234, 19.9287 13.3666, 20.0817 13.3662, 20.2796 13.3666, 20.4699 13.3154, 20.6525 13.2119, 20.8356 13.1089, 21.0038 12.9699, 21.1568 12.7944, 21.3097 12.6195, 21.4456 12.4157, 21.5643 12.1827, 21.6831 11.9501, 21.7766 11.7113, 21.8459 11.4661, 21.8756 11.342, 21.9597 11.2794, 22.0978 11.279 L 22.2683 11.279 C 22.397 11.2794, 22.4613 11.3276, 22.4613 11.4229, 22.4613 11.4522, 22.4541 11.4787, 22.4392 11.5021, 22.37 11.7904, 22.2575 12.0747, 22.1019 12.3554, 21.9462 12.6361, 21.7649 12.8844, 21.5571 13.1003, 21.3493 13.3163, 21.1136 13.4939, 20.8491 13.6325, 20.5846 13.7719, 20.3017 13.8412, 20.0003 13.8412, 19.6939 13.8412, 19.4294 13.7755, 19.2072 13.6433, 18.985 13.5119, 18.8042 13.3401, 18.6656 13.1287, 18.6215 13.0765, 18.5869 13.0225, 18.5622 12.9672, 18.5374 12.9123, 18.5298 12.9038, 18.5397 12.9415, 18.4214 13.1386, 18.2338 13.3378, 17.9765 13.5394, 17.7196 13.7409, 17.4232 13.8412, 17.0867 13.8412, 16.8991 13.8412, 16.7138 13.8174, 16.5307 13.7692, 16.3481 13.7215, 16.1884 13.6473, 16.0526 13.5466, 15.9167 13.4458, 15.8142 13.3234, 15.7449 13.1791, 15.7107 13.0931, 15.6936 12.9996, 15.6932 12.8984, 15.6936 12.8268, 15.7035 12.7427, 15.7228 12.6465, 15.7773 12.431, 15.8884 12.269, 16.0566 12.1611, 16.2248 12.0531, 16.3926 11.9992, 16.5604 11.9987, 16.7336 11.9992, 16.882 12.0545, 17.0053 12.1642, 17.0894 12.2461, 17.1313 12.3518, 17.1313 12.4809, 17.1313 12.5484, 17.1214 12.6159, 17.1016 12.6824, 17.0575 12.8507, 16.977 12.9865, 16.8609 13.0895, 16.7449 13.193, 16.6616 13.2492, 16.6122 13.2582, 16.7062 13.3356, 16.8964 13.3716, 17.183 13.3662, 17.4403 13.3666, 17.6724 13.2326, 17.8798 12.9636, 18.0876 12.695, 18.2383 12.3734, 18.3323 11.9987 L 19.0214 9.35011 C 19.0907 9.1009, 19.1451 8.8562, 19.1847 8.61599, 19.1946 8.53952, 19.1996 8.46754, 19.1996 8.40007, 19.1996 8.25163, 19.1775 8.11263, 19.1325 7.98263, 19.0835 7.83913, 19.007 7.72308, 18.9031 7.63401, 18.7992 7.54539, 18.6706 7.50086, 18.5176 7.50041, 18.3197 7.50086, 18.1281 7.55259, 17.9427 7.6556, 17.7574 7.75906, 17.5883 7.89671, 17.4353 8.06945, 17.2824 8.24218, 17.1465 8.4428, 17.0278 8.67042, 16.909 8.89848, 16.8227 9.13959, 16.7678 9.39329, 16.7138 9.52329, 16.6225 9.59032, 16.4938 9.59482 L 16.3306 9.59482 C 16.2123 9.59527, 16.1529 9.53544, 16.1529 9.41488 L 16.1529 9.3645 C 16.2271 9.06762, 16.3409 8.77838, 16.4938 8.49768, 16.6468 8.21699, 16.8299 7.96868, 17.0422 7.75277, 17.255 7.53685, 17.4925 7.36051, 17.7543 7.22377, 18.0161 7.08702, 18.3004 7.01864, 18.6062 7.01819, 18.9031 7.01864, 19.1649 7.08342, 19.3921 7.21297, 19.6197 7.34252, 19.805 7.51526, 19.9481 7.73072, 19.9778 7.7838, 20.0052 7.84048, 20.03 7.90031, 20.0547 7.96059, 20.0619 7.97588, 20.052 7.94664, 20.1757 7.73612, 20.366 7.52875, 20.6228 7.32453, 20.8801 7.12076, 21.1739 7.01864, 21.5049 7.01819, 21.693 7.01864, 21.8792 7.04159, 22.0645 7.08702, 22.2499 7.1329, 22.4109 7.20577, 22.5467 7.30654, 22.6826 7.4073, 22.7829 7.5319, 22.8468 7.68034, 22.8814 7.76716, 22.8985 7.86567, 22.8985 7.97543, 22.8985 8.04785, 22.8886 8.12927, 22.8688 8.22014 Z" stroke="none" fill="#000000" />
			<path d="M 1.21527 7.03705 C -3.58997 3.87038, -3.58997 -3.87038, 1.21527 -7.03705 L 1.96995 -7.03705 C -2.36361 -3.87038, -2.36361 3.87038, 1.96995 7.03705" stroke="none" fill="#000000" transform="matrix(1 0 -0 1 2.211 9.24805)" />
			<path d="M 1.21527 7.03705 C -3.58997 3.87038, -3.58997 -3.87038, 1.21527 -7.03705 L 1.96995 -7.03705 C -2.36361 -3.87038, -2.36361 3.87038, 1.96995 7.03705" stroke="none" fill="#000000" transform="matrix(-1 1.50996e-007 -1.50996e-007 -1 25.6304 9.24805)" />
			<polyline points="-3.79186 -7.11942 3.79186 -7.11942" fill="none" stroke="#000000" stroke-width="0.589599967" stroke-linecap="round" stroke-linejoin="round" transform="matrix(1 0 0 1 42.5445 13.3737)" />
			<polyline points="-3.79186 -3.55971 3.79186 -3.55971" fill="none" stroke="#000000" stroke-width="0.589599967" stroke-linecap="round" stroke-linejoin="round" transform="matrix(1 0 0 1 42.5445 13.3737)" />
			<polyline points="-3.79186 0 3.79186 0" fill="none" stroke="#000000" stroke-width="0.589599967" stroke-linecap="round" stroke-linejoin="round" transform="matrix(1 0 0 1 42.5445 13.3737)" />
			<polyline points="3.79186 -7.11942 3.79186 0" fill="none" stroke="#000000" stroke-width="0.589599967" stroke-linecap="round" stroke-linejoin="round" transform="matrix(1 0 0 1 42.5445 13.3737)" />
			<path d="M 55.8643 13.6181 C 55.7609 14.0211, 55.5976 14.4062, 55.3754 14.7732, 55.1531 15.1403, 54.8909 15.4669, 54.5895 15.7521, 54.2881 16.0377, 53.9498 16.2694, 53.5742 16.4466, 53.1986 16.6243, 52.8082 16.7129, 52.4024 16.7129, 52.1604 16.7129, 51.9382 16.6688, 51.7353 16.5798, 51.5329 16.4911, 51.3674 16.371, 51.2387 16.2199, 51.1101 16.0688, 51.0237 15.8902, 50.9792 15.6837, 50.9594 15.5928, 50.9495 15.4993, 50.9495 15.403, 50.9495 15.2784, 50.9643 15.1511, 50.994 15.0216, 51.0484 14.8056, 51.1596 14.6437, 51.3278 14.5357, 51.496 14.4278, 51.6616 14.3738, 51.8244 14.3738, 51.9976 14.3738, 52.1433 14.4291, 52.2616 14.5393, 52.3458 14.6212, 52.3876 14.7265, 52.3876 14.856, 52.3876 14.9091, 52.3777 14.9739, 52.3579 15.0503, 52.3039 15.2663, 52.1928 15.4282, 52.0246 15.5362, 51.8563 15.6441, 51.7232 15.6981, 51.6242 15.6981, 51.6539 15.8276, 51.7466 15.9491, 51.9022 16.0616, 52.0579 16.1745, 52.2567 16.2307, 52.4987 16.2307, 52.7659 16.2307, 53.0155 16.1587, 53.2477 16.0148, 53.4802 15.8708, 53.693 15.6779, 53.8855 15.4354, 54.078 15.1934, 54.2472 14.9127, 54.3929 14.5933, 54.5387 14.2744, 54.6561 13.9397, 54.7451 13.5893 L 54.7897 13.4166 C 54.7159 13.484, 54.5603 13.5718, 54.3228 13.6793, 54.0857 13.7872, 53.8261 13.8412, 53.5441 13.8412, 53.2085 13.8412, 52.908 13.7791, 52.6435 13.6541, 52.379 13.5299, 52.1703 13.3378, 52.0169 13.0783, 51.8689 12.8003, 51.7974 12.4935, 51.8019 12.157 L 51.8019 12.0995 C 51.8118 11.7495, 51.8563 11.4018, 51.9355 11.0559, 52.0147 10.7252, 52.1298 10.3609, 52.2805 9.96233, 52.4312 9.56423, 52.5756 9.17782, 52.7137 8.80312, 52.8622 8.40547, 52.9364 8.07889, 52.9364 7.82429, 52.9364 7.60882, 52.8451 7.50086, 52.662 7.50041, 52.4942 7.50086, 52.3422 7.54899, 52.2063 7.64481, 52.0705 7.74107, 51.9468 7.87422, 51.8356 8.04425, 51.7245 8.21474, 51.6242 8.41626, 51.5352 8.64882, 51.4461 8.88184, 51.3723 9.12969, 51.3129 9.39329, 51.2585 9.52329, 51.1672 9.59032, 51.0386 9.59482 L 50.8681 9.59482 C 50.7493 9.59527, 50.6899 9.53544, 50.6899 9.41488 L 50.6899 9.3645 C 50.7592 9.1009, 50.851 8.83146, 50.9643 8.55526, 51.0781 8.27952, 51.2216 8.02896, 51.3944 7.80315, 51.5676 7.57778, 51.7655 7.39065, 51.9877 7.24176, 52.2099 7.09332, 52.4645 7.01864, 52.751 7.01819, 52.9985 7.01864, 53.2094 7.07172, 53.3849 7.17698, 53.5603 7.28269, 53.6939 7.42304, 53.7852 7.59802, 53.877 7.77346, 53.9274 7.97093, 53.9372 8.19135 L 53.9372 8.24173 C 53.9372 8.44865, 53.8954 8.66187, 53.8108 8.88229, 53.6678 9.25699, 53.5261 9.6398, 53.3849 10.0307, 53.2441 10.4221, 53.1343 10.7734, 53.0551 11.0851, 52.976 11.3973, 52.9215 11.7063, 52.8918 12.0131, 52.8721 12.095, 52.8599 12.184, 52.855 12.2794, 52.855 12.467, 52.8873 12.6519, 52.9512 12.8336, 52.9958 12.9973, 53.0772 13.1269, 53.1959 13.2227, 53.3147 13.319, 53.4555 13.3666, 53.6183 13.3662, 53.935 13.3666, 54.2116 13.2731, 54.4487 13.0859, 54.6862 12.8988, 54.8936 12.6541, 55.0713 12.3514 L 56.2647 7.70913 C 56.3096 7.5319, 56.3996 7.40145, 56.5355 7.31733, 56.6713 7.23366, 56.8085 7.19138, 56.9466 7.19093, 57.0901 7.19138, 57.2089 7.23456, 57.3029 7.32048, 57.3672 7.38346, 57.3991 7.46712, 57.3991 7.57238, 57.3991 7.62546, 57.3942 7.68079, 57.3843 7.73792 Z" stroke="none" fill="#000000" />
			<path d="M 1.21527 7.03705 C -3.58997 3.87038, -3.58997 -3.87038, 1.21527 -7.03705 L 1.96995 -7.03705 C -2.36361 -3.87038, -2.36361 3.87038, 1.96995 7.03705" stroke="none" fill="#000000" transform="matrix(1 0 -0 1 35.9484 9.24805)" />
			<path d="M 1.21527 7.03705 C -3.58997 3.87038, -3.58997 -3.87038, 1.21527 -7.03705 L 1.96995 -7.03705 C -2.36361 -3.87038, -2.36361 3.87038, 1.96995 7.03705" stroke="none" fill="#000000" transform="matrix(-1 1.50996e-007 -1.50996e-007 -1 60.1245 9.24805)" />
			<rect />
		</svg>
	</g>
	<g transform="matrix(1 0 -0 1 235.989 139.006)">
		<svg width="213.018402" height="102.081261">
			<defs />
			<polyline points="-4.1272 5.159 0 -5.159" fill="none" stroke="#000000" stroke-width="0.589599967" stroke-linecap="round" stroke-linejoin="round" transform="matrix(-1 1.50996e-007 -1.50996e-007 -1 9.0651 8.42103)" />
			<polyline points="0 -5.159 4.1272 5.159" fill="none" stroke="#000000" stroke-width="0.589599967" stroke-linecap="round" stroke-linejoin="round" transform="matrix(-1 1.50996e-007 -1.50996e-007 -1 9.0651 8.42103)" />
			<ellipse cx="-4.1271999478340149" cy="5.15900057554245" rx="0.29479998350143433" ry="0.29479998350143433" stroke="none" fill="#000000" transform="matrix(-1 1.50996e-007 -1.50996e-007 -1 9.0651 8.42103)" />
			<ellipse cx="-0" cy="-5.1590002179145813" rx="0.29479998350143433" ry="0.29479998350143433" stroke="none" fill="#000000" transform="matrix(-1 1.50996e-007 -1.50996e-007 -1 9.0651 8.42103)" />
			<ellipse cx="4.1272000670433044" cy="5.15900057554245" rx="0.29479998350143433" ry="0.29479998350143433" stroke="none" fill="#000000" transform="matrix(-1 1.50996e-007 -1.50996e-007 -1 9.0651 8.42103)" />
			<polyline points="-2.22869 -6.1908 2.22869 -6.1908" fill="none" stroke="#000000" stroke-width="0.589599967" stroke-linecap="round" stroke-linejoin="round" transform="matrix(1 0 0 1 9.0651 13.3737)" />
			<path d="M 20.8741 13.6181 C 20.7706 14.0211, 20.6073 14.4062, 20.3851 14.7732, 20.1629 15.1403, 19.9006 15.4669, 19.5992 15.7521, 19.2979 16.0377, 18.9596 16.2694, 18.584 16.4466, 18.2084 16.6243, 17.8179 16.7129, 17.4122 16.7129, 17.1702 16.7129, 16.948 16.6688, 16.7451 16.5798, 16.5427 16.4911, 16.3771 16.371, 16.2485 16.2199, 16.1198 16.0688, 16.0334 15.8902, 15.9889 15.6837, 15.9691 15.5928, 15.9592 15.4993, 15.9592 15.403, 15.9592 15.2784, 15.9741 15.1511, 16.0038 15.0216, 16.0582 14.8056, 16.1693 14.6437, 16.3375 14.5357, 16.5058 14.4278, 16.6713 14.3738, 16.8341 14.3738, 17.0073 14.3738, 17.1531 14.4291, 17.2714 14.5393, 17.3555 14.6212, 17.3973 14.7265, 17.3973 14.856, 17.3973 14.9091, 17.3874 14.9739, 17.3676 15.0503, 17.3137 15.2663, 17.2026 15.4282, 17.0343 15.5362, 16.8661 15.6441, 16.7329 15.6981, 16.634 15.6981, 16.6637 15.8276, 16.7563 15.9491, 16.912 16.0616, 17.0676 16.1745, 17.2664 16.2307, 17.5084 16.2307, 17.7756 16.2307, 18.0253 16.1587, 18.2574 16.0148, 18.49 15.8708, 18.7027 15.6779, 18.8953 15.4354, 19.0878 15.1934, 19.2569 14.9127, 19.4027 14.5933, 19.5484 14.2744, 19.6658 13.9397, 19.7549 13.5893 L 19.7994 13.4166 C 19.7256 13.484, 19.57 13.5718, 19.3325 13.6793, 19.0954 13.7872, 18.8359 13.8412, 18.5538 13.8412, 18.2183 13.8412, 17.9178 13.7791, 17.6533 13.6541, 17.3888 13.5299, 17.1801 13.3378, 17.0267 13.0783, 16.8787 12.8003, 16.8072 12.4935, 16.8117 12.157 L 16.8117 12.0995 C 16.8215 11.7495, 16.8661 11.4018, 16.9453 11.0559, 17.0244 10.7252, 17.1396 10.3609, 17.2903 9.96233, 17.441 9.56423, 17.5854 9.17782, 17.7235 8.80312, 17.8719 8.40547, 17.9461 8.07889, 17.9461 7.82429, 17.9461 7.60882, 17.8548 7.50086, 17.6717 7.50041, 17.5039 7.50086, 17.3519 7.54899, 17.216 7.64481, 17.0802 7.74107, 16.9565 7.87422, 16.8454 8.04425, 16.7343 8.21474, 16.634 8.41626, 16.5449 8.64882, 16.4558 8.88184, 16.3821 9.12969, 16.3227 9.39329, 16.2683 9.52329, 16.1769 9.59032, 16.0483 9.59482 L 15.8778 9.59482 C 15.7591 9.59527, 15.6997 9.53544, 15.6997 9.41488 L 15.6997 9.3645 C 15.7689 9.1009, 15.8607 8.83146, 15.9741 8.55526, 16.0879 8.27952, 16.2314 8.02896, 16.4041 7.80315, 16.5773 7.57778, 16.7752 7.39065, 16.9974 7.24176, 17.2196 7.09332, 17.4742 7.01864, 17.7608 7.01819, 18.0082 7.01864, 18.2192 7.07172, 18.3946 7.17698, 18.57 7.28269, 18.7036 7.42304, 18.7949 7.59802, 18.8867 7.77346, 18.9371 7.97093, 18.947 8.19135 L 18.947 8.24173 C 18.947 8.44865, 18.9052 8.66187, 18.8206 8.88229, 18.6775 9.25699, 18.5358 9.6398, 18.3946 10.0307, 18.2538 10.4221, 18.144 10.7734, 18.0649 11.0851, 17.9857 11.3973, 17.9313 11.7063, 17.9016 12.0131, 17.8818 12.095, 17.8696 12.184, 17.8647 12.2794, 17.8647 12.467, 17.8971 12.6519, 17.961 12.8336, 18.0055 12.9973, 18.0869 13.1269, 18.2057 13.2227, 18.3244 13.319, 18.4652 13.3666, 18.6281 13.3662, 18.9447 13.3666, 19.2214 13.2731, 19.4584 13.0859, 19.696 12.8988, 19.9033 12.6541, 20.081 12.3514 L 21.2744 7.70913 C 21.3194 7.5319, 21.4094 7.40145, 21.5452 7.31733, 21.6811 7.23366, 21.8182 7.19138, 21.9563 7.19093, 22.0998 7.19138, 22.2186 7.23456, 22.3126 7.32048, 22.3769 7.38346, 22.4089 7.46712, 22.4089 7.57238, 22.4089 7.62546, 22.4039 7.68079, 22.394 7.73792 Z" stroke="none" fill="#000000" />
			<path d="M 1.21527 7.03705 C -3.58997 3.87038, -3.58997 -3.87038, 1.21527 -7.03705 L 1.96995 -7.03705 C -2.36361 -3.87038, -2.36361 3.87038, 1.96995 7.03705" stroke="none" fill="#000000" transform="matrix(1 0 -0 1 2.211 9.24805)" />
			<path d="M 1.21527 7.03705 C -3.58997 3.87038, -3.58997 -3.87038, 1.21527 -7.03705 L 1.96995 -7.03705 C -2.36361 -3.87038, -2.36361 3.87038, 1.96995 7.03705" stroke="none" fill="#000000" transform="matrix(-1 1.50996e-007 -1.50996e-007 -1 25.1342 9.24805)" />
			<polyline points="-3.79186 -7.11942 3.79186 -7.11942" fill="none" stroke="#000000" stroke-width="0.589599967" stroke-linecap="round" stroke-linejoin="round" transform="matrix(1 0 0 1 42.0484 13.3737)" />
			<polyline points="-3.79186 -3.55971 3.79186 -3.55971" fill="none" stroke="#000000" stroke-width="0.589599967" stroke-linecap="round" stroke-linejoin="round" transform="matrix(1 0 0 1 42.0484 13.3737)" />
			<polyline points="-3.79186 0 3.79186 0" fill="none" stroke="#000000" stroke-width="0.589599967" stroke-linecap="round" stroke-linejoin="round" transform="matrix(1 0 0 1 42.0484 13.3737)" />
			<polyline points="3.79186 -7.11942 3.79186 0" fill="none" stroke="#000000" stroke-width="0.589599967" stroke-linecap="round" stroke-linejoin="round" transform="matrix(1 0 0 1 42.0484 13.3737)" />
			<path d="M 57.3629 8.22014 C 57.3089 8.43651, 57.1987 8.59844, 57.0332 8.7064, 56.8677 8.81436, 56.7012 8.86834, 56.533 8.86789, 56.3603 8.86834, 56.2168 8.81301, 56.103 8.70235, 56.0193 8.62139, 55.9748 8.51568, 55.9694 8.38568, 55.9694 8.3335, 55.9793 8.26602, 55.999 8.18415, 56.0535 8.00242, 56.1376 7.86432, 56.2509 7.77076, 56.3648 7.67719, 56.4439 7.62321, 56.4885 7.60837, 56.3949 7.53685, 56.2019 7.50086, 55.91 7.50041, 55.6531 7.50086, 55.4233 7.63401, 55.2208 7.90031, 55.0184 8.16661, 54.8673 8.48689, 54.7683 8.86069 L 54.0864 11.4949 C 54.0171 11.7594, 53.9654 12.0113, 53.9307 12.2506, 53.9109 12.3325, 53.901 12.4044, 53.901 12.4665, 53.901 12.6159, 53.9258 12.7571, 53.9753 12.8912, 54.0247 13.0356, 54.099 13.1507, 54.1979 13.2371, 54.2969 13.3234, 54.4228 13.3666, 54.5758 13.3662, 54.7737 13.3666, 54.964 13.3154, 55.1466 13.2119, 55.3297 13.1089, 55.4979 12.9699, 55.6509 12.7944, 55.8038 12.6195, 55.9397 12.4157, 56.0584 12.1827, 56.1772 11.9501, 56.2707 11.7113, 56.34 11.4661, 56.3697 11.342, 56.4538 11.2794, 56.5919 11.279 L 56.7624 11.279 C 56.8911 11.2794, 56.9554 11.3276, 56.9554 11.4229, 56.9554 11.4522, 56.9482 11.4787, 56.9333 11.5021, 56.8641 11.7904, 56.7516 12.0747, 56.596 12.3554, 56.4403 12.6361, 56.259 12.8844, 56.0512 13.1003, 55.8434 13.3163, 55.6077 13.4939, 55.3432 13.6325, 55.0787 13.7719, 54.7958 13.8412, 54.4944 13.8412, 54.188 13.8412, 53.9235 13.7755, 53.7013 13.6433, 53.4791 13.5119, 53.2983 13.3401, 53.1597 13.1287, 53.1156 13.0765, 53.081 13.0225, 53.0563 12.9672, 53.0315 12.9123, 53.0239 12.9038, 53.0338 12.9415, 52.9155 13.1386, 52.7279 13.3378, 52.4706 13.5394, 52.2137 13.7409, 51.9173 13.8412, 51.5808 13.8412, 51.3932 13.8412, 51.2079 13.8174, 51.0248 13.7692, 50.8422 13.7215, 50.6825 13.6473, 50.5467 13.5466, 50.4108 13.4458, 50.3083 13.3234, 50.239 13.1791, 50.2048 13.0931, 50.1877 12.9996, 50.1873 12.8984, 50.1877 12.8268, 50.1976 12.7427, 50.2169 12.6465, 50.2714 12.431, 50.3825 12.269, 50.5507 12.1611, 50.719 12.0531, 50.8867 11.9992, 51.0545 11.9987, 51.2277 11.9992, 51.3762 12.0545, 51.4994 12.1642, 51.5835 12.2461, 51.6254 12.3518, 51.6254 12.4809, 51.6254 12.5484, 51.6155 12.6159, 51.5957 12.6824, 51.5516 12.8507, 51.4711 12.9865, 51.355 13.0895, 51.239 13.193, 51.1557 13.2492, 51.1063 13.2582, 51.2003 13.3356, 51.3905 13.3716, 51.6771 13.3662, 51.9344 13.3666, 52.1665 13.2326, 52.3739 12.9636, 52.5817 12.695, 52.7324 12.3734, 52.8264 11.9987 L 53.5155 9.35011 C 53.5848 9.1009, 53.6392 8.8562, 53.6788 8.61599, 53.6887 8.53952, 53.6937 8.46754, 53.6937 8.40007, 53.6937 8.25163, 53.6716 8.11263, 53.6266 7.98263, 53.5776 7.83913, 53.5011 7.72308, 53.3972 7.63401, 53.2933 7.54539, 53.1647 7.50086, 53.0117 7.50041, 52.8138 7.50086, 52.6222 7.55259, 52.4368 7.6556, 52.2515 7.75906, 52.0824 7.89671, 51.9294 8.06945, 51.7765 8.24218, 51.6407 8.4428, 51.5219 8.67042, 51.4031 8.89848, 51.3168 9.13959, 51.2619 9.39329, 51.2079 9.52329, 51.1166 9.59032, 50.9879 9.59482 L 50.8247 9.59482 C 50.7064 9.59527, 50.647 9.53544, 50.647 9.41488 L 50.647 9.3645 C 50.7212 9.06762, 50.835 8.77838, 50.9879 8.49768, 51.1409 8.21699, 51.324 7.96868, 51.5363 7.75277, 51.7491 7.53685, 51.9866 7.36051, 52.2484 7.22377, 52.5102 7.08702, 52.7945 7.01864, 53.1003 7.01819, 53.3972 7.01864, 53.659 7.08342, 53.8862 7.21297, 54.1138 7.34252, 54.2991 7.51526, 54.4422 7.73072, 54.4719 7.7838, 54.4993 7.84048, 54.5241 7.90031, 54.5488 7.96059, 54.556 7.97588, 54.5461 7.94664, 54.6698 7.73612, 54.8601 7.52875, 55.1169 7.32453, 55.3742 7.12076, 55.668 7.01864, 55.999 7.01819, 56.1871 7.01864, 56.3733 7.04159, 56.5586 7.08702, 56.744 7.1329, 56.905 7.20577, 57.0409 7.30654, 57.1767 7.4073, 57.277 7.5319, 57.3409 7.68034, 57.3755 7.76716, 57.3926 7.86567, 57.3926 7.97543, 57.3926 8.04785, 57.3827 8.12927, 57.3629 8.22014 Z" stroke="none" fill="#000000" />
			<path d="M 1.21527 7.03705 C -3.58997 3.87038, -3.58997 -3.87038, 1.21527 -7.03705 L 1.96995 -7.03705 C -2.36361 -3.87038, -2.36361 3.87038, 1.96995 7.03705" stroke="none" fill="#000000" transform="matrix(1 0 -0 1 35.4522 9.24805)" />
			<path d="M 1.21527 7.03705 C -3.58997 3.87038, -3.58997 -3.87038, 1.21527 -7.03705 L 1.96995 -7.03705 C -2.36361 -3.87038, -2.36361 3.87038, 1.96995 7.03705" stroke="none" fill="#000000" transform="matrix(-1 1.50996e-007 -1.50996e-007 -1 60.1245 9.24805)" />
			<rect />
		</svg>
	</g>
	<g transform="matrix(1 0 -0 1 64.5365 189.75)">
		<svg width="222.027649" height="102.081261">
			<defs />
			<polyline points="-3.79186 -7.11942 3.79186 -7.11942" fill="none" stroke="#000000" stroke-width="0.589599967" stroke-linecap="round" stroke-linejoin="round" transform="matrix(1 0 0 1 8.80715 13.3737)" />
			<polyline points="-3.79186 -3.55971 3.79186 -3.55971" fill="none" stroke="#000000" stroke-width="0.589599967" stroke-linecap="round" stroke-linejoin="round" transform="matrix(1 0 0 1 8.80715 13.3737)" />
			<polyline points="-3.79186 0 3.79186 0" fill="none" stroke="#000000" stroke-width="0.589599967" stroke-linecap="round" stroke-linejoin="round" transform="matrix(1 0 0 1 8.80715 13.3737)" />
			<polyline points="3.79186 -7.11942 3.79186 0" fill="none" stroke="#000000" stroke-width="0.589599967" stroke-linecap="round" stroke-linejoin="round" transform="matrix(1 0 0 1 8.80715 13.3737)" />
			<path d="M 22.127 13.6181 C 22.0235 14.0211, 21.8602 14.4062, 21.638 14.7732, 21.4158 15.1403, 21.1535 15.4669, 20.8521 15.7521, 20.5508 16.0377, 20.2125 16.2694, 19.8369 16.4466, 19.4613 16.6243, 19.0708 16.7129, 18.6651 16.7129, 18.4231 16.7129, 18.2008 16.6688, 17.998 16.5798, 17.7956 16.4911, 17.63 16.371, 17.5014 16.2199, 17.3727 16.0688, 17.2863 15.8902, 17.2418 15.6837, 17.222 15.5928, 17.2121 15.4993, 17.2121 15.403, 17.2121 15.2784, 17.227 15.1511, 17.2567 15.0216, 17.3111 14.8056, 17.4222 14.6437, 17.5904 14.5357, 17.7587 14.4278, 17.9242 14.3738, 18.087 14.3738, 18.2602 14.3738, 18.406 14.4291, 18.5243 14.5393, 18.6084 14.6212, 18.6502 14.7265, 18.6502 14.856, 18.6502 14.9091, 18.6403 14.9739, 18.6205 15.0503, 18.5666 15.2663, 18.4555 15.4282, 18.2872 15.5362, 18.119 15.6441, 17.9858 15.6981, 17.8869 15.6981, 17.9166 15.8276, 18.0092 15.9491, 18.1649 16.0616, 18.3205 16.1745, 18.5193 16.2307, 18.7613 16.2307, 19.0285 16.2307, 19.2782 16.1587, 19.5103 16.0148, 19.7429 15.8708, 19.9556 15.6779, 20.1482 15.4354, 20.3407 15.1934, 20.5098 14.9127, 20.6556 14.5933, 20.8013 14.2744, 20.9187 13.9397, 21.0078 13.5893 L 21.0523 13.4166 C 20.9785 13.484, 20.8229 13.5718, 20.5854 13.6793, 20.3483 13.7872, 20.0888 13.8412, 19.8067 13.8412, 19.4712 13.8412, 19.1707 13.7791, 18.9062 13.6541, 18.6417 13.5299, 18.433 13.3378, 18.2796 13.0783, 18.1316 12.8003, 18.0601 12.4935, 18.0646 12.157 L 18.0646 12.0995 C 18.0744 11.7495, 18.119 11.4018, 18.1982 11.0559, 18.2773 10.7252, 18.3925 10.3609, 18.5432 9.96233, 18.6939 9.56423, 18.8383 9.17782, 18.9764 8.80312, 19.1248 8.40547, 19.199 8.07889, 19.199 7.82429, 19.199 7.60882, 19.1077 7.50086, 18.9246 7.50041, 18.7568 7.50086, 18.6048 7.54899, 18.4689 7.64481, 18.3331 7.74107, 18.2094 7.87422, 18.0983 8.04425, 17.9872 8.21474, 17.8869 8.41626, 17.7978 8.64882, 17.7087 8.88184, 17.635 9.12969, 17.5756 9.39329, 17.5212 9.52329, 17.4298 9.59032, 17.3012 9.59482 L 17.1307 9.59482 C 17.012 9.59527, 16.9526 9.53544, 16.9526 9.41488 L 16.9526 9.3645 C 17.0218 9.1009, 17.1136 8.83146, 17.227 8.55526, 17.3408 8.27952, 17.4843 8.02896, 17.657 7.80315, 17.8302 7.57778, 18.0281 7.39065, 18.2503 7.24176, 18.4725 7.09332, 18.7271 7.01864, 19.0137 7.01819, 19.2611 7.01864, 19.4721 7.07172, 19.6475 7.17698, 19.8229 7.28269, 19.9565 7.42304, 20.0478 7.59802, 20.1396 7.77346, 20.19 7.97093, 20.1999 8.19135 L 20.1999 8.24173 C 20.1999 8.44865, 20.1581 8.66187, 20.0735 8.88229, 19.9304 9.25699, 19.7887 9.6398, 19.6475 10.0307, 19.5067 10.4221, 19.3969 10.7734, 19.3178 11.0851, 19.2386 11.3973, 19.1842 11.7063, 19.1545 12.0131, 19.1347 12.095, 19.1225 12.184, 19.1176 12.2794, 19.1176 12.467, 19.15 12.6519, 19.2139 12.8336, 19.2584 12.9973, 19.3398 13.1269, 19.4586 13.2227, 19.5773 13.319, 19.7181 13.3666, 19.881 13.3662, 20.1976 13.3666, 20.4743 13.2731, 20.7113 13.0859, 20.9489 12.8988, 21.1562 12.6541, 21.3339 12.3514 L 22.5273 7.70913 C 22.5723 7.5319, 22.6623 7.40145, 22.7981 7.31733, 22.934 7.23366, 23.0711 7.19138, 23.2092 7.19093, 23.3527 7.19138, 23.4715 7.23456, 23.5655 7.32048, 23.6298 7.38346, 23.6618 7.46712, 23.6618 7.57238, 23.6618 7.62546, 23.6568 7.68079, 23.6469 7.73792 Z" stroke="none" fill="#000000" />
			<path d="M 1.21527 7.03705 C -3.58997 3.87038, -3.58997 -3.87038, 1.21527 -7.03705 L 1.96995 -7.03705 C -2.36361 -3.87038, -2.36361 3.87038, 1.96995 7.03705" stroke="none" fill="#000000" transform="matrix(1 0 -0 1 2.211 9.24805)" />
			<path d="M 1.21527 7.03705 C -3.58997 3.87038, -3.58997 -3.87038, 1.21527 -7.03705 L 1.96995 -7.03705 C -2.36361 -3.87038, -2.36361 3.87038, 1.96995 7.03705" stroke="none" fill="#000000" transform="matrix(-1 1.50996e-007 -1.50996e-007 -1 26.3871 9.24805)" />
			<polyline points="-3.79186 -7.11942 3.79186 -7.11942" fill="none" stroke="#000000" stroke-width="0.589599967" stroke-linecap="round" stroke-linejoin="round" transform="matrix(1 0 0 1 43.3013 13.3737)" />
			<polyline points="-3.79186 -3.55971 3.79186 -3.55971" fill="none" stroke="#000000" stroke-width="0.589599967" stroke-linecap="round" stroke-linejoin="round" transform="matrix(1 0 0 1 43.3013 13.3737)" />
			<polyline points="-3.79186 0 3.79186 0" fill="none" stroke="#000000" stroke-width="0.589599967" stroke-linecap="round" stroke-linejoin="round" transform="matrix(1 0 0 1 43.3013 13.3737)" />
			<polyline points="3.79186 -7.11942 3.79186 0" fill="none" stroke="#000000" stroke-width="0.589599967" stroke-linecap="round" stroke-linejoin="round" transform="matrix(1 0 0 1 43.3013 13.3737)" />
			<path d="M 58.6158 8.22014 C 58.5618 8.43651, 58.4516 8.59844, 58.2861 8.7064, 58.1206 8.81436, 57.9541 8.86834, 57.7859 8.86789, 57.6132 8.86834, 57.4697 8.81301, 57.3559 8.70235, 57.2722 8.62139, 57.2277 8.51568, 57.2223 8.38568, 57.2223 8.3335, 57.2322 8.26602, 57.2519 8.18415, 57.3064 8.00242, 57.3905 7.86432, 57.5038 7.77076, 57.6177 7.67719, 57.6968 7.62321, 57.7414 7.60837, 57.6478 7.53685, 57.4548 7.50086, 57.1629 7.50041, 56.906 7.50086, 56.6762 7.63401, 56.4737 7.90031, 56.2713 8.16661, 56.1202 8.48689, 56.0212 8.86069 L 55.3393 11.4949 C 55.27 11.7594, 55.2183 12.0113, 55.1836 12.2506, 55.1638 12.3325, 55.1539 12.4044, 55.1539 12.4665, 55.1539 12.6159, 55.1787 12.7571, 55.2282 12.8912, 55.2776 13.0356, 55.3519 13.1507, 55.4508 13.2371, 55.5498 13.3234, 55.6757 13.3666, 55.8287 13.3662, 56.0266 13.3666, 56.2169 13.3154, 56.3995 13.2119, 56.5826 13.1089, 56.7508 12.9699, 56.9038 12.7944, 57.0567 12.6195, 57.1926 12.4157, 57.3113 12.1827, 57.4301 11.9501, 57.5236 11.7113, 57.5929 11.4661, 57.6226 11.342, 57.7067 11.2794, 57.8448 11.279 L 58.0153 11.279 C 58.144 11.2794, 58.2083 11.3276, 58.2083 11.4229, 58.2083 11.4522, 58.2011 11.4787, 58.1862 11.5021, 58.117 11.7904, 58.0045 12.0747, 57.8489 12.3554, 57.6932 12.6361, 57.5119 12.8844, 57.3041 13.1003, 57.0963 13.3163, 56.8606 13.4939, 56.5961 13.6325, 56.3316 13.7719, 56.0487 13.8412, 55.7473 13.8412, 55.4409 13.8412, 55.1764 13.7755, 54.9542 13.6433, 54.732 13.5119, 54.5512 13.3401, 54.4126 13.1287, 54.3685 13.0765, 54.3339 13.0225, 54.3092 12.9672, 54.2844 12.9123, 54.2768 12.9038, 54.2867 12.9415, 54.1684 13.1386, 53.9808 13.3378, 53.7235 13.5394, 53.4666 13.7409, 53.1702 13.8412, 52.8337 13.8412, 52.6461 13.8412, 52.4608 13.8174, 52.2777 13.7692, 52.0951 13.7215, 51.9354 13.6473, 51.7996 13.5466, 51.6637 13.4458, 51.5612 13.3234, 51.4919 13.1791, 51.4577 13.0931, 51.4406 12.9996, 51.4402 12.8984, 51.4406 12.8268, 51.4505 12.7427, 51.4698 12.6465, 51.5243 12.431, 51.6354 12.269, 51.8036 12.1611, 51.9719 12.0531, 52.1396 11.9992, 52.3074 11.9987, 52.4806 11.9992, 52.6291 12.0545, 52.7523 12.1642, 52.8364 12.2461, 52.8783 12.3518, 52.8783 12.4809, 52.8783 12.5484, 52.8684 12.6159, 52.8486 12.6824, 52.8045 12.8507, 52.724 12.9865, 52.6079 13.0895, 52.4919 13.193, 52.4086 13.2492, 52.3592 13.2582, 52.4532 13.3356, 52.6434 13.3716, 52.93 13.3662, 53.1873 13.3666, 53.4194 13.2326, 53.6268 12.9636, 53.8346 12.695, 53.9853 12.3734, 54.0793 11.9987 L 54.7684 9.35011 C 54.8377 9.1009, 54.8921 8.8562, 54.9317 8.61599, 54.9416 8.53952, 54.9466 8.46754, 54.9466 8.40007, 54.9466 8.25163, 54.9245 8.11263, 54.8795 7.98263, 54.8305 7.83913, 54.754 7.72308, 54.6501 7.63401, 54.5462 7.54539, 54.4176 7.50086, 54.2646 7.50041, 54.0667 7.50086, 53.8751 7.55259, 53.6897 7.6556, 53.5044 7.75906, 53.3353 7.89671, 53.1823 8.06945, 53.0294 8.24218, 52.8936 8.4428, 52.7748 8.67042, 52.656 8.89848, 52.5697 9.13959, 52.5148 9.39329, 52.4608 9.52329, 52.3695 9.59032, 52.2408 9.59482 L 52.0776 9.59482 C 51.9593 9.59527, 51.8999 9.53544, 51.8999 9.41488 L 51.8999 9.3645 C 51.9741 9.06762, 52.0879 8.77838, 52.2408 8.49768, 52.3938 8.21699, 52.5769 7.96868, 52.7892 7.75277, 53.002 7.53685, 53.2395 7.36051, 53.5013 7.22377, 53.7631 7.08702, 54.0474 7.01864, 54.3532 7.01819, 54.6501 7.01864, 54.9119 7.08342, 55.1391 7.21297, 55.3667 7.34252, 55.552 7.51526, 55.6951 7.73072, 55.7248 7.7838, 55.7522 7.84048, 55.777 7.90031, 55.8017 7.96059, 55.8089 7.97588, 55.799 7.94664, 55.9227 7.73612, 56.113 7.52875, 56.3698 7.32453, 56.6271 7.12076, 56.9209 7.01864, 57.2519 7.01819, 57.44 7.01864, 57.6262 7.04159, 57.8115 7.08702, 57.9969 7.1329, 58.1579 7.20577, 58.2938 7.30654, 58.4296 7.4073, 58.5299 7.5319, 58.5938 7.68034, 58.6284 7.76716, 58.6455 7.86567, 58.6455 7.97543, 58.6455 8.04785, 58.6356 8.12927, 58.6158 8.22014 Z" stroke="none" fill="#000000" />
			<path d="M 1.21527 7.03705 C -3.58997 3.87038, -3.58997 -3.87038, 1.21527 -7.03705 L 1.96995 -7.03705 C -2.36361 -3.87038, -2.36361 3.87038, 1.96995 7.03705" stroke="none" fill="#000000" transform="matrix(1 0 -0 1 36.7051 9.24805)" />
			<path d="M 1.21527 7.03705 C -3.58997 3.87038, -3.58997 -3.87038, 1.21527 -7.03705 L 1.96995 -7.03705 C -2.36361 -3.87038, -2.36361 3.87038, 1.96995 7.03705" stroke="none" fill="#000000" transform="matrix(-1 1.50996e-007 -1.50996e-007 -1 61.3774 9.24805)" />
			<rect />
		</svg>
	</g>
	<g transform="matrix(1 0 -0 1 181.036 189.75)">
		<svg width="222.027649" height="102.081261">
			<defs />
			<polyline points="-3.79186 -7.11942 3.79186 -7.11942" fill="none" stroke="#000000" stroke-width="0.589599967" stroke-linecap="round" stroke-linejoin="round" transform="matrix(1 0 0 1 8.80715 13.3737)" />
			<polyline points="-3.79186 -3.55971 3.79186 -3.55971" fill="none" stroke="#000000" stroke-width="0.589599967" stroke-linecap="round" stroke-linejoin="round" transform="matrix(1 0 0 1 8.80715 13.3737)" />
			<polyline points="-3.79186 0 3.79186 0" fill="none" stroke="#000000" stroke-width="0.589599967" stroke-linecap="round" stroke-linejoin="round" transform="matrix(1 0 0 1 8.80715 13.3737)" />
			<polyline points="3.79186 -7.11942 3.79186 0" fill="none" stroke="#000000" stroke-width="0.589599967" stroke-linecap="round" stroke-linejoin="round" transform="matrix(1 0 0 1 8.80715 13.3737)" />
			<path d="M 24.1217 8.22014 C 24.0677 8.43651, 23.9575 8.59844, 23.792 8.7064, 23.6265 8.81436, 23.46 8.86834, 23.2918 8.86789, 23.1191 8.86834, 22.9756 8.81301, 22.8618 8.70235, 22.7781 8.62139, 22.7336 8.51568, 22.7282 8.38568, 22.7282 8.3335, 22.7381 8.26602, 22.7578 8.18415, 22.8123 8.00242, 22.8964 7.86432, 23.0097 7.77076, 23.1236 7.67719, 23.2027 7.62321, 23.2473 7.60837, 23.1537 7.53685, 22.9607 7.50086, 22.6688 7.50041, 22.4119 7.50086, 22.1821 7.63401, 21.9796 7.90031, 21.7772 8.16661, 21.6261 8.48689, 21.5271 8.86069 L 20.8452 11.4949 C 20.7759 11.7594, 20.7242 12.0113, 20.6895 12.2506, 20.6697 12.3325, 20.6598 12.4044, 20.6598 12.4665, 20.6598 12.6159, 20.6846 12.7571, 20.7341 12.8912, 20.7835 13.0356, 20.8578 13.1507, 20.9567 13.2371, 21.0557 13.3234, 21.1816 13.3666, 21.3346 13.3662, 21.5325 13.3666, 21.7228 13.3154, 21.9054 13.2119, 22.0885 13.1089, 22.2567 12.9699, 22.4097 12.7944, 22.5626 12.6195, 22.6985 12.4157, 22.8172 12.1827, 22.936 11.9501, 23.0295 11.7113, 23.0988 11.4661, 23.1285 11.342, 23.2126 11.2794, 23.3507 11.279 L 23.5212 11.279 C 23.6499 11.2794, 23.7142 11.3276, 23.7142 11.4229, 23.7142 11.4522, 23.707 11.4787, 23.6921 11.5021, 23.6229 11.7904, 23.5104 12.0747, 23.3548 12.3554, 23.1991 12.6361, 23.0178 12.8844, 22.81 13.1003, 22.6022 13.3163, 22.3665 13.4939, 22.102 13.6325, 21.8375 13.7719, 21.5546 13.8412, 21.2532 13.8412, 20.9468 13.8412, 20.6823 13.7755, 20.4601 13.6433, 20.2379 13.5119, 20.0571 13.3401, 19.9185 13.1287, 19.8744 13.0765, 19.8398 13.0225, 19.8151 12.9672, 19.7903 12.9123, 19.7827 12.9038, 19.7926 12.9415, 19.6743 13.1386, 19.4867 13.3378, 19.2294 13.5394, 18.9725 13.7409, 18.6761 13.8412, 18.3396 13.8412, 18.152 13.8412, 17.9667 13.8174, 17.7836 13.7692, 17.601 13.7215, 17.4413 13.6473, 17.3055 13.5466, 17.1696 13.4458, 17.0671 13.3234, 16.9978 13.1791, 16.9636 13.0931, 16.9465 12.9996, 16.9461 12.8984, 16.9465 12.8268, 16.9564 12.7427, 16.9757 12.6465, 17.0302 12.431, 17.1413 12.269, 17.3095 12.1611, 17.4777 12.0531, 17.6455 11.9992, 17.8133 11.9987, 17.9865 11.9992, 18.1349 12.0545, 18.2582 12.1642, 18.3423 12.2461, 18.3842 12.3518, 18.3842 12.4809, 18.3842 12.5484, 18.3743 12.6159, 18.3545 12.6824, 18.3104 12.8507, 18.2299 12.9865, 18.1138 13.0895, 17.9978 13.193, 17.9145 13.2492, 17.8651 13.2582, 17.9591 13.3356, 18.1493 13.3716, 18.4359 13.3662, 18.6932 13.3666, 18.9253 13.2326, 19.1327 12.9636, 19.3405 12.695, 19.4912 12.3734, 19.5852 11.9987 L 20.2743 9.35011 C 20.3436 9.1009, 20.398 8.8562, 20.4376 8.61599, 20.4475 8.53952, 20.4525 8.46754, 20.4525 8.40007, 20.4525 8.25163, 20.4304 8.11263, 20.3854 7.98263, 20.3364 7.83913, 20.2599 7.72308, 20.156 7.63401, 20.0521 7.54539, 19.9235 7.50086, 19.7705 7.50041, 19.5726 7.50086, 19.381 7.55259, 19.1956 7.6556, 19.0103 7.75906, 18.8412 7.89671, 18.6882 8.06945, 18.5353 8.24218, 18.3994 8.4428, 18.2807 8.67042, 18.1619 8.89848, 18.0756 9.13959, 18.0207 9.39329, 17.9667 9.52329, 17.8754 9.59032, 17.7467 9.59482 L 17.5835 9.59482 C 17.4652 9.59527, 17.4058 9.53544, 17.4058 9.41488 L 17.4058 9.3645 C 17.48 9.06762, 17.5938 8.77838, 17.7467 8.49768, 17.8997 8.21699, 18.0828 7.96868, 18.2951 7.75277, 18.5079 7.53685, 18.7454 7.36051, 19.0072 7.22377, 19.269 7.08702, 19.5533 7.01864, 19.8591 7.01819, 20.156 7.01864, 20.4178 7.08342, 20.645 7.21297, 20.8726 7.34252, 21.0579 7.51526, 21.201 7.73072, 21.2307 7.7838, 21.2581 7.84048, 21.2829 7.90031, 21.3076 7.96059, 21.3148 7.97588, 21.3049 7.94664, 21.4286 7.73612, 21.6189 7.52875, 21.8757 7.32453, 22.133 7.12076, 22.4268 7.01864, 22.7578 7.01819, 22.9459 7.01864, 23.1321 7.04159, 23.3174 7.08702, 23.5028 7.1329, 23.6638 7.20577, 23.7996 7.30654, 23.9355 7.4073, 24.0358 7.5319, 24.0997 7.68034, 24.1343 7.76716, 24.1514 7.86567, 24.1514 7.97543, 24.1514 8.04785, 24.1415 8.12927, 24.1217 8.22014 Z" stroke="none" fill="#000000" />
			<path d="M 1.21527 7.03705 C -3.58997 3.87038, -3.58997 -3.87038, 1.21527 -7.03705 L 1.96995 -7.03705 C -2.36361 -3.87038, -2.36361 3.87038, 1.96995 7.03705" stroke="none" fill="#000000" transform="matrix(1 0 -0 1 2.211 9.24805)" />
			<path d="M 1.21527 7.03705 C -3.58997 3.87038, -3.58997 -3.87038, 1.21527 -7.03705 L 1.96995 -7.03705 C -2.36361 -3.87038, -2.36361 3.87038, 1.96995 7.03705" stroke="none" fill="#000000" transform="matrix(-1 1.50996e-007 -1.50996e-007 -1 26.8833 9.24805)" />
			<polyline points="-3.79186 -7.11942 3.79186 -7.11942" fill="none" stroke="#000000" stroke-width="0.589599967" stroke-linecap="round" stroke-linejoin="round" transform="matrix(1 0 0 1 43.7974 13.3737)" />
			<polyline points="-3.79186 -3.55971 3.79186 -3.55971" fill="none" stroke="#000000" stroke-width="0.589599967" stroke-linecap="round" stroke-linejoin="round" transform="matrix(1 0 0 1 43.7974 13.3737)" />
			<polyline points="-3.79186 0 3.79186 0" fill="none" stroke="#000000" stroke-width="0.589599967" stroke-linecap="round" stroke-linejoin="round" transform="matrix(1 0 0 1 43.7974 13.3737)" />
			<polyline points="3.79186 -7.11942 3.79186 0" fill="none" stroke="#000000" stroke-width="0.589599967" stroke-linecap="round" stroke-linejoin="round" transform="matrix(1 0 0 1 43.7974 13.3737)" />
			<path d="M 57.1172 13.6181 C 57.0138 14.0211, 56.8505 14.4062, 56.6282 14.7732, 56.406 15.1403, 56.1438 15.4669, 55.8424 15.7521, 55.541 16.0377, 55.2027 16.2694, 54.8271 16.4466, 54.4515 16.6243, 54.0611 16.7129, 53.6553 16.7129, 53.4133 16.7129, 53.1911 16.6688, 52.9882 16.5798, 52.7858 16.4911, 52.6203 16.371, 52.4916 16.2199, 52.363 16.0688, 52.2766 15.8902, 52.2321 15.6837, 52.2123 15.5928, 52.2024 15.4993, 52.2024 15.403, 52.2024 15.2784, 52.2172 15.1511, 52.2469 15.0216, 52.3013 14.8056, 52.4124 14.6437, 52.5807 14.5357, 52.7489 14.4278, 52.9145 14.3738, 53.0773 14.3738, 53.2505 14.3738, 53.3962 14.4291, 53.5145 14.5393, 53.5986 14.6212, 53.6405 14.7265, 53.6405 14.856, 53.6405 14.9091, 53.6306 14.9739, 53.6108 15.0503, 53.5568 15.2663, 53.4457 15.4282, 53.2775 15.5362, 53.1092 15.6441, 52.9761 15.6981, 52.8771 15.6981, 52.9068 15.8276, 52.9995 15.9491, 53.1551 16.0616, 53.3108 16.1745, 53.5096 16.2307, 53.7516 16.2307, 54.0188 16.2307, 54.2684 16.1587, 54.5006 16.0148, 54.7331 15.8708, 54.9459 15.6779, 55.1384 15.4354, 55.3309 15.1934, 55.5001 14.9127, 55.6458 14.5933, 55.7916 14.2744, 55.909 13.9397, 55.998 13.5893 L 56.0426 13.4166 C 55.9688 13.484, 55.8132 13.5718, 55.5756 13.6793, 55.3386 13.7872, 55.079 13.8412, 54.797 13.8412, 54.4614 13.8412, 54.1609 13.7791, 53.8964 13.6541, 53.6319 13.5299, 53.4232 13.3378, 53.2698 13.0783, 53.1218 12.8003, 53.0503 12.4935, 53.0548 12.157 L 53.0548 12.0995 C 53.0647 11.7495, 53.1092 11.4018, 53.1884 11.0559, 53.2676 10.7252, 53.3827 10.3609, 53.5334 9.96233, 53.6841 9.56423, 53.8285 9.17782, 53.9666 8.80312, 54.1151 8.40547, 54.1893 8.07889, 54.1893 7.82429, 54.1893 7.60882, 54.098 7.50086, 53.9149 7.50041, 53.7471 7.50086, 53.5951 7.54899, 53.4592 7.64481, 53.3234 7.74107, 53.1996 7.87422, 53.0885 8.04425, 52.9774 8.21474, 52.8771 8.41626, 52.7881 8.64882, 52.699 8.88184, 52.6252 9.12969, 52.5658 9.39329, 52.5114 9.52329, 52.4201 9.59032, 52.2914 9.59482 L 52.121 9.59482 C 52.0022 9.59527, 51.9428 9.53544, 51.9428 9.41488 L 51.9428 9.3645 C 52.0121 9.1009, 52.1039 8.83146, 52.2172 8.55526, 52.331 8.27952, 52.4745 8.02896, 52.6473 7.80315, 52.8204 7.57778, 53.0184 7.39065, 53.2406 7.24176, 53.4628 7.09332, 53.7174 7.01864, 54.0039 7.01819, 54.2514 7.01864, 54.4623 7.07172, 54.6378 7.17698, 54.8132 7.28269, 54.9468 7.42304, 55.0381 7.59802, 55.1299 7.77346, 55.1802 7.97093, 55.1901 8.19135 L 55.1901 8.24173 C 55.1901 8.44865, 55.1483 8.66187, 55.0637 8.88229, 54.9207 9.25699, 54.779 9.6398, 54.6378 10.0307, 54.497 10.4221, 54.3872 10.7734, 54.308 11.0851, 54.2289 11.3973, 54.1744 11.7063, 54.1447 12.0131, 54.125 12.095, 54.1128 12.184, 54.1079 12.2794, 54.1079 12.467, 54.1402 12.6519, 54.2041 12.8336, 54.2487 12.9973, 54.3301 13.1269, 54.4488 13.2227, 54.5676 13.319, 54.7084 13.3666, 54.8712 13.3662, 55.1879 13.3666, 55.4645 13.2731, 55.7016 13.0859, 55.9391 12.8988, 56.1465 12.6541, 56.3242 12.3514 L 57.5176 7.70913 C 57.5625 7.5319, 57.6525 7.40145, 57.7884 7.31733, 57.9242 7.23366, 58.0614 7.19138, 58.1995 7.19093, 58.343 7.19138, 58.4618 7.23456, 58.5558 7.32048, 58.6201 7.38346, 58.652 7.46712, 58.652 7.57238, 58.652 7.62546, 58.6471 7.68079, 58.6372 7.73792 Z" stroke="none" fill="#000000" />
			<path d="M 1.21527 7.03705 C -3.58997 3.87038, -3.58997 -3.87038, 1.21527 -7.03705 L 1.96995 -7.03705 C -2.36361 -3.87038, -2.36361 3.87038, 1.96995 7.03705" stroke="none" fill="#000000" transform="matrix(1 0 -0 1 37.2013 9.24805)" />
			<path d="M 1.21527 7.03705 C -3.58997 3.87038, -3.58997 -3.87038, 1.21527 -7.03705 L 1.96995 -7.03705 C -2.36361 -3.87038, -2.36361 3.87038, 1.96995 7.03705" stroke="none" fill="#000000" transform="matrix(-1 1.50996e-007 -1.50996e-007 -1 61.3774 9.24805)" />
			<rect />
		</svg>
	</g>
</svg>
